<svg width="24" height="24" viewBox="0 0 24 24" fill="none" xmlns="http://www.w3.org/2000/svg">
<g clip-path="url(#clip0_307_12939)">
<path d="M1.99349 1.25692V9.2167V9.18528V21.3677V1.25692ZM2.75886 22.6246C2.18644 22.6246 1.70852 22.4308 1.32511 22.0433C0.941705 21.6557 0.75 21.1727 0.75 20.5941V2.03056C0.75 1.45196 0.941705 0.968878 1.32511 0.581327C1.70852 0.193776 2.18644 0 2.75886 0H11.7285C12.0035 0 12.2655 0.0547803 12.5146 0.164342C12.7638 0.273904 12.9784 0.419708 13.1585 0.601753L17.5635 5.0544C17.7436 5.23644 17.8879 5.45337 17.9963 5.70517C18.1047 5.95698 18.1588 6.22187 18.1588 6.49986V9.02314C18.1588 9.20371 18.0992 9.35245 17.9798 9.46934C17.8604 9.58603 17.7125 9.64437 17.5362 9.64437C17.3598 9.64437 17.2122 9.58414 17.0935 9.46369C16.9747 9.34323 16.9154 9.19397 16.9154 9.01591V6.28461H12.9359C12.6538 6.28461 12.4176 6.18825 12.2271 5.99552C12.0366 5.80279 11.9414 5.56398 11.9414 5.27908V1.25692H2.75886C2.56736 1.25692 2.39192 1.33747 2.23255 1.49857C2.07318 1.65966 1.99349 1.83699 1.99349 2.03056V20.5941C1.99349 20.7876 2.07318 20.965 2.23255 21.126C2.39192 21.2871 2.56736 21.3677 2.75886 21.3677H9.2393C9.41546 21.3677 9.56312 21.428 9.68229 21.5487C9.80146 21.6694 9.86104 21.8188 9.86104 21.9971C9.86104 22.1754 9.80146 22.3245 9.68229 22.4446C9.56312 22.5646 9.41546 22.6246 9.2393 22.6246H2.75886ZM16.2983 20.4976C17.2771 20.4976 18.103 20.1559 18.7759 19.4726C19.4487 18.7894 19.785 17.9532 19.785 16.9637C19.785 15.9743 19.447 15.1395 18.771 14.4593C18.0951 13.7793 17.2678 13.4393 16.2889 13.4393C15.3101 13.4393 14.4842 13.781 13.8113 14.4644C13.1386 15.1475 12.8022 15.9838 12.8022 16.9732C12.8022 17.9626 13.1402 18.7974 13.8163 19.4776C14.4921 20.1576 15.3194 20.4976 16.2983 20.4976ZM23.0772 23.8234C22.9619 23.9411 22.8152 24 22.637 24C22.4589 24 22.3118 23.9411 22.1955 23.8234L19.1822 20.7537C18.7789 21.0792 18.3314 21.3274 17.8396 21.4981C17.3478 21.669 16.8325 21.7545 16.2936 21.7545C14.9784 21.7545 13.8605 21.2891 12.9399 20.3584C12.0191 19.4278 11.5587 18.2979 11.5587 16.9685C11.5587 15.6391 12.0191 14.5091 12.9399 13.5785C13.8605 12.6478 14.9784 12.1824 16.2936 12.1824C17.6088 12.1824 18.7267 12.6478 19.6473 13.5785C20.5681 14.5091 21.0285 15.6391 21.0285 16.9685C21.0285 17.5131 20.944 18.034 20.7748 18.5311C20.6059 19.0282 20.3604 19.4806 20.0384 19.8883L23.0753 22.9341C23.1918 23.0502 23.25 23.1981 23.25 23.3778C23.25 23.5574 23.1924 23.7059 23.0772 23.8234Z" fill="#8C34C7"/>
</g>
<defs>
<clipPath id="clip0_307_12939">
<rect width="24" height="24" fill="white"/>
</clipPath>
</defs>
</svg>
