<svg width="24" height="24" viewBox="0 0 24 24" fill="none" xmlns="http://www.w3.org/2000/svg">
<path d="M12 1C5.93442 1 1 5.93442 1 12C1 18.0656 5.93442 23 12 23C18.0656 23 23 18.0656 23 12C23 5.93442 18.0656 1 12 1ZM12 22.0833C6.44042 22.0833 1.91667 17.5596 1.91667 12C1.91667 6.44042 6.44042 1.91667 12 1.91667C17.5596 1.91667 22.0833 6.44042 22.0833 12C22.0833 17.5596 17.5596 22.0833 12 22.0833ZM12.9167 11.5417V17.9583C12.9167 18.2113 12.7113 18.4167 12.4583 18.4167C12.2053 18.4167 12 18.2113 12 17.9583V11.5417C12 10.7836 11.3831 10.1667 10.625 10.1667C10.372 10.1667 10.1667 9.96133 10.1667 9.70833C10.1667 9.45533 10.372 9.25 10.625 9.25C11.8882 9.25 12.9167 10.2785 12.9167 11.5417ZM12.9167 6.5C12.9167 7.006 12.506 7.41667 12 7.41667C11.494 7.41667 11.0833 7.006 11.0833 6.5C11.0833 5.994 11.494 5.58333 12 5.58333C12.506 5.58333 12.9167 5.994 12.9167 6.5Z" fill="#8C34C7"/>
</svg>
