<svg width="200" height="62" viewBox="0 0 200 62" fill="none" xmlns="http://www.w3.org/2000/svg">
<path d="M13.3958 43.0476C15.144 43.0476 16.5611 41.6198 16.5611 39.8587C16.5611 38.0975 15.144 36.6699 13.3958 36.6699C11.6476 36.6699 10.2305 38.0975 10.2305 39.8587C10.2305 41.6198 11.6476 43.0476 13.3958 43.0476Z" fill="#A8A9AD"/>
<path d="M32.3511 33.4829C34.3249 31.4944 34.3249 28.2703 32.3511 26.2817C30.3772 24.2932 27.1768 24.2932 25.203 26.2817C23.2291 28.2703 23.2291 31.4944 25.203 33.4829C27.1768 35.4715 30.3772 35.4715 32.3511 33.4829Z" fill="#A8A9AD"/>
<path d="M46.502 21.9944C49.835 21.4494 52.0984 18.2855 51.5573 14.9278C51.0163 11.57 47.8758 9.28985 44.5428 9.83489C41.2098 10.3799 38.9464 13.5438 39.4874 16.9016C40.0284 20.2593 43.169 22.5395 46.502 21.9944Z" fill="#A8A9AD"/>
<path d="M14.2357 44.8923H12.5727C11.8427 44.8923 11.1426 45.1845 10.6265 45.7045C10.1103 46.2245 9.82031 46.9298 9.82031 47.6652V53.6043C11.9554 55.6275 14.3658 57.3338 16.9788 58.6718V47.6614C16.9783 46.9281 16.6893 46.2249 16.1752 45.7059C15.661 45.1869 14.9636 44.8943 14.2357 44.8923Z" fill="#A8A9AD"/>
<path d="M30.425 37.1765H27.1288C26.0978 37.177 25.1093 37.59 24.3804 38.3245C23.6516 39.0591 23.2422 40.0552 23.2422 41.0939V61.0477C26.8578 61.9704 30.6094 62.2255 34.3153 61.8007V41.0939C34.3153 40.5793 34.2147 40.0697 34.0191 39.5943C33.8236 39.1189 33.537 38.687 33.1757 38.3232C32.8145 37.9594 32.3856 37.6709 31.9136 37.4742C31.4416 37.2774 30.9358 37.1763 30.425 37.1765Z" fill="#A8A9AD"/>
<path d="M47.3291 24.9424H43.7022C42.4836 24.9424 41.3149 25.4301 40.4532 26.2982C39.5915 27.1662 39.1074 28.3436 39.1074 29.5713V60.8631C43.9068 59.5097 48.3061 56.9975 51.9239 53.5442V29.5713C51.9239 28.3436 51.4398 27.1662 50.5781 26.2982C49.7164 25.4301 48.5477 24.9424 47.3291 24.9424Z" fill="#A8A9AD"/>
<path d="M30.8274 4.09966e-05C24.0111 -0.0111371 17.385 2.26384 11.9941 6.46622C23.9829 10.2142 33.9834 20.0819 33.9834 20.0819C32.7221 18.3155 32.0282 16.2022 31.9951 14.0264C31.9621 11.8507 32.5914 9.71698 33.7984 7.91246C35.0055 6.10795 36.7323 4.71926 38.7464 3.93331C40.7605 3.14736 42.9653 3.00187 45.064 3.51644C40.67 1.20316 35.7852 -0.00337249 30.8274 4.09966e-05Z" fill="#29AA6B"/>
<path d="M3.77255 16.1514C1.39283 20.5453 0.100632 25.4529 0.00564489 30.4574C-0.0893425 35.462 1.01568 40.4157 3.22692 44.8981C3.11868 44.2873 3.06428 43.6681 3.06436 43.0477C3.06413 41.1221 3.59456 39.2342 4.59656 37.5944C5.59855 35.9545 7.03277 34.6271 8.73945 33.7601C10.4461 32.893 12.3582 32.5202 14.2628 32.6833C16.1673 32.8465 17.9896 33.5391 19.5264 34.684C11.6018 28.5642 6.22971 21.6933 3.77255 16.1514Z" fill="#29AA6B"/>
<path d="M19.8041 34.893C19.7163 34.8215 19.6173 34.7518 19.5332 34.6841L19.8041 34.893Z" fill="white"/>
<path d="M3.77344 16.1512C6.22313 21.6931 11.5953 28.5641 19.5273 34.6839C19.6189 34.7516 19.7142 34.8213 19.7983 34.8928C18.2822 32.9167 17.5227 30.457 17.6584 27.9632C17.7942 25.4694 18.8161 23.1081 20.5376 21.3109C22.259 19.5136 24.5649 18.4004 27.0339 18.1748C29.5029 17.9491 31.97 18.626 33.9844 20.0818C33.9844 20.0818 23.9838 10.214 11.9951 6.46606C8.62268 9.09059 5.82381 12.3877 3.77344 16.1512Z" fill="#25A05F"/>
<path fill-rule="evenodd" clip-rule="evenodd" d="M60.3281 13.1526V27.6756H68.6769V24.8727H64.2017V13.1621L60.3281 13.1526Z" fill="#123F50"/>
<path fill-rule="evenodd" clip-rule="evenodd" d="M99.9342 19.3082H96.5988L93.9492 27.7284H107.517L102.948 13.1865H99.34L102.718 24.323H98.7906L99.9342 19.3082Z" fill="#123F50"/>
<path fill-rule="evenodd" clip-rule="evenodd" d="M75.8152 19.3082H72.4817L69.832 27.7284H83.3978L78.8311 13.1865H75.2229L78.6032 24.323H74.6735L75.8152 19.3082Z" fill="#123F50"/>
<path fill-rule="evenodd" clip-rule="evenodd" d="M84.2961 27.7283H91.4826C91.4826 27.7283 94.2537 27.0846 94.2537 24.1084C94.2537 24.1084 94.6498 22.145 92.3366 20.6428C92.3366 20.6428 94.2537 19.967 94.2537 16.6897C94.2537 16.6897 94.3752 14.1748 91.4826 13.1921H84.2961V16.6295H89.1992C89.1992 16.6295 90.3559 16.6897 90.3559 17.9792C90.3559 17.9792 90.4792 19.3289 89.6253 19.3289H84.2363V22.1808H89.5954C89.5954 22.1808 90.3559 22.305 90.3559 23.3479C90.3559 23.3479 90.4773 24.6054 89.6869 24.6054H84.2961V27.7283Z" fill="#123F50"/>
<path fill-rule="evenodd" clip-rule="evenodd" d="M118.206 24.2233V18.5252H113.684V27.7755H121.266C121.266 27.7755 126.244 26.6856 126.244 19.9521C126.244 19.9521 126.431 14.6135 120.534 13.2336H113.728V16.4545H118.798C118.798 16.4545 122.27 16.3171 122.27 20.5507C122.27 20.5507 122.589 24.4116 118.206 24.2233Z" fill="#123F50"/>
<path d="M111.854 18.7869H108.109V27.6399H111.854V18.7869Z" fill="#123F50"/>
<path d="M111.854 13.2185H108.109V16.6389H111.854V13.2185Z" fill="#123F50"/>
<path d="M63.2079 31V49.5044H59.8594V31H63.2079Z" fill="#123F50"/>
<path d="M68.002 49.4912V31H71.3355L76.9206 44.2486L76.5918 44.6684V31H79.673V49.4912H76.3003L70.7674 36.7019L71.0701 36.2821V49.4912H68.002Z" fill="#123F50"/>
<path d="M89.775 49.6945C88.8486 49.7123 87.9271 49.5553 87.0581 49.2315C86.306 48.9435 85.6387 48.4681 85.1185 47.8497C84.5869 47.1912 84.2129 46.4183 84.0254 45.5908L87.0954 44.2147C87.2817 44.8796 87.6658 45.4709 88.196 45.9089C88.7046 46.2938 89.3279 46.4929 89.9637 46.4737C90.7111 46.4737 91.2798 46.3124 91.6697 45.9899C91.8662 45.8271 92.0221 45.6202 92.1249 45.3859C92.2278 45.1515 92.2747 44.8961 92.262 44.6402V43.8138C92.2731 43.6126 92.2435 43.4114 92.1751 43.2221C92.1067 43.0328 92.0009 42.8594 91.864 42.7126C91.5636 42.4232 91.2066 42.2 90.8158 42.0575C90.3823 41.8881 89.9089 41.7268 89.3956 41.5737C88.8214 41.3955 88.2465 41.2003 87.671 40.9883C87.1023 40.7803 86.5662 40.4912 86.0789 40.1299C85.5809 39.7516 85.1804 39.2584 84.9111 38.6917C84.6159 38.093 84.4682 37.3231 84.4682 36.3819V35.8944C84.4682 34.283 84.9591 33.0337 85.9407 32.1464C86.9223 31.2592 88.3181 30.8143 90.1281 30.8118C91.4984 30.8118 92.6245 31.1406 93.5065 31.7982C94.3885 32.4558 94.9926 33.4415 95.319 34.7555L92.4022 36.1692C92.1667 35.4388 91.8404 34.8954 91.423 34.539C91.0069 34.1817 90.4748 33.9914 89.9282 34.0044C89.2294 34.0044 88.6906 34.1531 88.3119 34.4505C88.1273 34.5962 87.98 34.7844 87.8825 34.9993C87.7849 35.2141 87.74 35.4494 87.7513 35.6854V36.3085C87.7379 36.533 87.7703 36.7579 87.8465 36.9693C87.9226 37.1807 88.041 37.3741 88.1942 37.5377C88.5279 37.854 88.9266 38.0924 89.362 38.2361C89.846 38.4112 90.3617 38.5863 90.9092 38.7651C91.4567 38.9439 92.0303 39.1416 92.5703 39.3637C93.1091 39.5715 93.6132 39.861 94.0652 40.2221C94.5293 40.6008 94.9007 41.0819 95.1508 41.6283C95.4467 42.3138 95.5871 43.0573 95.5619 43.8044V44.6063C95.5619 46.2101 95.0568 47.4594 94.0465 48.3542C93.0362 49.249 91.6124 49.6958 89.775 49.6945Z" fill="#123F50"/>
<path d="M104.951 49.6945C103.199 49.6945 101.84 49.1926 100.872 48.1886C99.9038 47.1846 99.4192 45.7634 99.418 43.9249V31H102.716V44.0058C102.716 44.7588 102.91 45.3467 103.297 45.7696C103.685 46.1926 104.236 46.4021 104.951 46.3984C105.666 46.3984 106.222 46.1888 106.619 45.7696C107.017 45.3505 107.215 44.7625 107.214 44.0058V31H110.51V43.9173C110.51 45.7508 110.021 47.1721 109.045 48.181C108.068 49.19 106.704 49.6945 104.951 49.6945Z" fill="#123F50"/>
<path d="M115.078 49.5044V30.9868H118.337V49.5044H115.078ZM116.468 41.8692V38.6691H121.306C121.515 38.6786 121.723 38.6425 121.917 38.5632C122.11 38.4839 122.284 38.3634 122.427 38.2098C122.715 37.8657 122.862 37.4242 122.838 36.9749V35.932C122.862 35.4695 122.716 35.0144 122.427 34.6538C122.287 34.4951 122.114 34.3699 121.92 34.2872C121.726 34.2045 121.516 34.1664 121.306 34.1757H116.468V30.9755H121.343C122.25 30.9518 123.148 31.1528 123.959 31.561C124.678 31.9381 125.268 32.5236 125.652 33.242C126.065 34.0428 126.269 34.936 126.245 35.8379V36.9184C126.269 37.8338 126.062 38.7404 125.645 39.5538C125.259 40.2775 124.67 40.8707 123.952 41.2593C123.144 41.6782 122.244 41.8841 121.336 41.8579L116.468 41.8692ZM123.126 49.5044L119.677 41.2951L122.962 40.7096L126.886 49.5044H123.126Z" fill="#123F50"/>
<path d="M131.24 49.5044V31H134.525V49.5044H131.24ZM132.548 34.219V31H141.456V34.219H132.548ZM132.548 41.9069V38.7067H140.445V41.9069H132.548ZM132.548 49.5044V46.2835H141.456V49.5044H132.548Z" fill="#123F50"/>
<path d="M159.336 49.5044V31H162.621V49.5044H159.336ZM160.644 34.219V31H169.549V34.219H160.644ZM160.644 41.9069V38.7067H168.539V41.9069H160.644ZM160.644 49.5044V46.2835H169.549V49.5044H160.644Z" fill="#03A765"/>
<path d="M179.177 49.6946C178.139 49.726 177.111 49.4922 176.187 49.015C175.368 48.5678 174.706 47.8761 174.292 47.0347C173.855 46.17 173.636 45.1221 173.635 43.891V36.6248C173.635 35.3861 173.854 34.3345 174.292 33.4698C174.706 32.6284 175.368 31.9367 176.187 31.4895C177.111 31.0123 178.139 30.7785 179.177 30.8099C180.32 30.8099 181.287 31.0364 182.075 31.4895C182.888 31.9721 183.528 32.7034 183.901 33.5771C184.33 34.5146 184.587 35.6917 184.671 37.1086H181.287C181.258 36.5413 181.144 35.9816 180.95 35.4483C180.816 35.062 180.572 34.7238 180.249 34.475C179.935 34.2566 179.559 34.1451 179.177 34.1569C178.884 34.1415 178.591 34.1909 178.32 34.3018C178.048 34.4128 177.803 34.5824 177.604 34.7988C177.221 35.228 177.029 35.8367 177.028 36.6248V43.891C177.028 44.6728 177.22 45.2777 177.604 45.7057C177.804 45.9217 178.048 46.0911 178.32 46.2019C178.592 46.3128 178.884 46.3625 179.177 46.3476C179.463 46.3602 179.747 46.3004 180.004 46.1738C180.261 46.0472 180.482 45.8578 180.647 45.6229C180.998 45.1384 181.211 44.3961 181.287 43.3959H184.671C184.58 44.814 184.319 45.9912 183.888 46.9274C183.516 47.7994 182.879 48.5303 182.069 49.015C181.287 49.468 180.323 49.6946 179.177 49.6946Z" fill="#03A765"/>
<path d="M188.883 49.5044V31H192.168V49.5044H188.883ZM190.424 41.9313V38.7877H198.85V41.9313H190.424ZM196.716 49.5044V31H199.999V49.5044H196.716Z" fill="#03A765"/>
<path d="M151.661 32.5398H148.363V34.1945H151.661V32.5398Z" fill="#03A765"/>
<path d="M151.661 34.1946H148.363V49.5045H151.661V34.1946Z" fill="#03A765"/>
<path d="M144.359 31V34.1945H148.364V32.5398H151.662V34.1945H154.306V31H144.359Z" fill="#03A765"/>
<path d="M157.507 27.7754H154.307V30.9698H157.507V27.7754Z" fill="#03A765"/>
</svg>
