<svg width="24" height="24" viewBox="0 0 24 24" fill="none" xmlns="http://www.w3.org/2000/svg">
<g clip-path="url(#clip0_1413_1606)">
<path d="M19.5 4H17.949C17.697 1.756 15.81 0 13.5 0H10.5C8.19 0 6.303 1.756 6.051 4H4.5C2.019 4 0 6.019 0 8.5V19.5C0 21.981 2.019 24 4.5 24H19.5C21.981 24 24 21.981 24 19.5V8.5C24 6.019 21.981 4 19.5 4ZM10.5 1H13.5C15.258 1 16.704 2.308 16.949 4H7.051C7.296 2.308 8.742 1 10.5 1ZM4.5 5H19.5C21.43 5 23 6.57 23 8.5V12H1V8.5C1 6.57 2.57 5 4.5 5ZM19.5 23H4.5C2.57 23 1 21.43 1 19.5V13H11.5V14.5C11.5 14.776 11.724 15 12 15C12.276 15 12.5 14.776 12.5 14.5V13H23V19.5C23 21.43 21.43 23 19.5 23Z" fill="#8C34C7"/>
</g>
<defs>
<clipPath id="clip0_1413_1606">
<rect width="24" height="24" fill="white"/>
</clipPath>
</defs>
</svg>
