<svg width="200" height="62" viewBox="0 0 200 62" fill="none" xmlns="http://www.w3.org/2000/svg">
<path d="M13.3958 43.0476C15.144 43.0476 16.5611 41.6198 16.5611 39.8587C16.5611 38.0975 15.144 36.6699 13.3958 36.6699C11.6476 36.6699 10.2305 38.0975 10.2305 39.8587C10.2305 41.6198 11.6476 43.0476 13.3958 43.0476Z" fill="#A8A9AD"/>
<path d="M32.3501 33.4829C34.324 31.4944 34.324 28.2703 32.3501 26.2817C30.3762 24.2932 27.1759 24.2932 25.202 26.2817C23.2281 28.2703 23.2281 31.4944 25.202 33.4829C27.1759 35.4715 30.3762 35.4715 32.3501 33.4829Z" fill="#A8A9AD"/>
<path d="M46.5015 21.9946C49.8345 21.4495 52.0979 18.2857 51.5569 14.9279C51.0158 11.5701 47.8753 9.28997 44.5423 9.83501C41.2093 10.3801 38.9459 13.5439 39.4869 16.9017C40.028 20.2594 43.1685 22.5396 46.5015 21.9946Z" fill="#A8A9AD"/>
<path d="M14.2367 44.8923H12.5737C11.8437 44.8923 11.1436 45.1845 10.6275 45.7045C10.1113 46.2245 9.82129 46.9298 9.82129 47.6652V53.6043C11.9563 55.6275 14.3667 57.3338 16.9798 58.6718V47.6614C16.9793 46.9281 16.6903 46.2249 16.1761 45.7059C15.662 45.1869 14.9646 44.8943 14.2367 44.8923Z" fill="#A8A9AD"/>
<path d="M30.4259 37.1764H27.1298C26.0988 37.1769 25.1102 37.5898 24.3814 38.3244C23.6526 39.059 23.2432 40.0551 23.2432 41.0937V61.0476C26.8588 61.9702 30.6104 62.2254 34.3163 61.8006V41.0937C34.3163 40.5791 34.2156 40.0696 34.0201 39.5942C33.8246 39.1188 33.538 38.6869 33.1767 38.3231C32.8154 37.9593 32.3865 37.6708 31.9146 37.474C31.4426 37.2773 30.9367 37.1761 30.4259 37.1764Z" fill="#A8A9AD"/>
<path d="M47.3286 24.9424H43.7017C42.4831 24.9424 41.3144 25.4301 40.4527 26.2982C39.591 27.1662 39.1069 28.3436 39.1069 29.5713V60.8631C43.9063 59.5097 48.3056 56.9975 51.9234 53.5442V29.5713C51.9234 28.3436 51.4393 27.1662 50.5776 26.2982C49.7159 25.4301 48.5472 24.9424 47.3286 24.9424Z" fill="#A8A9AD"/>
<path d="M30.8274 4.09966e-05C24.0111 -0.0111371 17.385 2.26384 11.9941 6.46622C23.9829 10.2142 33.9834 20.0819 33.9834 20.0819C32.7221 18.3155 32.0282 16.2022 31.9951 14.0264C31.9621 11.8507 32.5914 9.71698 33.7984 7.91246C35.0055 6.10795 36.7323 4.71926 38.7464 3.93331C40.7605 3.14736 42.9653 3.00187 45.064 3.51644C40.67 1.20316 35.7852 -0.00337249 30.8274 4.09966e-05Z" fill="#29AA6B"/>
<path d="M3.77255 16.1512C1.39283 20.5452 0.100632 25.4528 0.00564489 30.4573C-0.0893425 35.4619 1.01568 40.4156 3.22692 44.898C3.11868 44.2872 3.06428 43.668 3.06436 43.0476C3.06413 41.122 3.59456 39.2341 4.59656 37.5942C5.59855 35.9544 7.03277 34.627 8.73945 33.7599C10.4461 32.8928 12.3582 32.5201 14.2628 32.6832C16.1673 32.8464 17.9896 33.539 19.5264 34.6839C11.6018 28.5641 6.22971 21.6932 3.77255 16.1512Z" fill="#29AA6B"/>
<path d="M19.8046 34.893C19.7168 34.8215 19.6178 34.7518 19.5337 34.6841L19.8046 34.893Z" fill="white"/>
<path d="M3.77246 16.1514C6.22215 21.6933 11.5943 28.5642 19.5263 34.684C19.6179 34.7518 19.7132 34.8214 19.7973 34.8929C18.2813 32.9168 17.5217 30.4571 17.6574 27.9633C17.7932 25.4696 18.8152 23.1083 20.5366 21.311C22.258 19.5138 24.5639 18.4006 27.0329 18.1749C29.5019 17.9492 31.969 18.6261 33.9834 20.0819C33.9834 20.0819 23.9829 10.2141 11.9941 6.46619C8.6217 9.09071 5.82283 12.3878 3.77246 16.1514Z" fill="#25A05F"/>
<path fill-rule="evenodd" clip-rule="evenodd" d="M60.3281 13.1526V27.6756H68.6769V24.8727H64.2017V13.1621L60.3281 13.1526Z" fill="#123F50"/>
<path fill-rule="evenodd" clip-rule="evenodd" d="M99.9347 19.3082H96.5993L93.9497 27.7284H107.517L102.949 13.1865H99.3405L102.719 24.323H98.7911L99.9347 19.3082Z" fill="#123F50"/>
<path fill-rule="evenodd" clip-rule="evenodd" d="M75.8152 19.3082H72.4817L69.832 27.7284H83.3978L78.8311 13.1865H75.2229L78.6032 24.323H74.6735L75.8152 19.3082Z" fill="#123F50"/>
<path fill-rule="evenodd" clip-rule="evenodd" d="M84.2966 27.7283H91.4831C91.4831 27.7283 94.2542 27.0846 94.2542 24.1084C94.2542 24.1084 94.6503 22.145 92.337 20.6428C92.337 20.6428 94.2542 19.967 94.2542 16.6897C94.2542 16.6897 94.3757 14.1748 91.4831 13.1921H84.2966V16.6295H89.1997C89.1997 16.6295 90.3564 16.6897 90.3564 17.9792C90.3564 17.9792 90.4797 19.3289 89.6258 19.3289H84.2368V22.1808H89.5959C89.5959 22.1808 90.3564 22.305 90.3564 23.3479C90.3564 23.3479 90.4778 24.6054 89.6874 24.6054H84.2966V27.7283Z" fill="#123F50"/>
<path fill-rule="evenodd" clip-rule="evenodd" d="M118.206 24.2232V18.5251H113.684V27.7754H121.266C121.266 27.7754 126.244 26.6854 126.244 19.952C126.244 19.952 126.431 14.6134 120.534 13.2335H113.728V16.4544H118.798C118.798 16.4544 122.27 16.317 122.27 20.5506C122.27 20.5506 122.589 24.4115 118.206 24.2232Z" fill="#123F50"/>
<path d="M111.854 18.7869H108.109V27.6399H111.854V18.7869Z" fill="#123F50"/>
<path d="M111.854 13.2185H108.109V16.6389H111.854V13.2185Z" fill="#123F50"/>
<path d="M63.2079 31V49.5044H59.8594V31H63.2079Z" fill="#123F50"/>
<path d="M68.0024 49.4912V31H71.336L76.9211 44.2486L76.5922 44.6684V31H79.6735V49.4912H76.3007L70.7679 36.7019L71.0706 36.2821V49.4912H68.0024Z" fill="#123F50"/>
<path d="M89.775 49.6944C88.8486 49.7122 87.9271 49.5551 87.0581 49.2313C86.306 48.9434 85.6387 48.468 85.1185 47.8496C84.5869 47.1911 84.2129 46.4182 84.0254 45.5907L87.0954 44.2146C87.2817 44.8795 87.6658 45.4708 88.196 45.9088C88.7046 46.2937 89.3279 46.4928 89.9637 46.4735C90.7111 46.4735 91.2798 46.3123 91.6697 45.9898C91.8662 45.827 92.0221 45.6201 92.1249 45.3857C92.2278 45.1514 92.2747 44.896 92.262 44.6401V43.8137C92.2731 43.6125 92.2435 43.4112 92.1751 43.2219C92.1067 43.0327 92.0009 42.8593 91.864 42.7124C91.5636 42.423 91.2066 42.1999 90.8158 42.0573C90.3823 41.8879 89.9089 41.7267 89.3956 41.5736C88.8214 41.3954 88.2465 41.2002 87.671 40.9881C87.1023 40.7801 86.5662 40.491 86.0789 40.1297C85.5809 39.7515 85.1804 39.2583 84.9111 38.6915C84.6159 38.0929 84.4682 37.323 84.4682 36.3818V35.8942C84.4682 34.2829 84.9591 33.0336 85.9407 32.1463C86.9223 31.259 88.3181 30.8142 90.1281 30.8116C91.4984 30.8116 92.6245 31.1404 93.5065 31.798C94.3885 32.4556 94.9926 33.4414 95.319 34.7554L92.4022 36.1691C92.1667 35.4387 91.8404 34.8953 91.423 34.5389C91.0069 34.1816 90.4748 33.9913 89.9282 34.0043C89.2294 34.0043 88.6906 34.153 88.3119 34.4504C88.1273 34.5961 87.98 34.7843 87.8825 34.9991C87.7849 35.214 87.74 35.4493 87.7513 35.6853V36.3084C87.7379 36.5329 87.7703 36.7578 87.8465 36.9692C87.9226 37.1806 88.041 37.374 88.1942 37.5376C88.5279 37.8539 88.9266 38.0923 89.362 38.236C89.846 38.4111 90.3617 38.5861 90.9092 38.765C91.4567 38.9438 92.0303 39.1415 92.5703 39.3636C93.1091 39.5714 93.6132 39.8608 94.0652 40.222C94.5293 40.6007 94.9007 41.0818 95.1508 41.6281C95.4467 42.3137 95.5871 43.0571 95.5619 43.8043V44.6062C95.5619 46.21 95.0568 47.4593 94.0465 48.3541C93.0362 49.2489 91.6124 49.6957 89.775 49.6944Z" fill="#123F50"/>
<path d="M104.952 49.6945C103.2 49.6945 101.841 49.1926 100.873 48.1886C99.9048 47.1846 99.4202 45.7634 99.4189 43.9249V31H102.717V44.0058C102.717 44.7588 102.911 45.3467 103.298 45.7696C103.686 46.1926 104.237 46.4021 104.952 46.3984C105.667 46.3984 106.223 46.1888 106.62 45.7696C107.018 45.3505 107.216 44.7625 107.215 44.0058V31H110.511V43.9173C110.511 45.7508 110.022 47.1721 109.046 48.181C108.069 49.19 106.704 49.6945 104.952 49.6945Z" fill="#123F50"/>
<path d="M115.077 49.5043V30.9867H118.336V49.5043H115.077ZM116.467 41.8691V38.6689H121.305C121.514 38.6785 121.722 38.6424 121.916 38.5631C122.109 38.4838 122.283 38.3632 122.426 38.2096C122.714 37.8656 122.861 37.424 122.837 36.9747V35.9319C122.861 35.4694 122.715 35.0143 122.426 34.6537C122.286 34.495 122.113 34.3698 121.919 34.2871C121.725 34.2044 121.515 34.1663 121.305 34.1755H116.467V30.9754H121.342C122.249 30.9516 123.147 31.1527 123.958 31.5608C124.677 31.9379 125.267 32.5235 125.651 33.2419C126.064 34.0426 126.268 34.9359 126.244 35.8377V36.9183C126.268 37.8337 126.061 38.7403 125.644 39.5537C125.258 40.2774 124.669 40.8706 123.951 41.2592C123.143 41.6781 122.243 41.884 121.335 41.8578L116.467 41.8691ZM123.125 49.5043L119.676 41.2949L122.961 40.7095L126.885 49.5043H123.125Z" fill="#123F50"/>
<path d="M131.24 49.5044V31H134.525V49.5044H131.24ZM132.548 34.219V31H141.456V34.219H132.548ZM132.548 41.9069V38.7067H140.445V41.9069H132.548ZM132.548 49.5044V46.2835H141.456V49.5044H132.548Z" fill="#123F50"/>
<path d="M159.336 49.5044V31H162.621V49.5044H159.336ZM160.644 34.219V31H169.55V34.219H160.644ZM160.644 41.9069V38.7067H168.539V41.9069H160.644ZM160.644 49.5044V46.2835H169.55V49.5044H160.644Z" fill="#03A765"/>
<path d="M179.176 49.6945C178.139 49.7259 177.11 49.492 176.187 49.0149C175.367 48.5677 174.705 47.8759 174.292 47.0346C173.855 46.1699 173.636 45.122 173.634 43.8909V36.6247C173.634 35.386 173.854 34.3344 174.292 33.4697C174.705 32.6283 175.367 31.9365 176.187 31.4894C177.11 31.0122 178.139 30.7784 179.176 30.8098C180.32 30.8098 181.286 31.0363 182.075 31.4894C182.888 31.972 183.527 32.7033 183.9 33.577C184.33 34.5144 184.587 35.6916 184.67 37.1084H181.286C181.257 36.5412 181.144 35.9815 180.95 35.4481C180.815 35.0619 180.572 34.7236 180.249 34.4749C179.934 34.2565 179.558 34.145 179.176 34.1568C178.884 34.1413 178.591 34.1908 178.319 34.3017C178.047 34.4126 177.803 34.5823 177.603 34.7987C177.221 35.2279 177.029 35.8365 177.028 36.6247V43.8909C177.028 44.6727 177.219 45.2776 177.603 45.7056C177.803 45.9216 178.048 46.0909 178.319 46.2018C178.591 46.3127 178.884 46.3624 179.176 46.3475C179.462 46.3601 179.746 46.3003 180.003 46.1737C180.26 46.0471 180.481 45.8577 180.647 45.6227C180.997 45.1383 181.21 44.396 181.286 43.3958H184.67C184.579 44.8139 184.318 45.9911 183.887 46.9273C183.515 47.7993 182.879 48.5302 182.069 49.0149C181.287 49.4679 180.322 49.6945 179.176 49.6945Z" fill="#03A765"/>
<path d="M188.884 49.5044V31H192.169V49.5044H188.884ZM190.425 41.9313V38.7877H198.851V41.9313H190.425ZM196.717 49.5044V31H200V49.5044H196.717Z" fill="#03A765"/>
<path d="M151.662 32.5398H148.364V34.1945H151.662V32.5398Z" fill="#03A765"/>
<path d="M151.662 34.1945H148.364V49.5044H151.662V34.1945Z" fill="#03A765"/>
<path d="M144.36 31V34.1945H148.364V32.5398H151.662V34.1945H154.306V31H144.36Z" fill="#03A765"/>
<path d="M157.507 27.7754H154.306V30.9698H157.507V27.7754Z" fill="#03A765"/>
</svg>
