<svg width="52" height="52" viewBox="0 0 52 52" fill="none" xmlns="http://www.w3.org/2000/svg">
<rect width="52" height="52" fill="white"/>
<path d="M40.6808 29.3869C40.6303 29.5092 40.5737 29.6289 40.5113 29.7455C40.492 29.782 40.4462 29.8673 40.4997 29.9278C40.5096 29.9389 40.5218 29.9478 40.5355 29.9538C40.5491 29.9598 40.5639 29.9628 40.5788 29.9625C40.6197 29.9604 40.6584 29.9432 40.6876 29.9142C40.6901 29.9115 40.6926 29.909 40.6949 29.9063C40.9848 29.5721 41.244 29.1773 41.4643 28.7326C41.6282 28.3969 41.7645 28.0484 41.8719 27.6904C41.9395 27.4711 42.0124 27.2097 42.0393 26.9341C42.065 26.6733 42.0451 26.4328 41.9813 26.2191C41.9274 26.0414 41.8002 25.9449 41.657 25.9728C41.5269 25.9982 41.4231 26.0944 41.3358 26.1822C41.1747 26.3447 41.0503 26.54 40.9709 26.7549C40.8994 26.9465 40.9019 27.166 40.9129 27.3367C40.9141 27.3561 40.9154 27.3755 40.9168 27.3949C40.9226 27.4757 40.9311 27.5574 40.9394 27.6363C40.952 27.7569 40.9649 27.8818 40.9682 28.0038C40.9777 28.4293 40.8789 28.9073 40.6808 29.3869Z" fill="#322F70"/>
<path d="M39.4067 30.5935C39.3785 30.6517 39.3935 30.7147 39.4436 30.7455C39.4649 30.7579 39.4895 30.7633 39.514 30.761C39.5385 30.7587 39.5616 30.7487 39.5802 30.7325C39.5901 30.7246 39.5989 30.7155 39.6065 30.7054C39.9412 30.2627 40.2033 29.7018 40.3643 29.0837C40.4673 28.6875 40.5651 28.2304 40.4171 27.8232C40.4006 27.7728 40.3752 27.7257 40.3421 27.6843C40.322 27.6594 40.2971 27.6388 40.2689 27.6237C40.2407 27.6086 40.2098 27.5994 40.178 27.5965C39.9758 27.5843 39.7938 27.8439 39.743 27.9238C39.6471 28.0747 39.5925 28.2482 39.5847 28.4269C39.5813 28.5225 39.5878 28.6183 39.604 28.7126C39.6117 28.7634 39.621 28.8142 39.6303 28.8648C39.6349 28.891 39.6398 28.917 39.6444 28.9424C39.6729 29.1111 39.6849 29.2821 39.6801 29.4532C39.6708 29.8485 39.5776 30.2372 39.4067 30.5935Z" fill="#322F70"/>
<path d="M38.5664 31.2459C38.5576 31.2644 38.5562 31.2856 38.5625 31.3052C38.5688 31.3247 38.5823 31.3411 38.6003 31.351C38.616 31.3589 38.6338 31.3616 38.6512 31.3587C38.6685 31.3558 38.6845 31.3474 38.6969 31.3349C38.7033 31.3287 38.709 31.3218 38.7139 31.3143C38.9265 30.9846 39.0821 30.576 39.1632 30.1313C39.2152 29.8468 39.2599 29.5201 39.1348 29.241C39.1206 29.2064 39.1003 29.1746 39.0749 29.1471C39.0594 29.1307 39.0407 29.1175 39.0201 29.1083C38.9994 29.0992 38.9771 29.0943 38.9545 29.094C38.8117 29.0957 38.6969 29.2879 38.6646 29.3473C38.605 29.4586 38.5756 29.5836 38.5794 29.7099C38.5821 29.7775 38.5916 29.8446 38.6078 29.9103C38.6159 29.9455 38.6252 29.9808 38.6343 30.0159C38.6389 30.0342 38.6437 30.0524 38.6482 30.0704C38.6772 30.1878 38.6946 30.3077 38.7 30.4284C38.7139 30.7073 38.6683 30.986 38.5664 31.2459Z" fill="#322F70"/>
<path d="M43.636 25.6484C43.4449 25.5627 43.1971 25.6127 43.0199 25.7727C42.8726 25.9051 42.7661 26.0958 42.6944 26.3558C42.6944 26.3568 42.6944 26.3578 42.6944 26.3587C42.654 26.5175 42.6223 26.6784 42.5995 26.8407L42.5874 26.9173C42.5756 26.9894 42.5647 27.0619 42.5541 27.1343C41.6672 30.9871 38.3301 32.4751 36.9362 32.9361C36.5626 33.063 36.1613 33.0837 35.7766 32.996L35.7415 32.9875C35.7361 32.9864 35.7311 32.9841 35.7269 32.9807C35.7226 32.9773 35.7191 32.973 35.7167 32.9681C35.7239 32.9603 35.732 32.9534 35.7409 32.9475C35.945 32.7998 36.1719 32.7034 36.4121 32.6012C36.4991 32.5641 36.5889 32.5259 36.6767 32.4848C37.1009 32.2892 37.4144 32.0857 37.6635 31.8449C38.1005 31.4215 38.425 30.7042 38.1643 30.0553C38.1078 29.9164 38.0365 29.8194 37.9462 29.7589C37.7418 29.6214 37.4801 29.6905 37.3179 29.7915C37.1944 29.8691 37.0943 29.9717 36.9973 30.0714C36.9604 30.1101 36.9223 30.1489 36.8839 30.185C36.4158 30.631 35.7801 30.8157 35.2218 30.9541C35.0714 30.9914 34.9126 31.0228 34.7516 31.047C32.3856 31.4039 30.716 32.7398 29.7894 35.0176C29.7885 35.0197 29.7877 35.022 29.7869 35.0242C29.549 35.6094 29.3617 36.2607 29.2286 36.9557C28.8614 38.4934 28.4424 40.9189 28.5214 43.7433C28.5279 43.9686 28.6078 44.1856 28.7489 44.3611C28.89 44.5365 29.0845 44.6607 29.3026 44.7147C30.5743 45.0272 31.8951 45.0837 33.1886 44.8807C33.3962 44.8491 33.5889 44.7536 33.74 44.6073C33.7866 44.5619 33.8289 44.5124 33.8664 44.4593C33.9461 44.347 34.0023 44.2197 34.0317 44.085C34.061 43.9503 34.0629 43.811 34.0372 43.6756C33.9914 43.4293 33.9472 43.1714 33.9054 42.9102C33.7444 41.8984 33.6144 40.8144 33.7508 39.7423C33.9804 37.9265 35.1617 36.3609 37.0769 35.3343C37.7851 34.9547 38.5071 34.5424 39.2237 34.109L39.3082 34.0578C39.7444 33.7943 40.1953 33.5218 40.6079 33.2045C40.8012 33.0558 40.9925 32.8954 41.175 32.728C41.1978 32.7071 41.2206 32.6863 41.2432 32.665C41.9199 32.0355 42.488 31.298 42.9246 30.4823C43.5018 29.3967 43.8505 28.2037 43.9489 26.9772C43.965 26.7773 43.9742 26.5711 43.9764 26.3644C43.9785 26.1619 43.9667 25.9492 43.8024 25.7704C43.7559 25.7186 43.6993 25.6771 43.636 25.6484Z" fill="#322F70"/>
<path d="M12.2913 29.3869C12.3417 29.5092 12.3982 29.6289 12.4606 29.7455C12.4799 29.782 12.5259 29.8673 12.4722 29.9278C12.4623 29.9389 12.4501 29.9478 12.4365 29.9538C12.4229 29.9597 12.4082 29.9627 12.3933 29.9625C12.3524 29.9604 12.3137 29.9432 12.2845 29.9142C12.2819 29.9117 12.2795 29.9091 12.2772 29.9063C11.9873 29.5721 11.7281 29.1773 11.5076 28.7326C11.3439 28.3968 11.2076 28.0483 11.1 27.6904C11.0324 27.4711 10.9597 27.2097 10.9326 26.9341C10.9071 26.6733 10.927 26.4328 10.9918 26.2191C11.0455 26.0414 11.1729 25.9449 11.3161 25.9728C11.4461 25.9982 11.5499 26.0944 11.6373 26.1822C11.7982 26.3448 11.9226 26.5401 12.0022 26.7549C12.0735 26.9465 12.0712 27.166 12.0602 27.3367C12.059 27.3561 12.0576 27.3755 12.0561 27.3949C12.0503 27.4757 12.0418 27.5574 12.0337 27.6363C12.0211 27.7569 12.0082 27.8818 12.0049 28.0038C11.9944 28.4293 12.093 28.9073 12.2913 29.3869Z" fill="#322F70"/>
<path d="M13.5704 30.5935C13.5986 30.6517 13.5834 30.7147 13.5335 30.7455C13.5122 30.7579 13.4876 30.7633 13.4631 30.761C13.4386 30.7587 13.4155 30.7487 13.3969 30.7325C13.387 30.7247 13.3781 30.7155 13.3706 30.7054C13.0357 30.2627 12.7738 29.7018 12.6128 29.0837C12.5096 28.6875 12.412 28.2304 12.5598 27.8232C12.5765 27.7728 12.6019 27.7258 12.6348 27.6843C12.655 27.6594 12.6799 27.6388 12.7081 27.6238C12.7363 27.6087 12.7673 27.5994 12.7991 27.5965C13.0011 27.5843 13.1831 27.8439 13.2341 27.9238C13.3299 28.0747 13.3844 28.2482 13.3924 28.4269C13.3956 28.5225 13.3891 28.6182 13.3731 28.7126C13.3654 28.7634 13.3561 28.8142 13.3468 28.8648C13.342 28.891 13.3373 28.917 13.3327 28.9424C13.3041 29.111 13.2921 29.2821 13.297 29.4532C13.3062 29.8485 13.3994 30.2372 13.5704 30.5935Z" fill="#322F70"/>
<path d="M14.412 31.2458C14.4208 31.2644 14.4222 31.2856 14.4159 31.3052C14.4096 31.3247 14.396 31.3411 14.378 31.3509C14.3624 31.3586 14.3448 31.3612 14.3277 31.3583C14.3106 31.3554 14.2948 31.3472 14.2825 31.3348C14.276 31.3287 14.2702 31.3218 14.2653 31.3143C14.0527 30.9846 13.8981 30.576 13.816 30.1313C13.764 29.8468 13.7194 29.52 13.8444 29.241C13.8587 29.2063 13.8791 29.1746 13.9045 29.1471C13.92 29.1307 13.9386 29.1177 13.9592 29.1086C13.9798 29.0995 14.002 29.0947 14.0245 29.0944C14.1675 29.0961 14.2821 29.2883 14.3144 29.3476C14.374 29.459 14.4033 29.584 14.3997 29.7103C14.3969 29.7779 14.3873 29.845 14.3711 29.9106C14.3629 29.9459 14.3539 29.9812 14.3448 30.0163C14.3399 30.0345 14.3353 30.0528 14.3307 30.0708C14.3018 30.1882 14.2845 30.3081 14.2789 30.4288C14.2649 30.7075 14.3103 30.9861 14.412 31.2458Z" fill="#322F70"/>
<path d="M9.33878 25.6484C9.52992 25.5627 9.77749 25.6127 9.95491 25.7727C10.1022 25.9051 10.2085 26.0958 10.2804 26.3558C10.2804 26.3568 10.2804 26.3578 10.2804 26.3587C10.3209 26.5175 10.3526 26.6784 10.3753 26.8407L10.3876 26.9173C10.3992 26.9894 10.4101 27.0619 10.4207 27.1343C11.3078 30.9871 14.6449 32.4751 16.0387 32.9361C16.4124 33.063 16.8137 33.0837 17.1983 32.996L17.2335 32.9875C17.2389 32.9864 17.2439 32.9841 17.2482 32.9807C17.2525 32.9773 17.256 32.973 17.2584 32.9681C17.2512 32.9603 17.2431 32.9534 17.2343 32.9475C17.0302 32.7998 16.8033 32.7034 16.5631 32.6012C16.4761 32.5641 16.3862 32.5259 16.2983 32.4848C15.8743 32.2892 15.5608 32.0857 15.3126 31.8449C14.8755 31.4215 14.5512 30.7042 14.8119 30.0553C14.8683 29.9164 14.9396 29.8194 15.0299 29.7589C15.2344 29.6214 15.496 29.6905 15.658 29.7915C15.7815 29.8691 15.8818 29.9717 15.9788 30.0714C16.0157 30.1101 16.0538 30.1489 16.0923 30.185C16.5602 30.631 17.1958 30.8157 17.7544 30.9541C17.9047 30.9914 18.0636 31.0228 18.2246 31.047C20.5906 31.4039 22.26 32.7398 23.1867 35.0176C23.1867 35.0197 23.1886 35.022 23.1894 35.0242C23.4271 35.6094 23.6146 36.2607 23.7476 36.9557C24.1138 38.4934 24.5338 40.9189 24.4547 43.7433C24.4482 43.9686 24.3683 44.1856 24.2273 44.3611C24.0862 44.5365 23.8917 44.6607 23.6735 44.7147C22.4019 45.0272 21.0812 45.0837 19.7877 44.8807C19.5801 44.8491 19.3874 44.7536 19.2363 44.6073C19.1897 44.562 19.1473 44.5125 19.1099 44.4593C19.0301 44.347 18.9739 44.2197 18.9445 44.085C18.9151 43.9503 18.9133 43.811 18.9391 43.6756C18.9849 43.4293 19.0292 43.1714 19.0709 42.9102C19.2317 41.8984 19.362 40.8144 19.2255 39.7423C18.9961 37.9265 17.8147 36.3609 15.8996 35.3343C15.1915 34.9547 14.4694 34.5424 13.7526 34.109L13.6681 34.0578C13.2321 33.7943 12.7812 33.5218 12.3686 33.2045C12.1753 33.0558 11.984 32.8954 11.8014 32.728C11.7786 32.7071 11.756 32.6863 11.7333 32.665C11.0567 32.0355 10.4885 31.298 10.0519 30.4823C9.4746 29.3968 9.12594 28.2037 9.02762 26.9772C9.01158 26.7773 9.0023 26.5711 9.00017 26.3644C8.99824 26.1619 9.00984 25.9492 9.17411 25.7704C9.22008 25.7188 9.27613 25.6773 9.33878 25.6484Z" fill="#322F70"/>
<path d="M23.8238 22.6589C20.679 22.7097 14.4806 21.6573 14.502 13.2921C14.502 13.2921 23.7253 11.6824 25.3902 20.7002C21.7632 20.4566 17.4947 15.4379 17.3591 15.2773C20.3939 19.3229 22.4476 21.5527 23.8238 22.6589Z" fill="#40D200"/>
<path d="M29.1522 22.6589C32.2972 22.7097 38.4956 21.6573 38.4742 13.2921C38.4742 13.2921 29.2509 11.6824 27.5859 20.7002C31.213 20.4566 35.4813 15.4379 35.6171 15.2773C32.5823 19.3229 30.5278 21.5527 29.1522 22.6589Z" fill="#40D200"/>
<path d="M25.8175 16.3737C28.2057 15.6367 32.6305 13.3146 30.567 7C30.567 7 23.2055 8.05634 24.1548 15.2797C26.8352 14.202 28.8319 9.35878 28.8947 9.20403C27.5921 13.0084 26.5865 15.1988 25.8175 16.3737Z" fill="#40D200"/>
<path d="M28.5596 32.7197C27.1695 29.4752 27.7438 25.3284 28.256 23.0022C27.8062 23.4429 27.2025 23.6897 26.5738 23.6897C25.9451 23.6897 25.3414 23.4429 24.8916 23.0022C25.4038 25.3284 25.9784 29.4752 24.588 32.7197L24.5801 32.7391H28.5676L28.5596 32.7197Z" fill="#40D200"/>
</svg>
