<svg width="119" height="22" viewBox="0 0 119 22" fill="none" xmlns="http://www.w3.org/2000/svg">
<path d="M108.017 14.6779C108.9 13.5196 109.644 12.5544 110.251 11.7822C110.885 10.9824 111.423 10.3481 111.864 9.87927C112.306 9.38286 112.678 9.03813 112.981 8.84509C113.312 8.62446 113.629 8.52794 113.933 8.55551C114.788 8.55551 115.298 8.94161 115.463 9.7138C115.546 10.0172 115.56 10.3757 115.505 10.7894C115.45 11.203 115.339 11.7132 115.174 12.3199C115.008 12.8991 114.788 13.6023 114.512 14.4297C114.264 15.257 113.974 16.2499 113.643 17.4081C113.45 18.1803 113.464 18.5526 113.685 18.5251C113.905 18.4975 114.25 18.2217 114.719 17.6977C115.215 17.1737 115.794 16.4981 116.456 15.6707C117.146 14.8158 117.835 13.9471 118.525 13.0646C118.525 13.0921 118.566 13.1611 118.649 13.2714C118.731 13.3541 118.8 13.4782 118.855 13.6437C118.911 13.8092 118.911 14.0022 118.855 14.2228C118.828 14.4435 118.718 14.6779 118.525 14.9261C117.973 15.588 117.49 16.1809 117.077 16.7049C116.663 17.2013 116.263 17.6563 115.877 18.07C115.491 18.4837 115.091 18.8698 114.677 19.2283C114.291 19.5868 113.836 19.9453 113.312 20.3039C113.009 20.5245 112.664 20.6486 112.278 20.6762C111.92 20.7037 111.561 20.6624 111.202 20.5521C110.872 20.4417 110.582 20.2625 110.334 20.0143C110.113 19.7661 110.017 19.4765 110.044 19.1456C110.099 18.2631 110.251 17.3668 110.499 16.4567C110.775 15.5466 111.106 14.5124 111.492 13.3541C111.602 13.0232 111.575 12.8164 111.409 12.7336C111.271 12.6509 111.065 12.7612 110.789 13.0646C110.513 13.3128 110.21 13.6299 109.879 14.016C109.548 14.4021 109.217 14.802 108.886 15.2157C108.583 15.6293 108.279 16.0292 107.976 16.4153C107.7 16.8014 107.466 17.1324 107.273 17.4081L107.107 17.9873C106.776 19.2007 106.418 19.9591 106.032 20.2625C105.645 20.5659 105.135 20.7037 104.501 20.6762C104.087 20.6486 103.77 20.5107 103.55 20.2625C103.301 20.0143 103.232 19.6558 103.343 19.1869C103.425 18.7457 103.577 18.139 103.798 17.3668C103.991 16.5946 104.211 15.7397 104.46 14.802C104.735 13.8643 105.025 12.8715 105.328 11.8235C105.632 10.7756 105.935 9.76896 106.238 8.80372C106.569 7.83848 106.873 6.94218 107.148 6.11484C107.452 5.28749 107.728 4.61182 107.976 4.08783C108.114 3.75689 108.348 3.53627 108.679 3.42595C109.038 3.31564 109.396 3.27427 109.755 3.30185C110.141 3.30185 110.458 3.35701 110.706 3.46732C110.982 3.57763 111.106 3.68795 111.078 3.79826L108.017 14.6779Z" fill="#8C34C7"/>
<path d="M99.0231 20.3866C98.7197 20.5521 98.2923 20.6762 97.7407 20.7589C97.1891 20.8417 96.61 20.8279 96.0033 20.7176C95.4241 20.6348 94.8588 20.4142 94.3072 20.0557C93.7557 19.6972 93.342 19.1456 93.0662 18.401C92.7077 17.4357 92.6801 16.3464 92.9835 15.133C93.2868 13.8919 93.8384 12.7612 94.6382 11.7408C95.4379 10.6929 96.4445 9.85172 97.658 9.21742C98.899 8.58312 100.264 8.3625 101.753 8.55554C102.691 8.69343 103.312 8.983 103.615 9.42426C103.918 9.83793 104.098 10.1827 104.153 10.4584C104.263 11.0652 104.125 11.6443 103.739 12.1959C103.38 12.7199 102.912 13.1335 102.332 13.4369C101.753 13.7127 101.147 13.8506 100.512 13.8506C99.878 13.823 99.354 13.561 98.9404 13.0646C99.2713 12.9819 99.5885 12.844 99.8918 12.6509C100.223 12.4579 100.512 12.2372 100.761 11.989C101.009 11.7133 101.202 11.4237 101.34 11.1203C101.478 10.817 101.533 10.5136 101.505 10.2102C101.505 10.0172 101.45 9.81035 101.34 9.58973C101.257 9.34152 100.995 9.28637 100.554 9.42426C99.947 9.58973 99.354 10.031 98.7749 10.748C98.1958 11.4375 97.6856 12.2235 97.2443 13.106C96.8306 13.9885 96.5273 14.8848 96.3342 15.7948C96.1412 16.6773 96.1274 17.422 96.2929 18.0287C96.4583 18.6078 96.7341 18.9939 97.1202 19.187C97.5339 19.3524 98.0027 19.3662 98.5267 19.2283C99.0783 19.0904 99.6574 18.8284 100.264 18.4424C100.898 18.0287 101.519 17.5461 102.126 16.9945C102.677 16.4981 103.229 15.8914 103.78 15.1743C104.332 14.4573 104.883 13.754 105.435 13.0646C105.435 13.0922 105.476 13.1611 105.559 13.2714C105.642 13.3542 105.711 13.4783 105.766 13.6437C105.821 13.8092 105.821 14.0023 105.766 14.2229C105.738 14.4435 105.628 14.6779 105.435 14.9261C104.332 16.2775 103.298 17.3806 102.332 18.2355C101.367 19.0904 100.264 19.8075 99.0231 20.3866Z" fill="#8C34C7"/>
<path d="M87.6713 20.3866C87.3679 20.5521 86.9405 20.6762 86.3889 20.7589C85.8373 20.8417 85.2582 20.8279 84.6515 20.7176C84.0723 20.6348 83.507 20.4142 82.9554 20.0557C82.4038 19.6972 81.9902 19.1456 81.7144 18.401C81.3559 17.4357 81.3283 16.3464 81.6317 15.133C81.935 13.8919 82.4866 12.7612 83.2864 11.7408C84.0861 10.6929 85.0927 9.85172 86.3062 9.21742C87.5472 8.58312 88.9123 8.3625 90.4015 8.55554C91.3392 8.69343 91.9597 8.983 92.2631 9.42426C92.5664 9.83793 92.7457 10.1827 92.8009 10.4584C92.9112 11.1755 92.7043 11.8925 92.1803 12.6095C91.6839 13.299 91.0358 13.9057 90.2361 14.4297C89.4363 14.9537 88.5538 15.3398 87.5886 15.588C86.6509 15.8086 85.796 15.8224 85.0238 15.6294C84.8032 16.5946 84.7756 17.3944 84.941 18.0287C85.1065 18.6078 85.3823 18.9939 85.7684 19.187C86.1821 19.3524 86.6509 19.3662 87.1749 19.2283C87.7265 19.0904 88.3056 18.8284 88.9123 18.4424C89.5466 18.0287 90.1671 17.5461 90.7739 16.9945C91.3254 16.4981 91.877 15.8914 92.4285 15.1743C92.9801 14.4573 93.5317 13.754 94.0832 13.0646C94.0832 13.0922 94.1246 13.1611 94.2073 13.2714C94.2901 13.3542 94.359 13.4783 94.4142 13.6437C94.4693 13.8092 94.4693 14.0023 94.4142 14.2229C94.3866 14.4435 94.2763 14.6779 94.0832 14.9261C92.9801 16.2775 91.9459 17.3806 90.9807 18.2355C90.0154 19.0904 88.9123 19.8075 87.6713 20.3866ZM89.2019 9.42426C88.7882 9.56215 88.3883 9.81035 88.0022 10.1689C87.6161 10.5274 87.2438 10.9549 86.8853 11.4513C86.5268 11.9477 86.2096 12.4992 85.9339 13.106C85.6581 13.6851 85.4237 14.2642 85.2306 14.8434C85.8098 14.6779 86.4027 14.4159 87.0094 14.0574C87.6161 13.6989 88.1539 13.3128 88.6227 12.8991C89.1192 12.4579 89.5053 12.0028 89.781 11.534C90.0568 11.0652 90.1809 10.6239 90.1533 10.2102C90.1533 10.0172 90.0982 9.81035 89.9879 9.58973C89.9051 9.34152 89.6431 9.28637 89.2019 9.42426Z" fill="#8C34C7"/>
<path d="M81.0883 6.07347H83.1567C83.4601 6.04589 83.6807 6.07347 83.8186 6.1562C83.9565 6.23894 84.0116 6.33546 83.9841 6.44578C83.9565 6.55609 83.86 6.6664 83.6945 6.77671C83.529 6.85945 83.2808 6.91461 82.9499 6.94218H80.8401L77.903 17.4081C77.71 18.1803 77.7238 18.5526 77.9444 18.5251C78.165 18.4975 78.5098 18.2217 78.9786 17.6977C79.475 17.1737 80.0542 16.4981 80.716 15.6707C81.4055 14.8158 82.0949 13.9471 82.7844 13.0646C82.7844 13.0921 82.8258 13.1611 82.9085 13.2714C82.9912 13.3541 83.0602 13.4782 83.1153 13.6437C83.1705 13.8092 83.1705 14.0022 83.1153 14.2228C83.0878 14.4435 82.9774 14.6779 82.7844 14.9261C82.2328 15.588 81.7502 16.1809 81.3365 16.7049C80.9229 17.2013 80.523 17.6563 80.1369 18.07C79.7508 18.4837 79.3509 18.8698 78.9372 19.2283C78.5511 19.5868 78.0961 19.9453 77.5721 20.3039C77.2963 20.5245 76.9654 20.6486 76.5793 20.6762C76.1932 20.7037 75.8347 20.6624 75.5037 20.5521C75.1728 20.4417 74.897 20.2625 74.6764 20.0143C74.4282 19.7661 74.3179 19.4765 74.3454 19.1456C74.4006 18.5113 74.4971 17.8494 74.635 17.1599C74.7729 16.4705 74.9522 15.7259 75.1728 14.9261C75.5589 13.5748 75.9588 12.1958 76.3724 10.7894C76.8137 9.38286 77.2274 8.10047 77.6135 6.94218H77.3239C76.7723 6.94218 76.4828 6.80429 76.4552 6.52851C76.4276 6.25273 76.7723 6.10105 77.4894 6.07347H77.903C78.1512 5.30128 78.3994 4.6394 78.6477 4.08783C78.7855 3.75689 79.0338 3.53627 79.3923 3.42595C79.7508 3.31564 80.1093 3.27427 80.4678 3.30185C80.8263 3.30185 81.1297 3.35701 81.3779 3.46732C81.6537 3.57763 81.7778 3.68795 81.7502 3.79826L81.0883 6.07347Z" fill="#8C34C7"/>
<path d="M69.654 20.3866C69.3506 20.5521 68.9231 20.6762 68.3716 20.7589C67.82 20.8417 67.2409 20.8279 66.6341 20.7176C66.055 20.6348 65.4896 20.4142 64.9381 20.0557C64.3865 19.6972 63.9728 19.1456 63.6971 18.401C63.3385 17.4357 63.311 16.3464 63.6143 15.133C63.9177 13.8919 64.4692 12.7612 65.269 11.7408C66.0688 10.6929 67.0754 9.85172 68.2888 9.21742C69.5299 8.58312 70.895 8.3625 72.3842 8.55554C73.3219 8.69343 73.9424 8.983 74.2457 9.42426C74.5491 9.83793 74.7284 10.1827 74.7835 10.4584C74.8938 11.1755 74.687 11.8925 74.163 12.6095C73.6666 13.299 73.0185 13.9057 72.2187 14.4297C71.419 14.9537 70.5365 15.3398 69.5712 15.588C68.6336 15.8086 67.7786 15.8224 67.0064 15.6294C66.7858 16.5946 66.7582 17.3944 66.9237 18.0287C67.0892 18.6078 67.365 18.9939 67.7511 19.187C68.1647 19.3524 68.6336 19.3662 69.1576 19.2283C69.7091 19.0904 70.2883 18.8284 70.895 18.4424C71.5293 18.0287 72.1498 17.5461 72.7565 16.9945C73.3081 16.4981 73.8597 15.8914 74.4112 15.1743C74.9628 14.4573 75.5143 13.754 76.0659 13.0646C76.0659 13.0922 76.1073 13.1611 76.19 13.2714C76.2727 13.3542 76.3417 13.4783 76.3968 13.6437C76.452 13.8092 76.452 14.0023 76.3968 14.2229C76.3693 14.4435 76.259 14.6779 76.0659 14.9261C74.9628 16.2775 73.9286 17.3806 72.9634 18.2355C71.9981 19.0904 70.895 19.8075 69.654 20.3866ZM71.1846 9.42426C70.7709 9.56215 70.371 9.81035 69.9849 10.1689C69.5988 10.5274 69.2265 10.9549 68.868 11.4513C68.5095 11.9477 68.1923 12.4992 67.9165 13.106C67.6407 13.6851 67.4063 14.2642 67.2133 14.8434C67.7924 14.6779 68.3854 14.4159 68.9921 14.0574C69.5988 13.6989 70.1366 13.3128 70.6054 12.8991C71.1018 12.4579 71.4879 12.0028 71.7637 11.534C72.0395 11.0652 72.1636 10.6239 72.136 10.2102C72.136 10.0172 72.0809 9.81035 71.9705 9.58973C71.8878 9.34152 71.6258 9.28637 71.1846 9.42426Z" fill="#8C34C7"/>
<path d="M55.3026 13.6851L57.4537 10.5825C57.4813 10.5274 57.5916 10.3895 57.7847 10.1688C57.9777 9.92064 58.1983 9.67243 58.4466 9.42423C58.7223 9.17602 59.0257 8.9554 59.3566 8.76235C59.7152 8.5693 60.0737 8.48657 60.4322 8.51414C60.9286 8.54172 61.2733 8.65204 61.4664 8.84508C61.6594 9.03813 61.7835 9.24497 61.8387 9.46559C61.8938 9.74138 61.8663 10.1275 61.7559 10.6239C61.6456 11.1203 61.494 11.6581 61.3009 12.2372C61.1354 12.7888 60.97 13.3403 60.8045 13.8919C60.639 14.4435 60.5287 14.9123 60.4736 15.2984C60.2805 16.0706 60.2805 16.5394 60.4736 16.7049C60.6942 16.8428 61.0251 16.7738 61.4664 16.4981C61.9076 16.1947 62.4178 15.7396 62.997 15.1329C63.6037 14.4986 64.1966 13.8092 64.7758 13.0646C64.7758 13.0921 64.8171 13.1611 64.8999 13.2714C64.9826 13.3541 65.0378 13.4782 65.0653 13.6437C65.1205 13.8092 65.1343 14.0022 65.1067 14.2228C65.0791 14.4435 64.9688 14.6779 64.7758 14.9261C64.0036 15.8913 63.1762 16.6911 62.2937 17.3254C61.4388 17.9321 60.4322 18.2355 59.2739 18.2355C58.7223 18.2355 58.2121 18.1114 57.7433 17.8632C57.3021 17.5874 57.0401 17.1461 56.9573 16.5394C56.9573 16.374 56.9849 16.1395 57.0401 15.8362C57.0952 15.5328 57.1779 15.2157 57.2883 14.8847C57.3986 14.5262 57.5089 14.1677 57.6192 13.8092C57.7295 13.4231 57.826 13.0921 57.9088 12.8164C58.0467 12.4027 58.0605 12.1958 57.9501 12.1958C57.8674 12.1683 57.7295 12.2372 57.5365 12.4027C57.371 12.5681 57.1917 12.775 56.9987 13.0232C56.8056 13.2714 56.6678 13.4644 56.585 13.6023C56.3368 14.0712 55.9921 14.6365 55.5508 15.2984C55.1096 15.9327 54.7373 16.5118 54.4339 17.0358L54.1857 17.9873C53.8548 19.2007 53.4963 19.9591 53.1102 20.2625C52.7241 20.5658 52.2139 20.7037 51.5796 20.6762C51.1659 20.6486 50.8487 20.5107 50.6281 20.2625C50.3799 20.0143 50.311 19.6558 50.4213 19.1869C50.5592 18.5251 50.7246 17.7942 50.9177 16.9945C51.1107 16.1671 51.3314 15.3122 51.5796 14.4297C51.8553 13.5472 52.1449 12.6785 52.4483 11.8235C52.7516 10.941 53.0826 10.0999 53.4411 9.30012C53.579 8.96919 53.8134 8.74856 54.1443 8.63825C54.5029 8.50035 54.8614 8.4452 55.2199 8.47278C55.606 8.50035 55.9231 8.5693 56.1713 8.67961C56.4471 8.78993 56.5712 8.90024 56.5437 9.01055L55.3026 13.6851Z" fill="#8C34C7"/>
<path d="M44.1244 19.1456C44.152 18.6768 44.1933 18.2079 44.2485 17.7391C44.3036 17.2427 44.4002 16.7601 44.5381 16.2912C43.7934 17.1737 43.1316 17.9184 42.5524 18.5251C41.9733 19.1318 41.2562 19.7247 40.4013 20.3039C40.1255 20.5245 39.7946 20.6486 39.4085 20.6762C39.0224 20.7038 38.6639 20.6624 38.3329 20.5521C38.002 20.4418 37.7262 20.2625 37.5056 20.0143C37.285 19.7661 37.1884 19.4765 37.216 19.1456C37.2988 17.5736 37.6297 15.9465 38.2088 14.2642C38.788 12.5544 39.4223 10.9273 40.1117 9.38288C40.2496 9.05194 40.4978 8.83131 40.8564 8.721C41.2149 8.61069 41.5734 8.56932 41.9319 8.5969C42.318 8.5969 42.6352 8.65205 42.8834 8.76237C43.1591 8.87268 43.2832 8.98299 43.2557 9.09331L40.7736 17.4082C40.5806 18.1803 40.5806 18.5664 40.7736 18.5664C40.9942 18.5389 41.339 18.2769 41.8078 17.7805C42.2766 17.2841 42.8282 16.636 43.4625 15.8362C44.0968 15.0088 44.7449 14.1677 45.4068 13.3128C45.655 12.6233 45.917 11.9614 46.1927 11.3271C46.4685 10.6653 46.7581 10.0172 47.0615 9.38288C47.1994 9.05194 47.4476 8.83131 47.8061 8.721C48.1646 8.61069 48.5231 8.56932 48.8816 8.5969C49.2401 8.5969 49.5435 8.65205 49.7917 8.76237C50.0675 8.87268 50.1916 8.98299 50.164 9.09331L47.682 17.4082C47.4889 18.1803 47.5027 18.5527 47.7233 18.5251C47.944 18.4975 48.2887 18.2217 48.7575 17.6977C49.2539 17.1737 49.8331 16.4981 50.495 15.6707C51.1844 14.8158 51.8739 13.9471 52.5633 13.0646C52.5633 13.0922 52.6047 13.1611 52.6874 13.2714C52.7702 13.3541 52.8391 13.4783 52.8943 13.6437C52.9494 13.8092 52.9494 14.0022 52.8943 14.2229C52.8667 14.4435 52.7564 14.6779 52.5633 14.9261C52.0118 15.588 51.5291 16.1809 51.1155 16.7049C50.7018 17.2013 50.3019 17.6564 49.9158 18.07C49.5297 18.4837 49.1298 18.8698 48.7162 19.2283C48.3301 19.5868 47.875 19.9454 47.351 20.3039C47.0753 20.5245 46.7443 20.6486 46.3582 20.6762C45.9721 20.7038 45.5998 20.6624 45.2413 20.5521C44.9104 20.4418 44.6346 20.2625 44.4139 20.0143C44.1933 19.7661 44.0968 19.4765 44.1244 19.1456Z" fill="#8C34C7"/>
<path d="M29.5343 18.856C29.6446 19.1594 29.8239 19.38 30.0721 19.5179C30.3478 19.6558 30.596 19.7247 30.8167 19.7247C31.2855 19.7523 31.6854 19.6558 32.0163 19.4352C32.3473 19.2145 32.5817 18.9801 32.7196 18.7319C32.9954 18.3734 33.0367 18.0287 32.8437 17.6977C32.6506 17.3668 32.3473 17.0359 31.9336 16.7049C31.5199 16.374 31.0235 16.043 30.4444 15.7121C29.8928 15.3536 29.3826 14.9951 28.9138 14.6365C28.4449 14.2504 28.0726 13.8506 27.7969 13.4369C27.5211 13.0232 27.4521 12.5682 27.59 12.0718C27.8934 10.9962 28.5277 10.1275 29.4929 9.46562C30.4857 8.77616 31.7543 8.41765 33.2987 8.39007C34.6776 8.36249 35.7394 8.55554 36.484 8.96921C37.2286 9.35531 37.7112 9.93445 37.9319 10.7066C38.0973 11.3409 37.987 11.9063 37.6009 12.4027C37.2424 12.8991 36.7598 13.2852 36.1531 13.561C35.5739 13.8368 34.9396 13.9471 34.2502 13.8919C33.5883 13.8368 33.0367 13.561 32.5955 13.0646C33.3125 12.9267 33.8641 12.582 34.2502 12.0304C34.6638 11.4513 34.912 10.8859 34.9948 10.3343C35.0224 9.81035 34.8983 9.52078 34.6225 9.46562C34.3467 9.38288 34.002 9.43804 33.5883 9.63109C33.2022 9.82414 32.8023 10.0999 32.3886 10.4584C31.975 10.7894 31.6716 11.0927 31.4786 11.3685C31.1752 11.7546 31.0649 12.0993 31.1476 12.4027C31.2579 12.7061 31.4785 12.9956 31.8095 13.2714C32.1404 13.5196 32.5403 13.7816 33.0091 14.0574C33.478 14.3056 33.933 14.5814 34.3743 14.8847C34.8155 15.1881 35.2016 15.5328 35.5326 15.9189C35.8635 16.305 36.0428 16.7463 36.0703 17.2427C36.1531 18.2079 35.7532 19.0353 34.8707 19.7247C34.0158 20.3866 32.7885 20.7176 31.189 20.7176C30.4444 20.7176 29.7687 20.6486 29.162 20.5107C28.5553 20.3452 28.0451 20.1246 27.6314 19.8488C27.2177 19.5455 26.9281 19.2007 26.7627 18.8147C26.5696 18.4286 26.542 18.0287 26.6799 17.615C26.7902 17.2013 27.0384 16.8566 27.4245 16.5808C27.8382 16.305 28.2933 16.1396 28.7897 16.0844C29.3137 16.0017 29.8376 16.043 30.3616 16.2085C30.9132 16.374 31.382 16.6911 31.7681 17.16C31.0511 17.2979 30.4582 17.5185 29.9893 17.8218C29.5481 18.0976 29.3964 18.4423 29.5343 18.856Z" fill="#8C34C7"/>
<path d="M18.0144 13.8505C18.8142 12.8301 19.5037 11.9752 20.0828 11.2858C20.6895 10.5963 21.2135 10.0447 21.6548 9.63106C22.1236 9.21739 22.5235 8.94161 22.8544 8.80372C23.1854 8.63825 23.4887 8.55551 23.7645 8.55551C24.6194 8.55551 25.1296 8.94161 25.2951 9.7138C25.3778 10.0172 25.3916 10.3757 25.3365 10.7894C25.2813 11.203 25.171 11.7132 25.0055 12.3199C24.8401 12.8991 24.6194 13.6023 24.3436 14.4297C24.0954 15.257 23.8059 16.2498 23.4749 17.4081C23.2819 18.1803 23.2957 18.5526 23.5163 18.5251C23.7369 18.4975 24.0817 18.2217 24.5505 17.6977C25.0469 17.1737 25.626 16.4981 26.2879 15.6707C26.9774 14.8158 27.6668 13.9471 28.3563 13.0646C28.3563 13.0921 28.3977 13.1611 28.4804 13.2714C28.5631 13.3541 28.6321 13.4782 28.6872 13.6437C28.7424 13.8092 28.7424 14.0022 28.6872 14.2228C28.6596 14.4435 28.5493 14.6779 28.3563 14.9261C27.8047 15.588 27.3221 16.1809 26.9084 16.7049C26.4948 17.2013 26.0949 17.6563 25.7088 18.07C25.3227 18.4837 24.9228 18.8698 24.5091 19.2283C24.123 19.5868 23.668 19.9453 23.144 20.3039C22.8406 20.5245 22.4959 20.6486 22.1098 20.6762C21.7513 20.7037 21.3928 20.6624 21.0343 20.5521C20.7033 20.4417 20.4137 20.2625 20.1655 20.0143C19.9449 19.7661 19.8484 19.4765 19.876 19.1456C19.9311 18.2631 20.0828 17.3116 20.331 16.2912C20.6068 15.2432 20.9377 14.1539 21.3238 13.0232C21.4341 12.6647 21.4066 12.444 21.2411 12.3613C21.1032 12.2786 20.8826 12.3889 20.5792 12.6923C20.138 13.1335 19.6002 13.7126 18.9659 14.4297C18.3592 15.1467 17.8214 15.8086 17.3526 16.4153L16.9389 17.9873C16.6079 19.2007 16.2494 19.9591 15.8633 20.2625C15.4772 20.5658 14.967 20.7037 14.3327 20.6762C13.9191 20.6486 13.6019 20.5107 13.3813 20.2625C13.1331 20.0143 13.0641 19.6558 13.1744 19.1869C13.3123 18.5251 13.4778 17.7942 13.6709 16.9945C13.8639 16.1671 14.0845 15.3122 14.3327 14.4297C14.6085 13.5472 14.8981 12.6785 15.2015 11.8235C15.5048 10.941 15.8358 10.0999 16.1943 9.30012C16.3322 8.96919 16.5666 8.74856 16.8975 8.63825C17.256 8.50035 17.6146 8.4452 17.9731 8.47278C18.3592 8.50035 18.6763 8.5693 18.9245 8.67961C19.2003 8.78993 19.3244 8.90024 19.2968 9.01055L18.0144 13.8505Z" fill="#8C34C7"/>
<path d="M12.3027 0.0338465C13.1852 -0.0488889 13.847 0.0200564 14.2883 0.240683C14.7296 0.433731 15.0053 0.640568 15.1156 0.861194C15.3914 1.33002 15.488 1.79886 15.4052 2.26769C15.1846 3.17777 14.9088 4.22574 14.5779 5.41161C14.2469 6.5699 13.8884 7.78334 13.5023 9.05194C13.1162 10.3205 12.7163 11.6029 12.3027 12.8991C11.889 14.1677 11.5029 15.3812 11.1444 16.5394C10.7859 17.6701 10.4549 18.7181 10.1516 19.6834C9.87578 20.621 9.65515 21.3932 9.48968 21.9999C8.77265 21.9172 8.11077 21.7793 7.50405 21.5863C6.9249 21.4208 6.42849 21.1864 6.01482 20.883C5.62872 20.5797 5.36673 20.2073 5.22884 19.7661C5.11853 19.3248 5.17368 18.7871 5.39431 18.1528C5.64251 17.4633 6.02861 16.4429 6.5526 15.0916C7.07658 13.7127 7.64194 12.2097 8.24866 10.5825C8.85538 8.95542 9.47589 7.30072 10.1102 5.61844C10.7721 3.93617 11.3512 2.44694 11.8476 1.15077C9.69652 1.50928 8.09698 2.12979 7.049 3.0123C6.00103 3.86723 5.32536 4.80489 5.022 5.82528C4.74622 6.8181 4.76001 7.82471 5.06337 8.8451C5.36673 9.83792 5.79419 10.6653 6.34576 11.3271C5.13232 11.2444 4.09813 11.0376 3.2432 10.7066C2.3607 10.3757 1.65745 9.96202 1.13347 9.46561C0.581901 8.9692 0.237173 8.41764 0.0992819 7.81092C-0.0661878 7.17662 -0.0248205 6.54232 0.223384 5.90802C0.802527 4.33605 2.15386 3.02609 4.27739 1.97811C6.40092 0.93014 9.07601 0.282051 12.3027 0.0338465Z" fill="#8C34C7"/>
</svg>
