<svg width="128" height="128" viewBox="0 0 128 128" fill="none" xmlns="http://www.w3.org/2000/svg">
<path d="M128 64C128 89.2374 113.391 111.062 92.1707 121.482C91.7468 121.69 91.3207 121.893 90.8923 122.092C90.5904 122.232 90.2874 122.37 89.9832 122.505C85.5082 124.496 80.8177 125.963 76.0054 126.875C72.048 127.625 68.0288 128.002 64.001 128C51.4942 128 39.8256 124.413 29.9674 118.211C29.8417 118.132 29.7165 118.053 29.5913 117.972C29.4579 117.887 29.325 117.802 29.1923 117.715C27.6107 116.689 26.0784 115.595 24.5951 114.433C9.62334 102.72 0 84.4835 0 64C0 28.6536 28.6545 0 64.001 0C99.3474 0 128 28.656 128 64Z" fill="white"/>
<path d="M99.6467 71.8066C99.5199 72.1126 99.3778 72.4121 99.2211 72.704C99.1725 72.7952 99.0575 73.0088 99.1919 73.1602C99.2169 73.188 99.2475 73.2102 99.2817 73.2252C99.316 73.2402 99.3531 73.2477 99.3904 73.2471C99.4933 73.2416 99.5905 73.1986 99.6637 73.1262C99.67 73.1194 99.6763 73.1131 99.6821 73.1063C100.41 72.2701 101.061 71.2819 101.614 70.1691C102.026 69.329 102.368 68.4567 102.638 67.5609C102.808 67.012 102.991 66.3577 103.058 65.6681C103.123 65.0153 103.073 64.4135 102.913 63.8787C102.777 63.4341 102.458 63.1924 102.098 63.2623C101.772 63.3259 101.511 63.5666 101.292 63.7864C100.887 64.1931 100.575 64.6819 100.375 65.2196C100.196 65.6991 100.202 66.2485 100.23 66.6756C100.233 66.7242 100.236 66.7727 100.239 66.8212C100.254 67.0236 100.275 67.2279 100.296 67.4255C100.328 67.7274 100.36 68.0399 100.368 68.3452C100.392 69.41 100.144 70.6064 99.6467 71.8066Z" fill="#8C34C7"/>
<path d="M96.4416 74.8263C96.3708 74.9719 96.4086 75.1297 96.5344 75.2068C96.5878 75.2378 96.6496 75.2514 96.7111 75.2456C96.7727 75.2397 96.8308 75.2148 96.8775 75.1743C96.9022 75.1545 96.9244 75.1317 96.9435 75.1064C97.7841 73.9984 98.4422 72.5948 98.8465 71.048C99.1052 70.0565 99.3508 68.9125 98.979 67.8933C98.9376 67.7671 98.8738 67.6494 98.7907 67.5459C98.7402 67.4835 98.6777 67.4319 98.6069 67.3942C98.5362 67.3564 98.4585 67.3332 98.3787 67.326C97.871 67.2954 97.4138 67.9453 97.2861 68.1452C97.0453 68.5227 96.9082 68.9569 96.8887 69.4042C96.8802 69.6435 96.8965 69.8831 96.9372 70.1191C96.9566 70.2463 96.9799 70.3734 97.0032 70.5001C97.0148 70.5656 97.027 70.6306 97.0386 70.6942C97.1103 71.1164 97.1403 71.5445 97.1284 71.9726C97.1049 72.9618 96.8708 73.9347 96.4416 74.8263Z" fill="#8C34C7"/>
<path d="M94.3293 76.4585C94.3071 76.5049 94.3035 76.558 94.3193 76.607C94.3351 76.6559 94.3691 76.6969 94.4142 76.7216C94.4537 76.7413 94.4985 76.7481 94.5421 76.7409C94.5857 76.7336 94.6258 76.7128 94.6569 76.6813C94.673 76.6658 94.6873 76.6485 94.6996 76.6298C95.2334 75.8048 95.6241 74.7822 95.828 73.6693C95.9585 72.9573 96.0707 72.1395 95.7566 71.4411C95.7209 71.3545 95.67 71.2749 95.6062 71.2062C95.5672 71.165 95.5204 71.132 95.4684 71.1092C95.4165 71.0863 95.3605 71.0741 95.3038 71.0732C94.9451 71.0776 94.6568 71.5586 94.5758 71.7071C94.4261 71.9856 94.3523 72.2986 94.3618 72.6147C94.3685 72.7838 94.3924 72.9518 94.4331 73.116C94.4535 73.2043 94.4768 73.2927 94.4996 73.3805C94.5112 73.4261 94.5234 73.4718 94.5346 73.5169C94.6075 73.8105 94.651 74.1106 94.6646 74.4128C94.6995 75.1108 94.5852 75.8082 94.3293 76.4585Z" fill="#8C34C7"/>
<path d="M107.067 62.4503C106.587 62.2358 105.965 62.361 105.52 62.7614C105.15 63.0929 104.882 63.5699 104.702 64.2208C104.702 64.2232 104.702 64.2256 104.702 64.228C104.601 64.6254 104.521 65.028 104.464 65.4341L104.433 65.6258C104.404 65.8064 104.377 65.9879 104.35 66.1689C102.123 75.811 93.7423 79.535 90.2421 80.6886C89.3038 81.0061 88.296 81.058 87.33 80.8386L87.2417 80.8172C87.2283 80.8145 87.2157 80.8086 87.205 80.8002C87.1942 80.7918 87.1855 80.781 87.1796 80.7687C87.1976 80.7492 87.218 80.7319 87.2402 80.7173C87.7528 80.3474 88.3225 80.1062 88.9258 79.8505C89.1442 79.7578 89.3699 79.6622 89.5902 79.5593C90.6556 79.0696 91.4428 78.5604 92.0684 77.9577C93.1658 76.8982 93.9806 75.1029 93.3259 73.479C93.1842 73.1315 93.0051 72.8888 92.7785 72.7374C92.265 72.3933 91.6078 72.5661 91.2006 72.8189C90.8905 73.0131 90.6391 73.2698 90.3954 73.5193C90.3027 73.6163 90.2071 73.7134 90.1105 73.8037C88.935 74.92 87.3387 75.382 85.9366 75.7285C85.559 75.8217 85.1601 75.9003 84.7558 75.961C78.8142 76.854 74.6214 80.1975 72.2946 85.8977C72.2922 85.9031 72.2903 85.9089 72.2883 85.9142C71.6909 87.379 71.2206 89.0087 70.8862 90.7482C69.964 94.5964 68.9118 100.666 69.1103 107.735C69.1266 108.299 69.3272 108.842 69.6815 109.281C70.0358 109.72 70.5243 110.031 71.0721 110.166C74.2655 110.948 77.5824 111.089 80.8308 110.581C81.3522 110.502 81.8361 110.263 82.2155 109.897C82.3324 109.784 82.4387 109.66 82.5329 109.527C82.7331 109.246 82.8742 108.927 82.948 108.59C83.0217 108.253 83.0265 107.904 82.9619 107.565C82.8469 106.949 82.7358 106.304 82.6309 105.65C82.2267 103.118 81.9 100.405 82.2427 97.7219C82.8193 93.1777 85.7857 89.2596 90.5954 86.6903C92.3737 85.7405 94.1869 84.7087 95.9866 83.6239L96.1987 83.4958C97.2941 82.8362 98.4264 82.1543 99.4626 81.3603C99.9479 80.9881 100.428 80.5867 100.887 80.1679C100.944 80.1155 101.001 80.0635 101.058 80.0101C102.757 78.4348 104.184 76.5891 105.28 74.5477C106.73 71.8309 107.606 68.8452 107.853 65.7758C107.893 65.2754 107.916 64.7595 107.922 64.2421C107.927 63.7354 107.897 63.203 107.485 62.7556C107.368 62.6261 107.226 62.5221 107.067 62.4503Z" fill="#8C34C7"/>
<path d="M28.3521 71.8066C28.4787 72.1126 28.6206 72.4121 28.7772 72.704C28.8257 72.7952 28.9413 73.0088 28.8063 73.1602C28.7815 73.188 28.7509 73.2101 28.7168 73.2251C28.6826 73.2401 28.6456 73.2476 28.6083 73.2471C28.5055 73.2416 28.4082 73.1986 28.3351 73.1262C28.3285 73.1199 28.3224 73.1133 28.3166 73.1063C27.5886 72.2701 26.9378 71.2819 26.384 70.1691C25.9729 69.3288 25.6305 68.4565 25.3604 67.5609C25.1905 67.012 25.0081 66.3577 24.9401 65.6681C24.876 65.0153 24.926 64.4135 25.0886 63.8787C25.2235 63.4341 25.5434 63.1924 25.903 63.2623C26.2297 63.3259 26.4903 63.5666 26.7097 63.7864C27.1138 64.1934 27.4262 64.682 27.626 65.2196C27.8051 65.6991 27.7993 66.2485 27.7716 66.6756C27.7687 66.7242 27.7653 66.7727 27.7614 66.8212C27.7468 67.0236 27.7255 67.2279 27.7051 67.4255C27.6735 67.7274 27.641 68.0399 27.6328 68.3452C27.6066 69.41 27.8541 70.6064 28.3521 71.8066Z" fill="#8C34C7"/>
<path d="M31.5574 74.8263C31.6283 74.9719 31.5899 75.1297 31.4647 75.2068C31.4113 75.2378 31.3495 75.2514 31.2879 75.2456C31.2264 75.2397 31.1683 75.2148 31.1216 75.1743C31.0967 75.1546 31.0745 75.1318 31.0556 75.1064C30.2145 73.9984 29.5568 72.5948 29.1526 71.048C28.8934 70.0565 28.6483 68.9125 29.0196 67.8933C29.0614 67.7673 29.1251 67.6497 29.2079 67.5459C29.2585 67.4835 29.3211 67.432 29.3919 67.3942C29.4628 67.3565 29.5405 67.3333 29.6204 67.326C30.1276 67.2954 30.5848 67.9453 30.7129 68.1452C30.9533 68.5229 31.0904 68.957 31.1104 69.4042C31.1184 69.6435 31.1021 69.883 31.0619 70.1191C31.0425 70.2463 31.0192 70.3734 30.9959 70.5001C30.9838 70.5656 30.9721 70.6306 30.9605 70.6942C30.8886 71.1163 30.8585 71.5445 30.8707 71.9726C30.8939 72.9619 31.128 73.9348 31.5574 74.8263Z" fill="#8C34C7"/>
<path d="M33.6702 76.4585C33.6923 76.505 33.6958 76.5581 33.6799 76.6071C33.664 76.656 33.63 76.697 33.5848 76.7216C33.5456 76.7407 33.5014 76.7472 33.4584 76.7399C33.4154 76.7327 33.3757 76.7122 33.345 76.6813C33.3286 76.6659 33.3141 76.6487 33.3018 76.6298C32.7679 75.8048 32.3796 74.7822 32.1734 73.6693C32.0428 72.9573 31.9307 72.1395 32.2447 71.4411C32.2806 71.3545 32.3318 71.2749 32.3957 71.2062C32.4346 71.1653 32.4813 71.1325 32.5331 71.1098C32.5848 71.0872 32.6406 71.0751 32.6971 71.0742C33.0562 71.0786 33.344 71.5596 33.4251 71.7081C33.5746 71.9867 33.6484 72.2996 33.6391 72.6156C33.6322 72.7848 33.6081 72.9527 33.5673 73.117C33.5469 73.2053 33.5241 73.2937 33.5013 73.3815C33.4891 73.4271 33.4775 73.4727 33.4658 73.5179C33.3934 73.8116 33.3498 74.1116 33.3358 74.4138C33.3007 75.1114 33.4147 75.8084 33.6702 76.4585Z" fill="#8C34C7"/>
<path d="M20.9338 62.4503C21.4138 62.2358 22.0355 62.361 22.481 62.7614C22.8509 63.0929 23.1178 63.5699 23.2983 64.2208C23.2983 64.2232 23.2983 64.2256 23.2983 64.228C23.4001 64.6253 23.4796 65.028 23.5366 65.4341L23.5677 65.6258C23.5968 65.8064 23.624 65.9879 23.6507 66.1689C25.8784 75.811 34.2588 79.535 37.7591 80.6886C38.6974 81.0062 39.7052 81.0581 40.6711 80.8386L40.7595 80.8172C40.7729 80.8144 40.7855 80.8086 40.7964 80.8002C40.8072 80.7918 40.816 80.781 40.8221 80.7687C40.8039 80.7493 40.7835 80.732 40.7614 80.7173C40.2489 80.3474 39.6791 80.1062 39.0758 79.8505C38.8574 79.7578 38.6317 79.6622 38.4109 79.5593C37.3461 79.0696 36.5588 78.5604 35.9357 77.9577C34.8378 76.8982 34.0234 75.1029 34.6781 73.479C34.8199 73.1315 34.9989 72.8888 35.2256 72.7374C35.7391 72.3933 36.3962 72.5661 36.803 72.8189C37.1131 73.0131 37.365 73.2698 37.6086 73.5193C37.7013 73.6163 37.7969 73.7134 37.8935 73.8037C39.0685 74.92 40.6648 75.382 42.0675 75.7285C42.4451 75.8217 42.844 75.9003 43.2483 75.961C49.1898 76.854 53.3822 80.1975 55.7094 85.8977C55.7094 85.9031 55.7143 85.9089 55.7162 85.9142C56.3132 87.379 56.784 89.0087 57.1179 90.7482C58.0376 94.5964 59.0923 100.666 58.8938 107.735C58.8775 108.299 58.6768 108.842 58.3225 109.281C57.9682 109.72 57.4798 110.031 56.932 110.166C53.7387 110.948 50.422 111.089 47.1737 110.581C46.6524 110.502 46.1685 110.263 45.7891 109.897C45.6718 109.784 45.5656 109.66 45.4716 109.527C45.2713 109.246 45.1299 108.927 45.0562 108.59C44.9825 108.253 44.9778 107.904 45.0426 107.565C45.1576 106.949 45.2688 106.304 45.3736 105.65C45.7774 103.118 46.1045 100.405 45.7619 97.7219C45.1858 93.1777 42.2189 89.2596 37.4096 86.6903C35.6313 85.7405 33.8181 84.7087 32.018 83.6239L31.8059 83.4958C30.711 82.8362 29.5787 82.1543 28.5425 81.3603C28.0571 80.9881 27.5766 80.5867 27.118 80.1679C27.0607 80.1155 27.0039 80.0635 26.9471 80.0101C25.2478 78.4348 23.8211 76.5891 22.7247 74.5477C21.2748 71.831 20.3993 68.8452 20.1524 65.7758C20.1121 65.2754 20.0888 64.7595 20.0834 64.2421C20.0786 63.7354 20.1077 63.203 20.5202 62.7556C20.6357 62.6265 20.7764 62.5226 20.9338 62.4503Z" fill="#8C34C7"/>
<path d="M57.308 54.9689C49.4106 55.0961 33.8447 52.4622 33.8986 31.5273C33.8986 31.5273 57.0605 27.4991 61.2417 50.0671C52.1333 49.4575 41.4141 36.8975 41.0734 36.4957C48.6947 46.6202 53.8519 52.2006 57.308 54.9689Z" fill="#8C34C7"/>
<path d="M70.691 54.9689C78.589 55.0961 94.1548 52.4622 94.101 31.5273C94.101 31.5273 70.939 27.4991 66.7578 50.0671C75.8662 49.4575 86.585 36.8975 86.9262 36.4957C79.3049 46.6202 74.1457 52.2006 70.691 54.9689Z" fill="#8C34C7"/>
<path d="M62.3183 39.2393C68.3157 37.395 79.4275 31.5836 74.2456 15.7806C74.2456 15.7806 55.7589 18.4243 58.1429 36.5015C64.8741 33.8045 69.8882 21.6838 70.0459 21.2965C66.7747 30.8173 64.2495 36.2991 62.3183 39.2393Z" fill="#8C34C7"/>
<path d="M69.2026 80.147C65.7116 72.0273 67.154 61.6495 68.4402 55.8279C67.3107 56.9309 65.7945 57.5484 64.2158 57.5484C62.637 57.5484 61.1209 56.9309 59.9914 55.8279C61.2775 61.6495 62.7204 72.0273 59.2289 80.147L59.209 80.1955H69.2225L69.2026 80.147Z" fill="#8C34C7"/>
</svg>
