<svg width="24" height="24" viewBox="0 0 24 24" fill="none" xmlns="http://www.w3.org/2000/svg">
<path d="M5.13766 14.7494L6.64643 15.908C6.96725 16.1537 7.38982 16.194 7.7473 16.0162C8.10754 15.8393 8.33119 15.4791 8.33119 15.0785L8.33303 10.6283C8.33303 9.36515 7.30549 8.33669 6.04237 8.33669H3.29249C3.29249 8.33669 3.29249 8.33578 3.29065 8.33578C2.67926 8.33578 2.10454 8.5741 1.67097 9.00583C1.23832 9.4394 1 10.015 1 10.6273V12.4597C1 13.7237 2.02754 14.7513 3.29157 14.7513H5.13766V14.7494ZM1.91663 12.4579V10.6255C1.91663 10.2579 2.05962 9.91238 2.31903 9.65297C2.57843 9.39357 2.924 9.24966 3.29065 9.24966H6.04237C6.79951 9.24966 7.4164 9.8693 7.4164 10.6273V15.0776C7.40723 15.1958 7.30274 15.2435 7.20557 15.1802L5.57306 13.9272C5.4924 13.8658 5.39523 13.8319 5.29349 13.8319H3.29157C2.53352 13.8319 1.91663 13.215 1.91663 12.4569V12.4579ZM22.5124 11.0829C22.2594 11.093 22.0632 11.3066 22.0733 11.5596C22.0797 11.7053 22.0834 11.852 22.0834 11.9986C22.0834 13.2929 21.8295 14.5267 21.3831 15.6651H16.92C17.2711 14.6303 17.5002 13.5486 17.5002 12.4569C17.5002 12.2039 17.2949 11.9986 17.0419 11.9986C16.7889 11.9986 16.5836 12.2039 16.5836 12.4569C16.5836 13.5395 16.3279 14.6266 15.9429 15.6651H10.1672C9.91421 15.6651 9.70889 15.8705 9.70889 16.1235C9.70889 16.3764 9.91421 16.5818 10.1672 16.5818H15.5661C14.4424 19.0493 12.709 21.0934 11.9995 21.8707C11.3973 21.2107 10.0728 19.6626 9.00675 17.7349C8.88484 17.5131 8.60527 17.4351 8.38344 17.5561C8.16254 17.679 8.08187 17.9576 8.2047 18.1795C9.11674 19.8285 10.1846 21.1842 10.8941 22.0073C7.64097 21.648 4.73434 19.7386 3.14308 16.8219C3.023 16.5992 2.74343 16.5167 2.5216 16.6395C2.29978 16.7605 2.21728 17.0392 2.33919 17.261C4.26961 20.801 7.97188 23 12.0005 23C18.0658 23 23 18.0658 23 12.0005C23 11.841 22.9963 11.6815 22.9899 11.5229C22.978 11.2699 22.7598 11.0655 22.5124 11.0838V11.0829ZM13.0967 22.0192C14.028 20.944 15.579 18.9439 16.5717 16.5818H20.9688C19.4554 19.5324 16.5369 21.6443 13.0967 22.0192ZM3.04316 6.41911C2.83417 6.27611 2.78193 5.99104 2.92492 5.78205C4.98092 2.78743 8.37336 1 11.9995 1C13.1426 1 14.27 1.17416 15.3471 1.51881C15.5881 1.59581 15.7211 1.85338 15.6441 2.09445C15.5661 2.33553 15.3086 2.47119 15.0675 2.39144C14.4268 2.18703 13.7668 2.05504 13.0958 1.98263C13.4084 2.34469 13.7879 2.80759 14.1994 3.36032C14.3507 3.56381 14.3076 3.85071 14.1041 4.00196C13.9034 4.15229 13.6156 4.11195 13.4634 3.90755C12.8676 3.10733 12.3268 2.48585 11.9986 2.12654C11.357 2.82959 9.87205 4.56385 8.76568 6.70876C8.64835 6.93609 8.36878 7.02133 8.14787 6.90584C7.92329 6.79034 7.83438 6.51352 7.95079 6.28895C8.91325 4.42269 10.1223 2.88184 10.8978 1.98354C7.99663 2.30161 5.35307 3.8608 3.67839 6.30086C3.53448 6.51077 3.24757 6.56119 3.04133 6.41911H3.04316ZM13.3745 7.4164C13.6275 7.4164 13.8328 7.62172 13.8328 7.87471C13.8328 8.1277 13.6275 8.33303 13.3745 8.33303H9.70797C9.45498 8.33303 9.24966 8.1277 9.24966 7.87471C9.24966 7.62172 9.45498 7.4164 9.70797 7.4164H13.3745ZM16.7165 10.6255C16.5589 10.6255 16.3994 10.5898 16.2518 10.5164C15.8915 10.3386 15.6679 9.97929 15.6679 9.57781L15.6661 5.12758C15.6661 3.86446 16.6936 2.83601 17.9567 2.83601H20.7066C20.7066 2.83601 20.7066 2.83509 20.7084 2.83509C21.3198 2.83509 21.8945 3.07341 22.3281 3.50515C22.7608 3.93871 22.9991 4.51435 22.9991 5.12666V6.959C22.9991 8.22212 21.9715 9.25057 20.7075 9.25057H18.8614L17.3527 10.4092C17.1647 10.5531 16.9411 10.6255 16.7165 10.6255ZM20.7075 3.7508H17.9576C17.2005 3.75264 16.5836 4.36953 16.5836 5.12758L16.5854 9.57781C16.5854 9.64472 16.6248 9.67864 16.6578 9.69422C16.6908 9.71072 16.7431 9.7208 16.7944 9.68047L18.4269 8.42744C18.5076 8.36603 18.6048 8.33211 18.7065 8.33211H20.7084C21.4665 8.33211 22.0834 7.71522 22.0834 6.95717V5.12483C22.0834 4.75726 21.9404 4.41169 21.681 4.15229C21.4206 3.89196 21.0402 3.75905 20.7075 3.7508Z" fill="#8C34C7"/>
</svg>
