<svg width="24" height="24" viewBox="0 0 24 24" fill="none" xmlns="http://www.w3.org/2000/svg">
<g clip-path="url(#clip0_1413_1609)">
<path d="M13.83 5.26802C14.94 4.67602 16.291 3.68702 16.89 2.18102C17.083 1.69502 17.023 1.16302 16.724 0.723023C16.417 0.270023 15.909 -0.000976562 15.364 -0.000976562H8.636C8.092 -0.000976562 7.583 0.270023 7.276 0.723023C6.977 1.16302 6.917 1.69502 7.109 2.18102C7.708 3.68702 9.059 4.67602 10.169 5.26802C5.238 6.62002 1 13.094 1 18.25C1 21.42 3.58 24 6.75 24H17.25C20.42 24 23 21.42 23 18.25C23 13.094 18.762 6.62002 13.83 5.26802ZM8.039 1.81202C7.945 1.57602 8.039 1.38002 8.103 1.28602C8.224 1.10702 8.423 1.00102 8.636 1.00102H15.364C15.576 1.00102 15.776 1.10702 15.897 1.28602C15.961 1.38102 16.055 1.57602 15.961 1.81302C15.173 3.79502 12.624 4.76502 12 4.97602C11.375 4.76602 8.831 3.80202 8.04 1.81202H8.039ZM17.25 23H6.75C4.131 23 2 20.869 2 18.25C2 12.901 6.849 6.00002 12 6.00002C17.151 6.00002 22 12.901 22 18.25C22 20.869 19.869 23 17.25 23ZM16 17.374C16 18.822 14.822 20 13.374 20H12.5V21.5C12.5 21.776 12.276 22 12 22C11.724 22 11.5 21.776 11.5 21.5V20H10.574C9.595 20 8.683 19.474 8.193 18.626C8.054 18.387 8.136 18.081 8.375 17.943C8.614 17.803 8.919 17.886 9.058 18.125C9.37 18.665 9.952 19 10.574 19H13.374C14.27 19 15 18.271 15 17.374C15 16.571 14.425 15.896 13.632 15.769L10.21 15.219C8.93 15.013 8.001 13.923 8.001 12.626C8.001 11.178 9.179 10 10.627 10H11.501V8.50002C11.501 8.22402 11.725 8.00002 12.001 8.00002C12.277 8.00002 12.501 8.22402 12.501 8.50002V10H13.427C14.405 10 15.318 10.527 15.808 11.375C15.947 11.614 15.865 11.92 15.626 12.058C15.385 12.196 15.082 12.114 14.943 11.876C14.631 11.336 14.049 11.001 13.427 11.001H10.627C9.731 11.001 9.001 11.73 9.001 12.627C9.001 13.43 9.576 14.105 10.369 14.232L13.791 14.782C15.071 14.988 16 16.077 16 17.374Z" fill="#8C34C7"/>
</g>
<defs>
<clipPath id="clip0_1413_1609">
<rect width="24" height="24" fill="white"/>
</clipPath>
</defs>
</svg>
