<svg width="24" height="24" viewBox="0 0 24 24" fill="none" xmlns="http://www.w3.org/2000/svg">
<path d="M12 10C10.346 10 9 11.346 9 13C9 14.654 10.346 16 12 16C13.654 16 15 14.654 15 13C15 11.346 13.654 10 12 10ZM12 15C10.897 15 10 14.103 10 13C10 11.897 10.897 11 12 11C13.103 11 14 11.897 14 13C14 14.103 13.103 15 12 15ZM20.096 5.389L16.612 1.904C15.383 0.676 13.751 0 12.015 0H6.5C4.019 0 2 2.019 2 4.5V19.5C2 21.981 4.019 24 6.5 24H17.5C19.981 24 22 21.981 22 19.5V9.985C22 8.248 21.323 6.616 20.096 5.389ZM19.389 6.096C19.939 6.646 20.348 7.295 20.621 8H15.5C14.673 8 14 7.327 14 6.5V1.38C14.704 1.653 15.354 2.062 15.904 2.611L19.389 6.096ZM8 23C8 20.794 9.794 19 12 19C14.206 19 16 20.794 16 23H8ZM21 19.5C21 21.43 19.43 23 17.5 23H17C17 20.243 14.757 18 12 18C9.243 18 7 20.243 7 23H6.5C4.57 23 3 21.43 3 19.5V4.5C3 2.57 4.57 1 6.5 1H12.015C12.35 1 12.678 1.038 13 1.096V6.5C13 7.878 14.121 9 15.5 9H20.904C20.962 9.323 21 9.651 21 9.985V19.5Z" fill="#8C34C7"/>
</svg>
