<?xml version="1.0" encoding="UTF-8"?>
<svg id="Layer_1" xmlns="http://www.w3.org/2000/svg" version="1.1" viewBox="0 0 432 432">
  <!-- Generator: Adobe Illustrator 29.7.1, SVG Export Plug-In . SVG Version: 2.1.1 Build 8)  -->
  <defs>
    <style>
      .st0 {
        fill: #25a05f;
      }

      .st1 {
        fill: #fff;
      }

      .st2 {
        fill: #29aa6b;
      }

      .st3 {
        fill: #a8a9ad;
      }
    </style>
  </defs>
  <circle class="st3" cx="136.32" cy="261.83" r="16.49"/>
  <circle class="st3" cx="216.48" cy="210.22" r="26.35" transform="translate(-85.24 214.65) rotate(-45)"/>
  <circle class="st3" cx="303.72" cy="137.99" r="31.87" transform="translate(-18.18 50.43) rotate(-9.22)"/>
  <path class="st3" d="M140.65,287.87h-8.66c-7.92,0-14.35,6.42-14.35,14.35v30.73c11.08,10.43,23.65,19.29,37.36,26.24v-56.97c0-7.92-6.42-14.35-14.35-14.35Z"/>
  <path class="st3" d="M225.08,247.96h-17.19c-11.19,0-20.26,9.07-20.26,20.26v103.22c12.66,3.23,25.93,4.94,39.6,4.94,6.13,0,12.17-.35,18.12-1.02v-107.14c0-11.19-9.07-20.26-20.26-20.26Z"/>
  <path class="st3" d="M313.18,184.66h-18.91c-13.22,0-23.95,10.72-23.95,23.95v161.89c25.37-7.08,48.2-20.26,66.8-37.87v-124.03c0-13.23-10.72-23.95-23.95-23.95Z"/>
  <path class="st2" d="M227.17,55.62c-36.95,0-70.98,12.48-98.12,33.45,62.45,19.4,114.58,70.42,114.58,70.42-6.55-9.06-10.41-20.19-10.41-32.22,0-30.42,24.66-55.08,55.08-55.08,4.51,0,8.89.55,13.08,1.57-22.2-11.58-47.44-18.13-74.21-18.13Z"/>
  <path class="st2" d="M86.2,139.18c-12.54,22.88-19.67,49.14-19.67,77.08,0,25.75,6.06,50.08,16.82,71.64-.56-3.11-.85-6.31-.85-9.57,0-29.72,24.09-53.81,53.81-53.81,11.98,0,23.05,3.92,31.99,10.55-41.35-31.66-69.34-67.21-82.11-95.88Z"/>
  <path class="st1" d="M169.72,236.14c-.46-.37-.93-.72-1.41-1.08.47.36.94.72,1.41,1.08Z"/>
  <path class="st0" d="M86.2,139.18c12.77,28.67,40.77,64.22,82.11,95.88.47.35.95.71,1.41,1.08-7.02-9.09-11.2-20.49-11.2-32.86,0-29.72,24.09-53.81,53.81-53.81,11.67,0,22.47,3.71,31.28,10.02,0,0-52.13-51.02-114.58-70.42-17.51,13.53-32.14,30.59-42.84,50.11Z"/>
</svg>