<?xml version="1.0" encoding="UTF-8"?>
<svg id="Layer_1" xmlns="http://www.w3.org/2000/svg" version="1.1" viewBox="0 0 1183.06 432">
  <!-- Generator: Adobe Illustrator 29.7.1, SVG Export Plug-In . SVG Version: 2.1.1 Build 8)  -->
  <defs>
    <style>
      .st0, .st1 {
        fill: #123f50;
      }

      .st2 {
        fill: #25a05f;
      }

      .st3 {
        fill: #03a765;
      }

      .st4 {
        fill: #fff;
      }

      .st5 {
        fill: #29aa6b;
      }

      .st1 {
        fill-rule: evenodd;
      }

      .st6 {
        fill: #a8a9ad;
      }
    </style>
  </defs>
  <g>
    <circle class="st6" cx="133.5" cy="261.83" r="16.49"/>
    <circle class="st6" cx="213.66" cy="210.22" r="26.35" transform="translate(-86.07 212.65) rotate(-45)"/>
    <circle class="st6" cx="300.9" cy="137.99" r="31.87" transform="translate(-18.22 49.98) rotate(-9.22)"/>
    <path class="st6" d="M137.83,287.87h-8.66c-7.92,0-14.35,6.42-14.35,14.35v30.73c11.08,10.43,23.65,19.29,37.36,26.24v-56.97c0-7.92-6.42-14.35-14.35-14.35Z"/>
    <path class="st6" d="M222.25,247.96h-17.19c-11.19,0-20.26,9.07-20.26,20.26v103.22c12.66,3.23,25.93,4.94,39.6,4.94,6.13,0,12.17-.35,18.12-1.02v-107.14c0-11.19-9.07-20.26-20.26-20.26Z"/>
    <path class="st6" d="M310.35,184.66h-18.91c-13.22,0-23.95,10.72-23.95,23.95v161.89c25.37-7.08,48.2-20.26,66.8-37.87v-124.03c0-13.23-10.72-23.95-23.95-23.95Z"/>
    <path class="st5" d="M224.34,55.62c-36.95,0-70.98,12.48-98.12,33.45,62.45,19.4,114.58,70.42,114.58,70.42-6.55-9.06-10.41-20.19-10.41-32.22,0-30.42,24.66-55.08,55.08-55.08,4.51,0,8.89.55,13.08,1.57-22.2-11.58-47.44-18.13-74.21-18.13Z"/>
    <path class="st5" d="M83.38,139.18c-12.54,22.88-19.67,49.14-19.67,77.08,0,25.75,6.06,50.08,16.82,71.64-.56-3.11-.85-6.31-.85-9.57,0-29.72,24.09-53.81,53.81-53.81,11.98,0,23.05,3.92,31.99,10.55-41.35-31.66-69.34-67.21-82.11-95.88Z"/>
    <path class="st4" d="M166.9,236.14c-.46-.37-.93-.72-1.41-1.08.47.36.94.72,1.41,1.08Z"/>
    <path class="st2" d="M83.38,139.18c12.77,28.67,40.77,64.22,82.11,95.88.47.35.95.71,1.41,1.08-7.02-9.09-11.2-20.49-11.2-32.86,0-29.72,24.09-53.81,53.81-53.81,11.67,0,22.47,3.71,31.28,10.02,0,0-52.13-51.02-114.58-70.42-17.51,13.53-32.14,30.59-42.84,50.11Z"/>
  </g>
  <g>
    <g>
      <polygon class="st1" points="371.87 86.76 371.87 163.91 416.55 163.91 416.55 149.02 392.6 149.02 392.6 86.81 371.87 86.76"/>
      <polygon class="st1" points="583.82 119.46 565.97 119.46 551.8 164.19 624.4 164.19 599.95 86.94 580.64 86.94 598.73 146.1 577.71 146.1 583.82 119.46"/>
      <polygon class="st1" points="454.75 119.46 436.9 119.46 422.73 164.19 495.33 164.19 470.88 86.94 451.57 86.94 469.66 146.1 448.64 146.1 454.75 119.46"/>
      <path class="st1" d="M500.13,164.19h38.46s14.83-3.42,14.83-19.23c0,0,2.12-10.43-10.27-18.41,0,0,10.27-3.59,10.27-21.02,0,0,.65-13.36-14.83-18.58h-38.46v18.25h26.24s6.19.32,6.19,7.17c0,0,.65,7.17-3.91,7.17h-28.84v15.16h28.68s4.08.65,4.08,6.19c0,0,.65,6.68-3.59,6.68h-28.85v16.63Z"/>
      <path class="st1" d="M681.6,145.61v-30.31h-24.2v49.14h40.58s26.64-5.79,26.64-41.56c0,0,.98-28.36-30.56-35.69h-36.42v17.11h27.13s18.58-.73,18.58,21.76c0,0,1.71,20.53-21.76,19.55Z"/>
      <rect class="st0" x="627.58" y="116.69" width="20.04" height="47.03"/>
      <rect class="st0" x="627.58" y="87.11" width="20.04" height="18.17"/>
    </g>
    <path class="st0" d="M387.27,181.57v98.3h-17.92v-98.3h17.92Z"/>
    <path class="st0" d="M412.93,279.8v-98.23h17.85l29.88,70.38-1.76,2.23v-72.61h16.5v98.23h-18.05l-29.61-67.94,1.62-2.23v70.18h-16.43Z"/>
    <path class="st0" d="M529.45,280.88c-5.5,0-10.34-.82-14.54-2.47-4.19-1.64-7.65-4.09-10.38-7.34-2.73-3.24-4.68-7.26-5.85-12.03l16.43-7.3c1.31,4.01,3.27,7.02,5.88,9.03,2.61,2.01,5.77,3.01,9.47,3.01,3.96,0,7.01-.86,9.13-2.57,2.12-1.71,3.18-4.1,3.18-7.17v-4.39c0-2.48-.71-4.43-2.13-5.85-1.42-1.42-3.29-2.58-5.61-3.48-2.32-.9-4.86-1.76-7.61-2.57-3.07-.95-6.14-1.98-9.23-3.11-3.09-1.13-5.93-2.65-8.52-4.56-2.59-1.92-4.68-4.46-6.25-7.64-1.58-3.18-2.37-7.27-2.37-12.27v-2.64c0-8.56,2.62-15.2,7.88-19.91,5.25-4.71,12.72-7.07,22.41-7.07,7.3,0,13.33,1.75,18.08,5.24,4.76,3.49,7.99,8.73,9.7,15.72l-15.62,7.5c-1.26-3.88-3.01-6.76-5.24-8.65-2.23-1.89-4.88-2.84-7.94-2.84-3.74,0-6.63.79-8.65,2.37-2.03,1.58-3.04,3.76-3.04,6.56v3.31c0,2.8.79,4.97,2.37,6.52,1.58,1.55,3.66,2.8,6.25,3.72,2.59.92,5.35,1.86,8.28,2.81,3.02.99,5.98,2.05,8.89,3.18,2.91,1.13,5.57,2.65,7.98,4.56,2.41,1.92,4.35,4.41,5.81,7.47,1.46,3.07,2.2,6.92,2.2,11.56v4.26c0,8.52-2.7,15.16-8.11,19.91-5.41,4.76-13.03,7.13-22.85,7.13Z"/>
    <path class="st0" d="M610.68,280.88c-9.37,0-16.65-2.68-21.84-8.05-5.18-5.36-7.77-12.91-7.77-22.65v-68.62h17.64v69.09c0,4.01,1.04,7.13,3.11,9.36,2.07,2.23,5.03,3.35,8.86,3.35s6.81-1.12,8.92-3.35c2.12-2.23,3.18-5.35,3.18-9.36v-69.09h17.64v68.62c0,9.74-2.61,17.29-7.84,22.65-5.23,5.36-12.53,8.05-21.9,8.05Z"/>
    <path class="st0" d="M664.87,279.87v-98.37h17.44v98.37h-17.44ZM672.3,239.31v-16.97h25.89c2.57,0,4.59-.81,6.05-2.43,1.46-1.62,2.2-3.81,2.2-6.56v-5.54c0-2.84-.73-5.1-2.2-6.79-1.46-1.69-3.48-2.54-6.05-2.54h-25.89v-16.97h26.1c5.41,0,10.07,1.04,13.99,3.11,3.92,2.07,6.94,5.05,9.06,8.92,2.12,3.88,3.18,8.47,3.18,13.79v5.75c0,5.41-1.07,10.07-3.21,13.99-2.14,3.92-5.16,6.94-9.06,9.06-3.9,2.12-8.55,3.18-13.96,3.18h-26.1ZM707.93,279.87l-18.46-43.61,17.58-3.11,21.03,46.72h-20.15Z"/>
    <path class="st0" d="M751.37,279.87v-98.3h17.58v98.3h-17.58ZM758.4,198.67v-17.1h47.66v17.1h-47.66ZM758.4,239.51v-16.97h42.25v16.97h-42.25ZM758.4,279.87v-17.1h47.66v17.1h-47.66Z"/>
    <path class="st3" d="M901.72,279.87v-98.3h17.58v98.3h-17.58ZM908.76,198.67v-17.1h47.66v17.1h-47.66ZM908.76,239.51v-16.97h42.25v16.97h-42.25ZM908.76,279.87v-17.1h47.66v17.1h-47.66Z"/>
    <path class="st3" d="M1007.9,280.88c-6.22,0-11.54-1.21-15.95-3.62-4.42-2.41-7.8-5.92-10.14-10.51-2.34-4.6-3.52-10.16-3.52-16.7v-38.6c0-6.58,1.17-12.17,3.52-16.77,2.34-4.6,5.72-8.1,10.14-10.51,4.42-2.41,9.74-3.62,15.95-3.62s11.3,1.21,15.52,3.62c4.21,2.41,7.47,6.11,9.77,11.09,2.3,4.98,3.67,11.23,4.12,18.76h-18.12c-.27-3.56-.87-6.5-1.79-8.82-.92-2.32-2.17-4.04-3.75-5.17-1.58-1.13-3.49-1.69-5.75-1.69-3.56,0-6.37,1.14-8.42,3.41-2.05,2.28-3.08,5.51-3.08,9.7v38.6c0,4.15,1.02,7.36,3.08,9.63,2.05,2.28,4.86,3.41,8.42,3.41s6.01-1.28,7.88-3.85c1.87-2.57,3.01-6.51,3.41-11.83h18.12c-.5,7.53-1.89,13.78-4.19,18.76-2.3,4.98-5.54,8.68-9.74,11.09-4.19,2.41-9.35,3.62-15.48,3.62Z"/>
    <path class="st3" d="M1059.86,279.87v-98.3h17.58v98.3h-17.58ZM1068.1,239.64v-16.7h45.09v16.7h-45.09ZM1101.77,279.87v-98.3h17.58v98.3h-17.58Z"/>
    <rect class="st3" x="843.01" y="189.75" width="17.65" height="8.79"/>
    <rect class="st3" x="843.01" y="198.54" width="17.65" height="81.33"/>
    <polygon class="st3" points="821.58 181.57 821.58 198.54 843.01 198.54 843.01 189.75 860.65 189.75 860.65 198.54 874.81 198.54 874.81 181.57 821.58 181.57"/>
    <rect class="st3" x="874.81" y="164.44" width="17.13" height="16.97"/>
  </g>
  <g>
    <path class="st6" d="M369.36,303.04h28.13v4.53h-11.62v31.48h-4.94v-31.48h-11.57v-4.53Z"/>
    <path class="st6" d="M422.74,314.49c1.82,1.87,2.73,4.45,2.73,7.74v16.82h-4.78v-15.53c0-2.3-.64-4.09-1.93-5.38-1.29-1.29-3.06-1.93-5.32-1.93-2.64.04-4.73.93-6.27,2.68-1.54,1.75-2.31,4.01-2.31,6.79v13.37h-4.78v-38.16h4.78v16.82c1.82-3.94,5.28-5.95,10.39-6.02,3.19,0,5.69.93,7.51,2.8Z"/>
    <path class="st6" d="M454.47,315.41c2.16,2.49,3.24,5.94,3.24,10.36,0,.69-.02,1.2-.05,1.54h-21.5c.38,2.43,1.4,4.37,3.06,5.81,1.66,1.44,3.71,2.16,6.15,2.16,1.61,0,3.11-.29,4.5-.87,1.39-.58,2.6-1.41,3.63-2.47l2.62,2.73c-1.34,1.44-2.95,2.55-4.83,3.34-1.89.79-3.98,1.18-6.27,1.18-2.67,0-5.05-.57-7.12-1.72-2.07-1.15-3.69-2.77-4.83-4.86-1.15-2.09-1.72-4.47-1.72-7.15s.57-5.05,1.72-7.12c1.15-2.07,2.75-3.7,4.81-4.89,2.06-1.18,4.41-1.77,7.05-1.77,4.22,0,7.41,1.24,9.57,3.73ZM453.39,323.61c-.14-2.47-.96-4.41-2.47-5.84-1.51-1.42-3.5-2.13-5.97-2.13s-4.4.72-5.99,2.16c-1.59,1.44-2.55,3.38-2.85,5.81h17.28Z"/>
    <path class="st6" d="M478.18,303.04h23.45l-.05,4.47h-18.46v11.83h16.61v4.47h-16.61v15.22h-4.94v-36Z"/>
    <path class="st6" d="M531,311.84v27.21h-4.83v-5.76c-1.78,3.87-5.14,5.85-10.08,5.91-3.15,0-5.62-.93-7.41-2.8-1.78-1.87-2.67-4.45-2.67-7.74v-16.82h4.83v15.53c0,2.3.63,4.09,1.88,5.37,1.25,1.29,2.97,1.93,5.17,1.93,2.54-.03,4.55-.93,6.04-2.7,1.49-1.77,2.24-4.02,2.24-6.76v-13.37h4.83Z"/>
    <path class="st6" d="M554.91,337.24c-2.09,1.34-4.22,2.01-6.38,2.01s-3.91-.64-5.25-1.93c-1.34-1.29-2.01-3.23-2.01-5.84v-15.07h-3.86v-3.65h3.86v-7.3h4.83v7.3h8.33v3.65h-8.33v14.2c0,1.51.27,2.59.82,3.24.55.65,1.37.98,2.47.98,1.3,0,2.71-.43,4.22-1.29l1.29,3.7Z"/>
    <path class="st6" d="M584.79,311.84v27.21h-4.83v-5.76c-1.78,3.87-5.14,5.85-10.08,5.91-3.15,0-5.62-.93-7.41-2.8-1.78-1.87-2.67-4.45-2.67-7.74v-16.82h4.83v15.53c0,2.3.63,4.09,1.88,5.37,1.25,1.29,2.97,1.93,5.17,1.93,2.54-.03,4.55-.93,6.04-2.7,1.49-1.77,2.24-4.02,2.24-6.76v-13.37h4.83Z"/>
    <path class="st6" d="M602.69,313.25c1.65-1.01,3.6-1.53,5.86-1.57v4.63c-2.78-.1-5.02.62-6.74,2.16-1.72,1.54-2.69,3.62-2.93,6.22v14.35h-4.78v-27.21h4.78v5.86c.89-1.95,2.16-3.44,3.81-4.45Z"/>
    <path class="st6" d="M634.22,315.41c2.16,2.49,3.24,5.94,3.24,10.36,0,.69-.02,1.2-.05,1.54h-21.5c.38,2.43,1.4,4.37,3.06,5.81,1.66,1.44,3.71,2.16,6.15,2.16,1.61,0,3.11-.29,4.5-.87,1.39-.58,2.6-1.41,3.63-2.47l2.62,2.73c-1.34,1.44-2.95,2.55-4.83,3.34-1.89.79-3.98,1.18-6.27,1.18-2.67,0-5.05-.57-7.12-1.72-2.08-1.15-3.69-2.77-4.83-4.86-1.15-2.09-1.72-4.47-1.72-7.15s.57-5.05,1.72-7.12c1.15-2.07,2.75-3.7,4.81-4.89,2.06-1.18,4.4-1.77,7.05-1.77,4.22,0,7.41,1.24,9.57,3.73ZM633.14,323.61c-.14-2.47-.96-4.41-2.47-5.84-1.51-1.42-3.5-2.13-5.97-2.13s-4.4.72-5.99,2.16c-1.59,1.44-2.55,3.38-2.85,5.81h17.28Z"/>
    <path class="st6" d="M676,313.43c2.11,1.17,3.75,2.79,4.94,4.86s1.77,4.45,1.77,7.12-.59,5.06-1.77,7.15c-1.18,2.09-2.83,3.72-4.94,4.89-2.11,1.17-4.52,1.75-7.23,1.75s-5.17-.58-7.28-1.75c-2.11-1.16-3.75-2.79-4.94-4.86-1.18-2.07-1.77-4.47-1.77-7.17s.59-5.05,1.77-7.12c1.18-2.07,2.83-3.69,4.94-4.86,2.11-1.17,4.53-1.75,7.28-1.75s5.12.58,7.23,1.75ZM664.02,317.08c-1.39.82-2.47,1.96-3.24,3.42-.77,1.46-1.16,3.11-1.16,4.96s.39,3.57,1.16,5.04c.77,1.47,1.85,2.61,3.24,3.42s2.97,1.21,4.76,1.21,3.32-.4,4.71-1.21c1.39-.81,2.47-1.95,3.24-3.42.77-1.47,1.16-3.15,1.16-5.04s-.39-3.51-1.16-4.96c-.77-1.46-1.85-2.6-3.24-3.42-1.39-.82-2.96-1.23-4.71-1.23s-3.37.41-4.76,1.23Z"/>
    <path class="st6" d="M696.14,305.97c-.82.75-1.23,1.83-1.23,3.24v3.55h7.51v3.65h-7.51v22.63h-4.78v-22.63h-3.55v-3.65h3.55v-2.93c0-1.99.42-3.68,1.26-5.07.84-1.39,1.95-2.43,3.32-3.14,1.37-.7,2.85-1.05,4.42-1.05s3.09.41,4.73,1.23l-1.13,3.91c-1.23-.58-2.4-.87-3.5-.87-1.23,0-2.26.38-3.09,1.13Z"/>
    <path class="st6" d="M720.72,303.04h4.94v36h-4.94v-36Z"/>
    <path class="st6" d="M758.11,314.49c1.82,1.87,2.73,4.45,2.73,7.74v16.82h-4.78v-15.53c0-2.3-.64-4.09-1.93-5.38-1.29-1.29-3.06-1.93-5.32-1.93-2.43.04-4.42.82-5.94,2.34-1.53,1.53-2.39,3.51-2.6,5.94v14.56h-4.78v-27.21h4.78v5.76c1.82-3.87,5.26-5.85,10.34-5.91,3.19,0,5.69.93,7.51,2.8Z"/>
    <path class="st6" d="M780.51,316.21c-1.36-.41-2.65-.62-3.88-.62-1.44,0-2.6.27-3.47.8-.87.53-1.31,1.35-1.31,2.44s.49,1.93,1.47,2.49c.98.57,2.46,1.14,4.45,1.72,1.89.55,3.43,1.1,4.63,1.65,1.2.55,2.22,1.36,3.06,2.42.84,1.06,1.26,2.47,1.26,4.22,0,2.57-.97,4.53-2.91,5.86-1.94,1.34-4.35,2.01-7.23,2.01-2.02,0-3.99-.33-5.89-.98-1.9-.65-3.51-1.58-4.81-2.78l1.8-3.5c1.13,1.03,2.53,1.85,4.19,2.47,1.66.62,3.28.93,4.86.93s2.85-.29,3.81-.87c.96-.58,1.44-1.47,1.44-2.67s-.51-2.16-1.52-2.78c-1.01-.62-2.55-1.23-4.6-1.85-1.82-.51-3.3-1.04-4.45-1.57-1.15-.53-2.13-1.31-2.93-2.34-.81-1.03-1.21-2.37-1.21-4.01,0-2.54.93-4.44,2.78-5.71,1.85-1.27,4.17-1.9,6.94-1.9,1.65,0,3.27.23,4.86.69,1.59.46,2.97,1.09,4.14,1.88l-1.75,3.65c-1.13-.69-2.37-1.23-3.73-1.65Z"/>
    <path class="st6" d="M817.1,311.84v27.21h-4.83v-5.76c-1.78,3.87-5.14,5.85-10.08,5.91-3.15,0-5.62-.93-7.41-2.8-1.78-1.87-2.67-4.45-2.67-7.74v-16.82h4.83v15.53c0,2.3.63,4.09,1.88,5.37,1.25,1.29,2.97,1.93,5.17,1.93,2.54-.03,4.55-.93,6.04-2.7,1.49-1.77,2.24-4.02,2.24-6.76v-13.37h4.83Z"/>
    <path class="st6" d="M834.99,313.25c1.65-1.01,3.6-1.53,5.86-1.57v4.63c-2.78-.1-5.02.62-6.74,2.16-1.72,1.54-2.69,3.62-2.93,6.22v14.35h-4.78v-27.21h4.78v5.86c.89-1.95,2.16-3.44,3.81-4.45Z"/>
    <path class="st6" d="M861.48,339.04v-3.81c-2.02,2.67-5.19,4.01-9.51,4.01-1.89,0-3.54-.36-4.96-1.08-1.42-.72-2.52-1.71-3.29-2.98-.77-1.27-1.16-2.69-1.16-4.27,0-2.43.9-4.36,2.7-5.79,1.8-1.42,4.31-2.15,7.53-2.19h8.64v-1.29c0-1.92-.59-3.4-1.77-4.45-1.18-1.05-2.91-1.57-5.17-1.57-2.74,0-5.54.98-8.38,2.93l-2.01-3.29c1.95-1.27,3.76-2.19,5.43-2.75,1.66-.57,3.64-.85,5.94-.85,3.39,0,6.02.83,7.87,2.49,1.85,1.66,2.79,3.99,2.83,6.97l.05,17.9h-4.73ZM858.63,333.67c1.56-1.08,2.49-2.51,2.8-4.29v-2.73h-7.97c-2.16,0-3.76.33-4.81.98-1.05.65-1.57,1.68-1.57,3.09s.53,2.52,1.59,3.34c1.06.82,2.49,1.23,4.27,1.23,2.23,0,4.12-.54,5.68-1.62Z"/>
    <path class="st6" d="M897.38,314.49c1.82,1.87,2.73,4.45,2.73,7.74v16.82h-4.78v-15.53c0-2.3-.64-4.09-1.93-5.38-1.29-1.29-3.06-1.93-5.32-1.93-2.43.04-4.42.82-5.94,2.34-1.53,1.53-2.39,3.51-2.6,5.94v14.56h-4.78v-27.21h4.78v5.76c1.82-3.87,5.26-5.85,10.34-5.91,3.19,0,5.69.93,7.51,2.8Z"/>
    <path class="st6" d="M919.96,315.95c-1.78,0-3.37.39-4.76,1.18-1.39.79-2.48,1.9-3.27,3.34-.79,1.44-1.18,3.1-1.18,4.99s.39,3.55,1.16,4.99c.77,1.44,1.83,2.56,3.19,3.37,1.35.81,2.91,1.21,4.65,1.21s3.33-.29,4.73-.87c1.41-.58,2.57-1.42,3.5-2.52l2.73,2.78c-1.23,1.54-2.8,2.73-4.71,3.55-1.9.82-4.06,1.23-6.45,1.23-2.64,0-4.99-.58-7.05-1.75-2.06-1.16-3.66-2.79-4.81-4.86-1.15-2.07-1.72-4.45-1.72-7.12s.57-5.06,1.72-7.15c1.15-2.09,2.75-3.72,4.81-4.89,2.06-1.17,4.4-1.75,7.05-1.75,2.3,0,4.36.35,6.2,1.05,1.83.7,3.37,1.72,4.6,3.06l-2.62,3.29c-2.16-2.09-4.75-3.14-7.77-3.14Z"/>
    <path class="st6" d="M956.83,315.41c2.16,2.49,3.24,5.94,3.24,10.36,0,.69-.02,1.2-.05,1.54h-21.5c.38,2.43,1.4,4.37,3.06,5.81,1.66,1.44,3.71,2.16,6.15,2.16,1.61,0,3.11-.29,4.5-.87,1.39-.58,2.6-1.41,3.63-2.47l2.62,2.73c-1.34,1.44-2.95,2.55-4.83,3.34-1.89.79-3.98,1.18-6.27,1.18-2.67,0-5.05-.57-7.12-1.72-2.08-1.15-3.69-2.77-4.83-4.86-1.15-2.09-1.72-4.47-1.72-7.15s.57-5.05,1.72-7.12c1.15-2.07,2.75-3.7,4.81-4.89,2.06-1.18,4.4-1.77,7.05-1.77,4.22,0,7.41,1.24,9.57,3.73ZM955.75,323.61c-.14-2.47-.96-4.41-2.47-5.84-1.51-1.42-3.5-2.13-5.97-2.13s-4.4.72-5.99,2.16c-1.59,1.44-2.55,3.38-2.85,5.81h17.28Z"/>
    <path class="st6" d="M971.95,303.04h28.13v4.53h-11.62v31.48h-4.94v-31.48h-11.57v-4.53Z"/>
    <path class="st6" d="M1020.12,313.43c2.11,1.17,3.75,2.79,4.94,4.86,1.18,2.07,1.77,4.45,1.77,7.12s-.59,5.06-1.77,7.15-2.83,3.72-4.94,4.89c-2.11,1.17-4.52,1.75-7.23,1.75s-5.17-.58-7.28-1.75c-2.11-1.16-3.75-2.79-4.94-4.86-1.18-2.07-1.77-4.47-1.77-7.17s.59-5.05,1.77-7.12c1.18-2.07,2.83-3.69,4.94-4.86,2.11-1.17,4.53-1.75,7.28-1.75s5.12.58,7.23,1.75ZM1008.13,317.08c-1.39.82-2.47,1.96-3.24,3.42-.77,1.46-1.16,3.11-1.16,4.96s.39,3.57,1.16,5.04c.77,1.47,1.85,2.61,3.24,3.42s2.97,1.21,4.76,1.21,3.32-.4,4.71-1.21c1.39-.81,2.47-1.95,3.24-3.42.77-1.47,1.16-3.15,1.16-5.04s-.39-3.51-1.16-4.96c-.77-1.46-1.85-2.6-3.24-3.42-1.39-.82-2.96-1.23-4.71-1.23s-3.37.41-4.76,1.23Z"/>
    <path class="st6" d="M1058.87,300.88v38.16h-4.78v-5.4c-1.03,1.82-2.41,3.21-4.14,4.19-1.73.98-3.75,1.47-6.04,1.47-2.57,0-4.84-.59-6.81-1.77s-3.51-2.83-4.6-4.94c-1.1-2.11-1.65-4.52-1.65-7.23s.55-5.05,1.65-7.12c1.1-2.07,2.63-3.69,4.6-4.86,1.97-1.16,4.23-1.75,6.76-1.75,2.33,0,4.37.48,6.12,1.44,1.75.96,3.12,2.35,4.11,4.17v-16.35h4.78ZM1049.64,333.95c1.39-.82,2.48-1.97,3.27-3.45.79-1.47,1.18-3.14,1.18-4.99s-.39-3.57-1.18-5.04c-.79-1.47-1.88-2.62-3.27-3.45-1.39-.82-2.97-1.23-4.76-1.23s-3.37.42-4.76,1.26c-1.39.84-2.48,2-3.27,3.47-.79,1.47-1.18,3.14-1.18,4.99s.39,3.51,1.18,4.99c.79,1.47,1.88,2.62,3.27,3.45,1.39.82,2.97,1.23,4.76,1.23s3.37-.41,4.76-1.23Z"/>
    <path class="st6" d="M1085.1,339.04v-3.81c-2.02,2.67-5.19,4.01-9.51,4.01-1.89,0-3.54-.36-4.96-1.08-1.42-.72-2.52-1.71-3.29-2.98-.77-1.27-1.16-2.69-1.16-4.27,0-2.43.9-4.36,2.7-5.79,1.8-1.42,4.31-2.15,7.53-2.19h8.64v-1.29c0-1.92-.59-3.4-1.77-4.45-1.18-1.05-2.91-1.57-5.17-1.57-2.74,0-5.54.98-8.38,2.93l-2.01-3.29c1.95-1.27,3.76-2.19,5.43-2.75,1.66-.57,3.64-.85,5.94-.85,3.39,0,6.02.83,7.87,2.49,1.85,1.66,2.79,3.99,2.83,6.97l.05,17.9h-4.73ZM1082.24,333.67c1.56-1.08,2.49-2.51,2.8-4.29v-2.73h-7.97c-2.16,0-3.76.33-4.81.98-1.05.65-1.57,1.68-1.57,3.09s.53,2.52,1.59,3.34c1.06.82,2.49,1.23,4.27,1.23,2.23,0,4.12-.54,5.68-1.62Z"/>
    <path class="st6" d="M1103.48,347.63c-1.42,1.06-3.09,1.59-5.01,1.59-1.17,0-2.23-.17-3.19-.51-.96-.34-1.89-.87-2.78-1.59l2.06-3.75c1.2.86,2.42,1.29,3.65,1.29,2.06,0,3.6-1.17,4.63-3.5l1.03-2.42-11.26-26.9h5.04l8.64,21.81,8.18-21.81h4.89l-12.45,31.06c-.86,2.09-2,3.67-3.42,4.73Z"/>
  </g>
</svg>