<svg width="16" height="16" viewBox="0 0 16 16" fill="none" xmlns="http://www.w3.org/2000/svg">
<path d="M8 1C6.61553 1 5.26215 1.41054 4.11101 2.17971C2.95987 2.94888 2.06266 4.04213 1.53285 5.32122C1.00303 6.6003 0.86441 8.00776 1.13451 9.36563C1.4046 10.7235 2.07129 11.9708 3.05026 12.9497C4.02922 13.9287 5.2765 14.5954 6.63437 14.8655C7.99224 15.1356 9.3997 14.997 10.6788 14.4672C11.9579 13.9373 13.0511 13.0401 13.8203 11.889C14.5895 10.7378 15 9.38447 15 8C14.998 6.1441 14.2599 4.36479 12.9475 3.05247C11.6352 1.74015 9.8559 1.00201 8 1ZM8 13.8333C6.84628 13.8333 5.71846 13.4912 4.75918 12.8502C3.79989 12.2093 3.05222 11.2982 2.61071 10.2323C2.16919 9.16642 2.05368 7.99353 2.27876 6.86197C2.50384 5.73042 3.05941 4.69102 3.87521 3.87521C4.69102 3.0594 5.73042 2.50383 6.86198 2.27875C7.99353 2.05367 9.16642 2.16919 10.2323 2.6107C11.2982 3.05221 12.2093 3.79989 12.8502 4.75917C13.4912 5.71846 13.8333 6.84627 13.8333 8C13.8316 9.54657 13.2165 11.0293 12.1229 12.1229C11.0293 13.2165 9.54658 13.8316 8 13.8333Z" fill="#8C34C7"/>
<path d="M8 7H7.5C7.36739 7 7.24021 7.05853 7.14645 7.16272C7.05268 7.26691 7 7.40821 7 7.55556C7 7.7029 7.05268 7.84421 7.14645 7.94839C7.24021 8.05258 7.36739 8.11111 7.5 8.11111H8V11.4444C8 11.5918 8.05268 11.7331 8.14645 11.8373C8.24021 11.9415 8.36739 12 8.5 12C8.63261 12 8.75979 11.9415 8.85355 11.8373C8.94732 11.7331 9 11.5918 9 11.4444V8.11111C9 7.81643 8.89464 7.53381 8.70711 7.32544C8.51957 7.11706 8.26522 7 8 7Z" fill="#8C34C7"/>
<path d="M8 6C8.55228 6 9 5.55228 9 5C9 4.44772 8.55228 4 8 4C7.44772 4 7 4.44772 7 5C7 5.55228 7.44772 6 8 6Z" fill="#8C34C7"/>
</svg>
