<svg width="24" height="24" viewBox="0 0 24 24" fill="none" xmlns="http://www.w3.org/2000/svg">
<g clip-path="url(#clip0_175_523)">
<path d="M9.24994 8.00006H1.74994C0.784973 8.00006 0 7.21509 0 6.24994V1.74994C0 0.784973 0.784973 0 1.74994 0H9.24994C10.2151 0 11.0001 0.784973 11.0001 1.74994V6.24994C11.0001 7.21509 10.2151 8.00006 9.24994 8.00006ZM1.74994 1.5C1.61206 1.5 1.5 1.61206 1.5 1.74994V6.24994C1.5 6.388 1.61206 6.50006 1.74994 6.50006H9.24994C9.388 6.50006 9.50006 6.388 9.50006 6.24994V1.74994C9.50006 1.61206 9.388 1.5 9.24994 1.5H1.74994Z" fill="#565656"/>
<path d="M9.24994 24H1.74994C0.784973 24 0 23.215 0 22.2501V11.7501C0 10.7849 0.784973 9.99994 1.74994 9.99994H9.24994C10.2151 9.99994 11.0001 10.7849 11.0001 11.7501V22.2501C11.0001 23.215 10.2151 24 9.24994 24ZM1.74994 11.4999C1.61206 11.4999 1.5 11.612 1.5 11.7501V22.2501C1.5 22.3879 1.61206 22.5 1.74994 22.5H9.24994C9.388 22.5 9.50006 22.3879 9.50006 22.2501V11.7501C9.50006 11.612 9.388 11.4999 9.24994 11.4999H1.74994Z" fill="#565656"/>
<path d="M22.2501 24H14.7501C13.7849 24 12.9999 23.215 12.9999 22.2501V17.7501C12.9999 16.7849 13.7849 15.9999 14.7501 15.9999H22.2501C23.215 15.9999 24 16.7849 24 17.7501V22.2501C24 23.215 23.215 24 22.2501 24ZM14.7501 17.4999C14.612 17.4999 14.4999 17.612 14.4999 17.7501V22.2501C14.4999 22.3879 14.612 22.5 14.7501 22.5H22.2501C22.3879 22.5 22.5 22.3879 22.5 22.2501V17.7501C22.5 17.612 22.3879 17.4999 22.2501 17.4999H14.7501Z" fill="#565656"/>
<path d="M22.2501 14.0001H14.7501C13.7849 14.0001 12.9999 13.2151 12.9999 12.2499V1.74994C12.9999 0.784973 13.7849 0 14.7501 0H22.2501C23.215 0 24 0.784973 24 1.74994V12.2499C24 13.2151 23.215 14.0001 22.2501 14.0001ZM14.7501 1.5C14.612 1.5 14.4999 1.61206 14.4999 1.74994V12.2499C14.4999 12.388 14.612 12.5001 14.7501 12.5001H22.2501C22.3879 12.5001 22.5 12.388 22.5 12.2499V1.74994C22.5 1.61206 22.3879 1.5 22.2501 1.5H14.7501Z" fill="#565656"/>
</g>
<defs>
<clipPath id="clip0_175_523">
<rect width="24" height="24" fill="white"/>
</clipPath>
</defs>
</svg>
