<svg width="24" height="24" viewBox="0 0 24 24" fill="none" xmlns="http://www.w3.org/2000/svg">
<path d="M22.0639 7.9328C21.9244 7.7956 21.7585 7.68671 21.5758 7.61239C21.393 7.53808 21.197 7.49982 20.999 7.49982C20.801 7.49982 20.6049 7.53808 20.4222 7.61239C20.2394 7.68671 20.0735 7.7956 19.9341 7.9328L13.0649 14.637C12.9255 14.7742 12.7596 14.8831 12.5768 14.9574C12.394 15.0317 12.198 15.0699 12 15.0699C11.802 15.0699 11.606 15.0317 11.4232 14.9574C11.2404 14.8831 11.0745 14.7742 10.9351 14.637L4.0659 7.9328C3.92647 7.7956 3.76059 7.68671 3.57782 7.61239C3.39505 7.53808 3.19901 7.49982 3.00102 7.49982C2.80302 7.49982 2.60699 7.53808 2.42422 7.61239C2.24145 7.68671 2.07557 7.7956 1.93614 7.9328C1.65679 8.20706 1.5 8.57806 1.5 8.96478C1.5 9.35149 1.65679 9.72249 1.93614 9.99675L8.82036 16.7155C9.66402 17.5379 10.8076 17.9998 12 17.9998C13.1924 17.9998 14.336 17.5379 15.1796 16.7155L22.0639 9.99675C22.3432 9.72249 22.5 9.35149 22.5 8.96478C22.5 8.57806 22.3432 8.20706 22.0639 7.9328Z" fill="#565656"/>
</svg>
