<svg width="78" height="16" viewBox="0 0 78 16" fill="none" xmlns="http://www.w3.org/2000/svg">
<path d="M5.32401 15.653C4.37068 15.653 3.49435 15.4843 2.69501 15.147C1.89568 14.8023 1.25035 14.2927 0.759015 13.618C0.275015 12.9433 0.0220148 12.1 1.47074e-05 11.088H2.04601C2.04601 11.6967 2.19268 12.1953 2.48601 12.584C2.78668 12.9727 3.18268 13.2623 3.67401 13.453C4.16535 13.6363 4.70801 13.728 5.30202 13.728C5.90335 13.728 6.43502 13.6363 6.89701 13.453C7.35902 13.2697 7.71468 13.024 7.96401 12.716C8.22068 12.408 8.34902 12.056 8.34902 11.66C8.34902 11.1247 8.18402 10.6957 7.85402 10.373C7.52401 10.043 7.02168 9.76434 6.34701 9.537L3.74001 8.569C2.61801 8.151 1.76368 7.67067 1.17701 7.128C0.590348 6.578 0.297015 5.81534 0.297015 4.84C0.297015 3.73267 0.729681 2.83434 1.59501 2.145C2.46035 1.44834 3.67768 1.1 5.24702 1.1C6.73568 1.1 7.89068 1.44467 8.71202 2.134C9.54068 2.82334 10.0137 3.762 10.131 4.95H8.07401C7.97135 4.34867 7.68901 3.872 7.22702 3.52C6.77235 3.168 6.11235 2.992 5.24702 2.992C4.41102 2.992 3.75835 3.17534 3.28901 3.542C2.81968 3.90134 2.58501 4.356 2.58501 4.906C2.58501 5.36067 2.73168 5.72367 3.02501 5.995C3.32568 6.26634 3.79135 6.512 4.42201 6.732L7.39202 7.821C8.41135 8.18034 9.20702 8.66434 9.77902 9.273C10.351 9.88167 10.637 10.6553 10.637 11.594C10.637 12.386 10.4317 13.0863 10.021 13.695C9.61035 14.3037 9.00902 14.784 8.21701 15.136C7.42502 15.4807 6.46068 15.653 5.32401 15.653ZM15.4916 2.53C15.0736 2.53 14.7436 2.41634 14.5016 2.189C14.267 1.95434 14.1496 1.639 14.1496 1.243C14.1496 0.86167 14.267 0.561004 14.5016 0.341004C14.7436 0.11367 15.0736 3.57628e-06 15.4916 3.57628e-06C15.9023 3.57628e-06 16.225 0.11367 16.4596 0.341004C16.7016 0.561004 16.8226 0.86167 16.8226 1.243C16.8226 1.639 16.7016 1.95434 16.4596 2.189C16.225 2.41634 15.9023 2.53 15.4916 2.53ZM14.4466 15.367V4.752H16.5366V15.367H14.4466ZM24.9747 15.653C24.1093 15.653 23.3137 15.422 22.5877 14.96C21.8617 14.4907 21.2823 13.838 20.8497 13.002C20.4243 12.1587 20.2117 11.1687 20.2117 10.032C20.2117 8.90267 20.4207 7.92367 20.8387 7.095C21.264 6.26634 21.825 5.62834 22.5217 5.181C23.2183 4.72634 23.992 4.499 24.8427 4.499C25.62 4.499 26.2983 4.68967 26.8777 5.071C27.457 5.445 27.9043 5.99134 28.2197 6.71C28.5423 7.42867 28.7037 8.305 28.7037 9.339H27.9777C27.9777 8.701 27.8493 8.162 27.5927 7.722C27.336 7.27467 27.0023 6.93734 26.5917 6.71C26.181 6.48267 25.741 6.369 25.2717 6.369C24.7217 6.369 24.223 6.51934 23.7757 6.82C23.3357 7.11334 22.9837 7.535 22.7197 8.085C22.463 8.62767 22.3347 9.27667 22.3347 10.032C22.3347 10.7947 22.463 11.4583 22.7197 12.023C22.9837 12.5803 23.3357 13.0093 23.7757 13.31C24.223 13.6107 24.718 13.761 25.2607 13.761C25.708 13.761 26.137 13.6437 26.5477 13.409C26.9657 13.167 27.3067 12.8223 27.5707 12.375C27.842 11.9277 27.9777 11.396 27.9777 10.78H28.7037C28.7037 11.836 28.535 12.727 28.1977 13.453C27.8677 14.179 27.4203 14.729 26.8557 15.103C26.291 15.4697 25.664 15.653 24.9747 15.653ZM28.3407 15.367L27.9777 12.826V0.330003H30.0787V15.367H28.3407ZM38.187 15.653C37.2777 15.653 36.4564 15.4183 35.723 14.949C34.9897 14.4797 34.4067 13.827 33.974 12.991C33.5487 12.155 33.336 11.187 33.336 10.087C33.336 8.921 33.5487 7.92367 33.974 7.095C34.3994 6.259 34.9787 5.61734 35.712 5.17C36.4454 4.72267 37.2704 4.499 38.187 4.499C39.0084 4.499 39.7124 4.66767 40.299 5.005C40.8857 5.335 41.3587 5.78234 41.718 6.347C42.0774 6.90434 42.323 7.53867 42.455 8.25C42.5944 8.96134 42.62 9.69467 42.532 10.45H35.008V9.24H41.102L40.596 9.57C40.618 9.174 40.596 8.778 40.53 8.382C40.4714 7.986 40.354 7.623 40.178 7.293C40.002 6.95567 39.7527 6.688 39.43 6.49C39.1147 6.28467 38.7114 6.182 38.22 6.182C37.604 6.182 37.087 6.336 36.669 6.644C36.2584 6.952 35.9467 7.36634 35.734 7.887C35.5214 8.40034 35.415 8.965 35.415 9.581V10.428C35.415 11.11 35.5177 11.715 35.723 12.243C35.9284 12.771 36.2327 13.189 36.636 13.497C37.0467 13.7977 37.5637 13.948 38.187 13.948C38.7957 13.948 39.298 13.805 39.694 13.519C40.0974 13.233 40.3467 12.804 40.442 12.232H42.576C42.466 12.9213 42.213 13.5227 41.817 14.036C41.421 14.5493 40.9114 14.949 40.288 15.235C39.672 15.5137 38.9717 15.653 38.187 15.653ZM50.9582 15.653C50.2689 15.653 49.6419 15.4697 49.0772 15.103C48.5199 14.729 48.0725 14.179 47.7352 13.453C47.4052 12.727 47.2402 11.836 47.2402 10.78H47.9552C47.9552 11.396 48.0872 11.9277 48.3512 12.375C48.6225 12.8223 48.9672 13.167 49.3852 13.409C49.8032 13.6437 50.2395 13.761 50.6942 13.761C51.2369 13.761 51.7245 13.6107 52.1572 13.31C52.5972 13.0093 52.9455 12.5803 53.2022 12.023C53.4662 11.4583 53.5982 10.7947 53.5982 10.032C53.5982 9.27667 53.4699 8.62767 53.2132 8.085C52.9565 7.535 52.6082 7.11334 52.1682 6.82C51.7282 6.51934 51.2295 6.369 50.6722 6.369C50.2029 6.369 49.7592 6.48267 49.3412 6.71C48.9305 6.93734 48.5969 7.27467 48.3402 7.722C48.0835 8.162 47.9552 8.701 47.9552 9.339H47.2402C47.2402 8.305 47.4015 7.42867 47.7242 6.71C48.0469 5.99134 48.4942 5.445 49.0662 5.071C49.6455 4.68967 50.3239 4.499 51.1012 4.499C51.9445 4.499 52.7145 4.72634 53.4112 5.181C54.1152 5.62834 54.6762 6.26634 55.0942 7.095C55.5195 7.92367 55.7322 8.90267 55.7322 10.032C55.7322 11.1687 55.5159 12.1587 55.0832 13.002C54.6505 13.838 54.0712 14.4907 53.3452 14.96C52.6265 15.422 51.8309 15.653 50.9582 15.653ZM45.8652 15.367V0.330003H47.9552V12.826L47.2842 15.367H45.8652ZM65.7546 15.367L65.4906 12.936V8.525C65.4906 7.65967 65.3109 7.03267 64.9516 6.644C64.5922 6.248 64.0239 6.05 63.2466 6.05C62.8066 6.05 62.4142 6.116 62.0696 6.248C61.7322 6.37267 61.4646 6.56334 61.2666 6.82C61.0759 7.07667 60.9806 7.39934 60.9806 7.788H58.6706C58.6706 7.01067 58.8612 6.38 59.2426 5.896C59.6239 5.412 60.1556 5.06 60.8376 4.84C61.5269 4.61267 62.3299 4.499 63.2466 4.499C64.1046 4.499 64.8599 4.642 65.5126 4.928C66.1652 5.20667 66.6712 5.64667 67.0306 6.248C67.3972 6.84934 67.5806 7.62667 67.5806 8.58V15.367H65.7546ZM62.2126 15.653C61.3252 15.653 60.5882 15.499 60.0016 15.191C59.4149 14.8757 58.9749 14.465 58.6816 13.959C58.3956 13.453 58.2526 12.914 58.2526 12.342C58.2526 11.6453 58.4286 11.0733 58.7806 10.626C59.1399 10.1713 59.6349 9.834 60.2656 9.614C60.8962 9.394 61.6222 9.284 62.4436 9.284C63.0082 9.284 63.5582 9.33534 64.0936 9.438C64.6289 9.54067 65.1569 9.67634 65.6776 9.845V11.11C65.2522 10.956 64.7792 10.835 64.2586 10.747C63.7452 10.6517 63.2649 10.604 62.8176 10.604C62.1502 10.604 61.5929 10.736 61.1456 11C60.6982 11.264 60.4746 11.7113 60.4746 12.342C60.4746 12.804 60.6506 13.2037 61.0026 13.541C61.3546 13.871 61.9119 14.036 62.6746 14.036C63.2319 14.036 63.7232 13.9113 64.1486 13.662C64.5739 13.4053 64.9039 13.0863 65.1386 12.705C65.3732 12.3237 65.4906 11.9423 65.4906 11.561H65.9966C65.9966 12.2943 65.8462 12.9727 65.5456 13.596C65.2522 14.212 64.8232 14.7107 64.2586 15.092C63.6939 15.466 63.0119 15.653 62.2126 15.653ZM71.583 15.367V4.752H73.673V15.367H71.583ZM73.101 10.637C73.101 9.28034 73.2404 8.15467 73.519 7.26C73.805 6.358 74.201 5.687 74.707 5.247C75.2204 4.807 75.8217 4.587 76.511 4.587C76.7164 4.587 76.907 4.60167 77.083 4.631C77.2664 4.66034 77.446 4.70067 77.622 4.752L77.545 6.831C77.347 6.77967 77.1307 6.73567 76.896 6.699C76.6687 6.655 76.4597 6.633 76.269 6.633C75.6677 6.633 75.1764 6.79434 74.795 7.117C74.4137 7.43234 74.1314 7.89067 73.948 8.492C73.7647 9.086 73.673 9.801 73.673 10.637H73.101Z" fill="#242424"/>
</svg>
