<svg width="24" height="24" viewBox="0 0 24 24" fill="none" xmlns="http://www.w3.org/2000/svg">
<g clip-path="url(#clip0_1316_7471)">
<path d="M12 0C5.383 0 0 5.383 0 12C0 18.617 5.383 24 12 24H24V12C24 5.383 18.617 0 12 0ZM13 19H11V17H13V19ZM13.928 12.505C13.46 12.764 13 13.631 13 14.257V15H11V14.257C11 13.068 11.734 11.432 12.962 10.754C13.726 10.333 14.12 9.499 13.967 8.629C13.829 7.843 13.157 7.171 12.37 7.033C11.764 6.926 11.176 7.08 10.715 7.467C10.26 7.849 10 8.407 10 9H8C8 7.815 8.521 6.698 9.429 5.936C10.337 5.174 11.538 4.861 12.716 5.063C14.329 5.346 15.654 6.67 15.937 8.284C16.235 9.982 15.428 11.679 13.928 12.505Z" fill="#8C34C7"/>
</g>
<defs>
<clipPath id="clip0_1316_7471">
<rect width="24" height="24" fill="white"/>
</clipPath>
</defs>
</svg>
