<svg width="24" height="24" viewBox="0 0 24 24" fill="none" xmlns="http://www.w3.org/2000/svg">
<path d="M18.7367 15.2862C16.7231 15.2862 15.032 16.7196 14.5873 18.6395C12.654 18.2326 10.0119 17.3556 8.00973 15.4728C8.93775 14.6732 9.52859 13.4765 9.52859 12.1424C9.52859 10.9402 9.04944 9.84937 8.27488 9.06068C10.276 7.31421 12.891 6.48734 14.8263 6.09354C15.484 7.63274 16.9893 8.7127 18.7357 8.7127C21.0865 8.7127 23 6.75787 23 4.35689C23 1.95591 21.0865 0 18.7357 0C16.3849 0 14.4725 1.95482 14.4725 4.35689C14.4725 4.59034 14.4902 4.81833 14.5257 5.04195C12.4557 5.47175 9.59748 6.40007 7.42306 8.38762C6.78942 8.00582 6.05139 7.78655 5.26429 7.78655C2.91345 7.78655 1 9.74138 1 12.1434C1 14.5455 2.91345 16.5003 5.26429 16.5003C5.91986 16.5003 6.53993 16.3487 7.09528 16.0771C9.32712 18.297 12.3262 19.2875 14.4735 19.7293C14.5184 22.0921 16.4141 24 18.7357 24C21.0865 24 23 22.0452 23 19.6431C23 17.241 21.0865 15.2873 18.7357 15.2873L18.7367 15.2862ZM18.7367 1.09086C20.5124 1.09086 21.9572 2.55588 21.9572 4.35689C21.9572 6.1579 20.5124 7.62184 18.7367 7.62184C16.9611 7.62184 15.5174 6.15681 15.5174 4.35689C15.5174 2.55697 16.9621 1.09086 18.7367 1.09086ZM2.04389 12.1424C2.04389 10.3413 3.48864 8.87632 5.26429 8.87632C7.03995 8.87632 8.48365 10.3413 8.48365 12.1424C8.48365 13.9434 7.03891 15.4084 5.26429 15.4084C3.48968 15.4084 2.04389 13.9434 2.04389 12.1424ZM18.7357 22.9081C16.96 22.9081 15.5163 21.443 15.5163 19.642C15.5163 17.841 16.9611 16.3771 18.7357 16.3771C20.5103 16.3771 21.9561 17.8421 21.9561 19.642C21.9561 21.4419 20.5114 22.9081 18.7357 22.9081Z" fill="#8C34C7"/>
</svg>
