<svg width="24" height="24" viewBox="0 0 24 24" fill="none" xmlns="http://www.w3.org/2000/svg">
<g clip-path="url(#clip0_1413_1641)">
<path d="M16 6C16.827 6 17.5 5.327 17.5 4.5C17.5 3.673 16.827 3 16 3C15.173 3 14.5 3.673 14.5 4.5C14.5 5.327 15.173 6 16 6ZM16 4C16.276 4 16.5 4.225 16.5 4.5C16.5 4.775 16.276 5 16 5C15.724 5 15.5 4.775 15.5 4.5C15.5 4.225 15.724 4 16 4Z" fill="#8C34C7"/>
<path d="M16.0005 7C14.5565 7 13.2985 8.009 13.0105 9.398C12.9545 9.669 13.1285 9.933 13.3985 9.989C13.6685 10.049 13.9345 9.872 13.9895 9.601C14.1815 8.673 15.0275 7.999 15.9995 7.999C16.9715 7.999 17.8175 8.673 18.0095 9.601C18.0645 9.873 18.3375 10.046 18.6005 9.989C18.8705 9.933 19.0445 9.669 18.9885 9.398C18.7005 8.008 17.4435 7 15.9985 7H16.0005Z" fill="#8C34C7"/>
<path d="M23.596 12.827C23.216 12.317 22.637 12.024 22 12.006V3.5C22 1.57 20.43 0 18.5 0H13.5C12.103 0 10.903 0.829 10.342 2.016C9.013 2.076 7.881 2.875 7.342 4.016C6.02 4.076 4.893 4.868 4.351 6H3.5C1.57 6 0 7.57 0 9.5V19.5C0 21.981 2.019 24 4.5 24H18.058C20.061 24 21.793 22.711 22.374 20.771L23.912 14.633C24.1 14.007 23.984 13.349 23.596 12.827ZM11 3.5C11 2.121 12.122 1 13.5 1H18.5C19.878 1 21 2.121 21 3.5V12H11V3.5ZM8 5.5C8 4.277 8.884 3.261 10.046 3.046C10.026 3.196 10 3.345 10 3.5V12H8V5.5ZM5 7.5C5 6.277 5.884 5.261 7.046 5.046C7.026 5.196 7 5.345 7 5.5V12.185C6.142 12.473 5.421 13.085 5 13.908V7.5ZM1 19.5V9.5C1 8.121 2.122 7 3.5 7H4.051C4.027 7.165 4 7.329 4 7.5V16.975L2.373 22.278C1.539 21.638 1 20.631 1 19.5ZM22.948 14.368L21.41 20.506C20.963 21.998 19.616 23 18.058 23H4.5C4.066 23 3.65 22.921 3.266 22.775L5.754 14.664C6.101 13.669 7.05 13 8.115 13H21.943C22.283 13 22.593 13.154 22.793 13.424C22.991 13.691 23.05 14.027 22.948 14.368Z" fill="#8C34C7"/>
</g>
<defs>
<clipPath id="clip0_1413_1641">
<rect width="24" height="24" fill="white"/>
</clipPath>
</defs>
</svg>
