<svg width="16" height="16" viewBox="0 0 16 16" fill="none" xmlns="http://www.w3.org/2000/svg">
<g clip-path="url(#clip0_1281_3028)">
<path d="M8 0C3.58867 0 0 3.58867 0 8C0 12.4113 3.58867 16 8 16C12.4113 16 16 12.4113 16 8C16 3.58867 12.4113 0 8 0ZM9.66667 10.8867C9.562 10.9473 9.44733 10.976 9.334 10.976C9.10333 10.976 8.87933 10.8567 8.756 10.6427L7.42267 8.33333C7.364 8.232 7.33333 8.11733 7.33333 8V4C7.33333 3.632 7.63133 3.33333 8 3.33333C8.36867 3.33333 8.66667 3.632 8.66667 4V7.82133L9.91067 9.976C10.0947 10.2947 9.98533 10.7027 9.66667 10.8867Z" fill="#8C34C7"/>
</g>
<defs>
<clipPath id="clip0_1281_3028">
<rect width="16" height="16" fill="white"/>
</clipPath>
</defs>
</svg>
