<svg width="16" height="16" viewBox="0 0 16 16" fill="none" xmlns="http://www.w3.org/2000/svg">
<g clip-path="url(#clip0_72_79)">
<path d="M12.3333 10.6667C10.8627 10.6667 9.66667 9.47067 9.66667 8C9.66667 6.52933 10.8627 5.33333 12.3333 5.33333C13.804 5.33333 15 6.52933 15 8C15 9.47067 13.804 10.6667 12.3333 10.6667ZM8 5.33333C6.52933 5.33333 5.33333 4.13733 5.33333 2.66667C5.33333 1.196 6.52933 0 8 0C9.47067 0 10.6667 1.196 10.6667 2.66667C10.6667 4.13733 9.47067 5.33333 8 5.33333ZM3.66667 10.6667C2.196 10.6667 1 9.47067 1 8C1 6.52933 2.196 5.33333 3.66667 5.33333C5.13733 5.33333 6.33333 6.52933 6.33333 8C6.33333 9.47067 5.13733 10.6667 3.66667 10.6667ZM7.33333 16V14C7.33333 12.914 6.46667 12.0353 5.388 12.0053L3.66667 14L1.91933 12.008C0.852667 12.0513 0 12.9227 0 14V16M16 16V14C16 12.914 15.1333 12.0353 14.0547 12.0053L12.3333 14L10.586 12.008C9.51933 12.0513 8.66667 12.9227 8.66667 14V16" fill="#25A05F"/>
</g>
<defs>
<clipPath id="clip0_72_79">
<rect width="16" height="16" fill="white"/>
</clipPath>
</defs>
</svg>
