<svg width="32" height="32" viewBox="0 0 32 32" fill="none" xmlns="http://www.w3.org/2000/svg">
<path d="M14 18.25H25C26.2598 18.25 27.4676 18.7508 28.3584 19.6416C29.2492 20.5324 29.75 21.7402 29.75 23V28C29.75 28.1989 29.6709 28.3896 29.5303 28.5303C29.3896 28.6709 29.1989 28.75 29 28.75C28.8011 28.75 28.6104 28.6709 28.4697 28.5303C28.3291 28.3896 28.25 28.1989 28.25 28V24.75H13.25V19C13.25 18.8011 13.3291 18.6104 13.4697 18.4697C13.6104 18.3291 13.8011 18.25 14 18.25Z" fill="#8BD7B8" stroke="#25A05F" stroke-width="0.5"/>
<path d="M3 11.25C3.19891 11.25 3.38962 11.3291 3.53027 11.4697C3.67093 11.6104 3.75 11.8011 3.75 12V21.25H10.75V24.75H3.75V28C3.75 28.1989 3.67093 28.3896 3.53027 28.5303C3.38962 28.6709 3.19891 28.75 3 28.75C2.80109 28.75 2.61038 28.6709 2.46973 28.5303C2.32907 28.3896 2.25 28.1989 2.25 28V12C2.25 11.8011 2.32907 11.6104 2.46973 11.4697C2.61038 11.3291 2.80109 11.25 3 11.25Z" fill="#8BD7B8" stroke="#25A05F" stroke-width="0.5"/>
<path d="M9 19C10.6569 19 12 17.6569 12 16C12 14.3431 10.6569 13 9 13C7.34315 13 6 14.3431 6 16C6 17.6569 7.34315 19 9 19Z" fill="#25A05F"/>
<path d="M14 12C14 12.2652 14.1054 12.5196 14.2929 12.7071C14.4804 12.8946 14.7348 13 15 13H17C17.2652 13 17.5196 12.8946 17.7071 12.7071C17.8946 12.5196 18 12.2652 18 12V10H20C20.2652 10 20.5196 9.89464 20.7071 9.70711C20.8946 9.51957 21 9.26522 21 9V7C21 6.73478 20.8946 6.48043 20.7071 6.29289C20.5196 6.10536 20.2652 6 20 6H18V4C18 3.73478 17.8946 3.48043 17.7071 3.29289C17.5196 3.10536 17.2652 3 17 3H15C14.7348 3 14.4804 3.10536 14.2929 3.29289C14.1054 3.48043 14 3.73478 14 4V6H12C11.7348 6 11.4804 6.10536 11.2929 6.29289C11.1054 6.48043 11 6.73478 11 7V9C11 9.26522 11.1054 9.51957 11.2929 9.70711C11.4804 9.89464 11.7348 10 12 10H14V12Z" fill="#25A05F"/>
</svg>
