<svg width="32" height="32" viewBox="0 0 32 32" fill="none" xmlns="http://www.w3.org/2000/svg">
<path fill-rule="evenodd" clip-rule="evenodd" d="M20.3883 26.3918C20.2373 26.3918 20.1152 26.2692 20.1152 26.1182V22.3493C20.1152 22.1982 20.2373 22.0762 20.3883 22.0762C20.5394 22.0762 20.662 22.1982 20.662 22.3493V26.1182C20.662 26.2692 20.5394 26.3918 20.3883 26.3918Z" fill="#25A05F"/>
<path d="M2.27344 19.1113H29.7266C29.7401 19.1114 29.75 19.1225 29.75 19.1348V22.3486C29.75 22.3615 29.7394 22.3719 29.7266 22.3721H2.27344C2.26055 22.3719 2.25 22.3615 2.25 22.3486V19.1348C2.25 19.1225 2.25991 19.1114 2.27344 19.1113Z" fill="#8BD7B8" stroke="#25A05F" stroke-width="0.5"/>
<path d="M5.17285 23.4199V27.6855C5.17275 27.6989 5.16247 27.7087 5.15039 27.709H3.70312C3.6903 27.7089 3.6798 27.6984 3.67969 27.6855V23.4199H5.17285ZM28.3184 23.4199V27.6855C28.3182 27.6988 28.307 27.709 28.2949 27.709H26.8486C26.8357 27.709 26.8253 27.6984 26.8252 27.6855V23.4199H28.3184Z" fill="#8BD7B8" stroke="#25A05F" stroke-width="0.5"/>
<path fill-rule="evenodd" clip-rule="evenodd" d="M17.2223 26.3444C17.0713 26.3444 16.9492 26.2218 16.9492 26.0707V25.9011C16.9492 25.2361 17.49 24.6953 18.1544 24.6953H22.6228C23.2878 24.6953 23.8285 25.2361 23.8285 25.9011V26.0696C23.8285 26.2207 23.7065 26.3428 23.5554 26.3428C23.4044 26.3428 23.2818 26.2207 23.2818 26.0696V25.9011C23.2818 25.5376 22.9862 25.2421 22.6233 25.2421H18.1544C17.7915 25.2421 17.496 25.5376 17.496 25.9011V26.0707C17.496 26.2218 17.3734 26.3444 17.2223 26.3444Z" fill="#25A05F"/>
<path d="M20.3867 26.094C20.8822 26.094 21.286 26.4983 21.2861 26.9934C21.2861 27.4897 20.8823 27.8937 20.3867 27.8938C19.8911 27.8938 19.4873 27.4893 19.4873 26.9934C19.4875 26.4983 19.8912 26.094 20.3867 26.094ZM17.2686 26.0461C17.7643 26.0462 18.168 26.4498 18.168 26.9456C18.168 27.4413 17.7643 27.845 17.2686 27.845C16.7728 27.845 16.3692 27.4413 16.3691 26.9456C16.3691 26.4498 16.7728 26.0461 17.2686 26.0461ZM23.5537 26.0461C24.0493 26.0463 24.4531 26.4499 24.4531 26.9456C24.4531 27.4412 24.0493 27.8448 23.5537 27.845C23.058 27.845 22.6543 27.4413 22.6543 26.9456C22.6543 26.4498 23.058 26.0461 23.5537 26.0461Z" fill="#8BD7B8" stroke="#25A05F" stroke-width="0.5"/>
<path fill-rule="evenodd" clip-rule="evenodd" d="M27.6757 18.3208H17.8518V17.345C17.8518 16.8064 17.414 16.3685 16.8754 16.3685H11.5762C11.4251 16.3685 11.3031 16.4906 11.3031 16.6417C11.3031 16.7927 11.4251 16.9153 11.5762 16.9153H16.8754C17.1124 16.9153 17.3045 17.108 17.3045 17.345V18.3208H8.89323C8.74217 18.3208 8.62011 18.1988 8.62011 18.0477V15.9537C8.61683 15.9148 8.62176 15.8743 8.63653 15.8354L8.63708 15.8333L8.63763 15.8322L8.64146 15.8229C8.93647 15.0692 9.78756 14.5635 10.7623 14.5635C11.3682 14.5635 11.9413 14.7632 12.3561 15.1091C12.921 14.4321 13.8416 14.0227 14.8383 14.0227C15.9833 14.0227 17.027 14.5673 17.5431 15.4211L25.9194 16.3144V15.9241C25.9194 15.3647 26.3748 14.9094 26.9341 14.9094C27.494 14.9094 27.9489 15.3647 27.9489 15.9241V18.0477C27.9489 18.1988 27.8268 18.3208 27.6757 18.3208Z" fill="#25A05F"/>
<path fill-rule="evenodd" clip-rule="evenodd" d="M5.61155 13.138C5.46049 13.138 5.33789 13.0154 5.33789 12.8649V11.3581C5.33789 11.207 5.46049 11.085 5.61155 11.085H7.04718C7.19825 11.085 7.32085 11.207 7.32085 11.3581C7.32085 11.5091 7.19825 11.6317 7.04718 11.6317H5.88521V12.8649C5.88521 13.0154 5.76261 13.138 5.61155 13.138Z" fill="#25A05F"/>
<path fill-rule="evenodd" clip-rule="evenodd" d="M8.8571 14.8796C8.70604 14.8796 8.58398 14.7575 8.58398 14.6065V12.1818C8.58398 12.0307 8.70604 11.9087 8.8571 11.9087C9.00816 11.9087 9.13076 12.0307 9.13076 12.1818V14.6065C9.13076 14.7575 9.00816 14.8796 8.8571 14.8796Z" fill="#25A05F"/>
<path fill-rule="evenodd" clip-rule="evenodd" d="M15.238 13.4204C15.0869 13.4204 14.9648 13.2983 14.9648 13.1473V12.1818C14.9648 12.0307 15.0869 11.9087 15.238 11.9087C15.389 11.9087 15.5116 12.0307 15.5116 12.1818V13.1473C15.5116 13.2983 15.389 13.4204 15.238 13.4204Z" fill="#25A05F"/>
<path fill-rule="evenodd" clip-rule="evenodd" d="M5.38858 18.7507C3.97867 18.7507 2.83203 17.8049 2.83203 16.6419C2.83203 15.9397 3.23924 15.3102 3.89822 14.9238C3.89712 14.9474 3.89658 14.9709 3.89658 14.9944C3.89658 16.0743 4.75478 16.9845 5.84724 16.9845C6.69231 16.9845 7.39671 16.4405 7.67256 15.6939C7.84935 15.9851 7.94458 16.3091 7.94458 16.6419C7.94458 17.8049 6.79794 18.7507 5.38858 18.7507Z" fill="#25A05F"/>
<path fill-rule="evenodd" clip-rule="evenodd" d="M5.8467 16.4373C5.07278 16.4373 4.44336 15.7898 4.44336 14.9946C4.44336 14.1988 5.07278 13.5513 5.8467 13.5513C6.62061 13.5513 7.25004 14.1988 7.25004 14.9946C7.25004 15.7898 6.62061 16.4373 5.8467 16.4373Z" fill="#25A05F"/>
<path d="M17.1436 10.1162V11.7588C17.1433 12.0049 16.9429 12.2059 16.6973 12.2061H7.46973C7.22419 12.2058 7.02369 12.0048 7.02344 11.7588V10.1162H17.1436ZM8.97656 10.3643C8.68743 10.3643 8.45312 10.5986 8.45312 10.8877C8.45322 11.1761 8.68684 11.4111 8.97656 11.4111H9.49512C9.78467 11.4109 10.0175 11.176 10.0176 10.8877C10.0176 10.5987 9.78407 10.3645 9.49512 10.3643H8.97656ZM10.8828 10.3643C10.5946 10.3645 10.3594 10.5981 10.3594 10.8877C10.3595 11.1766 10.594 11.4109 10.8828 11.4111H11.4014C11.6903 11.411 11.9247 11.1766 11.9248 10.8877C11.9248 10.598 11.6897 10.3644 11.4014 10.3643H10.8828ZM7.46973 4.25H16.6973C16.943 4.25016 17.1435 4.45097 17.1436 4.69727V9.06934H7.02344V4.69727C7.02345 4.45102 7.22405 4.25025 7.46973 4.25ZM11.707 5.44141C11.5289 5.40893 11.3458 5.47082 11.2236 5.60645L10.1094 6.84473H8.92969C8.6399 6.84473 8.40625 7.08066 8.40625 7.36914C8.40645 7.65811 8.64067 7.8916 8.92969 7.8916H10.3418C10.4899 7.8916 10.6311 7.82867 10.7305 7.71777L11.4307 6.93945L11.8779 8.09863C11.9416 8.26351 12.0838 8.38501 12.2568 8.42188L12.2598 8.42285C12.2918 8.42925 12.3275 8.43359 12.3662 8.43359C12.5043 8.43354 12.6376 8.37902 12.7363 8.28027L13.6299 7.38574H15.2139C15.5029 7.38566 15.7373 7.15139 15.7373 6.8623C15.7372 6.57266 15.5022 6.33992 15.2139 6.33984H13.4131C13.2751 6.33984 13.1417 6.39356 13.043 6.49219L12.5645 6.9707L12.1016 5.76855C12.0361 5.59765 11.8858 5.47467 11.708 5.44141H11.707Z" fill="#8BD7B8" stroke="#25A05F" stroke-width="0.5"/>
</svg>
