<svg width="32" height="32" viewBox="0 0 32 32" fill="none" xmlns="http://www.w3.org/2000/svg">
<path d="M10.5625 6.92188H18.7656C19.2187 6.92188 19.5859 6.55459 19.5859 6.10156V2.82031C19.5859 2.36728 19.2187 2 18.7656 2H10.5625C10.1095 2 9.74219 2.36728 9.74219 2.82031V6.10156C9.74219 6.55459 10.1095 6.92188 10.5625 6.92188Z" fill="#25A05F"/>
<path d="M12.2031 13.4443V17.3124H13.8438V16.4921C13.8438 16.039 14.211 15.6718 14.6641 15.6718C15.1171 15.6718 15.4844 16.039 15.4844 16.4921V17.3124H17.125V13.4443L14.6641 12.2139L12.2031 13.4443Z" fill="#25A05F"/>
<path d="M4.82031 4.71094H7.85156V6.10156C7.85156 7.59659 9.06747 8.8125 10.5625 8.8125H18.7656C20.2607 8.8125 21.4766 7.59659 21.4766 6.10156V4.71094H24.5078C24.8228 4.71094 25.0781 4.96629 25.0781 5.28125V15.8145L19.2783 21.6143C19.0775 21.815 18.9649 22.0874 18.9648 22.3711V25.0781C18.9648 25.6692 19.4442 26.1484 20.0352 26.1484H22.7422C23.026 26.1484 23.2983 26.0357 23.499 25.835L25.0781 24.2559V29.1797C25.0781 29.4946 24.8228 29.75 24.5078 29.75H4.82031C4.50535 29.75 4.25 29.4946 4.25 29.1797V5.28125C4.25 4.96629 4.50535 4.71094 4.82031 4.71094ZM12.4766 24.0078C11.8855 24.0078 11.4062 24.487 11.4062 25.0781C11.4062 25.6692 11.8855 26.1484 12.4766 26.1484H16.8516C17.4426 26.1484 17.9219 25.6692 17.9219 25.0781C17.9219 24.487 17.4426 24.0078 16.8516 24.0078H12.4766ZM12.4766 20.7266C11.8855 20.7266 11.4062 21.2058 11.4062 21.7969C11.4062 22.388 11.8855 22.8672 12.4766 22.8672H16.8516C17.4426 22.8672 17.9219 22.388 17.9219 21.7969C17.9219 21.2058 17.4426 20.7266 16.8516 20.7266H12.4766ZM15.1426 10.3398C14.8413 10.1892 14.4869 10.1892 14.1855 10.3398L9.81055 12.5273C9.28181 12.7917 9.06767 13.4342 9.33203 13.9629C9.5233 14.3455 9.91191 14.5605 10.3125 14.5518V18.1328C10.3125 18.7239 10.7917 19.2031 11.3828 19.2031H17.9453C18.5364 19.2031 19.0156 18.7239 19.0156 18.1328V14.5527C19.4186 14.5616 19.8062 14.3427 19.9961 13.9629C20.2604 13.4342 20.0463 12.7917 19.5176 12.5273L15.1426 10.3398Z" fill="#8BD7B8" stroke="#25A05F" stroke-width="0.5"/>
<path d="M20.8535 24.2579H22.4004L27.9273 18.7309L26.3806 17.1841L20.8535 22.7111V24.2579Z" fill="#25A05F"/>
</svg>
