<svg width="32" height="32" viewBox="0 0 32 32" fill="none" xmlns="http://www.w3.org/2000/svg">
<path d="M10.608 18.8575H15.1161V17.0135H12.4521V12.7095C12.4521 10.7854 10.8923 9.22559 8.96818 9.22559H8.09716H7.22615C5.30197 9.22559 3.74219 10.7854 3.74219 12.7095V13.6316H10.6081V18.8575H10.608Z" fill="#25A05F"/>
<path d="M15.9355 20.4978H10.6074V23.1619H14.1935V28.0104H16.8575V21.4198C16.8575 20.9114 16.4439 20.4978 15.9355 20.4978Z" fill="#25A05F"/>
<path d="M29.7383 17.2639V27.76H18.748V23.5823H19.8877V25.2219H22.0273V23.5823H23.668V21.4426H22.0273V19.802H19.8877V21.4426H18.748V21.4202C18.748 20.2477 18.0264 19.2432 17.0059 18.8215V17.2639H29.7383Z" fill="#8BD7B8" stroke="#25A05F" stroke-width="0.5"/>
<path d="M23.0188 15.3735H28.2468V12.7095C28.2468 10.7854 26.6869 9.22559 24.7628 9.22559H23.8918H23.0208C21.3791 9.22559 20.0036 10.3613 19.6348 11.8896H22.5833L23.0188 15.3735Z" fill="#25A05F"/>
<path d="M23.8923 9.22599C25.3354 9.22599 26.5053 8.05612 26.5053 6.613C26.5053 5.16988 25.3354 4 23.8923 4C22.4492 4 21.2793 5.16988 21.2793 6.613C21.2793 8.05612 22.4492 9.22599 23.8923 9.22599Z" fill="#25A05F"/>
<path d="M8.09737 9.22599C9.54049 9.22599 10.7104 8.05612 10.7104 6.613C10.7104 5.16988 9.54049 4 8.09737 4C6.65425 4 5.48438 5.16988 5.48438 6.613C5.48438 8.05612 6.65425 9.22599 8.09737 9.22599Z" fill="#25A05F"/>
<path d="M21.3668 15.3743L21.1363 13.5303H16.9824L17.2129 15.3743H21.3668Z" fill="#25A05F"/>
<path d="M8.71777 15.522V27.7603H7.57812V22.9116H3.38965V27.7603H2.25V15.522H8.71777Z" fill="#8BD7B8" stroke="#25A05F" stroke-width="0.5"/>
</svg>
