<svg width="16" height="16" viewBox="0 0 16 16" fill="none" xmlns="http://www.w3.org/2000/svg">
<path d="M12.7566 7.71295C12.7566 7.46228 12.616 7.23228 12.392 7.11828C11.8186 6.82628 11.2046 6.55762 10.5166 6.29629C9.3793 5.86029 8.55064 5.01895 8.11997 3.86628C7.86197 3.16695 7.59664 2.54429 7.3093 1.96295C7.19664 1.73629 6.96464 1.59229 6.71197 1.59229C6.4593 1.59229 6.22597 1.73629 6.11463 1.96362C5.82797 2.54295 5.5633 3.16562 5.3053 3.86362C4.87464 5.01829 4.0453 5.85962 2.90997 6.29495C2.21797 6.55829 1.6033 6.82695 1.03197 7.11828C0.808635 7.23162 0.667969 7.46162 0.667969 7.71229C0.667969 7.96295 0.808635 8.19295 1.03264 8.30695C1.6073 8.59895 2.2213 8.86829 2.90797 9.12829C4.0453 9.56429 4.87397 10.4056 5.30464 11.559C5.56397 12.261 5.82864 12.8823 6.11463 13.4616C6.2273 13.689 6.45864 13.833 6.71197 13.833C6.9653 13.833 7.1973 13.689 7.3093 13.4616C7.59664 12.8823 7.8613 12.2596 8.11864 11.561C8.54997 10.4063 9.37997 9.56495 10.514 9.12962C11.2033 8.86828 11.8173 8.59962 12.392 8.30762C12.616 8.19362 12.7566 7.96428 12.7566 7.71295Z" fill="#25A05F"/>
<path d="M11.3966 4.36107C11.5666 4.44774 11.7339 4.51907 11.8986 4.58174C12.0366 4.63507 12.1332 4.73374 12.1852 4.87174C12.2466 5.0404 12.3166 5.2084 12.4013 5.3804C12.5126 5.6084 12.7446 5.75374 12.9986 5.75374H12.9999C13.2532 5.75374 13.4852 5.60974 13.5972 5.3824C13.6819 5.21107 13.7513 5.0424 13.8133 4.87507C13.8666 4.73374 13.9632 4.63507 14.0986 4.58307C14.2659 4.51974 14.4326 4.4484 14.6026 4.36174C14.8266 4.2484 14.9672 4.01774 14.9672 3.76707C14.9672 3.5164 14.8259 3.2864 14.6019 3.17307C14.4326 3.08774 14.2659 3.0164 14.1006 2.95307C13.9633 2.9004 13.8666 2.80174 13.8139 2.66174C13.7513 2.49307 13.6819 2.3244 13.5966 2.1524C13.4846 1.92574 13.2526 1.78174 12.9992 1.78174H12.9979C12.7439 1.78174 12.5126 1.9264 12.4006 2.1544C12.3166 2.32574 12.2466 2.4944 12.1859 2.65974C12.1326 2.80107 12.0359 2.89974 11.9006 2.95174C11.7326 3.01574 11.5659 3.0864 11.3959 3.17307C11.1719 3.2864 11.0312 3.5164 11.0312 3.76707C11.0312 4.01774 11.1719 4.24774 11.3959 4.36107H11.3966Z" fill="#25A05F"/>
<path d="M14.968 11.4565C14.7566 11.3492 14.548 11.2598 14.3426 11.1825C14.1166 11.0958 13.952 10.9278 13.8673 10.6998C13.7893 10.4892 13.702 10.2785 13.5966 10.0652C13.484 9.83785 13.252 9.69385 12.9993 9.69385C12.7453 9.69385 12.5133 9.83851 12.402 10.0665C12.2973 10.2798 12.21 10.4898 12.134 10.6965C12.0473 10.9278 11.8826 11.0958 11.66 11.1812C11.452 11.2598 11.2426 11.3492 11.032 11.4572C10.8086 11.5712 10.668 11.8005 10.668 12.0512C10.668 12.3018 10.8086 12.5312 11.032 12.6452C11.2426 12.7525 11.4506 12.8412 11.658 12.9205C11.8826 13.0065 12.0473 13.1738 12.1326 13.4025C12.21 13.6125 12.2973 13.8232 12.4026 14.0358C12.5146 14.2632 12.746 14.4072 13 14.4078C13.2533 14.4078 13.4846 14.2645 13.5973 14.0372C13.7033 13.8238 13.7906 13.6132 13.868 13.4045C13.9533 13.1738 14.118 13.0065 14.3426 12.9205C14.5506 12.8412 14.758 12.7532 14.9686 12.6458C15.1926 12.5318 15.3333 12.3018 15.3333 12.0512C15.3333 11.8005 15.1926 11.5705 14.9686 11.4565H14.968Z" fill="#25A05F"/>
</svg>
