<svg width="32" height="31" viewBox="0 0 32 31" fill="none" xmlns="http://www.w3.org/2000/svg">
<g clip-path="url(#clip0_1291_3097)">
<mask id="mask0_1291_3097" style="mask-type:luminance" maskUnits="userSpaceOnUse" x="0" y="-1" width="32" height="33">
<path d="M32 -0.569824H0V31.4302H32V-0.569824Z" fill="white"/>
</mask>
<g mask="url(#mask0_1291_3097)">
<path d="M22.3294 28.43C22.4875 28.5912 22.6131 28.7814 22.6994 28.99C22.7873 29.1953 22.8316 29.4167 22.8294 29.64V30.27C22.8285 30.33 22.8157 30.3892 22.7917 30.4442C22.7676 30.4991 22.7329 30.5487 22.6894 30.59C22.6483 30.6332 22.5985 30.667 22.5434 30.6895C22.4882 30.7119 22.4289 30.7223 22.3694 30.72C22.3085 30.7213 22.248 30.7104 22.1913 30.6881C22.1347 30.6658 22.083 30.6325 22.0394 30.59C21.9578 30.5032 21.9115 30.3891 21.9094 30.27V29.64C21.9038 29.4325 21.8177 29.2353 21.6694 29.09C21.5988 29.0148 21.5136 28.9547 21.4191 28.9135C21.3245 28.8722 21.2225 28.8506 21.1194 28.85H19.0594V30.43C19.0599 30.4917 19.0477 30.5528 19.0237 30.6096C18.9996 30.6663 18.9641 30.7176 18.9194 30.76C18.8788 30.8045 18.8294 30.8399 18.7742 30.864C18.7191 30.8881 18.6595 30.9004 18.5994 30.9C18.4755 30.8975 18.3575 30.8471 18.2699 30.7596C18.1823 30.672 18.1319 30.5539 18.1294 30.43V28.81H16.0794C15.8684 28.813 15.6671 28.8993 15.5194 29.05C15.4455 29.1211 15.3869 29.2066 15.3474 29.3012C15.3078 29.3958 15.2881 29.4975 15.2894 29.6V30.23C15.2897 30.2902 15.2774 30.3498 15.2533 30.4049C15.2292 30.46 15.1938 30.5095 15.1494 30.55C15.1069 30.5947 15.0557 30.6302 14.9989 30.6543C14.9421 30.6784 14.881 30.6906 14.8194 30.69C14.699 30.6851 14.5848 30.6351 14.4996 30.5499C14.4143 30.4646 14.3643 30.3505 14.3594 30.23V29.6C14.362 29.1456 14.5444 28.7107 14.8667 28.3903C15.189 28.0699 15.6249 27.89 16.0794 27.89H18.1294V25.79H19.0594V27.89H21.1194C21.3427 27.8878 21.5641 27.9321 21.7694 28.02C21.9814 28.1182 22.1718 28.2576 22.3294 28.43Z" fill="#8C34C7"/>
<path d="M23.4395 7.91012C23.4395 8.18626 23.6633 8.41012 23.9395 8.41012H25.4295C25.7056 8.41012 25.9295 8.63397 25.9295 8.91012V10.3901C25.9295 10.6663 26.1533 10.8901 26.4295 10.8901H28.7295C29.0056 10.8901 29.2295 10.6663 29.2295 10.3901V8.91012C29.2295 8.63397 29.4533 8.41012 29.7295 8.41012H31.2195C31.4956 8.41012 31.7195 8.18626 31.7195 7.91012V5.60012C31.7195 5.32398 31.4956 5.10012 31.2195 5.10012H29.7295C29.4533 5.10012 29.2295 4.87626 29.2295 4.60012V3.12012C29.2295 2.84397 29.0056 2.62012 28.7295 2.62012H26.4295C26.1533 2.62012 25.9295 2.84397 25.9295 3.12012V4.60012C25.9295 4.87626 25.7056 5.10012 25.4295 5.10012H23.9395C23.6633 5.10012 23.4395 5.32397 23.4395 5.60012V7.91012Z" fill="#8C34C7"/>
<path d="M6.25987 10.5597C6.40459 10.5587 6.54876 10.5419 6.68987 10.5097L6.99987 10.4297C7.49531 10.2568 7.90852 9.90539 8.15885 9.44418C8.40918 8.98298 8.47867 8.44503 8.35375 7.93535C8.22883 7.42567 7.91846 6.98083 7.48323 6.68765C7.048 6.39447 6.51914 6.274 5.99987 6.34974C5.47716 6.44035 5.00674 6.72189 4.67987 7.13974C4.43976 7.45286 4.2918 7.82678 4.25265 8.21942C4.2135 8.61205 4.2847 9.00783 4.45825 9.3622C4.6318 9.71657 4.9008 10.0155 5.23499 10.2253C5.56918 10.4351 5.95529 10.5474 6.34987 10.5497L6.25987 10.5597Z" fill="#8C34C7"/>
<path d="M7.20969 11.3298L6.93969 11.4298C6.58971 11.5501 6.27169 11.7484 6.00969 12.0098L5.67969 12.3298L10.3097 16.8398H14.1397V14.8398H12.5097H12.3297C12.2751 14.8098 12.2247 14.7728 12.1797 14.7298L9.46969 11.9898C9.24177 11.7607 8.96957 11.5803 8.66969 11.4598C8.37442 11.3396 8.05847 11.2785 7.73969 11.2798C7.56191 11.2811 7.38457 11.2978 7.20969 11.3298Z" fill="#8C34C7"/>
<path d="M3.42969 13.3872C3.42897 13.3004 3.44385 13.2142 3.47266 13.1323C3.50814 13.0521 3.5563 12.9778 3.61719 12.9146C3.68372 12.8486 3.76263 12.7964 3.84863 12.7593L3.84766 12.7583C3.93742 12.7201 4.0343 12.701 4.13184 12.6997C4.25087 12.6988 4.36677 12.7318 4.4668 12.7935L4.56152 12.8647L9.64551 17.7993C9.70969 17.8647 9.78711 17.9162 9.87207 17.9507C9.95705 17.9852 10.048 18.0007 10.1396 17.9985V17.9995H13.8916L13.9277 21.8794H3.42969V13.3872Z" fill="#DBC0EE" stroke="#8C34C7" stroke-width="0.5"/>
<path d="M1.1 9.69975C0.955331 9.69918 0.81197 9.72715 0.678126 9.78206C0.544281 9.83697 0.422583 9.91774 0.32 10.0198C0.117578 10.2293 0.00307335 10.5084 0 10.7998L0 28.9898H2.2V10.7998C2.20133 10.6549 2.17379 10.5113 2.11899 10.3772C2.06418 10.2432 1.9832 10.1214 1.88079 10.019C1.77838 9.91655 1.65659 9.83557 1.52253 9.78077C1.38847 9.72596 1.24483 9.69842 1.1 9.69975Z" fill="#8C34C7"/>
<path d="M28.8709 23.0601H3.13086V24.8701H28.8709V23.0601Z" fill="#8C34C7"/>
<path d="M14.4209 1.90137L14.2393 1.84961C13.9409 1.76522 13.6785 1.58415 13.4941 1.33496C13.3168 1.0736 13.2309 0.760676 13.25 0.445312H13.251V0.431641C13.2513 0.373764 13.2725 0.317828 13.3105 0.274414C13.3301 0.254304 13.3531 0.237487 13.3789 0.226562C13.4047 0.215658 13.4329 0.209961 13.4609 0.209961C13.489 0.20999 13.5172 0.215649 13.543 0.226562C13.5688 0.237502 13.5918 0.254319 13.6113 0.274414L13.6152 0.277344C13.6339 0.295876 13.6486 0.31829 13.6582 0.342773C13.6678 0.36726 13.6719 0.393627 13.6709 0.419922V0.436523C13.6781 0.702486 13.7859 0.956036 13.9727 1.14551L13.9756 1.14844C14.1666 1.3356 14.424 1.44082 14.6914 1.44043H14.6934C14.9584 1.43797 15.213 1.33395 15.4043 1.15039L15.416 1.13867L15.4268 1.12598C15.5849 0.926949 15.664 0.676509 15.6504 0.422852C15.6508 0.39715 15.6569 0.371352 15.667 0.347656C15.6777 0.322643 15.6932 0.299997 15.7129 0.28125L15.7197 0.275391L15.7256 0.268555C15.7425 0.250026 15.7631 0.234678 15.7861 0.224609C15.8091 0.214576 15.8343 0.209815 15.8594 0.209961H21.3281L21.3711 0.214844C21.4131 0.223636 21.4518 0.244447 21.4824 0.275391C21.51 0.307264 21.5282 0.34578 21.5361 0.386719L21.541 0.431641C21.5409 0.565232 21.5677 0.697837 21.6211 0.820312L21.625 0.828125C21.6796 0.942337 21.7517 1.04792 21.8379 1.14062L21.8457 1.14844C21.9373 1.23796 22.0452 1.31024 22.1631 1.36035C22.2853 1.41233 22.417 1.43973 22.5498 1.44043H22.5518C22.6867 1.43976 22.8205 1.41256 22.9453 1.36133L22.9482 1.36035C23.066 1.31029 23.1731 1.23784 23.2646 1.14844L23.2656 1.14941L23.2734 1.14062C23.3165 1.09431 23.3561 1.04432 23.3916 0.992188L23.4863 0.828125L23.4902 0.820312C23.5436 0.697837 23.5704 0.565232 23.5703 0.431641C23.5706 0.372531 23.5932 0.315283 23.6328 0.271484C23.6518 0.252599 23.6745 0.237008 23.6992 0.226562C23.7248 0.21579 23.7525 0.21002 23.7803 0.209961C23.8082 0.209961 23.8365 0.215713 23.8623 0.226562C23.8868 0.236926 23.9088 0.252811 23.9277 0.271484C23.9575 0.304226 23.978 0.343809 23.9863 0.386719L23.9912 0.431641C23.9894 0.731833 23.894 1.02301 23.7207 1.26562L23.6406 1.36719C23.4216 1.6209 23.1225 1.79114 22.793 1.85156C22.4493 1.89203 22.102 1.81549 21.8086 1.63184H21.8096C21.5114 1.43294 21.2988 1.12945 21.2139 0.78125L21.167 0.589844H18.8105V12.7178L18.3809 12.6807V0.679688H16.0723L16.0205 0.861328C15.9532 1.09639 15.8272 1.3105 15.6543 1.4834C15.4814 1.65627 15.2673 1.78233 15.0322 1.84961L14.8506 1.90137V3.42969H16.5771C16.5889 3.43726 16.5997 3.44598 16.6104 3.45508C16.6235 3.47071 16.6349 3.48745 16.6455 3.50488C16.6465 3.52705 16.647 3.54931 16.6436 3.57129L16.6406 3.59082V6.42969C16.638 6.90112 16.4742 7.3577 16.1758 7.72266C15.8771 8.08785 15.4619 8.33955 15 8.43555L14.8057 8.47559L14.8008 8.67383C14.7819 9.38867 14.8303 10.1036 14.9443 10.8096V10.8115C15.0475 11.4301 15.4623 12.9342 15.7119 13.7529L15.7607 13.9141L15.9287 13.9287L31.1191 15.249H31.1211C31.2889 15.2619 31.4475 15.3315 31.5713 15.4453C31.6125 15.4913 31.6471 15.543 31.6719 15.5996L31.6797 15.6182L31.6904 15.6348C31.7195 15.6801 31.7392 15.7307 31.751 15.7832V21.8799H15.3203V14.4297H15.3213L15.3203 14.417C15.317 14.3509 15.3297 14.2847 15.3574 14.2246L15.3984 14.1367L15.3691 14.0449C15.1253 13.2722 14.9116 12.4903 14.7285 11.7012L14.5557 10.9102C14.4409 10.1873 14.3889 9.45549 14.4004 8.72363L14.4043 8.51855L14.2031 8.47559C13.747 8.37744 13.3381 8.12566 13.0449 7.7627C12.7431 7.38845 12.5855 6.91805 12.6006 6.4375V3.64258C12.6012 3.58503 12.6244 3.52995 12.665 3.48926C12.7041 3.45141 12.7562 3.42985 12.8105 3.42969H14.4209V1.90137Z" fill="#DBC0EE" stroke="#8C34C7" stroke-width="0.5"/>
<path d="M29.8008 25.3301V28.9801H32.0008V23.0601H29.8008V25.3301Z" fill="#8C34C7"/>
</g>
</g>
<defs>
<clipPath id="clip0_1291_3097">
<rect width="32" height="30.85" fill="white"/>
</clipPath>
</defs>
</svg>
