<svg width="300" height="121" viewBox="0 0 300 121" fill="none" xmlns="http://www.w3.org/2000/svg">
<g clip-path="url(#clip0_4910_4099)">
<g filter="url(#filter0_f_4910_4099)">
<path d="M127.829 60.6536C127.829 83.2392 114.81 102.771 95.8997 112.096C95.5219 112.282 95.1422 112.464 94.7604 112.642C94.4914 112.767 94.2214 112.89 93.9503 113.011C89.9624 114.793 85.7824 116.106 81.494 116.923C77.9673 117.594 74.3857 117.931 70.7962 117.929C59.6508 117.929 49.2524 114.719 40.4672 109.168C40.3552 109.098 40.2436 109.027 40.132 108.955C40.0132 108.879 39.8947 108.802 39.7765 108.725C38.367 107.806 37.0015 106.827 35.6797 105.788C22.3376 95.3051 13.7617 78.9848 13.7617 60.6536C13.7617 29.0211 39.2972 3.37817 70.7962 3.37817C102.295 3.37817 127.829 29.0233 127.829 60.6536Z" fill="#B8B8B8" fill-opacity="0.36"/>
</g>
<path d="M120.585 60.4998C120.585 84.3569 106.823 104.988 86.8318 114.838C86.4325 115.034 86.031 115.227 85.6275 115.415C85.3431 115.547 85.0576 115.677 84.7711 115.805C80.5553 117.687 76.1367 119.074 71.6032 119.937C67.8751 120.645 64.0889 121.001 60.2944 121C48.5123 121 37.5199 117.609 28.2329 111.746C28.1145 111.671 27.9965 111.596 27.8785 111.52C27.753 111.44 27.6277 111.359 27.5027 111.277C26.0128 110.307 24.5692 109.273 23.1719 108.175C9.06767 97.102 0.00195312 79.863 0.00195312 60.4998C0.00195312 27.0865 26.9961 0 60.2944 0C93.5927 0 120.585 27.0888 120.585 60.4998Z" fill="white"/>
<path d="M93.8745 67.8794C93.755 68.1687 93.6212 68.4518 93.4735 68.7277C93.4278 68.814 93.3195 69.0158 93.4461 69.159C93.4696 69.1853 93.4984 69.2063 93.5307 69.2205C93.563 69.2346 93.5979 69.2417 93.6331 69.2411C93.73 69.236 93.8216 69.1953 93.8905 69.1269C93.8965 69.1204 93.9024 69.1145 93.9079 69.108C94.5937 68.3176 95.2069 67.3835 95.7281 66.3314C96.1158 65.5373 96.4383 64.7127 96.6924 63.8659C96.8524 63.347 97.0248 62.7286 97.0883 62.0766C97.1491 61.4596 97.102 60.8906 96.9511 60.3851C96.8236 59.9648 96.5227 59.7363 96.1839 59.8024C95.8762 59.8625 95.6307 60.0901 95.424 60.2979C95.043 60.6823 94.7486 61.1443 94.5608 61.6527C94.3916 62.106 94.3976 62.6253 94.4236 63.0291C94.4264 63.075 94.4296 63.1208 94.4328 63.1667C94.4465 63.358 94.4666 63.5512 94.4863 63.7379C94.516 64.0233 94.5466 64.3187 94.5544 64.6073C94.5768 65.6139 94.3432 66.7448 93.8745 67.8794Z" fill="#322F70"/>
<path d="M90.8537 70.734C90.7869 70.8716 90.8226 71.0207 90.941 71.0936C90.9913 71.123 91.0496 71.1358 91.1075 71.1302C91.1655 71.1247 91.2203 71.1012 91.2642 71.0629C91.2876 71.0442 91.3084 71.0226 91.3264 70.9987C92.1183 69.9513 92.7383 68.6244 93.1192 67.1623C93.3629 66.225 93.5942 65.1436 93.244 64.1801C93.205 64.0608 93.1449 63.9496 93.0666 63.8516C93.019 63.7927 92.9602 63.744 92.8935 63.7083C92.8268 63.6726 92.7537 63.6506 92.6784 63.6438C92.2002 63.6149 91.7695 64.2292 91.6492 64.4182C91.4224 64.775 91.2932 65.1855 91.2748 65.6084C91.2668 65.8346 91.2821 66.0611 91.3205 66.2841C91.3388 66.4044 91.3607 66.5245 91.3827 66.6443C91.3936 66.7062 91.4051 66.7677 91.416 66.8278C91.4835 67.2269 91.5119 67.6316 91.5006 68.0363C91.4785 68.9714 91.258 69.8911 90.8537 70.734Z" fill="#322F70"/>
<path d="M88.8642 72.2769C88.8433 72.3207 88.84 72.371 88.8549 72.4172C88.8697 72.4635 88.9017 72.5023 88.9443 72.5256C88.9815 72.5443 89.0237 72.5506 89.0647 72.5438C89.1058 72.537 89.1437 72.5172 89.1729 72.4875C89.1881 72.4728 89.2016 72.4565 89.2131 72.4388C89.716 71.6589 90.0841 70.6922 90.2761 69.6402C90.3991 68.9672 90.5047 68.1941 90.2089 67.5339C90.1753 67.452 90.1273 67.3768 90.0672 67.3119C90.0305 67.2729 89.9863 67.2417 89.9374 67.2201C89.8885 67.1985 89.8358 67.187 89.7823 67.1862C89.4444 67.1903 89.1729 67.645 89.0965 67.7853C88.9555 68.0486 88.8859 68.3445 88.8949 68.6433C88.9012 68.8031 88.9237 68.9619 88.9621 69.1172C88.9813 69.2007 89.0032 69.2842 89.0247 69.3672C89.0357 69.4104 89.0471 69.4535 89.0576 69.4962C89.1264 69.7737 89.1674 70.0574 89.1802 70.3431C89.2131 71.0029 89.1054 71.6622 88.8642 72.2769Z" fill="#322F70"/>
<path d="M100.864 59.0348C100.412 58.832 99.8258 58.9504 99.4065 59.3289C99.0581 59.6422 98.8062 60.0932 98.6366 60.7085C98.6366 60.7108 98.6366 60.7131 98.6366 60.7154C98.5409 61.091 98.466 61.4716 98.4121 61.8555L98.3833 62.0367C98.3554 62.2073 98.3298 62.3789 98.3046 62.5501C96.2065 71.6648 88.3117 75.1852 85.0142 76.2757C84.1303 76.5758 83.1809 76.6249 82.2709 76.4175L82.1877 76.3973C82.1751 76.3946 82.1633 76.3891 82.1531 76.3812C82.143 76.3732 82.1348 76.363 82.1292 76.3514C82.1462 76.3329 82.1654 76.3166 82.1863 76.3028C82.6691 75.9532 83.2059 75.7251 83.7742 75.4834C83.98 75.3957 84.1926 75.3054 84.4002 75.2081C85.4038 74.7452 86.1454 74.2639 86.7347 73.6941C87.7685 72.6925 88.5362 70.9955 87.9194 69.4604C87.7859 69.1319 87.6172 68.9025 87.4036 68.7593C86.9199 68.434 86.3008 68.5974 85.9172 68.8364C85.6251 69.0199 85.3882 69.2626 85.1587 69.4984C85.0714 69.5902 84.9813 69.682 84.8903 69.7673C83.7829 70.8225 82.2791 71.2593 80.9582 71.5869C80.6025 71.6749 80.2267 71.7493 79.8458 71.8066C74.2486 72.6508 70.2987 75.8114 68.1068 81.1999C68.1045 81.2049 68.1026 81.2104 68.1008 81.2155C67.538 82.6001 67.0949 84.1407 66.7799 85.785C65.9112 89.4228 64.9199 95.1609 65.1069 101.843C65.1223 102.376 65.3113 102.889 65.6451 103.304C65.9788 103.719 66.439 104.013 66.955 104.141C69.9634 104.88 73.0881 105.014 76.1483 104.534C76.6394 104.459 77.0953 104.233 77.4527 103.887C77.5629 103.779 77.663 103.662 77.7518 103.537C77.9403 103.271 78.0733 102.97 78.1428 102.651C78.2123 102.332 78.2167 102.003 78.1559 101.683C78.0476 101.1 77.9429 100.49 77.8441 99.8717C77.4633 97.4782 77.1556 94.9136 77.4784 92.3774C78.0215 88.0817 80.816 84.3779 85.3471 81.9491C87.0223 81.0512 88.7305 80.0759 90.4258 79.0505L90.6256 78.9293C91.6576 78.3058 92.7243 77.6612 93.7004 76.9107C94.1577 76.5588 94.6103 76.1794 95.0419 75.7834C95.0959 75.7339 95.1498 75.6848 95.2033 75.6343C96.8041 74.1451 98.1483 72.4003 99.1811 70.4706C100.547 67.9024 101.372 65.08 101.604 62.1784C101.642 61.7054 101.664 61.2177 101.669 60.7287C101.674 60.2497 101.646 59.7464 101.258 59.3234C101.148 59.201 101.014 59.1027 100.864 59.0348Z" fill="#322F70"/>
<path d="M26.7104 67.8794C26.8297 68.1687 26.9634 68.4518 27.1109 68.7277C27.1566 68.814 27.2655 69.0158 27.1384 69.159C27.1149 69.1853 27.0862 69.2062 27.054 69.2204C27.0218 69.2345 26.987 69.2416 26.9518 69.2411C26.8549 69.236 26.7633 69.1953 26.6944 69.1269C26.6882 69.1209 26.6824 69.1147 26.677 69.108C25.9912 68.3176 25.3781 67.3835 24.8564 66.3314C24.4691 65.5371 24.1466 64.7126 23.8921 63.8659C23.7321 63.347 23.5602 62.7286 23.4962 62.0766C23.4358 61.4596 23.4829 60.8906 23.6361 60.3851C23.7632 59.9648 24.0645 59.7363 24.4033 59.8024C24.711 59.8625 24.9565 60.0901 25.1632 60.2979C25.5439 60.6826 25.8382 61.1445 26.0264 61.6527C26.1951 62.106 26.1896 62.6253 26.1636 63.0291C26.1608 63.075 26.1576 63.1208 26.154 63.1667C26.1403 63.358 26.1201 63.5512 26.1009 63.7379C26.0712 64.0233 26.0406 64.3187 26.0328 64.6073C26.0081 65.6139 26.2413 66.7448 26.7104 67.8794Z" fill="#322F70"/>
<path d="M29.7314 70.734C29.7982 70.8716 29.7621 71.0207 29.6441 71.0936C29.5937 71.123 29.5355 71.1358 29.4776 71.1302C29.4196 71.1247 29.3648 71.1012 29.3208 71.0629C29.2974 71.0443 29.2765 71.0227 29.2587 70.9987C28.4663 69.9513 27.8468 68.6244 27.4659 67.1623C27.2218 66.225 26.9909 65.1436 27.3406 64.1801C27.38 64.061 27.44 63.9498 27.518 63.8516C27.5657 63.7927 27.6247 63.744 27.6914 63.7083C27.7582 63.6726 27.8313 63.6507 27.9067 63.6438C28.3845 63.6149 28.8152 64.2292 28.9359 64.4182C29.1623 64.7752 29.2914 65.1856 29.3103 65.6084C29.3178 65.8346 29.3025 66.061 29.2646 66.2841C29.2463 66.4044 29.2244 66.5245 29.2024 66.6443C29.191 66.7062 29.18 66.7677 29.169 66.8278C29.1013 67.2269 29.073 67.6316 29.0845 68.0363C29.1064 68.9714 29.3269 69.8912 29.7314 70.734Z" fill="#322F70"/>
<path d="M31.7213 72.277C31.7422 72.3209 31.7455 72.3711 31.7305 72.4174C31.7156 72.4637 31.6835 72.5024 31.6409 72.5256C31.604 72.5437 31.5623 72.5498 31.5218 72.543C31.4813 72.5362 31.444 72.5168 31.415 72.4875C31.3995 72.473 31.3859 72.4567 31.3743 72.4389C30.8714 71.659 30.5056 70.6923 30.3113 69.6403C30.1883 68.9672 30.0827 68.1942 30.3785 67.534C30.4123 67.4521 30.4605 67.3768 30.5207 67.3119C30.5574 67.2732 30.6014 67.2422 30.6501 67.2208C30.6989 67.1994 30.7514 67.1879 30.8046 67.1871C31.143 67.1913 31.4141 67.6459 31.4904 67.7863C31.6313 68.0497 31.7008 68.3455 31.6921 68.6443C31.6856 68.8041 31.6629 68.9629 31.6244 69.1182C31.6052 69.2017 31.5837 69.2852 31.5622 69.3682C31.5508 69.4114 31.5398 69.4545 31.5288 69.4971C31.4606 69.7748 31.4195 70.0584 31.4063 70.3441C31.3733 71.0035 31.4807 71.6624 31.7213 72.277Z" fill="#322F70"/>
<path d="M19.7214 59.0348C20.1736 58.832 20.7593 58.9504 21.179 59.3289C21.5274 59.6422 21.7789 60.0932 21.9489 60.7085C21.9489 60.7108 21.9489 60.7131 21.9489 60.7154C22.0448 61.0909 22.1197 61.4715 22.1734 61.8555L22.2027 62.0367C22.2301 62.2073 22.2557 62.3789 22.2809 62.5501C24.3795 71.6648 32.2743 75.1852 35.5718 76.2757C36.4557 76.5759 37.4051 76.625 38.3151 76.4175L38.3983 76.3973C38.4109 76.3946 38.4228 76.3891 38.4331 76.3812C38.4433 76.3732 38.4516 76.363 38.4573 76.3514C38.4401 76.333 38.421 76.3167 38.4001 76.3028C37.9173 75.9532 37.3805 75.7251 36.8122 75.4834C36.6064 75.3957 36.3938 75.3054 36.1858 75.2081C35.1827 74.7452 34.4411 74.2639 33.854 73.6941C32.8198 72.6925 32.0526 70.9955 32.6693 69.4604C32.8028 69.1319 32.9716 68.9025 33.1851 68.7593C33.6688 68.434 34.2879 68.5974 34.671 68.8364C34.9632 69.0199 35.2005 69.2626 35.43 69.4984C35.5174 69.5902 35.6074 69.682 35.6984 69.7673C36.8053 70.8225 38.3091 71.2593 39.6305 71.5869C39.9862 71.6749 40.362 71.7493 40.7429 71.8066C46.3402 72.6508 50.2896 75.8114 52.482 81.1999C52.482 81.2049 52.4865 81.2104 52.4884 81.2155C53.0508 82.6001 53.4943 84.1407 53.8088 85.785C54.6752 89.4228 55.6688 95.1609 55.4818 101.843C55.4664 102.376 55.2774 102.889 54.9437 103.304C54.6099 103.719 54.1498 104.013 53.6337 104.141C50.6254 104.88 47.5009 105.014 44.4409 104.534C43.9497 104.459 43.4939 104.233 43.1364 103.887C43.026 103.78 42.9259 103.662 42.8374 103.537C42.6487 103.271 42.5155 102.97 42.446 102.651C42.3766 102.332 42.3722 102.003 42.4332 101.683C42.5416 101.1 42.6463 100.49 42.7451 99.8717C43.1255 97.4782 43.4336 94.9136 43.1108 92.3774C42.5681 88.0817 39.7731 84.3779 35.2426 81.9491C33.5673 81.0512 31.8591 80.0759 30.1633 79.0505L29.9635 78.9293C28.932 78.3058 27.8653 77.6612 26.8892 76.9107C26.432 76.5588 25.9793 76.1794 25.5473 75.7834C25.4933 75.7339 25.4398 75.6848 25.3863 75.6343C23.7855 74.1451 22.4414 72.4003 21.4085 70.4706C20.0427 67.9025 19.2179 65.08 18.9853 62.1784C18.9473 61.7054 18.9254 61.2177 18.9203 60.7287C18.9158 60.2497 18.9432 59.7464 19.3318 59.3234C19.4406 59.2014 19.5732 59.1032 19.7214 59.0348Z" fill="#322F70"/>
<path d="M53.9887 51.9625C46.5488 52.0827 31.8849 49.5929 31.9357 29.803C31.9357 29.803 53.7555 25.995 57.6944 47.3288C49.1138 46.7525 39.0157 34.8795 38.6947 34.4996C45.8744 44.0704 50.7328 49.3456 53.9887 51.9625Z" fill="#40D200"/>
<path d="M66.5959 51.9625C74.0362 52.0827 88.7001 49.5929 88.6494 29.803C88.6494 29.803 66.8296 25.995 62.8906 47.3288C71.4712 46.7525 81.5689 34.8795 81.8903 34.4996C74.7106 44.0704 69.8504 49.3456 66.5959 51.9625Z" fill="#40D200"/>
<path d="M58.7076 37.0932C64.3574 35.3498 74.8255 29.8563 69.9437 14.9176C69.9437 14.9176 52.5283 17.4166 54.7742 34.5052C61.1153 31.9557 65.8388 20.4979 65.9874 20.1318C62.9058 29.1318 60.5269 34.3139 58.7076 37.0932Z" fill="#40D200"/>
<path d="M65.1939 75.7637C61.9051 68.0882 63.264 58.2778 64.4756 52.7747C63.4115 53.8173 61.9832 54.401 60.496 54.401C59.0087 54.401 57.5804 53.8173 56.5163 52.7747C57.728 58.2778 59.0873 68.0882 55.798 75.7637L55.7793 75.8096H65.2126L65.1939 75.7637Z" fill="#40D200"/>
<path d="M149.531 51.5259H128.541V17.4492H138.649V43.0171H149.531L149.531 51.5259Z" fill="#322F70"/>
<path d="M184.46 51.5259H151.406L158.009 30.1306H166.487L163.103 43.5897H171.946L162.368 17.4492H173.21L184.46 51.5259Z" fill="#322F70"/>
<path d="M212.502 42.4032C212.638 43.8473 212.389 45.3016 211.78 46.6173C211.171 47.9329 210.225 49.0626 209.038 49.8907C206.371 51.2589 203.386 51.8806 200.397 51.6905H186.418V43.0194H198.645C198.931 43.025 199.215 42.9737 199.481 42.8683C199.747 42.7629 199.989 42.6056 200.194 42.4055C200.522 42.0507 200.698 41.5805 200.683 41.0966C200.683 39.9918 200.113 39.4192 198.89 39.4192H186.663V31.0307H198.89C199.171 31.0073 199.443 30.9124 199.678 30.7549C199.913 30.5975 200.105 30.3826 200.235 30.1306C200.563 29.6052 200.719 28.9904 200.683 28.3716C200.694 27.7295 200.54 27.0954 200.235 26.5309C200.054 26.3397 199.83 26.1953 199.581 26.1098C199.333 26.0243 199.068 26.0004 198.808 26.04H186.581V17.4083H198.808C202.124 17.1097 205.453 17.7923 208.386 19.3719C209.382 20.2659 210.149 21.3861 210.624 22.6389C211.099 23.8917 211.268 25.2404 211.117 26.5722C211.141 27.992 210.82 29.3963 210.18 30.6628C209.303 32.1747 208.089 33.4624 206.633 34.4248C208.239 35.1062 209.643 36.191 210.71 37.5749C211.873 38.9114 212.511 40.6283 212.502 42.4032Z" fill="#322F70"/>
<path d="M247.35 51.5258H214.418L221.021 30.1306H229.539L226.115 43.4676H235.122L225.381 17.4496H236.263L247.35 51.5258Z" fill="#322F70"/>
<path d="M259.781 26.0401H249.51V17.4492H259.781V26.0401ZM259.781 51.608H249.51V30.1306H259.781V51.608Z" fill="#322F70"/>
<path d="M293.448 34.2216C293.566 36.6385 293.148 39.0517 292.225 41.2871C291.302 43.5225 289.896 45.5246 288.108 47.149C284.376 50.2148 279.639 51.7753 274.822 51.5258H261.779V30.1306H271.804V43.3851C274.951 43.6 278.063 42.6218 280.526 40.6442C281.402 39.8792 282.099 38.928 282.564 37.8597C283.029 36.7913 283.252 35.6325 283.216 34.4671C283.269 32.3096 282.578 30.1999 281.26 28.4946C280.675 27.7286 279.922 27.1085 279.06 26.6828C278.197 26.257 277.248 26.037 276.287 26.04H261.82V17.49H277.104C279.46 17.3431 281.818 17.7427 283.995 18.6576C286.172 19.5726 288.11 20.9784 289.658 22.7661C292.284 25.9863 293.633 30.0652 293.448 34.2216Z" fill="#322F70"/>
<path d="M291.953 79.725H287.418V71.8264H280.19V79.725H275.684V59.9346H280.19V67.9799H287.418V59.9346H291.953V79.725Z" fill="#40D200"/>
<path d="M272.31 78.8441C271.12 79.5879 269.403 79.9598 267.16 79.9598C264.273 79.9598 261.854 79.03 259.903 77.1704C257.971 75.2912 257.006 72.8639 257.006 69.8885C257.006 66.8739 257.942 64.4172 259.815 62.5185C261.707 60.6197 264.165 59.6703 267.189 59.6703C269.413 59.6703 271.12 60.0422 272.31 60.7861V65.1317C270.847 64.2313 269.218 63.781 267.423 63.781C265.843 63.781 264.516 64.3389 263.443 65.4547C262.371 66.5509 261.834 68.0288 261.834 69.8885C261.834 71.7089 262.371 73.1575 263.443 74.2341C264.516 75.2912 265.901 75.8197 267.599 75.8197C269.432 75.8197 271.003 75.3499 272.31 74.4103V78.8441Z" fill="#40D200"/>
<path d="M254.081 79.725H241.82V59.9346H253.964V63.5462H246.356V68.0386H253.145V71.6209H246.356V76.1134H254.081V79.725Z" fill="#40D200"/>
<path d="M239.044 63.5755H234.245V79.725H229.709V63.5755H224.881V59.9346H239.044V63.5755Z" fill="#40D200"/>
<path d="M222.249 79.725H209.988V59.9346H222.132V63.5462H214.524V68.0386H221.313V71.6209H214.524V76.1134H222.249V79.725Z" fill="#40D200"/>
<path d="M198.744 63.6049H196.52V69.1838H198.656C200.607 69.1838 201.582 68.2246 201.582 66.3063C201.582 65.4645 201.329 64.8088 200.822 64.339C200.314 63.8496 199.622 63.6049 198.744 63.6049ZM196.52 79.725H192.014V59.9346H198.832C201.036 59.9346 202.802 60.5218 204.128 61.6963C205.474 62.8708 206.147 64.3977 206.147 66.2769C206.147 69.0957 204.947 71.0434 202.548 72.12L207.552 79.725H202.168L197.895 72.8541H196.52V79.725Z" fill="#40D200"/>
<path d="M188.356 72.0613C188.356 74.6452 187.634 76.6223 186.19 77.9926C184.747 79.3432 182.796 80.0186 180.338 80.0186C177.919 80.0186 175.978 79.3432 174.515 77.9926C173.052 76.6419 172.32 74.7333 172.32 72.2669V59.9346H176.827V72.2375C176.827 74.6844 177.997 75.9078 180.338 75.9078C182.679 75.9078 183.85 74.6354 183.85 72.0907V59.9346H188.356V72.0613Z" fill="#40D200"/>
<path d="M169.697 73.9699C169.697 75.7512 169.044 77.1998 167.737 78.3156C166.43 79.4118 164.694 79.9599 162.528 79.9599C160.207 79.9599 158.314 79.5488 156.851 78.7266V74.1754C158.627 75.4674 160.519 76.1134 162.528 76.1134C163.211 76.1134 163.777 75.9372 164.225 75.5848C164.674 75.2129 164.898 74.7333 164.898 74.1461C164.898 73.9503 164.869 73.7644 164.811 73.5882C164.752 73.412 164.645 73.2456 164.489 73.089C164.333 72.9324 164.177 72.8052 164.021 72.7073C163.884 72.5899 163.669 72.4626 163.377 72.3256C163.104 72.169 162.87 72.0418 162.674 71.9439C162.479 71.846 162.187 71.709 161.797 71.5328C161.426 71.3566 161.124 71.2196 160.89 71.1217C159.621 70.5345 158.597 69.8102 157.817 68.9489C157.056 68.0876 156.676 66.9425 156.676 65.5135C156.676 63.8104 157.3 62.4402 158.549 61.4027C159.797 60.3457 161.524 59.8171 163.728 59.8171C165.698 59.8171 167.395 60.1499 168.819 60.8155V65.0437C167.239 64.1237 165.601 63.6636 163.903 63.6636C163.143 63.6636 162.557 63.8202 162.148 64.1334C161.758 64.4466 161.563 64.8479 161.563 65.3373C161.563 65.8267 161.806 66.2671 162.294 66.6586C162.782 67.0305 163.513 67.4318 164.489 67.8625C165.093 68.1365 165.591 68.3812 165.981 68.5966C166.391 68.7923 166.849 69.0761 167.356 69.4481C167.883 69.8004 168.293 70.1821 168.585 70.5932C168.898 70.9847 169.161 71.4741 169.375 72.0613C169.59 72.6486 169.697 73.2848 169.697 73.9699Z" fill="#40D200"/>
<path d="M141.54 79.725H137.033V59.9346H141.978L146.573 68.1267C147.216 69.2817 147.772 70.3681 148.241 71.386C148.728 72.3843 149.04 73.089 149.177 73.5001L149.411 74.1461C149.216 72.6975 149.118 70.6911 149.118 68.1267V59.9346H153.625V79.725H148.679L143.968 71.5328C143.344 70.4757 142.788 69.4383 142.3 68.4204C141.832 67.3829 141.51 66.6195 141.335 66.1301L141.101 65.396C141.393 67.1578 141.54 69.2034 141.54 71.5328V79.725Z" fill="#40D200"/>
<path d="M132.944 79.725H128.438V59.9346H132.944V79.725Z" fill="#40D200"/>
<path d="M298.402 97.5109C298.827 97.938 299.04 98.4553 299.04 99.0631C299.04 99.6708 298.827 100.188 298.402 100.615C297.976 101.042 297.461 101.256 296.855 101.256C296.249 101.256 295.734 101.042 295.308 100.615C294.883 100.188 294.67 99.6708 294.67 99.0631C294.67 98.4553 294.883 97.938 295.308 97.5109C295.734 97.0839 296.249 96.8704 296.855 96.8704C297.461 96.8704 297.976 97.0839 298.402 97.5109Z" fill="#322F70"/>
<path d="M284.171 101.059H278.523V84.4534H284.22C286.708 84.4534 288.746 85.2253 290.333 86.7693C291.921 88.2967 292.715 90.202 292.715 92.485C292.715 95.1458 291.929 97.24 290.358 98.7675C288.803 100.295 286.74 101.059 284.171 101.059ZM284.097 87.5823H282.403V97.9545H284.121C285.644 97.9545 286.814 97.4782 287.632 96.5255C288.467 95.5729 288.885 94.2261 288.885 92.485C288.885 91.0068 288.467 89.8242 287.632 88.9373C286.798 88.034 285.619 87.5823 284.097 87.5823Z" fill="#322F70"/>
<path d="M276.192 87.5084H272.165V101.059H268.36V87.5084H264.309V84.4534H276.192V87.5084Z" fill="#322F70"/>
<path d="M263.074 101.059H253.18V84.4534H256.961V97.7327H263.074V101.059Z" fill="#322F70"/>
<path d="M239.416 101.059H235.635V94.9734L229.988 84.4534H234.408L235.414 86.8678C235.938 88.1161 236.372 89.1837 236.716 90.0706C237.059 90.9575 237.28 91.5324 237.379 91.7952L237.501 92.1894C237.665 91.4503 238.385 89.6764 239.662 86.8678L240.742 84.4534H245.137L239.416 94.9488V101.059Z" fill="#322F70"/>
<path d="M217.926 101.059H214.145V84.4534H218.294L222.149 91.3271C222.689 92.2962 223.155 93.2077 223.548 94.0618C223.957 94.8995 224.219 95.4908 224.334 95.8357L224.53 96.3777C224.367 95.1623 224.285 93.4787 224.285 91.3271V84.4534H228.066V101.059H223.916L219.963 94.185C219.44 93.2981 218.973 92.4276 218.564 91.5735C218.171 90.703 217.901 90.0624 217.754 89.6518L217.557 89.0359C217.803 90.5141 217.926 92.2305 217.926 94.185V101.059Z" fill="#322F70"/>
<path d="M202.202 94.0125L202.03 94.6038H206.008L205.836 94.0125C205.361 92.4029 204.968 91.0315 204.657 89.8982C204.363 88.7649 204.183 88.034 204.117 87.7055L204.019 87.2127C203.888 88.1161 203.282 90.3827 202.202 94.0125ZM200.115 101.059H196.162L201.686 84.4534H206.45L211.974 101.059H207.923L206.916 97.6588H201.122L200.115 101.059Z" fill="#322F70"/>
<path d="M189.054 95.6879H187.139V101.059H183.357V84.4534H189.054C190.887 84.4534 192.368 84.9707 193.498 86.0055C194.643 87.0403 195.216 88.3542 195.216 89.9474C195.216 91.7706 194.619 93.1831 193.424 94.185C192.245 95.1869 190.789 95.6879 189.054 95.6879ZM188.612 87.4837H187.139V92.6821H188.391C190.388 92.6821 191.386 91.7706 191.386 89.9474C191.386 88.305 190.461 87.4837 188.612 87.4837Z" fill="#322F70"/>
<path d="M164.855 101.059H161.074L162.498 84.4534H166.648L168.956 90.4648C169.348 91.4667 169.684 92.3865 169.962 93.2242C170.241 94.0618 170.421 94.6531 170.502 94.998L170.625 95.4908C170.887 94.4067 171.46 92.7314 172.344 90.4648L174.676 84.4534H178.826L180.544 101.059H176.763L176.15 94.6285L175.83 89.775C175.405 91.0068 174.815 92.6247 174.063 94.6285L171.73 100.886H169.496L167.188 94.6285C166.811 93.6101 166.492 92.6986 166.23 91.8938C165.968 91.0889 165.797 90.5305 165.715 90.2184L165.592 89.775C165.592 90.9411 165.518 92.559 165.371 94.6285L164.855 101.059Z" fill="#322F70"/>
<path d="M158.857 92.7067C158.857 95.2525 158.12 97.3138 156.647 98.8906C155.19 100.451 153.242 101.231 150.803 101.231C148.348 101.231 146.392 100.451 144.935 98.8906C143.478 97.3302 142.75 95.2689 142.75 92.7067C142.75 90.1608 143.478 88.1078 144.935 86.5474C146.408 84.9706 148.364 84.1823 150.803 84.1823C153.259 84.1823 155.215 84.9624 156.671 86.5228C158.128 88.0831 158.857 90.1444 158.857 92.7067ZM147.881 89.0111C147.161 89.9145 146.801 91.1463 146.801 92.7067C146.801 94.267 147.161 95.5071 147.881 96.4269C148.602 97.3302 149.576 97.7819 150.803 97.7819C152.031 97.7819 153.005 97.3302 153.725 96.4269C154.445 95.5071 154.805 94.267 154.805 92.7067C154.805 91.1463 154.445 89.9145 153.725 89.0111C153.005 88.0913 152.031 87.6314 150.803 87.6314C149.576 87.6314 148.602 88.0913 147.881 89.0111Z" fill="#322F70"/>
<path d="M140.532 100.32C139.534 100.944 138.094 101.256 136.211 101.256C133.789 101.256 131.759 100.476 130.122 98.9152C128.502 97.3385 127.691 95.3018 127.691 92.8053C127.691 90.2759 128.477 88.2146 130.048 86.6214C131.636 85.0282 133.699 84.2316 136.236 84.2316C138.102 84.2316 139.534 84.5436 140.532 85.1678V88.8141C139.305 88.0585 137.938 87.6808 136.432 87.6808C135.106 87.6808 133.993 88.1489 133.093 89.0851C132.193 90.0048 131.743 91.2449 131.743 92.8053C131.743 94.3328 132.193 95.5482 133.093 96.4515C133.993 97.3385 135.155 97.7819 136.579 97.7819C138.118 97.7819 139.436 97.3877 140.532 96.5994V100.32Z" fill="#322F70"/>
</g>
<defs>
<filter id="filter0_f_4910_4099" x="-0.438281" y="-10.8218" width="142.466" height="142.951" filterUnits="userSpaceOnUse" color-interpolation-filters="sRGB">
<feFlood flood-opacity="0" result="BackgroundImageFix"/>
<feBlend mode="normal" in="SourceGraphic" in2="BackgroundImageFix" result="shape"/>
<feGaussianBlur stdDeviation="7.1" result="effect1_foregroundBlur_4910_4099"/>
</filter>
<clipPath id="clip0_4910_4099">
<rect width="300" height="121" fill="white"/>
</clipPath>
</defs>
</svg>
