<svg width="24" height="24" viewBox="0 0 24 24" fill="none" xmlns="http://www.w3.org/2000/svg">
<path d="M5.5 5C6.879 5 8 3.879 8 2.5C8 1.121 6.879 0 5.5 0C4.121 0 3 1.121 3 2.5C3 3.879 4.121 5 5.5 5ZM5.5 1C6.327 1 7 1.673 7 2.5C7 3.327 6.327 4 5.5 4C4.673 4 4 3.327 4 2.5C4 1.673 4.673 1 5.5 1ZM9.801 14.667C9.484 15.562 8.823 16.265 8 16.656V23.5C8 23.776 7.776 24 7.5 24C7.224 24 7 23.776 7 23.5V16.961C6.836 16.985 6.669 17 6.5 17H4.5C4.329 17 4.165 16.973 4 16.949V23.5C4 23.776 3.776 24 3.5 24C3.224 24 3 23.776 3 23.5V16.649C1.822 16.085 1 14.891 1 13.5V9.5C1 7.57 2.57 6 4.5 6H5.5C5.776 6 6 6.224 6 6.5C6 6.776 5.776 7 5.5 7H4.5C3.121 7 2 8.121 2 9.5V13.5C2 14.879 3.121 16 4.5 16H6.5C7.558 16 8.505 15.33 8.857 14.333C8.95 14.073 9.236 13.938 9.496 14.028C9.756 14.121 9.892 14.406 9.801 14.667ZM18.5 5C19.879 5 21 3.879 21 2.5C21 1.121 19.879 0 18.5 0C17.121 0 16 1.121 16 2.5C16 3.879 17.121 5 18.5 5ZM18.5 1C19.327 1 20 1.673 20 2.5C20 3.327 19.327 4 18.5 4C17.673 4 17 3.327 17 2.5C17 1.673 17.673 1 18.5 1ZM23 9.5V13.5C23 14.891 22.178 16.085 21 16.649V23.5C21 23.776 20.776 24 20.5 24C20.224 24 20 23.776 20 23.5V16.949C19.835 16.973 19.671 17 19.5 17H17.5C17.331 17 17.164 16.984 17 16.961V23.5C17 23.776 16.776 24 16.5 24C16.224 24 16 23.776 16 23.5V16.656C15.177 16.264 14.516 15.562 14.199 14.667C14.107 14.406 14.244 14.121 14.504 14.028C14.765 13.935 15.049 14.072 15.143 14.333C15.496 15.33 16.443 16 17.5 16H19.5C20.879 16 22 14.879 22 13.5V9.5C22 8.121 20.879 7 19.5 7H18.5C18.224 7 18 6.776 18 6.5C18 6.224 18.224 6 18.5 6H19.5C21.43 6 23 7.57 23 9.5ZM13.75 6C13.061 6 12.42 6.317 12 6.796C11.58 6.317 10.939 6 10.25 6C9.01 6 8 7.088 8 8.425C8 9.995 9.718 11.944 10.801 12.803C11.154 13.083 11.577 13.223 12 13.223C12.423 13.223 12.847 13.083 13.199 12.803C14.282 11.944 16 9.995 16 8.425C16 7.088 14.99 6 13.75 6ZM12.578 12.02C12.238 12.29 11.762 12.29 11.422 12.02C10.445 11.245 9 9.566 9 8.425C9 7.64 9.561 7 10.25 7C10.954 7 11.5 7.567 11.5 8.056C11.5 8.332 11.724 8.556 12 8.556C12.276 8.556 12.5 8.332 12.5 8.056C12.5 7.568 13.046 7 13.75 7C14.439 7 15 7.64 15 8.425C15 9.566 13.555 11.244 12.578 12.02Z" fill="#8C34C7"/>
</svg>
