<svg width="24" height="24" viewBox="0 0 24 24" fill="none" xmlns="http://www.w3.org/2000/svg">
<g clip-path="url(#clip0_1016_11792)">
<path d="M11.9991 23.949C11.9221 23.949 11.8461 23.931 11.7751 23.896L11.3501 23.684C9.15609 22.586 1.99609 18.493 1.99609 11.884L1.99809 6.53801C1.99809 4.59501 3.23709 2.87801 5.08209 2.26701L11.8421 0.0250117C11.9441 -0.00898828 12.0551 -0.00898828 12.1561 0.0250117L18.9151 2.26601C20.7601 2.87801 21.9991 4.59501 21.9991 6.53701L21.9961 11.883C21.9961 19.381 14.8241 22.85 12.6261 23.735L12.1851 23.912C12.1251 23.936 12.0611 23.948 11.9981 23.948L11.9991 23.949ZM11.9991 1.02701L5.39709 3.21601C3.96209 3.69201 2.99909 5.02701 2.99909 6.53801L2.99709 11.884C2.99709 17.919 9.73309 21.758 11.7981 22.79L12.0221 22.902L12.2541 22.809C14.3051 21.984 20.9971 18.757 20.9971 11.885L21.0001 6.53901C21.0001 5.02801 20.0361 3.69301 18.6021 3.21701L11.9991 1.02701Z" fill="#8C34C7"/>
<path d="M10.9814 14.9999C10.3404 14.9999 9.69941 14.7559 9.21141 14.2679L6.15541 11.3629C5.95541 11.1729 5.94741 10.8559 6.13741 10.6559C6.32741 10.4569 6.64341 10.4479 6.84441 10.6379L9.90941 13.5519C10.5034 14.1449 11.4544 14.1459 12.0394 13.5609L17.6514 8.14093C17.8514 7.94993 18.1684 7.95593 18.3584 8.15393C18.5504 8.35193 18.5454 8.66893 18.3464 8.86093L12.7394 14.2749C12.2564 14.7579 11.6184 15.0009 10.9804 15.0009L10.9814 14.9999Z" fill="#8C34C7"/>
</g>
<defs>
<clipPath id="clip0_1016_11792">
<rect width="24" height="24" fill="white"/>
</clipPath>
</defs>
</svg>
