<svg width="24" height="24" viewBox="0 0 24 24" fill="none" xmlns="http://www.w3.org/2000/svg">
<g clip-path="url(#clip0_1016_11951)">
<path d="M10.75 13H10.25C10.112 13 10 13.224 10 13.5C10 13.776 10.112 14 10.25 14H10.75C10.888 14 11 13.776 11 13.5C11 13.224 10.888 13 10.75 13Z" fill="#8C34C7"/>
<path d="M13.75 13H13.25C13.112 13 13 13.224 13 13.5C13 13.776 13.112 14 13.25 14H13.75C13.888 14 14 13.776 14 13.5C14 13.224 13.888 13 13.75 13Z" fill="#8C34C7"/>
<path d="M19 13H17C16.448 13 16 13.224 16 13.5C16 13.776 16.448 14 17 14H19C19.552 14 20 13.776 20 13.5C20 13.224 19.552 13 19 13Z" fill="#8C34C7"/>
<path d="M10.75 19H10.25C10.112 19 10 19.224 10 19.5C10 19.776 10.112 20 10.25 20H10.75C10.888 20 11 19.776 11 19.5C11 19.224 10.888 19 10.75 19Z" fill="#8C34C7"/>
<path d="M7 13H5C4.448 13 4 13.224 4 13.5C4 13.776 4.448 14 5 14H7C7.552 14 8 13.776 8 13.5C8 13.224 7.552 13 7 13Z" fill="#8C34C7"/>
<path d="M7 19H5C4.448 19 4 19.224 4 19.5C4 19.776 4.448 20 5 20H7C7.552 20 8 19.776 8 19.5C8 19.224 7.552 19 7 19Z" fill="#8C34C7"/>
<path d="M13.75 19H13.25C13.112 19 13 19.224 13 19.5C13 19.776 13.112 20 13.25 20H13.75C13.888 20 14 19.776 14 19.5C14 19.224 13.888 19 13.75 19Z" fill="#8C34C7"/>
<path d="M19 19H17C16.448 19 16 19.224 16 19.5C16 19.776 16.448 20 17 20H19C19.552 20 20 19.776 20 19.5C20 19.224 19.552 19 19 19Z" fill="#8C34C7"/>
<path d="M19.5 2H18V0.5C18 0.224 17.776 0 17.5 0C17.224 0 17 0.224 17 0.5V2H7V0.5C7 0.224 6.776 0 6.5 0C6.224 0 6 0.224 6 0.5V2H4.5C2.019 2 0 4.019 0 6.5V19.5C0 21.981 2.019 24 4.5 24H19.5C21.981 24 24 21.981 24 19.5V6.5C24 4.019 21.981 2 19.5 2ZM4.5 3H19.5C21.43 3 23 4.57 23 6.5V8H1V6.5C1 4.57 2.57 3 4.5 3ZM19.5 23H4.5C2.57 23 1 21.43 1 19.5V9H23V19.5C23 21.43 21.43 23 19.5 23Z" fill="#8C34C7"/>
</g>
<defs>
<clipPath id="clip0_1016_11951">
<rect width="24" height="24" fill="white"/>
</clipPath>
</defs>
</svg>
