<svg width="32" height="32" viewBox="0 0 32 32" fill="none" xmlns="http://www.w3.org/2000/svg">
<g clip-path="url(#clip0_1291_3066)">
<path d="M30.125 10.3125C30.125 9.44956 29.4254 8.75 28.5625 8.75H28.25V11.875H28.5625C29.4254 11.875 30.125 11.1754 30.125 10.3125Z" fill="#8C34C7"/>
<path d="M8.125 1.875C8.125 0.839437 7.28556 0 6.25 0H1.875C0.839437 0 0 0.839437 0 1.875V3.75H8.125V1.875Z" fill="#8C34C7"/>
<path d="M7.875 5.875V11.25C7.875 12.1475 7.14749 12.875 6.25 12.875H4.75V15.25H5.3125C5.69218 15.25 6 15.5578 6 15.9375C6 16.3172 5.69218 16.625 5.3125 16.625H4.75V24.0625C4.75 25.7514 6.12362 27.125 7.8125 27.125H8.02832C8.0115 27.3527 8 27.5819 8 27.8125V28.5H7.8125C5.36588 28.5 3.375 26.5091 3.375 24.0625V16.625H2.8125C2.43282 16.625 2.125 16.3172 2.125 15.9375C2.125 15.5578 2.43282 15.25 2.8125 15.25H3.375V12.875H1.875C0.977509 12.875 0.25 12.1475 0.25 11.25V5.875H7.875Z" fill="#DBC0EE" stroke="#8C34C7" stroke-width="0.5"/>
<path d="M13.5625 11.875H13.875V8.75H13.5625C12.6996 8.75 12 9.44956 12 10.3125C12 11.1754 12.6996 11.875 13.5625 11.875Z" fill="#8C34C7"/>
<path d="M25.3652 20.8989C28.9328 21.1816 31.75 24.1741 31.75 27.813V31.063C31.7498 31.4425 31.4421 31.7505 31.0625 31.7505H11.0625C10.6829 31.7505 10.3752 31.4425 10.375 31.063V27.813C10.375 24.1744 13.1916 21.1821 16.7588 20.8989C16.9005 23.15 18.7763 24.938 21.0625 24.938C23.3486 24.938 25.2235 23.15 25.3652 20.8989Z" fill="#DBC0EE" stroke="#8C34C7" stroke-width="0.5"/>
<path d="M18.875 19.0342V20.625C18.875 21.8331 19.8544 22.8125 21.0625 22.8125C22.2706 22.8125 23.25 21.8331 23.25 20.625V19.0342C22.5599 19.2552 21.825 19.3749 21.0625 19.3749C20.3 19.3749 19.5651 19.2552 18.875 19.0342Z" fill="#8C34C7"/>
<path d="M26.125 9.28125V12.1875C26.125 14.9834 23.8584 17.25 21.0625 17.25C18.2666 17.25 16 14.9834 16 12.1875V9H18.2676C19.9895 8.99996 21.5733 8.2408 22.6426 6.95898L26.125 9.28125Z" fill="#DBC0EE" stroke="#8C34C7" stroke-width="0.5"/>
<path d="M21.4739 4.89325C21.7261 4.38888 22.3633 4.21962 22.8325 4.53244L26.3464 6.875H27.625V4.6875C27.625 2.10281 25.5222 0 22.9375 0H19.1875C16.6028 0 14.5 2.10281 14.5 4.6875V6.875H18.2674C19.6341 6.875 20.8628 6.11562 21.4739 4.89325Z" fill="#8C34C7"/>
</g>
<defs>
<clipPath id="clip0_1291_3066">
<rect width="32" height="32" fill="white"/>
</clipPath>
</defs>
</svg>
