<svg width="24" height="24" viewBox="0 0 24 24" fill="none" xmlns="http://www.w3.org/2000/svg">
<g clip-path="url(#clip0_79_310)">
<path d="M21 12H18C16.897 12 16 12.897 16 14C16 15.103 15.103 16 14 16H10C8.897 16 8 15.103 8 14C8 12.897 7.103 12 6 12H3C1.346 12 0 13.346 0 15V19C0 21.757 2.243 24 5 24H19C21.757 24 24 21.757 24 19V15C24 13.346 22.654 12 21 12ZM22 19C22 20.654 20.654 22 19 22H5C3.346 22 2 20.654 2 19V15C2 14.448 2.448 14 3 14L6 13.998V14C6 16.206 7.794 18 10 18H14C16.206 18 18 16.206 18 14H21C21.552 14 22 14.448 22 15V19ZM7.293 7.121C6.902 6.73 6.902 6.098 7.293 5.707C7.684 5.316 8.316 5.316 8.707 5.707L11 8V1C11 0.447 11.447 0 12 0C12.553 0 13 0.447 13 1V8L15.293 5.707C15.684 5.316 16.316 5.316 16.707 5.707C17.098 6.098 17.098 6.73 16.707 7.121L13.414 10.414C13.027 10.801 12.518 10.996 12.009 10.998L12 11L11.991 10.998C11.482 10.996 10.973 10.801 10.586 10.414L7.293 7.121Z" fill="#565656"/>
</g>
<defs>
<clipPath id="clip0_79_310">
<rect width="24" height="24" fill="white"/>
</clipPath>
</defs>
</svg>
