<svg width="24" height="24" viewBox="0 0 24 24" fill="none" xmlns="http://www.w3.org/2000/svg">
<g clip-path="url(#clip0_79_314)">
<path d="M1.44418 6.669C1.10934 6.76467 0.805283 6.94612 0.562095 7.19538C0.318907 7.44465 0.14502 7.75309 0.0576377 8.09019C-0.0297442 8.42729 -0.0275913 8.78137 0.0638833 9.11739C0.155358 9.4534 0.332984 9.75971 0.579185 10.006L3.99118 13.414V20H10.5842L14.0192 23.43C14.2036 23.6159 14.4229 23.7636 14.6645 23.8645C14.9061 23.9654 15.1653 24.0176 15.4272 24.018C15.5993 24.0177 15.7707 23.9955 15.9372 23.952C16.2741 23.8671 16.5828 23.695 16.8321 23.4529C17.0814 23.2108 17.2625 22.9073 17.3572 22.573L23.9912 0.0209961L1.44418 6.669ZM2.00018 8.592L19.0282 3.572L5.99318 16.586V12.586L2.00018 8.592ZM15.4402 22.016L11.4132 18H7.41318L20.4462 4.978L15.4402 22.016Z" fill="#FF7E0D"/>
</g>
<defs>
<clipPath id="clip0_79_314">
<rect width="24" height="24" fill="white"/>
</clipPath>
</defs>
</svg>
