<svg width="32" height="32" viewBox="0 0 32 32" fill="none" xmlns="http://www.w3.org/2000/svg">
<g clip-path="url(#clip0_1291_3077)">
<path d="M14.6561 6.30686C16.3959 6.30686 17.8093 4.89501 17.8093 3.15346C17.8093 1.41139 16.3959 0 14.6561 0C12.9143 0 11.502 1.41139 11.502 3.15346C11.502 4.89501 12.9143 6.30686 14.6561 6.30686Z" fill="#8C34C7"/>
<path d="M19.5286 24.1761C18.6906 27.0857 16.0083 29.2224 12.8326 29.2224C8.98679 29.2224 5.85928 26.0948 5.85928 22.2502C5.85928 19.4042 7.57618 16.9548 10.0264 15.8724V12.9165C6.01382 14.1251 3.08203 17.8499 3.08203 22.2502C3.08203 27.626 7.45604 32.0001 12.8325 32.0001C16.7506 32.0001 20.1278 29.6714 21.6763 26.3303L20.5753 24.1672C20.2663 24.1698 19.9083 24.173 19.5286 24.1761Z" fill="#8C34C7"/>
<path d="M14.6562 7.87939C15.5389 7.87939 16.1641 8.2492 16.5732 8.74561C16.9882 9.24917 17.1835 9.8866 17.1836 10.4067V14.8413H22.0889C22.7185 14.8413 23.2275 15.3512 23.2275 15.98C23.2275 16.2153 23.1377 16.4297 22.9941 16.6294C22.7806 16.9255 22.4605 17.1187 22.0889 17.1187H17.1836V18.8521H22.8428C23.4458 18.8521 23.9969 19.1908 24.2695 19.728L28.4941 28.0327C28.8963 28.8212 28.5823 29.7857 27.793 30.186L27.792 30.187C27.5605 30.3055 27.3129 30.3608 27.0684 30.3608C26.4838 30.3608 25.9213 30.0399 25.6396 29.4849L21.9307 22.1929L21.8613 22.0562H14.7119C13.2853 22.0559 12.1289 20.8988 12.1289 19.4722V10.4067C12.1291 9.01114 13.2605 7.87952 14.6562 7.87939Z" fill="#DBC0EE" stroke="#8C34C7" stroke-width="0.5"/>
</g>
<defs>
<clipPath id="clip0_1291_3077">
<rect width="32" height="32" fill="white"/>
</clipPath>
</defs>
</svg>
