<svg width="24" height="24" viewBox="0 0 24 24" fill="none" xmlns="http://www.w3.org/2000/svg">
<path d="M8.25925 18.8439C8.34386 18.9478 8.45493 19 8.56601 19C8.67708 19 8.78815 18.9478 8.87276 18.8439C9.04241 18.6355 9.04241 18.2987 8.87276 18.0903L6.86777 15.6277V10.5329C6.86777 10.2387 6.67339 10 6.43389 10C6.19438 10 6 10.2387 6 10.5329V15.8483C6 15.9895 6.04556 16.1254 6.12713 16.2251L8.25925 18.8439Z" fill="#8C34C7"/>
<path d="M6.94716 23H6.98804C6.99766 23 7.00648 22.9983 7.0161 22.9983H23.5992C23.8204 22.9983 24 22.8111 24 22.5804V1.4179C24 1.18722 23.8204 1 23.5992 1H6.98484C6.76358 1 6.58401 1.18722 6.58401 1.4179V8.52808C2.92244 8.72658 0 11.8859 0 15.7519C0 19.7483 3.11644 23 6.94716 23ZM23.1983 1.8358V22.1625H10.1875C10.2091 22.1508 10.2291 22.137 10.2508 22.1249C10.2808 22.1078 10.3097 22.0894 10.3398 22.0718C10.4929 21.982 10.642 21.8863 10.7875 21.7852C10.8204 21.7622 10.8536 21.74 10.8861 21.7166C11.0552 21.5946 11.2196 21.4667 11.3775 21.3305C11.3835 21.3255 11.3891 21.3196 11.3952 21.3146C11.5447 21.1842 11.6878 21.0459 11.8264 20.903C11.8549 20.8737 11.8834 20.844 11.9114 20.8144C12.1964 20.5106 12.4557 20.1817 12.6866 19.8302C12.7095 19.7955 12.7311 19.7608 12.7532 19.7257C12.8534 19.5674 12.948 19.4052 13.0361 19.2385C13.0482 19.2159 13.061 19.1946 13.0726 19.172C13.1696 18.9844 13.2582 18.7913 13.3392 18.5941C13.3536 18.5585 13.3664 18.5226 13.3809 18.4867C13.447 18.3187 13.5067 18.1473 13.5608 17.9735C13.5737 17.9321 13.5873 17.8916 13.5993 17.8498C13.659 17.6446 13.7115 17.4361 13.754 17.2234C13.7592 17.1966 13.7628 17.1694 13.7677 17.1427C13.8029 16.9555 13.8302 16.7662 13.851 16.5743C13.8566 16.5217 13.8626 16.4695 13.8671 16.4164C13.8863 16.197 13.8995 15.9763 13.8995 15.7519C13.8995 15.5066 13.8871 15.2642 13.8639 15.0248C13.8586 14.9688 13.847 14.9153 13.8406 14.8597C13.819 14.6792 13.7961 14.4991 13.7616 14.3227C13.7456 14.24 13.7224 14.1606 13.7035 14.0791C13.6703 13.9332 13.6382 13.7865 13.5961 13.6444C13.5688 13.5521 13.5348 13.4635 13.5043 13.3728C13.4614 13.2453 13.4205 13.1175 13.3708 12.9934C13.3328 12.8977 13.2879 12.8057 13.2458 12.7117C13.1949 12.598 13.1456 12.4831 13.0895 12.3728C13.0406 12.2767 12.9852 12.1847 12.9323 12.0911C12.8742 11.9887 12.8177 11.8851 12.7548 11.786C12.6954 11.692 12.6305 11.6022 12.5668 11.5111C12.5022 11.4187 12.4393 11.3259 12.3708 11.2369C12.3014 11.1466 12.2269 11.0606 12.1535 10.9736C12.0834 10.8909 12.014 10.8073 11.9403 10.7279C11.8613 10.6427 11.7787 10.5624 11.6958 10.4813C11.62 10.4074 11.5451 10.333 11.4665 10.2628C11.3791 10.1846 11.2881 10.1107 11.1971 10.0371C11.1166 9.97192 11.036 9.90631 10.9522 9.84488C10.8572 9.77468 10.7594 9.70865 10.6608 9.64345C10.5751 9.58662 10.4897 9.53062 10.4015 9.47755C10.2997 9.41653 10.1959 9.35928 10.0909 9.3037C9.99987 9.25522 9.90888 9.208 9.81589 9.1637C9.70887 9.11272 9.59984 9.06592 9.49001 9.02036C9.39381 8.98066 9.29762 8.94305 9.19941 8.90753C9.08798 8.86741 8.97535 8.83105 8.86111 8.79679C8.7597 8.76628 8.65789 8.73828 8.55488 8.71279C8.44024 8.68437 8.32481 8.65888 8.20776 8.63631C8.10114 8.61584 7.99372 8.59828 7.8851 8.58282C7.76846 8.5661 7.65141 8.55231 7.53317 8.54187C7.48387 8.53769 7.43577 8.52808 7.38607 8.52473V1.8358H23.1983ZM6.98083 9.34507C6.98083 9.34507 6.98203 9.34549 6.98283 9.34549C9.51126 9.36012 11.6866 10.9803 12.6161 13.2713C12.9259 14.0352 13.0971 14.8735 13.0971 15.7519C13.0971 19.269 10.3546 22.1454 6.94676 22.1642C3.55815 22.1642 0.801256 19.2878 0.801256 15.7519C0.801256 12.2161 3.55695 9.34674 6.98083 9.34507Z" fill="#8C34C7"/>
<path d="M10.4148 5H20.5852C20.8141 5 21 4.776 21 4.5C21 4.224 20.8141 4 20.5852 4H10.4148C10.1859 4 10 4.224 10 4.5C10 4.776 10.1859 5 10.4148 5Z" fill="#8C34C7"/>
<path d="M20.582 7H11.418C11.1873 7 11 7.224 11 7.5C11 7.776 11.1873 8 11.418 8H20.582C20.8127 8 21 7.776 21 7.5C21 7.224 20.8127 7 20.582 7Z" fill="#8C34C7"/>
<path d="M20.6314 10H15.3686C15.1651 10 15 10.224 15 10.5C15 10.776 15.1651 11 15.3686 11H20.6314C20.8349 11 21 10.776 21 10.5C21 10.224 20.8349 10 20.6314 10Z" fill="#8C34C7"/>
<path d="M20.6207 15H16.3793C16.1699 15 16 15.224 16 15.5C16 15.776 16.1699 16 16.3793 16H20.6207C20.8301 16 21 15.776 21 15.5C21 15.224 20.8301 15 20.6207 15Z" fill="#8C34C7"/>
<path d="M20.59 18H15.41C15.1837 18 15 18.224 15 18.5C15 18.776 15.1837 19 15.41 19H20.59C20.8163 19 21 18.776 21 18.5C21 18.224 20.8163 18 20.59 18Z" fill="#8C34C7"/>
</svg>
