<svg width="32" height="32" viewBox="0 0 32 32" fill="none" xmlns="http://www.w3.org/2000/svg">
<path d="M9.21847 22.929L23.8975 16.084L22.3615 15.15C21.7288 14.7641 21.0105 14.5408 20.2706 14.5C19.5307 14.4592 18.7922 14.6021 18.121 14.916L5.98647 20.574C5.90972 20.6106 5.8247 20.6263 5.73997 20.6195C5.65897 20.6145 5.57847 20.6115 5.49797 20.6115C5.00223 20.6132 4.5125 20.7202 4.0612 20.9254C3.60991 21.1305 3.20735 21.4292 2.88019 21.8017C2.55302 22.1742 2.30871 22.6119 2.16343 23.0858C2.01815 23.5598 1.97522 24.0593 2.03748 24.5511C2.09973 25.0429 2.26576 25.5159 2.52456 25.9387C2.78337 26.3615 3.12904 26.7246 3.5387 27.0037C3.94835 27.2829 4.41264 27.4719 4.90083 27.5581C5.38901 27.6444 5.88995 27.626 6.37047 27.504C6.98888 27.3408 7.55192 27.014 8.00047 26.558V26.5H8.05997C8.43468 26.1006 8.70957 25.6182 8.86217 25.0922C9.01476 24.5662 9.04074 24.0115 8.93797 23.4735C8.91773 23.3645 8.93431 23.2519 8.98508 23.1533C9.03586 23.0548 9.11796 22.9759 9.21847 22.929ZM6.55697 26.379C6.10886 26.588 5.60884 26.6594 5.12014 26.5843C4.63144 26.5091 4.17602 26.2907 3.81145 25.9566C3.44689 25.6226 3.18955 25.188 3.072 24.7077C2.95444 24.2274 2.98194 23.7231 3.15101 23.2585C3.32009 22.7938 3.62315 22.3897 4.02187 22.0973C4.42059 21.8049 4.89706 21.6373 5.39103 21.6157C5.88501 21.5941 6.3743 21.7195 6.79703 21.9759C7.21977 22.2324 7.55696 22.6084 7.76597 23.0565C7.90524 23.3538 7.98444 23.6757 7.99903 24.0036C8.01362 24.3316 7.96331 24.6592 7.85098 24.9676C7.73865 25.2761 7.56652 25.5593 7.34446 25.8011C7.1224 26.0429 6.85478 26.2384 6.55697 26.3765V26.379Z" fill="#8C34C7"/>
<path d="M26 3.29346V6.99996H29.3695L26 3.29346Z" fill="#8C34C7"/>
<path d="M5.74072 19.4908C5.79502 19.49 5.84918 19.4965 5.90172 19.5103L10.0552 17.5733L9.21872 17.1828C9.1184 17.1359 9.03647 17.0571 8.9858 16.9586C8.93512 16.8602 8.91856 16.7477 8.93872 16.6388C9.07256 15.9211 8.97866 15.1796 8.67016 14.518C8.36166 13.8564 7.85399 13.3078 7.21823 12.949C6.58246 12.5902 5.85042 12.4392 5.12457 12.5171C4.39872 12.595 3.71539 12.8979 3.17024 13.3834C2.62509 13.8689 2.2454 14.5128 2.08432 15.2248C1.92323 15.9368 1.98882 16.6814 2.27191 17.3543C2.55499 18.0272 3.04139 18.5947 3.66303 18.9775C4.28467 19.3602 5.01043 19.539 5.73872 19.4888L5.74072 19.4908ZM3.15022 16.8553C2.95154 16.3108 2.94786 15.7143 3.13981 15.1674C3.33176 14.6205 3.70745 14.1571 4.20284 13.8562C4.69822 13.5553 5.28263 13.4356 5.85644 13.5174C6.43024 13.5992 6.95791 13.8774 7.34948 14.3048C7.74106 14.7321 7.9723 15.282 8.00378 15.8607C8.03527 16.4395 7.86504 17.0112 7.52213 17.4785C7.17922 17.9458 6.68486 18.2797 6.12331 18.4232C5.56177 18.5668 4.96782 18.5112 4.44272 18.2658C4.14466 18.1279 3.87694 17.9322 3.65507 17.6901C3.43321 17.448 3.26161 17.1642 3.15022 16.8553Z" fill="#8C34C7"/>
<path d="M22.3613 24.9629L23.8978 24.0284L16.5628 20.6074L12.4258 22.5364L18.1223 25.1969C18.7935 25.5101 19.5316 25.6527 20.2711 25.6118C21.0107 25.571 21.7287 25.3481 22.3613 24.9629Z" fill="#8C34C7"/>
<path d="M24.75 2.75V7.5C24.75 7.69891 24.8291 7.88962 24.9697 8.03027C25.1104 8.17092 25.3011 8.25 25.5 8.25H29.75V29.25H9.25V27.0293C9.96163 26.1197 10.3125 24.9816 10.2393 23.8311L11.2432 23.3633L17.5947 26.3291C18.4523 26.7296 19.3958 26.9124 20.3408 26.8604C21.2858 26.8082 22.2034 26.5236 23.0117 26.0312L25.3467 24.6113C25.4625 24.5407 25.557 24.4395 25.6201 24.3193C25.6832 24.1991 25.7128 24.0633 25.7051 23.9277C25.6973 23.7923 25.6524 23.6611 25.5762 23.5488C25.4999 23.4367 25.3945 23.3471 25.2715 23.29H25.2725L19.8252 20.75H21.75V19.25H20.0645L25.2725 16.8213C25.3954 16.7641 25.501 16.6747 25.5771 16.5625C25.6531 16.4504 25.6973 16.3198 25.7051 16.1846C25.7128 16.0492 25.683 15.9141 25.6201 15.7939C25.5572 15.6739 25.4633 15.5727 25.3477 15.502L25.3467 15.501L23.0127 14.0811H23.0117C22.2035 13.5885 21.2859 13.303 20.3408 13.251C19.5137 13.2054 18.6879 13.3397 17.9199 13.6426L17.5938 13.7832L11.2363 16.7461L10.2383 16.2803C10.3107 15.1303 9.96047 13.9927 9.25 13.083V2.75H24.75ZM22.25 20.75H24.25V19.25H22.25V20.75ZM24.75 20.75H26.75V19.25H24.75V20.75ZM27.25 20.75H29.25V19.25H27.25V20.75ZM19.75 20.7139L18.3359 20.0557L19.75 19.3965V20.7139ZM10.25 12.75H12.75V11.25H10.25V12.75ZM13.25 12.75H28.75V11.25H13.25V12.75ZM10.25 10.25H23.75V8.75H10.25V10.25ZM10.25 7.75H14.75V6.25H10.25V7.75ZM15.25 7.75H23.75V6.25H15.25V7.75ZM10.25 5.25H12.75V3.75H10.25V5.25ZM13.25 5.25H23.75V3.75H13.25V5.25Z" fill="#DBC0EE" stroke="#8C34C7" stroke-width="0.5"/>
</svg>
