<svg width="24" height="24" viewBox="0 0 24 24" fill="none" xmlns="http://www.w3.org/2000/svg">
<g clip-path="url(#clip0_175_530)">
<path d="M19.949 2.644L12 0.00900269L4.051 2.644C3.45452 2.84003 2.93513 3.21932 2.56685 3.72784C2.19857 4.23635 2.0002 4.84814 2 5.476V12C2 19.524 11.2 23.679 11.594 23.852L11.948 24.009L12.316 23.887C12.711 23.755 22 20.577 22 12V5.476C21.9996 4.84817 21.8012 4.23646 21.433 3.72798C21.0647 3.21949 20.5454 2.84016 19.949 2.644ZM20 12C20 18.263 13.651 21.216 12.047 21.861C10.44 21.058 4 17.494 4 12V5.476C4.00009 5.26667 4.06626 5.06271 4.18909 4.8932C4.31191 4.72369 4.48511 4.59729 4.684 4.532L12 2.106L19.316 4.532C19.5151 4.59702 19.6884 4.72336 19.8113 4.89293C19.9342 5.0625 20.0002 5.2666 20 5.476V12Z" fill="#565656"/>
</g>
<defs>
<clipPath id="clip0_175_530">
<rect width="24" height="24" fill="white"/>
</clipPath>
</defs>
</svg>
