<svg width="50" height="50" viewBox="0 0 50 50" fill="none" xmlns="http://www.w3.org/2000/svg">
<path d="M25.2207 13.1086C25.4602 13.1429 25.6692 13.2577 25.875 13.425C26.0922 13.6018 26.2789 13.8125 26.501 14.0354L26.502 14.0364L26.7139 14.2463C26.9467 14.4777 27.1786 14.7102 27.4111 14.9426H27.4121C27.5791 15.1089 27.746 15.2755 27.9131 15.4417C28.3669 15.8934 28.8203 16.3464 29.2734 16.7991C29.5565 17.0818 29.8399 17.3643 30.123 17.6467C30.9075 18.4293 31.692 19.2121 32.4756 19.9954L33.2383 20.7581C34.057 21.5764 34.877 22.3936 35.6973 23.2102C36.5396 24.0488 37.3812 24.8883 38.2217 25.7288C38.6936 26.2006 39.1662 26.6722 39.6396 27.1428C40.0841 27.5847 40.5273 28.0279 40.9697 28.4719L40.9707 28.4729C41.1337 28.636 41.2971 28.7989 41.4609 28.9612C41.6832 29.1815 41.904 29.4035 42.125 29.6262L42.1279 29.6292C42.193 29.693 42.2581 29.7568 42.3252 29.8225C42.5641 30.0665 42.7129 30.291 42.8047 30.5315C42.8974 30.7746 42.9382 31.0505 42.9385 31.4045V31.4055L42.9404 31.719C42.9398 31.8839 42.9391 31.8851 42.9385 32.0549V32.0559L42.9395 32.4172C42.9402 32.7417 42.9401 33.0662 42.9395 33.3909C42.939 33.733 42.9401 34.0756 42.9404 34.4172C42.9408 34.9913 42.9404 35.5657 42.9395 36.1399V39.8333C42.9392 40.1726 42.9398 40.5122 42.9404 40.8518C42.9411 41.2306 42.9396 41.61 42.9385 41.9895V41.9905L42.9404 42.3254C42.9315 43.9791 42.5994 45.3674 41.5186 46.6028C40.055 48.0022 38.4261 48.1351 36.4102 48.1184H36.4092C36.2339 48.118 36.0581 48.1176 35.8828 48.1174C35.2405 48.1159 34.5981 48.1124 33.9551 48.1086H33.9541C33.2342 48.1056 32.5144 48.1019 31.7891 48.0989C31.1447 48.0962 30.4957 48.0938 29.8389 48.0911V35.2971H20.1592V48.0911C18.808 48.0987 17.4545 48.1067 16.0625 48.1145H16.0615L14.6992 48.1252C14.1436 48.127 14.1434 48.1269 13.8818 48.1272H13.8809C13.7005 48.1278 13.5201 48.1291 13.3398 48.1311C11.7843 48.1476 10.3553 48.0766 9.13379 47.1633L9.13281 47.1624H9.13184V47.1614H9.13086L9.12891 47.1594H9.12793V47.1584H9.12695L9.12598 47.1575L9.125 47.1565H9.12402L9.12305 47.1555V47.1545H9.12109V47.1536H9.12012V47.1526H9.11914L9.11719 47.1506H9.11621V47.1497H9.11523L9.11426 47.1487L9.11328 47.1477H9.1123L9.11133 47.1467L9.11035 47.1458H9.10938V47.1448H9.1084L9.10742 47.1438L9.10645 47.1428H9.10547V47.1418H9.10449V47.1409H9.10352L9.10254 47.1399H9.10156V47.1389H9.10059L9.09863 47.137H9.09766V47.136H9.09668V47.135L9.09473 47.134H9.09375V47.1331H9.09277L9.0918 47.1321L9.09082 47.1311H9.08984V47.1301H9.08887L9.08691 47.1282H9.08594V47.1272H9.08496L9.08398 47.1262L9.08301 47.1252H9.08203L9.08105 47.1243V47.1233H9.0791V47.1223H9.07812V47.1213H9.07715L9.0752 47.1194H9.07422V47.1184H9.07324L9.07227 47.1174L9.07129 47.1165H9.07031L9.06934 47.1155L9.06836 47.1145H9.06738V47.1135H9.06641L9.06543 47.1125L9.06348 47.1106H9.0625V47.1096H9.06152L9.06055 47.1086H9.05957V47.1077H9.05859L9.05762 47.1067L9.05664 47.1057H9.05566L9.05469 47.1047V47.1038H9.05371L9.05273 47.1028H9.05176V47.1018H9.05078L9.04883 47.0999H9.04785V47.0989H9.04688L9.0459 47.0979L9.04492 47.0969H9.04395L9.04297 47.0959V47.095H9.04102V47.094H9.04004V47.093H9.03906L9.03711 47.0911H9.03613V47.0901H9.03516L9.03418 47.0891L9.0332 47.0881H9.03223L9.03125 47.0872V47.0862H9.0293V47.0852H9.02832V47.0842H9.02734L9.02539 47.0823H9.02441L9.02246 47.0803H9.02148V47.0793H9.02051L9.01953 47.0784L9.01855 47.0774H9.01758V47.0764H9.0166V47.0754H9.01562L9.01465 47.0745H9.01367V47.0735H9.0127L9.01074 47.0715H9.00977L9.00879 47.0706V47.0696H9.00781L9.00684 47.0686H9.00586V47.0676H9.00488L9.00293 47.0657H9.00195L9.00098 47.0647V47.0637H8.99902V47.0627H8.99805L8.99707 47.0618L8.99512 47.0598H8.99414V47.0588H8.99316L8.99219 47.0579L8.99121 47.0569H8.99023L8.98926 47.0559V47.0549H8.9873V47.054H8.98633V47.053H8.98535L8.98438 47.052H8.9834V47.051H8.98242L8.98145 47.05L8.98047 47.0491H8.97949V47.0481H8.97852L8.97754 47.0471L8.97656 47.0461H8.97559V47.0452H8.97461L8.97266 47.0432H8.97168L8.9707 47.0422V47.0413H8.96973L8.96875 47.0403H8.96777V47.0393H8.9668L8.96484 47.0374H8.96387L8.96289 47.0364V47.0354H8.96191L8.96094 47.0344H8.95996V47.0334H8.95898L8.95703 47.0315H8.95605L8.95508 47.0305V47.0295H8.95312V47.0286H8.95215V47.0276H8.95117L8.94922 47.0256H8.94824L8.94727 47.0247V47.0237H8.94531V47.0227H8.94434V47.0217H8.94336L8.94238 47.0208H8.94141V47.0198H8.94043L8.93945 47.0188L8.93848 47.0178H8.9375V47.0168H8.93652V47.0159H8.93555L8.93457 47.0149H8.93359V47.0139H8.93262L8.93164 47.0129C7.76225 46.0658 7.25157 44.7442 7.08398 43.2405C7.0606 42.8264 7.05904 42.4119 7.06055 41.9905V41.9895C7.0602 41.8694 7.05992 41.7489 7.05957 41.6252C7.05887 41.3008 7.05895 40.9763 7.05957 40.6516L7.05859 39.6252C7.05824 39.0522 7.05864 38.4787 7.05957 37.9055V34.2092C7.05987 33.8696 7.05924 33.5296 7.05859 33.1897C7.05792 32.8122 7.05946 32.434 7.06055 32.0559V32.0549C7.06015 31.9442 7.059 31.833 7.05859 31.719C7.05914 31.6156 7.05998 31.512 7.06055 31.4055V31.1487C7.09342 30.7905 7.17325 30.5377 7.29883 30.3167C7.42806 30.0892 7.61327 29.8818 7.87988 29.6204L7.88184 29.6174L8.09473 29.4036C8.32898 29.1681 8.5649 28.9341 8.80176 28.6995L8.80273 28.6985L9.30957 28.1907C9.72016 27.7792 10.1325 27.3692 10.5449 26.9592C11.0255 26.4814 11.5045 26.0016 11.9834 25.5227C12.8376 24.6686 13.6928 23.8154 14.5488 22.9631C15.38 22.1356 16.2105 21.307 17.04 20.4778C17.0911 20.4267 17.1427 20.3761 17.1953 20.3235L17.8115 19.7073C18.6017 18.9175 19.3926 18.1282 20.1836 17.3391C20.4705 17.0529 20.7573 16.7661 21.0439 16.4797C21.5407 15.9835 22.0383 15.4876 22.5361 14.9924C22.7018 14.8275 22.8679 14.6626 23.0332 14.4973C23.2576 14.273 23.4826 14.0492 23.708 13.8254L23.709 13.8245C23.7745 13.7588 23.8398 13.6929 23.9072 13.6252C23.9675 13.5656 24.0277 13.506 24.0898 13.4446L24.2383 13.2961C24.4389 13.1331 24.641 13.1229 24.9922 13.1165H24.9951C25.1102 13.1129 25.1179 13.1118 25.2207 13.1086Z" fill="#B2B0E4" stroke="#0800A8" stroke-width="0.5"/>
<path d="M29.5203 4.31835C30.3773 5.02166 31.161 5.80005 31.9424 6.58472C32.0525 6.69491 32.1626 6.80508 32.2727 6.91523C32.5592 7.20193 32.8454 7.48892 33.1316 7.77598C33.425 8.07016 33.7186 8.36406 34.0123 8.65798C34.5859 9.23231 35.1593 9.80696 35.7325 10.3818C35.7338 10.2345 35.7338 10.2345 35.7352 10.0842C35.7392 9.71545 35.7456 9.34679 35.7527 8.97812C35.7554 8.81936 35.7575 8.66059 35.7589 8.50182C35.7685 7.46368 35.8279 6.63522 36.3846 5.72861C37.0574 5.07447 37.7578 4.7317 38.7006 4.69931C39.1978 4.71017 39.581 4.79804 40.0231 5.02211C40.0893 5.05414 40.1556 5.08617 40.2238 5.11917C40.8624 5.46779 41.2146 5.98341 41.4989 6.64294C41.602 7.04358 41.5577 7.37474 41.4937 7.77561C41.4708 7.94018 41.4482 8.10481 41.4261 8.2695C41.4144 8.35678 41.4027 8.44407 41.3906 8.53401C41.0263 11.4393 40.9982 15.1383 42.4217 17.497C44.0174 19.537 46.0484 21.282 48.0636 22.8968C49.6203 24.1469 49.6203 24.1469 49.9696 25.1941C50.0419 26.1722 50.0308 27.0449 49.4108 27.8492C48.8044 28.5083 48.1032 28.8506 47.2076 28.9062C45.8632 28.8592 45.0873 28.1426 44.1859 27.2303C44.1081 27.1524 44.0303 27.0745 43.9502 26.9943C43.6912 26.7346 43.4329 26.4743 43.1746 26.214C42.9885 26.027 42.8023 25.8403 42.616 25.6535C42.2158 25.2519 41.8159 24.8501 41.4161 24.448C40.7841 23.8123 40.1511 23.1775 39.518 22.5429C39.301 22.3255 39.0842 22.1081 38.8673 21.8906C38.8131 21.8363 38.7589 21.782 38.703 21.726C38.0872 21.1086 37.4716 20.491 36.8561 19.8733C36.7999 19.8168 36.7437 19.7604 36.6858 19.7023C35.7738 18.787 34.8624 17.8712 33.9511 16.9552C33.0144 16.0138 32.0768 15.0733 31.1385 14.1336C30.5602 13.5544 29.9827 12.9745 29.4062 12.3935C29.0113 11.9957 28.6154 11.5987 28.2189 11.2024C27.9902 10.9738 27.7622 10.7447 27.5348 10.5148C27.2882 10.2655 27.04 10.0176 26.7915 9.77015C26.7203 9.69746 26.6491 9.62477 26.5758 9.54988C26.116 9.09618 25.6765 8.74615 25.0006 8.71633C24.1389 8.78003 23.6177 9.40299 23.0463 9.98112C22.9685 10.0591 22.8906 10.1371 22.8104 10.2174C22.5499 10.4786 22.2901 10.7404 22.0303 11.0023C21.8436 11.1898 21.6567 11.3772 21.4699 11.5646C21.0676 11.9681 20.6657 12.3719 20.2641 12.776C19.6287 13.415 18.9924 14.0531 18.3559 14.691C18.138 14.9095 17.92 15.1279 17.7021 15.3464C17.6476 15.401 17.5932 15.4556 17.537 15.5119C16.9176 16.1329 16.2984 16.7541 15.6793 17.3755C15.5944 17.4606 15.5944 17.4606 15.5078 17.5475C14.5912 18.4674 13.6752 19.3878 12.7593 20.3084C11.8181 21.2545 10.8759 22.1996 9.93284 23.1439C9.35174 23.7259 8.77143 24.3086 8.19211 24.8924C7.79483 25.2926 7.39666 25.6919 6.99779 26.0906C6.76794 26.3203 6.53865 26.5506 6.31014 26.7817C6.06182 27.0327 5.81204 27.2822 5.56184 27.5313C5.49071 27.604 5.41958 27.6766 5.3463 27.7514C4.65575 28.4329 3.91472 28.8581 2.93489 28.9036C2.09277 28.8826 1.44275 28.6128 0.827289 28.0372C0.108874 27.2711 -0.022925 26.5982 0.00298823 25.553C0.183334 23.903 2.08838 22.5495 3.19082 21.4472C3.37177 21.2659 3.55269 21.0846 3.7336 20.9033C4.22292 20.413 4.71261 19.923 5.20237 19.4332C5.50873 19.1267 5.81501 18.8202 6.12128 18.5137C6.97104 17.6634 7.82089 16.8131 8.67107 15.9631C8.72532 15.9089 8.77956 15.8547 8.83545 15.7988C8.88981 15.7445 8.94418 15.6901 9.00019 15.6341C9.11033 15.524 9.22047 15.4139 9.33061 15.3038C9.41255 15.2219 9.41255 15.2219 9.49616 15.1383C10.3819 14.2528 11.2669 13.3666 12.1517 12.4802C13.0624 11.5678 13.9736 10.656 14.8853 9.74471C15.3964 9.23395 15.9071 8.72296 16.4173 8.21136C16.897 7.73029 17.3775 7.24998 17.8585 6.77017C18.0344 6.59443 18.2101 6.41846 18.3855 6.24221C21.3417 3.27268 25.7638 1.34519 29.5203 4.31835Z" fill="#0800A8"/>
</svg>
