<svg width="56" height="56" viewBox="0 0 56 56" fill="none" xmlns="http://www.w3.org/2000/svg">
<g clip-path="url(#clip0_788_2398)">
<rect width="56" height="56" rx="28" fill="#F4EBF9"/>
<g clip-path="url(#clip1_788_2398)">
<path d="M28.0006 8.84216C21.1444 8.84216 15.5664 14.4201 15.5664 21.2764C15.5664 28.1326 21.1444 33.7106 28.0006 33.7106C34.8568 33.7106 40.4348 28.1326 40.4348 21.2764C40.4348 14.4201 34.8568 8.84216 28.0006 8.84216Z" fill="#DBC0EE"/>
<path d="M43.4716 41.8338C40.0674 38.3773 35.5545 36.4738 30.7642 36.4738H25.2379C20.4477 36.4738 15.9347 38.3773 12.5305 41.8338C9.14294 45.2734 7.27734 49.8136 7.27734 54.6185C7.27734 55.3815 7.89592 56.0001 8.65892 56.0001H47.3431C48.1061 56.0001 48.7247 55.3815 48.7247 54.6185C48.7247 49.8136 46.8591 45.2734 43.4716 41.8338Z" fill="#DBC0EE"/>
</g>
</g>
<defs>
<clipPath id="clip0_788_2398">
<rect width="56" height="56" rx="28" fill="white"/>
</clipPath>
<clipPath id="clip1_788_2398">
<rect width="47.1579" height="47.1579" fill="white" transform="translate(4.42188 8.84216)"/>
</clipPath>
</defs>
</svg>
