<svg width="56" height="56" viewBox="0 0 56 56" fill="none" xmlns="http://www.w3.org/2000/svg">
<g clip-path="url(#clip0_274_12640)">
<path d="M31.1797 8.57825C34.0649 8.0919 37.0898 8.60073 39.5625 10.1603C39.9344 10.426 40.2827 10.7124 40.6328 11.0167L40.6387 11.0226L40.6455 11.0275L40.8398 11.1749C42.6946 12.6075 43.9815 15.2654 44.3418 17.5577C44.5299 19.2011 44.458 20.8873 44.0967 22.4972C44.0364 22.4966 43.9756 22.4968 43.9141 22.4962H43.9131C37.9484 22.4534 32.716 24.127 28.3721 28.3683L28.3691 28.3712C25.643 31.1255 24.0024 34.7226 24.0039 38.6193V38.6222C24.024 40.4527 24.5505 41.9898 25.3467 43.5363L25.7031 44.2003C25.7387 44.2708 25.7733 44.3417 25.8086 44.4122C24.1512 45.3326 22.8257 45.9459 20.9883 45.4777C20.4366 45.3081 19.9328 45.0568 19.3994 44.7794L19.3975 44.7784C19.2267 44.6911 19.2261 44.6909 19.0518 44.6017C16.2084 43.1333 13.5563 41.3409 11.1582 39.2238C11.0132 39.096 10.8671 38.9692 10.7217 38.8439C9.45697 37.7366 8.21922 36.5469 7.19434 35.2325C6.95702 34.9288 6.70723 34.6398 6.46094 34.3546C2.58955 29.7017 -0.047579 23.8108 0.248047 17.7374C0.374396 16.5049 0.859373 15.3559 1.42676 14.2208L1.59961 13.8741C2.93498 11.42 5.20535 9.77685 7.83691 8.88C11.9634 7.70877 16.2463 8.80544 19.5264 11.5099H19.5273C20.5707 12.4267 21.3381 13.4995 22.1025 14.6827L22.3154 15.0118L22.5234 14.6798C22.5722 14.6022 22.6207 14.5244 22.6709 14.4445L22.6719 14.4454C24.7021 11.3006 27.523 9.39054 31.1797 8.57825Z" fill="#DBC0EE" stroke="#8C34C7" stroke-width="0.5"/>
<path d="M54.6397 29.2271C55.4441 29.9907 55.9655 30.6997 56.0013 31.8282C55.4318 32.1243 54.8637 32.3958 54.265 32.628C51.3035 33.8512 49.7363 36.5311 48.3314 39.2452C46.5222 42.7314 43.6439 46.081 39.8082 47.3227C36.9659 48.1799 34.0774 47.8969 31.4535 46.5152C30.5762 46.0298 29.8323 45.4085 29.0951 44.7344C28.9908 44.6526 28.9908 44.6526 28.8845 44.5691C28.767 44.4063 28.767 44.4063 28.7618 44.1692C28.9328 43.7067 29.2123 43.3439 29.5052 42.9503C29.5687 42.8638 29.6322 42.7774 29.6977 42.6883C31.4723 40.2926 33.4823 37.8924 35.8763 36.0938C35.9465 36.0407 36.0166 35.9877 36.0889 35.933C37.0653 35.1978 38.0544 34.5168 39.1241 33.9237C39.4818 33.7232 39.6918 33.5972 39.9232 33.2501C39.9599 32.9203 39.9845 32.6924 39.9232 32.3751C39.6428 32.0352 39.4712 31.9497 39.0354 31.894C38.4686 31.9522 38.0994 32.1767 37.6195 32.4708C37.5284 32.5252 37.4373 32.5796 37.3435 32.6356C35.7641 33.5918 34.3311 34.7197 32.9681 35.9639C32.7126 36.1958 32.4525 36.4216 32.1918 36.6475C31.8154 36.9818 31.4817 37.3321 31.1574 37.7165C30.9288 37.9831 30.6889 38.2371 30.4486 38.4932C29.4334 39.6075 28.5265 40.8226 27.7373 42.1065C27.6801 42.1796 27.6228 42.2528 27.5638 42.3282C27.4556 42.3282 27.3473 42.3282 27.2357 42.3282C26.0433 39.9339 26.032 37.4338 26.8482 34.9168C27.5048 33.0353 28.6561 31.4441 29.9701 29.9688C30.0338 29.8971 30.0975 29.8253 30.1632 29.7514C36.4744 23.0736 47.9403 23.3998 54.6397 29.2271Z" fill="#8C34C7"/>
</g>
<defs>
<clipPath id="clip0_274_12640">
<rect width="56" height="56" fill="white"/>
</clipPath>
</defs>
</svg>
