<?xml version="1.0" encoding="UTF-8"?>
<svg id="OBJECTS" xmlns="http://www.w3.org/2000/svg" version="1.1" viewBox="0 0 289.96 289.96">
  <!-- Generator: Adobe Illustrator 29.7.1, SVG Export Plug-In . SVG Version: 2.1.1 Build 8)  -->
  <defs>
    <style>
      .st0 {
        fill: #fff;
      }
    </style>
  </defs>
  <rect class="st0" width="289.96" height="289.96"/>
  <g>
    <path d="M62.94,170.71c.3,3.36,1.67,8.87,2.53,12.31,5.04,20.03,18.51,38.61,37.87,46.64-14.9-16.09-19.05-37.72-10.87-58.27,6.09-15.28,23.31-34.9,24.88-50.98.47-4.81-2.46-14.77,5.16-13.46,1.52.26,8.15,3.92,9.94,4.97,16.03,9.38,28.72,25.79,27.79,45.19.24.32,5.99-3.88,6.62-4.5,6.8-6.68,7.46-14.74,15.24-.46,2.79,5.11,9.19,22.22,8.47,27.46-.49,3.6-5.2,4.23-7.31,1.87-1.5-1.68-2.85-11.18-3.84-14.3-1.18-3.73-3.25-7.15-4.37-10.89-4.23,3.57-8.38,7.62-13.45,10.04-15.29,7.31-8.9-5.35-9.73-14.48-1.31-14.47-13.14-28.09-26.28-33.49-2.55,32.7-37.65,52.54-26.98,87.57,2.17,7.13,6.46,13.61,11.73,18.78.62.13.53-.79.4-1.22-.96-3.09-3.5-6.27-4.53-10.32-4.87-19.23,1.42-36.88,16.52-49.45,2.77-2.31,15.76-12.43,16.72-4.38.39,3.29-2.67,8.21-3.03,12.28-1.18,13.05,8.15,24.31,21.28,17.16,7.15-3.89,7.69-11.27,15.25-.3,4.1,5.95,5.96,13.34,5.43,20.55,1.45-.05,1.04-2.23,2.06-3.29,3.28-3.41,7.91-.13,6.83,5.16-1.54,7.54-11.32,17.19-16.31,22.86,30.6-8.14,55.7-35.91,56.06-68.42-6.45,2.84-15.63,4.69-22.7,4.97-12.61.5-3.42-12.8-1.62-19.82,4.17-16.24,3.13-34.97-8.64-47.81-7.66,19.48-36.01,19.57-46.87,2.75-11.38-17.63-4.16-41.24,1.51-59.64-4.99.46-15.93,8.3-19.8,7.08-2.69-.85-3.33-3.92-2.03-6.25,1.13-2.02,13.38-6.74,16.27-7.64,4.16-1.31,17.15-6.22,16.91,1.31-.11,3.31-6.49,17.26-7.8,22.64-3.25,13.3-5.97,33.88,6.78,43.05,9.1,6.54,25.23,3.76,28.08-8.19.8-3.36-.97-7.34,3.45-8.17,2.91-.54,8.93,6.08,10.91,8.55,14.35,17.93,14.21,42.23,6.62,63.05.96.85,12.31-1.85,14.25-2.64,4.08-1.65,11.9-12.04,13-1.11,4.98,49.29-40.33,86.46-86.22,89.5-62.46,4.14-99.18-40.66-94.39-100.98,2-25.13,17.04,4.46,27.19,6.99-.38-26.96,3.65-59.76,19.45-82.37,1.78-2.55,4.69-7.46,8.2-5.95,2.08.69,3.27,2.89,2.52,5.06-3.74,5.73-7.63,11.34-10.53,17.57-9.18,19.78-11.94,44.47-11.43,66.14.07,3.14,2.88,10.52-2.87,11.1-6.26.64-19.6-11.54-24.3-15.67.45,7.08-.62,14.85,0,21.85ZM166.81,193.38c-4.89,2.05-8.88,5.33-14.43,5.76-16.83,1.32-25.29-13.83-24.72-28.84-18.48,14.77-19.47,41.56-3.32,58.55,5.38,5.66,15.53,11.9,23.25,8.37,14.67-6.71,28.81-28.15,19.22-43.84Z"/>
    <path d="M114.64,55.85c7.61-2.29,8.48,8.54.7,7.26-3.87-.63-3.98-6.27-.7-7.26Z"/>
    <path d="M185.55,186.93c7.11-2.1,7.11,10.06,0,7.96-3.16-.93-3.16-7.03,0-7.96Z"/>
  </g>
</svg>