<?xml version="1.0" encoding="UTF-8"?>
<svg id="OBJECTS" xmlns="http://www.w3.org/2000/svg" version="1.1" viewBox="0 0 289.96 289.96">
  <!-- Generator: Adobe Illustrator 29.7.1, SVG Export Plug-In . SVG Version: 2.1.1 Build 8)  -->
  <defs>
    <style>
      .st0 {
        fill: #fff;
      }
    </style>
  </defs>
  <rect class="st0" width="289.96" height="289.96"/>
  <g>
    <path d="M210.68,212.15l-10.77-13.06-10.44,11.07c.98,4.44,3.11,15.58.99,19.35-2.54,4.52-10.66,1.93-12.35,3.01-.25.16-.54,1.79-1.1,2.48-9.82,11.86-24.69,10.01-32.77-2.48l-30.81.03c-7.19,14.05-26.3,13.39-33.9-.03-5.06-.79-16.69,2.21-17.83-5.05-.79-4.98-.63-10.77,5.23-11.8v-54.14c1.03-6.02,6.21-5.02,11.07-4.94.26-11.45,3.78-22.79,9.72-32.51.19-1.29-3.04-5.84-3.66-7.88-4.53-15,9.28-27.99,24.15-23.49,3.75,1.13,5.77,4.1,9.28,5.06,9.14-4.11,19.28-6.31,29.34-5.88,20.11-32.87,69.39-12.05,59.26,25.77-.52,1.93-2.73,5.66-2.59,7.19.08.81,4.16,8.22,4.9,10.18,3.17,8.42,4.63,17.37,4.34,26.38l.55.75c5.62.68,11.83,5.67,14.07,10.77,7.07,16.06-10.17,26.61-16.68,39.22ZM172.64,80.95c-19.65,1.7-30.62,23.34-21.31,40.54l23.74,30.51c8.24-12.84,27.39-27.94,27.18-44.11s-14.07-28.28-29.61-26.94ZM100.06,97.27c-8.47,1.15-13.43,10.21-10.62,18.13.69,1.93,9.76,14.45,11.44,16.02.47.44.74,1.13,1.57.96.94-.2,10.72-13.67,11.52-15.32,4.94-10.22-2.53-21.32-13.9-19.78ZM83.22,156.59h61.12c.77,0,3.6,2.83,3.6,3.6v12.75h28.44c.48,0,2.81,2.01,3.29,2.59,3.51,4.25,6.85,27.76,8.16,28.78,1.82-1.35,8.84-9.08,8.42-10.65-10.2-11.34-4.06-28.51,10.54-31.5,2.39-1.74-1.29-18.68-2.3-21.92-1.08-3.49-2.83-6.69-4.21-10.05l-1.34-.4-23.87,30.7c-7.87-10.08-16.68-19.73-24.12-30.12-7.39-10.33-11.1-20.65-6.28-33.26-8.56-.03-16.87,2.24-24.79,5.28-.01,3.1,1.41,5.53,1.29,8.77-.39,10.62-13.43,21.57-18.68,30.39-1.35.34-8.41-10.47-9.93-12.24-.4-.46.02-1.24-1.49-.83-4.32,8.93-7.32,18.09-7.85,28.11ZM94.33,182.08v-19.28l-.98-.98h-20.59v54.26l7.09-.1c6.93-14.97,26.99-14.08,34.42.1h28.44v-54.26h-21.57v20.26l-13.4-6.29-13.4,6.29ZM115.9,173.58v-10.79l-.98-.98h-15.36v11.77l8.06-3.78,8.28,3.78ZM209.39,203c1,.25,1.04-.16,1.58-.69,2.29-2.27,10.83-14.15,11.79-16.97,5.8-16.93-18.66-24.88-24.83-10.45-5.11,11.96,6.73,18.68,11.46,28.11ZM176.7,183.39c.33-1.17-1.34-5.23-2.29-5.23h-26.47v32.03c2.59-.93,4.08-2.93,6.83-3.95,7.92-2.95,15.67-.43,21.26,5.6,3.09,3.33,1.85,5.26,8.52,4.23l-3.3-16.31c-.83-.81-16.5,1.12-19.83-.76-3.91-2.19-3.64-15.61,1.89-15.61h13.4ZM179.31,194.5c-.11-1.96-.26-4.44-1.63-5.88h-13.4v5.88h15.03ZM96.62,210.56c-18.18.05-17.16,27.5.62,27.1,16.43-.36,17.64-27.15-.62-27.1ZM171.23,233.49c12.62-12.72-7.7-31.94-19.73-18.75-11.8,12.93,7.42,31.16,19.73,18.75ZM77.99,221.3h-11.11v5.23h11.11v-5.23ZM142.71,221.3h-27.46c.69,1.96.69,3.27,0,5.23h27.46v-5.23ZM185.85,221.3h-5.89c.94,1.8.94,3.44,0,5.23h5.89s0-5.23,0-5.23Z"/>
    <rect x="126.36" y="145.47" width="5.24" height="5.89"/>
    <rect x="137.47" y="145.47" width="5.24" height="5.89"/>
    <rect x="147.93" y="145.47" width="5.24" height="5.89"/>
    <path d="M169.99,86.8c33.67-5.68,34.57,43.68,4.52,42.94-26.13-.64-27.58-39.05-4.52-42.94ZM171.96,92.04c-5.75.83-12.06,6.85-12.86,12.63-2.59,18.72,20.66,26.71,29.78,11.48,7.27-12.14-3.12-26.1-16.92-24.11Z"/>
    <path d="M207.9,173.08c12.79-2.64,14.05,16.47,1.13,15.57-8.8-.61-9.14-13.92-1.13-15.57ZM209.2,178.25c-3.09.86-1.93,6.05,1.68,5.04,3.09-.86,1.93-6.05-1.68-5.04Z"/>
    <path d="M101.37,102.45c10.02-1.12,12.09,14.64,2.4,16.19-11.56,1.85-12.85-15.02-2.4-16.19ZM104.04,108.31c-3.46-2.18-6.62,3.09-3.16,4.84s5.13-3.6,3.16-4.84Z"/>
    <path d="M94.14,216.21c12.05-2.78,13.79,13.28,5.59,15.39-12.3,3.16-14.36-13.36-5.59-15.39ZM96.1,221.4c-2.66.75-2.85,6.4,1.69,5.01,3.08-.94,1.6-5.94-1.69-5.01Z"/>
    <path d="M158.86,216.21c12.24-2.82,13.7,13.3,5.59,15.39-12.3,3.16-14.36-13.36-5.59-15.39ZM159.14,225.79c1.03,1.64,6.74.61,4.83-3.18-1.76-3.51-6.59.37-4.83,3.18Z"/>
  </g>
</svg>