<?xml version="1.0" encoding="UTF-8"?>
<svg id="OBJECTS" xmlns="http://www.w3.org/2000/svg" version="1.1" viewBox="0 0 289.96 289.96">
  <!-- Generator: Adobe Illustrator 29.7.1, SVG Export Plug-In . SVG Version: 2.1.1 Build 8)  -->
  <defs>
    <style>
      .st0 {
        fill: #fff;
      }
    </style>
  </defs>
  <rect class="st0" width="289.96" height="289.96"/>
  <g>
    <path d="M231.2,113.48c-3.32-.5-9.94-10.33-11.9-10.77-1.45-.32-6.47,7.88-5.51,10.39,1.48,3.87,6.44,9.48,8.59,14.51,30.33,71.13-51.36,136.48-113.92,91.71-59.68-42.71-27.46-138.44,46.6-136.9,15.83.33,28.9,6.35,42.49,13.67-.26-3.41,3.39-8.62,2.08-11.49-.36-.79-11.15-11.53-12.34-12.37-2.37-1.66-7.58-2.29-7.86-5.38l1.71-3.3,4.09.47c.46-7.9,9.21-12.1,16.24-9.25,3.72,1.51,13.03,14.48,14.58,14.69l35.37-10.39c1.32.13,12.34,9.7,9.92,12.36-1.08,2.18-22.33,12.1-26.22,14.92-.7.51-1.61.8-1.32,1.89l11.24,11.86,12.55-2.79c17.86,13.9-2.86,12.71-9.85,20.58-7.15,8.04-5.98,26.06-19.61,8.05l3.1-12.45ZM253.48,69.77c.7-.97-2.21-4.08-3.54-3.95l-35.36,10.38c-4.43-2.09-14.21-16.89-18.9-16.16-3.36.52-6.13,5.43-3.79,8.41l15.5,15.68-10.53,33.97c-.7,1.24,2.24,4.61,3.17,3.92,5.8-6.85,9.46-19.82,14.92-26.22.95-1.12,1.86-2.08,3.47-2.05l18.66,16.89c2.31,4.47-1.68,8.37-1.72,12.98-.01,1.68-.48,2.41,1.67,2.07,1.56-3.2,4.39-10.41,6.57-12.76,2.39-2.58,10.04-5.06,13.18-7.38-1.61-3.72-11.89,3.15-14.78.8-3.98-5.81-11.8-11.1-15.64-16.43-.82-1.14-1.95-2.38-1.55-3.95.57-2.25,24.75-14.52,28.68-16.21ZM148.21,180.8c-6.35-7.9-25.41-9.42-25.03-22.31.54-17.94,42.48-34.3,42.36-54.58-.03-4.96-5.08-14.55-10.3-15.25-2.71-.36-9.98.61-12.98,1.09-31.35,4.96-57.24,32.56-57.35,64.71,10.17,1.39,17.51,11.72,25.53,17.65,11.07,8.19,24,13.14,37.76,8.69ZM209.08,118.31c-1.29,2.73-5.08,12.13-7.86,12.38-2.51.23-9.67-7.87-11.08-10.37l4.6-17.63c-7.71-6.24-17.06-10.32-26.78-12.34.32,2.2,2.06,3.55,2.85,5.77,4.96,13.9-5.45,25.6-14.76,34.54-5.85,5.62-26.31,20.06-26.54,27.67-.27,8.84,25.72,12.88,25.74,22.06.02,9.16-18.46,8.43-24.71,7.8-19.5-1.94-30.18-20.36-46.47-27.95,1.55,42.73,42.66,75.21,84.65,64.9-5.32-25.94,26.81-35.53,35-55.05,3.66-8.7.68-15.31,9.08-22.17,2.5-2.04,5.8-2.89,7.67-5.52.86-3.52-9.56-25.51-11.38-24.11ZM222.23,149.56c-11.21,3.55-8.99,12.84-11.95,21.36-7.37,21.21-37.77,27.96-35.33,52.67,21.68-6.95,39.04-25.04,45.04-47.07.52-1.91,2.24-8.68,2.24-10.1v-16.86Z"/>
    <path d="M246.28,169.09c-1.34-1.36-.66-11.44-.09-13.25.7-2.19,4.69-2,5.86.49,1.7,3.61-.28,18.34-5.77,12.76Z"/>
    <path d="M156.64,64.65c-1.42-1.37-.8-3.97.61-5.15,3.28-1.25,18.07-.05,13.24,5.84-1.5,1.84-12.57.55-13.86-.69Z"/>
    <path d="M125.77,246.73c2.89.36,14.41,1.7,13.31,5.89-1.45,5.5-22.2.26-13.31-5.89Z"/>
    <path d="M84.61,222.84c2.63-.87,11.24,6.56,11.01,9.33-.76,8.9-18.74-6.78-11.01-9.33Z"/>
    <path d="M57.12,134.96l4.21-.97c2.98.92.86,14.81-2.46,15.44-6.66-.88-2.33-9.94-1.75-14.47Z"/>
    <path d="M143.04,59.35c2.65.1,3.94,1.59,3.57,4.25-.39,2.84-13.05,4.88-14.46,2.07-2.58-5.15,7.45-6.45,10.89-6.32Z"/>
    <path d="M79.71,92.14c10.11-2.98-.25,14.06-4.94,12.89l-2.11-2.13c-1.1-2.34,5.53-10.32,7.04-10.77Z"/>
    <path d="M60.78,181.72c3.98-.99,9.46,13.24,4.6,14.6s-9.14-13.47-4.6-14.6Z"/>
    <path d="M109.69,69.08c3.05-.95,12.95-7.56,13.89-2.16,1.81,3.39-9.57,7.79-11.16,7.77-2.57-.03-3.44-3.57-2.73-5.62Z"/>
    <path d="M245.02,130.76c.95-.27,1.85-.23,2.72.26,3.16,2.34,5.27,18.34-1.68,14.04-1.51-.94-5.15-13.14-1.04-14.31Z"/>
    <path d="M60.82,172.38c-5.69,5.72-7.96-10.25-5.45-13.67,6.78-3.44,7.14,11.97,5.45,13.67Z"/>
    <path d="M243.81,179.37c1.27-1.32,4.29-.83,5.19.62,1.41,2.27-3.04,18.11-7.93,11.99-1.39-1.74,1.52-11.34,2.74-12.62Z"/>
    <path d="M222,220.41c2.44-.68,4.47,1.01,4.39,3.54-.87,3.22-12.58,14.03-12.46,5.79.03-1.91,6.51-8.9,8.07-9.34Z"/>
    <path d="M90.07,81.54c1.63-2.02,10.44-8.57,12-3.81,1.22,3.73-11.31,13.28-12.99,7.95-.26-1.47.05-2.98.99-4.14Z"/>
    <path d="M194.44,241.01c.34-.58,10.54-6.78,12.17-4.7l1.51,2.63c.18,2.22-10.01,7.95-11.63,7.56-1.92-.47-2.99-3.89-2.05-5.49Z"/>
    <path d="M103.53,237.66c3-1.01,13.91,4.93,12.25,8.11-2.61,5.01-14.14-2.53-14.16-5.33,0-.95.96-2.46,1.91-2.78Z"/>
    <path d="M236.74,200.69l3.18,1.5c1.63,2.64-4.06,13.36-8.06,12.23l-1.84-1.53c-1.61-2.19,5.31-11.93,6.72-12.19Z"/>
    <path d="M69.8,203.92c4.61-1.51,14.76,15.82,4.97,12.92-2.18-.64-10.14-11.23-4.97-12.92Z"/>
    <path d="M66.51,111.81c8.09-2.63,2.07,14.36-2.55,13.94-6.39-.59,1.22-13.5,2.55-13.94Z"/>
    <path d="M181.74,245.92c2.79-.37,5.03,1.27,4.19,4.22-.99,3.5-17.74,6.22-14.32-.24.88-1.66,8.11-3.7,10.13-3.97Z"/>
    <path d="M148.21,256.48l-.71-3.53,1.54-1.82c3.69-.02,12.52-3,13.61,1.98.23,1.06-1.18,3.36-1.69,3.36h-12.75Z"/>
  </g>
</svg>