<?xml version="1.0" encoding="UTF-8"?>
<svg id="OBJECTS" xmlns="http://www.w3.org/2000/svg" version="1.1" viewBox="0 0 289.96 289.96">
  <!-- Generator: Adobe Illustrator 29.7.1, SVG Export Plug-In . SVG Version: 2.1.1 Build 8)  -->
  <defs>
    <style>
      .st0 {
        fill: #fff;
      }
    </style>
  </defs>
  <rect class="st0" width="289.96" height="289.96"/>
  <g>
    <path d="M175.06,111.46h-17.64c-11.31,0-45.09,33.4-57.45,38.92l-26.37,3.31c.04,14.09-12.25,21.27-25.02,16.28v14.63h17.64c8.12-19.62,34.74-21.16,41.73,0h67.12v-33.56h-42.59c-1.27,0-4.62-2.78-5.09-4.33-1.7-5.54-.3-6.84,3.4-10.27s22.7-17.64,26.63-18.12c4.98-.6,19.67-.91,22.85,3,6.2,7.62-4.9,15.56-5.23,3.94-5.32.63-13.31-1.1-18.25.17-1.34.34-20.37,14.42-22.43,16.29-.84.77-1.84.77-1.45,2.43h42.16c-1.89-6.36,6.88-7.39,6.88-3.01v43.45h13.34c8.45-19.89,34.08-20.87,41.87-.14l9.32.13.87-12.9c-10.82.99-14.21-2.66-12.93-13.35.94-7.79,7.7-6.49,13.79-6.44.22-1.49-.18-2.69-.67-4.07-1.14-3.2-19.51-27.88-22.53-30.82-2.31-2.24-8.62-5.56-11.65-5.56h-28.39c-1.76,0-1.76-6.02,0-6.02h31.84c2.9,0,11.12,5.1,13.33,7.32,3.78,3.8,23.34,30.86,24.37,35,2.77,11.14-1.81,27.57-1.99,38.99-.07,4.47,2.5,10.77-.1,15.39-3.29,5.85-14.61,1.68-19.95,3.28-1.3.39-2.62,2.54-4.31,3.44-7.87,4.18-14.35,4.88-22.37.52-3.23-1.75-3.81-3.79-7.86-4.19-29.24-2.9-63.27,2.32-93.03,0-6.97,3.91-10.72,7.69-19.74,6.92-7.74-.67-9.98-5.54-13.96-6.69-3.49-1.01-12.85,1.96-12.33-4.01.93-4.19,5.31-2.96,8.64-3.07l-1.72-7.74h-24.09v7.75s8.03.79,8.03.79l.88,4.14c-1.24,3.22-12.49,2.38-14.71.01-1.43-1.52-1.51-12.44-1.06-14.82.93-5.02,6.83-3.04,7.61-5.3.61-10.33-2.36-17.19,6.13-24.85,12.85-11.6,34.43-12.18,50.55-14.85,14.25-7.86,41.58-36.53,56.6-38.05,3.49-.35,14.06-.58,17.17.01,3.6.69,3.18,3.28,2.18,6ZM66.63,156.21c-.89-.97-15.99,6.62-13.76,8.6,6.52,1.04,13.14-1.36,13.76-8.6ZM248.2,157.92l-6.94.38c-1.44,1-.65,4.78-.81,6.51h7.75s0-6.89,0-6.89ZM98.16,201.49c14.32-14.31-8.24-35.49-21.67-21.24-13.42,14.24,7.85,35.07,21.67,21.24ZM212.68,176.19c-20.71,4.29-9.37,39.13,11.18,27.52,14.5-8.19,6.8-31.24-11.18-27.52ZM107.94,198.36h88.63l-2.22-7.79-85.55.04-.86,7.75ZM246.48,190.62h-8.61s-.85,7.74-.85,7.74h9.47s0-7.74,0-7.74Z"/>
    <path d="M231.57,149.04c-1.5,1.37-4.13,1.86-6.14,2.04-6.87.63-22.61.77-29.32-.03-2.75-.32-6.71-2.68-7.28-5.63-.61-3.21-.46-16.24-.04-19.79.51-4.29,3.21-6.62,7.41-7.22,3.71-.52,17.6-.58,20.46.89,1.86.95,15.71,18.55,16.42,20.58,1.01,2.89.81,7.02-1.52,9.15ZM227.54,144.16c-3.28-6.95-9.06-12.57-13.34-18.93h-19.36v18.93h32.7Z"/>
    <path d="M161.03,155.52c2.25-.66,9.01-.75,10.17,1.54,2.44,5.86-6.48,6.09-10.17,4.99-3.22-.96-3.06-5.63,0-6.53Z"/>
    <path d="M84.47,180.49c13.07-2.64,18.88,13.19,8.28,19.46-14.51,8.58-22.62-16.56-8.28-19.46ZM87.06,186.43c-5.73.82-4.48,9.35,1.47,8.52,5.34-.75,3.07-9.17-1.47-8.52Z"/>
    <path d="M213.54,180.5c12.96-2.65,18.65,13.31,8.28,19.46-14.63,8.67-22.75-16.5-8.28-19.46ZM219.59,193.85c3.7-3.7-2.34-10.23-6.2-5.77s2.98,8.99,6.2,5.77Z"/>
  </g>
</svg>