<?xml version="1.0" encoding="UTF-8"?>
<svg id="OBJECTS" xmlns="http://www.w3.org/2000/svg" version="1.1" viewBox="0 0 289.96 289.96">
  <!-- Generator: Adobe Illustrator 29.7.1, SVG Export Plug-In . SVG Version: 2.1.1 Build 8)  -->
  <defs>
    <style>
      .st0 {
        fill: #fff;
      }
    </style>
  </defs>
  <rect class="st0" width="289.96" height="289.96"/>
  <g>
    <path d="M74.17,113.31c-1.37.22-1.34-1.67-1.63-2.68-3.04-10.45-2.87-22.15-1.24-32.83,7.4,2.22,12.12,8.42,14.85,15.36,4.51,11.47,6.78,38.24,4.13,50.17-.42,1.9-1.96,2.89-2.68,4.5h3.84s.47-2.86.47-2.86c10.5,7.34,4.46,22.24,15.17,28.96,17.88,11.22,53.73,8.59,69.77,21.38,2.5,1.99,3.88,4.99,5.73,6.75s11.93,9.27,11.48,11.4c-1.06,1.85-2.2,2.32-4.23,2.55-22.46,2.55-49.05-4.4-71.96,0l-24.03-.04c-5.06-1.09-9.96-1.05-15.07-2.2-2.17-.49-4.85-2.25-6.19-2.4-2.35-.26-4.57,3.39-9.21,2.5-2.61-.5-7.42-4.55-7.42-7.02v-67.64h-2.88v67.64c0,3.07-5.82,7.26-9.11,7.26-2.67,0-9.12-3.71-9.12-6.3v-78.19h39.34v78.19c0,.07-2.34,2.2.46,1.42,1.57-.44,3.35-2.02,5.3-1.91.41-.35-6.12-7.27-4.79-9.58l6.23,7.65,4.19-5.42-10.43-16.62c2.5-.58,1.66.73,2.46,1.81,1.59,2.15,6.36,10.97,7.68,11.54,3.2,1.36,3.33-4.69,5.12-6.19-6.93-3.36-6.08-14.99-15.27-12.94l3.83-1.92-3.84-5.74c3.07-.56,3.48,3.99,5.42,4.66,2.37.81,4.8-.4,7.05-.83-3.14-5.37-5.2-10.21-12.47-8.63l3.83-1.92-3.84-5.74c2.86-.79,5.58,5.61,6.4,5.8l6.07-1.49c-3.05-2.27-6.15-7.21-9.08-9.17-1.27-.85-3.18-.8-3.37-.96-.16-.12,1.32-2.44-.01-3.79,2.23-.01,2.71,1.88,5.26,2.01,1.6.08,4.1-.39,5.3-1.53-.01-.72-5.58-.76-6.55-4.01-1.61-5.41.3-20.66-.17-27.65-.34-5.06-1.6-12.16-3.16-16.99-.33-1.02-.24-2.89-1.64-2.67v16.31ZM97.19,160.31c-4.72-5.05-8.43-12.36-16.31-8.62l8.6,10.05,7.71-1.43ZM96.33,170.78c1.61.44,2.88.14,3.65-1.42l-1.84-8.08-6.71,1.93,4.89,7.57ZM90.3,164.35c-.58-.41-7.7-1.04-6.53,1.24.96,1.87,4.52,4.18,4.94,7.06l6.57-.82c.35-.28-4.61-7.22-4.98-7.48ZM104.87,173.77c-.15-.19-4.03-1.91-4.35-1.95-3.55-.46-4.42,2.8-1.39,4.35,2.15,1.1,7.29-.38,5.74-2.4ZM93.37,182.39c1.38,1,4.62-3.44,5.73-4.32-2.92-3.1-4.1-5.46-8.62-3.35l2.89,7.66ZM89.45,175.74l-7.6,1.36c2.38,1.6,6.18,11.7,9.08,11.04,5.31-4.34-1.62-7.21-1.48-12.4ZM112.55,177.6c-2.15-.08-3.89-1.04-6.13-.94-.78.03-3.67.55-3.46,1.89,2.48-.39,6.02,2.38,8.01,1.85l1.58-2.79ZM108.71,181.44l-7.97-1.8-4.5,4.66c4.14-.3,9.98,1.46,12.47-2.86ZM120.22,183.36c-3.75,1.03-9.24-3.28-11.51.94,3.49.24,9.21,2.98,11.51-.94ZM103.91,186.23c-3.3.21-6.43,0-9.58-.97l-.97,3.84c3.83-.25,8.71,1.46,10.55-2.87ZM116.38,186.23c-4.27.5-10.33-1.88-12.47,2.87,3.71-.75,12.06,2.27,12.47-2.87ZM117.34,189.1h14.39c.08-2.02.45-1.83-1.42-1.92-3.49-.17-10.87-1.17-12.97,1.92ZM100.07,191.03c-7.81-3.02-8.71.36-11.51,6.7l9.57.94,1.94-7.64ZM114.46,190.07c-8.21-.27-14.37-1.7-14.39,8.63l13.43-.96.96-7.67ZM130.78,191.02h-15.35v6.72h16.31l-.96-6.72ZM144.21,198.69l-.25-6.26-.66-.96-10.6-.45,1.11,6.55,10.4,1.11ZM158.61,192.95c-5.86-1.49-17.74-3.25-11.86,5.79l11.85-.05c-1.15-2.08-1.21-3.65,0-5.74ZM170.12,193.91l-10.56-.96c-1.44,7.02,4.36,6.01,9.56,6.68l1-5.72ZM178.74,200.61c1.56-1.45-8.92-11.02-7.68-.96l7.68.96ZM97.2,199.65l-8.97.15-4.46,6.56,12.53.55.9-7.26ZM114.47,199.66h-13.91l-2.4,7.67c5.46-.09,10.77-1.55,16.31-.95v-6.72ZM131.74,199.66h-15.35v6.72h13.91c2.18-1.55,1.36-4.3,1.44-6.72ZM145.17,205.41c-.06-1.6.47-4.42-.9-5.34l-10.58-.38-.99,6.67,12.47-.96ZM146.13,205.41h13.43v-4.8s-12.03-.74-12.03-.74l-1.27,1.35-.13,4.19ZM171.07,205.41c.56-5.37-5.73-4.95-9.59-4.8v4.81s9.59,0,9.59,0ZM184.5,206.37c-2.19-4.7-8.02-4.48-12.47-4.79l1.09,3.7,11.38,1.08ZM94.31,209.26l-12.81-1.69-6.36,3.59c5.04.79,13.32,4.2,17.6.82,1.06-.84,1.97-.99,1.58-2.72ZM130.77,207.34c-6.44,2.84-15.94-2.98-16.3,6.71l14.69-.93,1.62-5.78ZM145.17,207.34l-12.35.11-1.09,5.63h12.47s.96-5.75.96-5.75ZM159.56,207.33h-13.43v5.76c2.64-.46,11.74,1.01,13.01-.9l.42-4.86ZM173.95,214.05l-1.87-6.28-10.05-.49-1.5,6.77h13.43ZM192.18,214.05c-1.82-7.31-12.2-6.37-18.22-6.71l2.1,6.54c5.66,2.02,10.44.33,16.13.17ZM114.47,208.29h-15.83l-5.28,5.76h19.19l1.92-5.76Z"/>
    <path d="M69.46,40.3c6.65.19,15.18,1.36,21.29,4.14,17.72,8.05-11.52,15.18-18.49,15.14,1.25-8-8.58-10.87-14.98-11.41-7.38-.62-21.77,1.55-20.53,11.41-5.27-1-11.26-1.53-16.29-3.38-22.45-8.24,10.22-17.16,19.09-15.9,4.65-20.33,25.19-20.46,29.91,0Z"/>
    <path d="M243.03,91.24c.35,1.47-.59,2.08-1.15,3.16-2.21,4.23-10,14.36-14.72,15.03-19.69,2.79-41.4-.03-61.36,1.01-9.13-2.26-24.21,1.71-22.55-12.48,2.87.58,5.54-.78,8.16-.96,24.44-1.67,49.1-.24,73.88-2.87,5.92-.63,11.84-2.15,17.74-2.88ZM237.27,96.05l-58.96,4.83c-9.27.2-18.62-.42-27.88-.04-1.17.05-3.57-.73-3.35.95l36.98.05c16.49-1.88,33.21-1.88,49.78-3.95.94-.12,3.59-.44,3.43-1.84Z"/>
    <path d="M34.83,97c-1.39-.22-1.31,1.66-1.64,2.67-4.9,15.09-1.62,27.39-3.14,41.96-.85,8.18-10.3,8.12-11.49.89-2.19-13.38-.65-38.29,4.89-50.66,2.94-6.57,7.14-11.9,14.25-14.05,1.63,10.67,1.81,22.37-1.24,32.83-.29,1-.26,2.9-1.63,2.68v-16.31Z"/>
    <path d="M52.89,50.22c4.98-.22,17.31,1.02,18.24,7.16.44,2.89-2.17,8.6-4.12,10.86-9.6,11.13-28.76,4.46-29.27-10.23-.2-5.84,10.74-7.6,15.16-7.8Z"/>
    <path d="M257.42,190.07c.22,1.68-2.17.9-3.34.95-5.19.23-10.99-.49-16.22-1.06-29.65-3.19-98.66-15.44-115.56-41.79-5.51-8.59-6.18-16.14-3.06-25.79,1.98-6.12,7.17-10.38,2.42-16.74-1.42-1.9-4.37-2.42-5.26-4.8,4.08.73,8.11,5.17,8.61,9.18.56,4.46-2.23,6.88-3.6,10.69-9.98,27.79,16.96,42.01,38.88,49.92,31.14,11.23,64.59,14.46,97.14,19.43Z"/>
    <path d="M67.45,77.81c-7.7,20.39-18.2,20.39-25.9,0h25.9Z"/>
    <rect x="147.09" y="88.36" width="14.39" height="7.68"/>
    <path d="M185.46,34.64c.57,3.01-2.24,1.45-4.37,2.82-1.52.98-3.22,4.29-4.93,4.73-2.45.63-7.9-3.64-11.8-.84,1.05-6.23,7.18-2.61,10.06-2.85,2.23-.18,6.43-6.05,11.04-3.86Z"/>
    <path d="M208.49,46.14c-4.71-1.71-7.95,5.05-10.26,5.64-2.02.52-4.46-1.66-6.6-1.76-1.82-.08-3.36,1.16-5.2.92,2.26-6.61,10.19-1.77,11.54-2.38,2.43-1.09,5.79-8.5,10.53-2.42Z"/>
    <path d="M212.33,20.23c-4.7-1.72-7.97,5.06-10.26,5.63-1.97.49-5.2-1.65-7.5-1.64-1.45,0-2.78,1.13-4.31.81,2.94-6.74,8.5-1.61,10.91-2.08,2.08-.41,6.62-9.15,11.16-2.72Z"/>
    <path d="M212.33,138.25c.32.26-1.22,1.92-1.44,1.92h-29.26v-1.92h30.7Z"/>
    <rect x="213.29" y="167.04" width="29.74" height="1.92"/>
    <path d="M235.36,116.18c-.47-2.68.57-1.6,2.11-2.15,3.57-1.28,16.15-3.86,12.77-9.37l-6.25-4.78c18.98,6.35,2.01,14.68-8.63,16.3Z"/>
    <path d="M191.22,118.11c2.74,2.34-5.2,2.04-6.28,1.96-2.05-.15-3.86-.89-5.71-1.01-5.3-.34-10.68.44-15.83-1.43,1.33-2.11,2.24-.84,3.6-.8,8.11.22,16.07,1.97,24.22,1.28Z"/>
    <path d="M229.59,116.19c.04,1.44-3.33,1.62-4.42,1.8-7.15,1.2-14.46.47-21.47,2.02-.45-2.91.68-1.58,2.41-1.88,7.68-1.33,15.69-1.57,23.49-1.95Z"/>
    <path d="M145.17,112.36c0,1.51.58,2.16-1.28,1.77-8.26-1.75-15.08-8.58-4.48-13.29l-3.77,6.11c2.18,3.04,5.73,5.23,9.54,5.41Z"/>
    <rect x="167.23" y="151.69" width="18.23" height="1.92"/>
    <path d="M25.22,148.81l1.1,3.72,6.59.12c.81,3.61-3.3.91-4.79,2.39l5.75,6.23c-2.73-.58-6.5-4.57-8.1-6.76-.94-1.29-4.44-6.6-.55-5.7Z"/>
  </g>
</svg>