<?xml version="1.0" encoding="UTF-8"?>
<svg id="OBJECTS" xmlns="http://www.w3.org/2000/svg" version="1.1" viewBox="0 0 289.96 289.96">
  <!-- Generator: Adobe Illustrator 29.7.1, SVG Export Plug-In . SVG Version: 2.1.1 Build 8)  -->
  <defs>
    <style>
      .st0 {
        fill: #fff;
      }
    </style>
  </defs>
  <rect class="st0" width="289.96" height="289.96"/>
  <g>
    <path d="M199.28,152.7l4.84,20.29c.66.68,12.15-12.4,13.54-13.03,3.92-1.78,11.47.57,15.73-.7,4.75-1.41,9.5-14.16,15.72-10.49.97.57,15.38,14.98,15.95,15.95,3.79,6.43-11.55,13.14-12.43,17.58-.23,1.17,2.03,5.92,1.77,9.52-.62,8.59-8.56,14.73-16.92,14.07-2.38-.19-5.54-2.24-7.24-1.52-.88.37-12.88,12.41-13.61,13.52-.77,1.19-1.2,1.92-.92,3.42,8.99.45,14.49-7.68,22.24-10.14,13.69-4.34,23.12,2.09,33.4,10.13,1.15,1.34-3.19,6.54-3.91,6.6-6.59-4.02-11.91-10.33-20.31-10.54-12.74-.32-17.55,13.33-34.7,11.57-11.29-1.16-16.76-11.31-27.17-11.57-14.35-.36-19.55,16.74-40.11,10.22-7.47-2.37-12.33-9.55-20.81-10.17-14.7-1.07-20.33,16.74-41.06,10.17-7.47-2.37-12.33-9.55-20.81-10.17-9.36-.68-15.05,5.94-22.23,10.48l-4.24-5.3c-.29-2.06,13.14-10.29,15.66-11.16,2.36-.81,6.48-1.78,8.91-1.81s9.35,2.65,9.19-.4c-.39-7.21-5-17.09-5.82-24.65-3.79,2.96-5.34,9.46-10.71,10.2-1.93-.42-19.16-17.87-19.3-19.44-.07-.83.13-1.6.55-2.32l76.57-90.77c4.36-1.18,29.15,12.35,35.06,14.36.62-4.26-5.06-14.62-1.51-17.47,9.68-2,21.72-7.38,31.28-8.44,1.55-.17,2.3-.39,3.67.69,3.38,2.67,8.46,38.2,11.54,44.54,4.47,3.12,30.24,11.49,31.27,15.21.42,1.52-6.88,24.62-8,25.51-4.16,3.29-13.67-5.07-15.07-3.95ZM174.13,79.22l-22.2,5.85c-.47.65,2.96,14.16,4.26,15.48l25.67,11.54-7.73-32.87ZM209.9,147.86l3.74-12.28-.82-1.72-99.93-43.11-69.28,83.7c0,1.22,6.92,8.35,8.22,9.23.85.58,1.34,1.43,2.47.5l63.5-75.78,92.1,39.46ZM207.01,218.42l-16.94-69.57-69.75-31.78-49.39,59.56,8.77,40.55c11.35,8.04,20.93,2.96,30.72-4.17-2.85-16.07-11.54-31.79-3.4-47.68,11.65-22.74,45.71-21.4,55.69,2.18,5.45,12.86,6.45,30.58,10.47,44.16,6.88-1.4,11.69-2.74,18.74-.87,5.93,1.58,9.61,5.68,15.08,7.62ZM166.3,217.34c-3.42-13.91-5.16-30.35-9.61-43.81-3.49-10.57-11.91-16.88-23.14-16.97l14.03,62.82c5.88,4.71,12.85.4,18.72-2.04ZM212.82,210.69l12.11-11.63c-2.72-8.56-1.95-18.59,7.21-22.7,7.69-3.45,11.94.88,14.86.3,1.25-.25,9.79-8.7,8.89-10.44-.27-.52-7.76-8.01-8.28-8.28-2.87-1.48-8.27,8.14-11.31,9.04-4.27,1.27-11.81-1.08-15.73.7-.9.41-13.65,13.03-14,13.96l6.26,29.04ZM138.37,214.56l-13.03-56.06c-22.43,10.75-11.91,33.42-7.31,51.79,7.17-1.65,14.17.64,20.34,4.27ZM236.71,182.85c-8.9,1.94-6.94,17.56,4.39,15.09,8.9-1.94,6.94-17.56-4.39-15.09Z"/>
    <path d="M57.93,240.93c16.52-1.74,22.05,11.72,34.53,11.41,11.29-.28,17.32-12.31,31.86-11.69,12.24.52,18.98,11.97,30.01,11.69s17.32-12.31,31.86-11.69c15.3.65,21.29,17.47,38.45,9.42,4.45-2.09,8.05-6.28,13.32-7.95,13.73-4.35,23.75,2.19,33.81,10.7l-4.31,6.03c-4.24-2.08-7.64-6.28-11.88-8.26-17.08-7.99-22.01,7.8-36.57,9.3-16.71,1.71-19.56-9.5-31.07-11.26-15.81-2.42-21.71,16.58-42.78,9.91-8.2-2.6-12.83-10.47-22.73-10.22-10.95.27-17.34,11.95-30.92,11.76-16.16-.23-22.19-18.04-40.03-9.17-2.34,1.16-10.04,8.04-11.23,7.94-1.37-1.16-4.98-4.95-3.91-6.6,6.8-4.81,12.92-10.4,21.6-11.31Z"/>
    <path d="M45.28,45.1c1.31-1.89,1.82-7.75,3.74-11.25,12.28-22.37,46.46-15.56,50.65,9.16,26.7,1.49,25.06,40.65-1.37,39.13-2.19-.13-5.27-1.71-6.82-1.54-3.01.33-7.33,5.61-15.47,5.45-7.17-.14-11.95-5.17-14.47-5.45-1.55-.17-4.62,1.41-6.81,1.53-17.32,1-27.47-20.33-14.84-33.26,1.27-1.3,4.75-2.84,5.4-3.78ZM69.49,28.23c-6.08.93-12.49,5.56-14.72,11.38-1.21,3.15-1.04,9.14-1.92,10.65-.73,1.24-4.21,1.75-5.83,2.87-10.74,7.45-3.6,23.14,8.47,21.07,2.86-.49,5.02-3.32,7.76-2.58s5.18,6.17,11.84,6.67c9.47.71,10.84-5.68,14.68-6.67,3.34-.87,8.26,6,16.24.85,9.49-6.13,5.22-20.71-5.84-21.31-2.51-.14-4.88,1.8-7.23-.41-1.55-3.55-.95-7.33-2.41-11.13-3.1-8.09-12.74-12.65-21.02-11.38Z"/>
    <path d="M262.39,45.11c.66.89,3.7,1.9,5.03,3.19,13.23,12.77,3.56,34.89-14.46,33.84-2.19-.13-5.27-1.7-6.81-1.53-2.53.28-7.3,5.31-14.47,5.45-8.14.16-12.46-5.12-15.47-5.45-1.55-.17-4.62,1.41-6.82,1.54-22.2,1.28-28.46-28.92-9.81-36.93,2.27-.98,7.27-1.34,8.41-2.22s1.5-5.31,2.4-7.27c9.01-19.55,37.85-20.87,48.27-1.87,1.84,3.35,2.57,9.68,3.73,11.26ZM231.89,28.23c-6.08.93-12.49,5.56-14.72,11.38-1.46,3.8-.86,7.58-2.41,11.13-3.09,2.22-6.04-.1-9.94.67-12.15,2.37-11.25,22.99,2.67,23.07,3.65.02,8.61-3.34,10.44-2.86,3.44.89,5.16,6.93,13.73,6.72,7.6-.19,9.74-5.93,12.77-6.72,1.95-.51,5.36,2.2,7.78,2.57,12.31,1.87,19.11-13.68,8.46-21.07-1.62-1.12-5.1-1.63-5.83-2.87-.88-1.5-.72-7.5-1.92-10.65-3.09-8.08-12.73-12.64-21.02-11.38Z"/>
    <rect x="149.98" y="27.99" width="7.73" height="15.47"/>
    <rect x="130.64" y="39.59" width="7.73" height="15.47"/>
    <rect x="169.31" y="39.59" width="7.73" height="15.47"/>
    <rect x="45.58" y="89.86" width="7.73" height="15.47"/>
    <rect x="200.24" y="89.86" width="7.73" height="15.47"/>
    <rect x="254.38" y="89.86" width="7.73" height="15.47"/>
    <rect x="64.91" y="97.59" width="7.73" height="15.47"/>
    <rect x="219.58" y="97.59" width="7.73" height="15.47"/>
    <rect x="238.91" y="105.32" width="7.73" height="15.47"/>
    <rect x="262.11" y="116.92" width="7.73" height="15.47"/>
  </g>
</svg>