<?xml version="1.0" encoding="UTF-8"?>
<svg id="OBJECTS" xmlns="http://www.w3.org/2000/svg" version="1.1" viewBox="0 0 289.96 289.96">
  <!-- Generator: Adobe Illustrator 29.7.1, SVG Export Plug-In . SVG Version: 2.1.1 Build 8)  -->
  <defs>
    <style>
      .st0 {
        fill: #fff;
      }
    </style>
  </defs>
  <rect class="st0" width="289.96" height="289.96"/>
  <path d="M91,169.71c-13.12,10.51-16.59-7.92-23.44-13.08-2.73-2.06-17.32,2.56-20.52,4.62-1.22.79-5.78,5.32-6.47,6.53-1.97,3.44-7,38.5-5.58,39.93l19.01,1c-.54-5.32-.55-24.39,7.79-15.3l-3.79,71.29c3.56.36,17.62-1.58,18.07,3.52.27,3.05-1.85,4.18-4.53,4.53-6.29.83-30.68.75-36.6-.49-6.97-1.47-12.68-9.01-12.93-16.06,3.15-25.53,4.16-52.57,8.11-77.86,1.71-10.93,4.55-19.57,15.19-24.81,5.44-2.67,28.82-6.65,30.51-11.48,2.41-6.88-3.08-7.49-6.85-10.83-6.5-5.77-11.81-12.15-14.29-20.71-.77-2.65-1.46-10.75-2.17-11.83-.59-.89-6.38-2.69-8.55-5.45-5.28-6.7-1.6-9.32-1.06-15.11.6-6.42.12-13.11,1.34-19.66C52.75,12.79,113.9,1.42,138.19,41.02c7.9,12.87,6.54,21.22,7.8,35.2.66,7.29,5.26,11.49-2.45,18.53-2.1,1.92-6.69,3.3-7.09,3.91-.62.94-1.29,9.99-2.15,12.85-2.71,9.01-11.27,19.82-20.14,23.35v8.69c3.07.61,6.58,3.9,9.45,4.16,3.43.32,10.81-5.79,15.61-7.28,5.37-1.67,10.13-2.09,15.78-1.73l-3.99-54.5c-.38-18.07,0-38.67,16.28-49.7,4.38-2.97,5.18-3.65,9.16-6.84,26.09-20.96,63.19-10.52,77.26,18.84,1.6,3.34,8.03,18.77,1.77,19.28-5.29.43-5.22-7.84-6.71-11.35-9.46-22.27-31.01-36.6-55.75-28.2-9.12,3.1-10.24,8.63-15.65,12.35-2.91,2-6.53,1.7-9.92,5.08-13.9,13.91-7.71,52.15-6.47,70.55.49,7.26-.97,16.07,2.51,22.49h22.5c.54-2.42-.43-1.62-1.31-2.23-10.65-7.37-19.32-16.54-20.68-30.28-.42-4.24-.57-29.02.51-31.47,1.35-3.05,8.17-3.84,11.52-5.48,6.21-3.05,9.77-11.09,16.95-8.01,1.83.78,7.52,7.86,10.1,9.89,8.66,6.82,18,10.17,28.69,12.31,4.35.87,12.25-.68,14.47,4.53,2.89,6.78.08,23.58-3.05,30.43-4.17,9.12-11.75,14.22-19.19,20.31h22.5c3.71,0,2.27-12.77,2.46-15.54l3.01-43.78c8.83-5.87,7.27,7.48,7.08,12.86-.54,15.25-2.82,30.61-3.09,45.91.27,2.32-4.85,7.55-6.45,7.55h-24.5c-.47,2.79.58,1.68,2.2,2.26,22.21,7.88,38.05,2.66,42.68,32.37,3.8,24.43,4.37,50.3,8.2,74.85.3,28.6-34.28,17.36-52.55,19.49-5.67-1.1-3.57-7.97.97-7.97h15.5l-3.5-71.99,2.2-1.86c1.95-.59,5.3,1.48,5.3,3.35v14.5l19-.99c-1.33-10.38-1.04-23.23-3.25-33.26s-9.31-15.07-18.75-16.74c-.26,26.72-19.77,31.76-37.51,14.03-1.44,4.36-16.88,9.19-17.48,10.01-.34.48,1.91,6.28-1.17,11.31-2.57,4.2-7.39,4.41-8.6,5.9-.92,1.13-2.46,8.13-4.42,11.08-3.31,5-10.45,7.17-9.89,13.03.3,1.24,14.31,4.02,17.05,5.15,16.04,6.58,11.83,21.88,14.9,35.91,1.45,2.02,21.6-2.42,14.7,7.68l-121.88.7c-9.17-9.46,9.21-7.72,15.15-7.94,3.71-14.07-1.15-29.66,15.15-36.35,2.74-1.12,16.75-3.9,17.05-5.15,1.03-4.91-2.21-4.85-4.59-7.33s-4.79-4.52-6.5-7.5c-1.51-2.63-2.55-8.38-3.19-9.3-1.43-2.06-8.15-1.39-10.11-9.43-1.68-6.87,2.16-7.14,3.13-11.5.88-3.96-.31-9.04,1.2-13.29-4.28,3.91-6.1,9.97-13.29,7.8-1.85-.56-2.38-3.22-4.7-2.8v19.5c0,2.64-7,1.27-7-1v-18.5ZM137.99,72.71c3.23-63.78-90.44-63.93-86.51-.02,13.87-.73,6.2-15.9,16.23-19.77,12.62.19,25.17,1.08,37.83.83,6.04-.12,16.51-3.93,20.33,2.57,3.73,6.34.55,15.46,12.11,16.38ZM70.64,59.81c-1.72.58-2.29,8.68-4.24,11.81-1.63,2.62-5.81,4.61-6.39,7.61-.75,3.94-.31,15.44.11,19.85,4.25,45.17,65.2,43.88,68.86.11.32-3.8.68-17.85-.19-20.78-.53-1.77-4.54-4.52-6-7-2-3.38-2.34-9.39-3.26-10.74-1.35-1.99-13.08.89-16.05,1.02-4.73.22-10.31.27-15.03.05-3.52-.17-15.73-2.64-17.81-1.95ZM240.01,89.71c-19.32-.28-37.29-9.02-50.5-22.82-5.62,4.93-11.62,7.9-18.56,10.48-.34,19.3-2.03,38.9,16.72,50.16,27.31,16.4,56.31-8.2,52.33-37.83ZM52.99,89.71l-.49-9.99c-4.31,2.74-5.5,8.96.49,9.99ZM136.01,89.71c5.54-.7,5.61-8.27.49-9.99l-.49,9.99ZM105.99,138.72c-7.56,1.5-15.46,1.49-22.99,0-1.02,7.07,7.63,10.87,11.49,15.98,3.9-5.74,13.3-8.08,11.49-15.98ZM217,138.71c-7.6,1.22-15.38,1.68-22.99,0,.11,4.19.71,10.53-3.43,13.07-1.7,1.04-5.41.33-4.56,2.42,10.13,11.72,28.68,11.58,38.98,0,.9-2.15-3.56-1.43-5.39-2.59-3.92-2.47-2.31-9.01-2.6-12.9ZM186,143.71h-17c3.5,5.5,9.47,4.01,14.82,2.27,1.69-.55,2.63.45,2.18-2.27ZM176.99,173.71c-1.08-36.67-52.74-35.86-55.01.49,10-.9,20.98,3.39,29.95-3.05,3.51-2.52,5.38-8.54,9.57-8.54,5.59,0,8.27,11.78,15.49,11.1ZM115,151.73l-5.02-1.55-9.96,10.04c5.37,8.02,8.31,2.15,12.38-3.6.68-.97,3.27-4,2.6-4.88ZM74,151.73l9.63,12.92,5.34-4.43c-4.87-3.75-7.99-12.05-14.98-8.49ZM236,155.72c-3.84-.53-4.68,3.63-7.52,5.97-3.92,3.23-7.69,4.72-12.06,6.93-1.06.53-1.88-.52-1.41,2.08,17.15,9.55,19.12.8,21-14.97ZM196,168.73c-2.52,1.08-11.28-5.82-11.99-5.01l1,10.99c.52.63,10.74-3.35,10.99-5.99ZM162.98,172.72c-1.18-.8-7.32,5.15-9.28,6.2-7.1,3.81-16.88,4.9-24.7,2.8.28,9.55-1.99,18.71,5,26.49,11.63,12.95,34.52,6.46,36.91-11.08.42-3.08.64-16.22-.9-17.93-1.46-1.62-7.08-2.27-7.03-6.48ZM35.5,264.71c4.19.89,10.96-.65,15.5,0l1.99-47.99-18.41-2.08c-1.63.22-4.41,29.41-4.57,32.58-.27,5.16-1.28,16.05,5.49,17.49ZM249,264.71h15.5c.78,0,3.82-2.62,4.39-3.61,4.27-7.47-2.73-36.61-2.97-46.31l-18.91,1.93,1.99,47.99ZM155.99,221.71c-3.88,1.92-8.02,1.02-11.98,0l-2.01,8.98c5.89,2.6,10.06,2.05,16,0l-2.01-8.99ZM188,264.72c-2.54-12.37,2.28-25.54-12.23-30.28-12.65-4.14-9.31,1.58-18.22,4.34-5.29,1.64-11.44,1.49-16.56-.57-3.95-1.59-6.05-5.72-10.35-5.46-19.87,1.22-16.9,17.05-18.66,31.96h10.01c-2.41-15.31,11.85-14.34,7-.01h42c-4.55-14.69,9.65-15.15,7,.01h10.01Z"/>
</svg>