<?xml version="1.0" encoding="UTF-8"?>
<svg id="OBJECTS" xmlns="http://www.w3.org/2000/svg" version="1.1" viewBox="0 0 289.96 289.96">
  <!-- Generator: Adobe Illustrator 29.7.1, SVG Export Plug-In . SVG Version: 2.1.1 Build 8)  -->
  <defs>
    <style>
      .st0 {
        fill: #fff;
      }
    </style>
  </defs>
  <rect class="st0" width="289.96" height="289.96"/>
  <g>
    <path d="M46.09,102.63l-8.73,2.36c-7.52-7.63,6.73-7.79,8.5-9.58,1.1-1.11-.01-4.98,4.16-6.34,2.66-.86,9.41-.82,12.1,0,4.91,1.51,3.35,5.65,4.07,6.43.29.31,5.84,1.13,8.2,2.3,6.03,3,9.36,8.03,12.17,13.83.79,1.63,1.11,5,1.75,5.76.74.89,2.96.51,3.86,1.88,1.25,1.91,1.37,12.27.7,14.63-1.19,4.16-6.89,3.14-7.66,5.34-.52,15.6,3.96,31.06-15.17,36.03-2.05,7.68,9.61,9.13,15.04,10.35.58-22.61,22.35-26.18,39.01-33.5l.99-12.5c-13.56-.17-21.85-13.11-21.16-25.85-10.98-3.02-17.06-12.88-14.41-24.22.84-3.58,5.17-7.32,5.41-8.58.2-1.04-1.66-3.62-1.88-5.82-.33-3.43-.39-8.91,1.16-11.9,1.76-3.38,5.52-3.37,6.38-4.62.6-.87,1.31-6.26,2.31-8.69,2.95-7.14,9.19-14.35,16.13-17.87,2.85-1.44,11.49-3.13,11.92-3.58.51-.53.22-7.33,4.82-8.68,1.97-.58,14.62-.58,16.59,0,4.6,1.34,4.32,8.15,4.82,8.68.36.37,7.64,1.68,9.87,2.63,9.3,3.96,15.94,12.33,19.33,21.67.64,1.77.35,4.64,1.17,5.83.98,1.42,5.71,1.44,7.07,5.93.86,2.84.7,8.44.4,11.5-.18,1.79-2.04,3.61-1.8,4.9s4.58,5.01,5.41,8.58c2.65,11.33-3.42,21.2-14.41,24.22.69,12.74-7.6,25.68-21.16,25.85l.13,11.36,8.4,4.62c2.11,11.33-9.96,2.52-11.56,3.47-1.14,2.98-11.97,16.57-11.97,18.05v23.5h33c-.73-10.54,2.23-20.13,6.92-29.4-.53-2.27-9.42-3.18-8.47-7.68,1.68-7.91,14.11,1.59,17.05,5.07,5.11,6.04,4.85,11.22,7.98,17.99,5-4.43,15.97-2.71,13.37-11.84-19.09-3.75-14.35-20.79-14.98-35.51l-.86-1.14c-8.29-.54-7.77-8.36-7.02-15,.74-6.54,3.25-3.87,4.77-5.71.63-.77.96-4.13,1.75-5.76,2.81-5.8,6.14-10.82,12.17-13.83,2.23-1.11,7.82-2.08,8.14-2.36.67-.59.13-3.99,2.78-5.72,2.4-1.56,10.73-1.67,13.37-.58,3.04,1.26,3.67,5.78,4.24,6.26.34.29,6.2,1.83,8.45,3.05,4.93,2.68,8.39,6.09,10.84,11.16,1.04,2.16,1.02,5.37,2.05,6.95,1.42,2.18,4.61,1.68,5.39,6.61,1.01,6.38.67,15.97-7.94,14.44-.22,14.97,3.95,32.66-14.86,37.14l.85,6.37,23.33,9.42,1.43,2.77.22,60.78c-1.09,5.72-7.97,3.54-7.97.03v-15.5h-28v15.5c0,4.62-8,3.92-8,1v-16.5h-11c-1.56,1.49,9.5,22.22-2.87,18.86l-20.14-78.86c-1.26-.98-4.99,8.49-4.99,9.5v67c0,.73-3.17,3.08-4.45,2.55-1.04.06-3.55-2.05-3.55-2.55v-23.5h-33v23.5c0,.5-2.51,2.61-3.55,2.55-1.28.53-4.45-1.82-4.45-2.55v-23.5h-33v23.5c0,.5-2.51,2.61-3.55,2.55-1.28.53-4.45-1.82-4.45-2.55v-67c0-1.01-3.73-10.48-4.99-9.5l-20.14,78.86c-12.37,3.36-1.31-17.37-2.87-18.86h-11s0,16.49,0,16.49c0,2.92-8,3.62-8-1v-15.5h-28v15.5c0,3.51-6.89,5.69-7.97-.03l.13-61.81,24.85-11.15.85-6.37c-18.81-4.48-14.59-22.09-14.9-37.1-8.74,1.44-9.45-10.51-7.75-16.33.85-2.92,6.92-4.17,6.72-9.28h5.15s.92,4.57.92,4.57h14v-14ZM149.09,26.63h-10v33h10V26.63ZM131.09,36.63c-2.04-.81-11.98,3.11-11.98,4.5l4.6,4.44c.78,1.94.09,3.48-1.63,4.59-4.2,2.1-7.62-4.07-9-3.06l-4.99,12.53h23v-23ZM157.09,36.63v23h23l-4.99-12.53c-1.38-1.01-4.8,5.15-9,3.06-1.71-1.11-2.41-2.65-1.63-4.59l4.6-4.44c0-1.39-9.94-5.31-11.98-4.5ZM187.09,66.63h-86v9h86v-9ZM176.09,83.63h-64v38.5c0,3.68,7.99,9.58,11.73,10.27,5.6,1.02,37.17.98,42.09-.44,3.15-.91,10.17-6.71,10.17-9.83v-38.5ZM104.09,84.63c-10.61,2.58-9.93,17.64,0,21v-21ZM184.09,105.63c9.93-3.36,10.61-18.42,0-21v21ZM59.09,96.63h-5v20h5v-20ZM234.09,96.63h-5v20h5v-20ZM256.09,116.63c-1.81-7.36-7.27-11.27-14-14v14h14ZM80.09,116.63c-.58-5.53-6.84-12.78-12.48-13.03-2.12-.1-1.3.03-1.52,1.5-.52,3.47.38,7.92,0,11.53h14ZM208.09,116.63h14c-.38-3.62.53-8.06,0-11.53-.22-1.48.59-1.6-1.52-1.5-5.65.26-11.91,7.5-12.48,13.03ZM86.09,124.63H27.09v6h59v-6ZM261.09,124.63h-59v6h59v-6ZM52.09,137.63h-16.5l-1.5,1.5v19c0,2.18,3.47,7.28,5.95,8.05,3.1.96,27.82,1.02,31.34.24,2.62-.58,6.71-4.82,6.71-7.29v-21.5h-18c1.76,12.27-9.44,12.14-8,0ZM228.09,137.63h-18v21.5c0,2.47,4.1,6.71,6.71,7.29,3.52.79,28.25.73,31.34-.24,2.48-.77,5.95-5.88,5.95-8.05v-19l-1.5-1.5h-16.5c1.44,12.14-9.76,12.27-8,0ZM155.09,139.63h-22v11h22v-11ZM151.09,157.63h-14c.12,2.27,5.76,11.43,7.49,11l6.51-11ZM140.09,200.63v-23.5c0-1.22-10.9-15.77-12.46-18.26-1.43-.22-25.22,10.07-26.56,11.27-.59.53-1.13.89-.86,1.8,5.13,8.65,7.42,18.61,6.88,28.68h33ZM63.09,174.63h-14c-1.36,8.1,8.77,4.14,14.01,5.01v-5.01ZM239.09,174.63h-14v5.01c2.77-.48,12.19,1.06,13.56-.94l.44-4.06ZM60.08,186.64h-7.99l3.01,7.99c1.84,1.73,4.87-6.73,4.98-7.99ZM236.08,186.64h-7.99l3.01,7.99c1.84,1.73,4.87-6.73,4.98-7.99ZM52.09,214.63c2.37-4.53-4.92-23.6-7.99-25.56-2.8-1.79-15.65,6.94-20.01,6.56v19h28ZM60.09,214.63h16.5l5.42-20.36c-3.11-1.84-12.02-7.76-14.81-4.03-4.47,5.99-8.31,16.89-7.12,24.38ZM228.09,214.63c1.2-7.5-2.65-18.39-7.12-24.38-3.02-4.05-9.84,2.28-13.89,2.88l-.92,1.14,5.42,20.36h16.5ZM236.09,231.63h28v-9c-12.27,1.77-12.14-9.45,0-7.99l-.13-18.89-18.42-7.12c-1.32-.11-1.69.75-2.34,1.63-4.49,6.01-8.31,16.89-7.12,24.38,12.22-1.93,12.23,9.92,0,7.99v9ZM140.09,207.63h-33v16h33v-16ZM181.09,207.63h-33v16h33v-16ZM52.09,222.63h-28v9h28v-9ZM75.09,222.63h-15v9.01s11.54.06,11.54.06l1.58-.65,1.88-8.42ZM228.09,222.63h-15l1.88,8.42,1.58.65,11.54-.06v-9.01Z"/>
    <path d="M140.36,115.33c5.86,4.92,8.24-3.26,11.26-3.73,8.64-1.35,3.46,11.04-5.02,12.05-5.3.63-9.97-.36-12.97-5.07-2.73-4.3-1.86-8.55,3.76-6.79,2.02.63,2.01,2.74,2.96,3.54Z"/>
    <path d="M142.8,87.77c7.78-2.17,7.09,18.42,1.74,18.9-6.75.77-5.69-17.8-1.74-18.9Z"/>
    <path d="M235.28,150.86c4.07-2.5,8.89,2.7,4.49,7.47-5.16,5.61-14.93,3.68-17.55-3.43l2.58-4.13c3.52-1.28,4.58,3.29,7.78,2.95,2.35-.25,2.07-2.48,2.7-2.86Z"/>
    <path d="M52.89,150.86c.63.39.34,2.61,2.7,2.86,2.94.31,8.78-8.05,10.36,1.18-2.62,7.11-12.39,9.04-17.55,3.43-4.4-4.77.42-9.97,4.49-7.47Z"/>
  </g>
</svg>