<?xml version="1.0" encoding="UTF-8"?>
<svg id="OBJECTS" xmlns="http://www.w3.org/2000/svg" version="1.1" viewBox="0 0 289.96 289.96">
  <!-- Generator: Adobe Illustrator 29.7.1, SVG Export Plug-In . SVG Version: 2.1.1 Build 8)  -->
  <defs>
    <style>
      .st0 {
        fill: #fff;
      }
    </style>
  </defs>
  <rect class="st0" width="289.96" height="289.96"/>
  <g>
    <path d="M168.99,105.77c1.27-1.48,2.69-1.88,4.56-2.1,4.81-.56,21.47-.53,25.4,1.26,1.27.58,1.95,1.11,2.94,2.05,2.47,2.38,17.72,23.98,18.33,26.6,1.02,4.4,1.04,25.6.4,30.47-.85,6.49-10.19,2.73-14.98,3.74-1.99,16.2-22.97,15.35-26.38-.07h-51.37c-2.86,15.71-24.02,16.19-26.38.12-3.61-.93-15.15,1.89-16.39-2.33-.54-1.83-.43-19.66.24-21.05,1.35-2.77,6.97-1.36,9.58-1.66.89-7.37-1.51-58.84.81-61.18,1.07-1.08,3.11-1.14,4.56-1.27,15.01-1.27,43.32-1.28,58.32,0,1.79.15,5.37.51,5.37,2.95v59.49h4.99v-37.03ZM140.7,107.02h-22.05l-1.25-1.25v-17.47l-1.25-1.25h-14.56v55.75h55.75v-54.5l-1.25-1.25h-14.56v17.89c0,.28-1.1,1.26-.83,2.08ZM134.88,87.05h-10.82v13.31h10.82v-13.31ZM183.14,110.34h-7.49v50.76c6.46,1.51,5.97-2.31,9.7-4.86,7.19-4.91,14.96-2.26,19.18,4.87h9.4v-26.23c0-.62-2.02-1.88-2.93-2.06-6.04-1.15-21.83,1.58-26.18-.45-.39-.18-1.68-1.51-1.68-1.65v-20.39ZM189.79,111.59v14.56h17.47c-4.71-4.73-9.35-20.05-17.47-14.56ZM168.99,149.45h-77.38v11.65h11.65c.14,0,.22-1.59,1.19-2.52,6.76-6.54,13.33-6.54,20.09,0,.96.93,1.05,2.52,1.19,2.52h43.27v-11.65ZM113.86,160.45c-8.54.82-6.99,14.09,2.27,12.3,6.96-1.35,5.86-13.07-2.27-12.3ZM188.36,162.17c-5.73,5.71,2.78,14.57,8.89,9.31,5.92-5.09-2.79-15.39-8.89-9.31Z"/>
    <path d="M77.88,62.92h112.33c.41,0,2.17,2.09,2.12,2.96.44,1.06-1.51,3.7-2.12,3.7h-111.5c-5.41,0-14.89,4.88-19.12,8.34-20.2,16.54-16.49,49.75,7.02,61.17,3.08,1.5,12.38,3.29,13.35,4.12.55.47.86.94.87,1.69,1.32,7.59-11.64,2.56-15.24,1.04-40.51-17.09-30.84-77.58,12.28-83.01Z"/>
    <path d="M211.01,222.68c31.82-3.37,43.38-43.61,19.12-64.88-2.53-2.22-6.58-2.51-5.24-6.92,1.73-5.68,10.76,2.58,12.87,4.69,26.2,26.21,8.36,71.04-28.38,73.8-37.31,2.8-78.06-2.2-115.73,0-4.19.52-5.24-6.69-1.63-6.69h118.99Z"/>
    <path d="M226.99,108.42l-2.53.89c-.84-.11-1.53-.56-2.16-1.09-1.86-1.56-9.1-12.67-11.06-15.58-7.47-11.12-15.44-20.75-10.45-34.95,6.9-19.63,33.94-22.65,45.09-5.52,13.41,20.62-9.05,39.77-18.9,56.25ZM225.56,99.52c6.5-13,24.92-27.73,14.86-43.54-6.82-10.73-23.1-11.09-30.65-.96-11.73,15.72,6.64,30.97,14.08,43.98l1.72.53Z"/>
    <path d="M62.65,250.79c-9.46-16.92-31.36-34.14-19.44-55.3,10.4-18.46,38.64-15.64,45.72,4.48,4.69,13.34-1.87,21.83-8.78,32.45-1.74,2.67-10.9,16.59-12.25,17.7-1.46,1.2-3.48,1.14-5.24.66ZM65.8,241.81c6.29-12.7,23.09-25.37,16.45-40.97-5.48-12.87-23.82-14.77-32.24-3.54-11.56,15.42,7.17,31.08,14.08,43.99l1.72.52Z"/>
    <path d="M220.36,52.29c20.23-4.17,25.28,22.11,9.38,27.67-12.26,4.28-23.46-7.97-18.22-19.88,1.33-3.02,5.61-7.13,8.85-7.79ZM222.01,58.94c-6.57,1.5-6.56,13.12,0,14.62,14,3.2,14-17.81,0-14.62Z"/>
    <path d="M60.59,194.58c9.74-1.99,19.27,3.81,19.05,14.24-.39,18.9-30.86,19.32-28.81-2.37.47-4.95,4.77-10.85,9.76-11.87ZM62.24,201.22c-6.57,1.5-6.56,13.12,0,14.62,14,3.2,14-17.81,0-14.62Z"/>
  </g>
</svg>