<?xml version="1.0" encoding="UTF-8"?>
<svg id="OBJECTS" xmlns="http://www.w3.org/2000/svg" version="1.1" viewBox="0 0 289.96 289.96">
  <!-- Generator: Adobe Illustrator 29.7.1, SVG Export Plug-In . SVG Version: 2.1.1 Build 8)  -->
  <defs>
    <style>
      .st0 {
        fill: #fff;
      }
    </style>
  </defs>
  <rect class="st0" width="289.96" height="289.96"/>
  <g>
    <path d="M134.94,114.81l-8.48-28.56,5.02-1.47,7.33,20.76,5.4-8.88,7.21-4.9c6.45,2.39,7.96,7.09,11.14,12.01.49.75-.09,1.38,1.72,1l6.64-20.12c1.51.66,5.74,1.26,5.61,3.35l-9.15,26.82h12.36c1.66,6.15-1.73,9.75-3.08,14.31-.63,2.14,2.61.69,3.09,1.14-.14,2.88.29,5.84-.19,8.71-.43,2.6-2.35,4.55-2.89,6.38-.63,2.14,2.61.69,3.09,1.14,1.91,15.31-10.43,26.84-25.51,25.51v36.32c2.85-.73,7.6-4.64,10.43-4.64h15.07v6.18h13.14l-.95-6.77c-13.07-2.85-15.97-20.97-5.18-28.34,1.76-1.2,4.68-1.73,5.79-2.71,1.25-1.11,1.97-4.64,3.44-6.61,6.54-8.8,20.26-8.24,26.15.89,1.02,1.59,1.45,4.26,2.4,5.33,1.1,1.24,4.36,1.87,6.18,3.1,9.21,6.24,9.22,19.96,0,26.17-1.44.97-5.02,1.92-5.21,2.13-.35.4-1.02,5.46-.97,6.43.02.38-.03.76.08,1.12,10.58.92,18.42,10.19,19.32,20.48.59,6.72.69,14.65-6.93,17.08l-181.31.36c-10.12-.57-10.45-10.08-9.62-18.18,1.04-10.22,10.15-20.12,20.86-19.72-2.43-12.02-3.14-23.47,6.85-32.23-.29-4.81-9.63-16.5-8.3-20.57,1.49-4.55,12.65.02,15.35,1.8-1.48-17.61,21.7-17.64,19.33,0,2.19-.49,3.97-1.99,6.2-2.68,19.48-5.99,3.49,13.35.96,20.85,9.26,8.7,11,20.29,6.75,32.06h8.5s0-6.18,0-6.18h15.07c2.89,0,7.96,2.99,10.43,4.64v-36.32c-14.75,1.5-27-10.78-25.51-25.51l3.86-.38c-3.11-4.64-4.23-10.35-3.86-15.85l3.86-.38c-3.12-4.41-4.34-9.71-3.86-15.07h12.36ZM150.89,99.41c-8.04,5.92-7.98,18.65.56,23.84,8.12-5.45,8.52-19.21-.56-23.84ZM147.3,133.35c-.94-8.58-9.49-13.57-17.77-12.36,1.39,8.11,9.71,13.6,17.77,12.36ZM173.58,121c-8.37-1.25-16.88,3.82-18.54,12.35,8.89,1.18,16.11-3.83,18.54-12.35ZM148.08,149.57c-2.23-9.01-9.92-12.36-18.54-12.35,2,8.64,9.92,13.29,18.54,12.35ZM172.8,137.22c-7.75-.36-16.6,3.95-17.77,12.36,7.85,1.05,16.62-4.2,17.77-12.36ZM93.02,153.64c-.62-.62-2.26-1.06-3.13-.85-1.24.46-1.83,1.35-2.07,2.61-.57,2.98-.24,15.07,2.69,16.59,1.31.67,1.2-.96,1.52-1.52,1.86-3.3,3.43-14.36.99-16.83ZM147.3,165.81c-.12-9.05-10.29-12.77-17.77-13.13,1.21,8.71,9.45,13.31,17.77,13.13ZM173.58,152.68c-8.23.48-17.47,3.71-18.54,13.13,8.87.39,16.3-4.49,18.54-13.13ZM79.79,166.86c-.99-1.01-3.64-2.92-5.14-2.97l5.09,10.45,3.44-1.21c.2-1.7-2.17-5.03-3.39-6.27ZM102.44,174.3l4.67-10.8c-4.52,1.54-6.94,4.95-9.25,8.89l4.58,1.91ZM205.26,223v-25.5h6.96v25.5h3.87s3.96-25.4,3.96-25.4c15.76-.1,13.8-21.48-1.65-19.42,2.19-12.66-14.51-18.03-18.54-5.42,5.69.61,10.78,5.98,11.6,11.59-7.71,2.84-6.47-2.48-10.89-4.95-13.52-7.57-21.28,18.08-2.94,18.54l3.9,23.77,1.12,1.2,2.62.09ZM77.01,222.96l27.42-.72c2.81-13.71,11.8-31-3.24-40.85-11.44-7.49-27.33-.63-29.44,12.8-1.4,8.98,4.63,19.67,5.25,28.76ZM148.08,222.99c.02-9.78-10.33-15.07-18.98-12.38.81,10.28,9.67,13.65,18.98,12.38ZM173.58,209.86c-9.7-.75-18.22,2.43-19.32,13.13,9.41,1.18,19.54-2.12,19.32-13.13ZM227.68,229.18h-37.87v-6.19s5.41,0,5.41,0l-1.25-6.23-14.47.17c-3.44,5.14-7.58,10.95-14.22,12.06-4.93.82-24,.78-28.65-.34-5.66-1.36-10.72-6.26-12.63-11.71l-11.87.63-1.14,5.42h5.41s0,6.19,0,6.19h-51.01v-6.19s5.41,0,5.41,0l-1.62-6.09c-8.07-1.05-15.59,5.86-16.72,13.64-.6,4.08-1.49,11.35,4.01,11.82h176.29c6.06.19,5.43-6.72,4.89-11.16-.93-7.59-6.89-13.61-14.59-14.39l-.78,6.18h5.41s0,6.19,0,6.19Z"/>
    <path d="M214.54,89.3c-23.36-29.85-67.22-39.85-102.44-26.29-1.75.33-3.52-4.89-3.11-5.42,37.39-15.42,82.5-4.68,109.04,25.53l.38-10.05h6.19v22.42h-22.41v-6.18h12.36Z"/>
    <path d="M90.89,69.98v22.41h-6.18v-12.36c-29.85,23.36-39.85,67.22-26.29,102.44.33,1.75-4.89,3.52-5.42,3.11-15.43-37.36-4.65-82.51,25.53-109.04l-10.05-.38v-6.19h22.42Z"/>
    <path d="M235.49,171.14l2.23-25.03c-1.07-10.05-2.44-19.98-6.16-29.42l.73-1.51,4.3-1.8c8.2,18,9.31,39.5,4.61,58.64l-5.71-.88Z"/>
    <rect x="77.75" y="191.31" width="25.5" height="6.18"/>
    <rect x="77.75" y="203.68" width="25.5" height="6.18"/>
  </g>
</svg>