<?xml version="1.0" encoding="UTF-8"?>
<svg id="OBJECTS" xmlns="http://www.w3.org/2000/svg" version="1.1" viewBox="0 0 289.96 289.96">
  <!-- Generator: Adobe Illustrator 29.7.1, SVG Export Plug-In . SVG Version: 2.1.1 Build 8)  -->
  <defs>
    <style>
      .st0 {
        fill: #fff;
      }
    </style>
  </defs>
  <rect class="st0" width="289.96" height="289.96"/>
  <g>
    <path d="M63.64,179.24c.76-4.5,2.21-11.08,5.78-14.15,2.19-1.88,7.14-2.91,8.18-3.89.21-.2,2.77-4.72,2.85-5,.41-1.43-1.4-4.96-1.2-7.82.51-7.04,6.96-11.46,13.71-10.75,2.15.23,4.5,2.45,6.44.2-1.01-5.13-.65-11.26-1.53-16.24-.38-2.15-1.88-2.31-3.69-1.47l-24.88,15.17c-1-.24-10.55-16.59-10.75-17.6s-.04-1.52.21-2.43c1.14-4.14,5.87-12.92,7.97-17.37,2.42-5.13,4.85-10.27,8.07-14.96l-8.12-15.19c14.11-11.32,29.17-16.94,47.19-11.25,19.41,6.12,27.17,21.93,34.28,39.49,6.21,1.75,10.16-9.48,11.26-14,.77-3.17-.7-5.21,2.39-8.02,10.27-9.35,17.55,14.89,15.65,21.98h6.7s-4.85,14.12-4.85,14.12c1.22,3.45,10.73,9.68,14.15,9.68h49.47v5.95h-50.21c-.55,0-5.1-1.69-6.08-2.1-5.35-2.22-9.14-5.96-12.63-10.47l-5.46.67.03-5.92c3.94.27,6.66-2.65,8.15-5.97-4.04-.28-9.9-.23-11.17,4.46l-5.16-2.27c-1.81-2.65,8.2-8.91,11.13-8.15.3-1.68-.08-1.18-.95-1.66-1.98-1.08-5.32-1.58-7.51-2.7-1.6.3-5.42,8.29-7.48,9.62-3.46,2.25-8.35-.89-13.07,5.53s-1.32,13.95-8.16,20.85c-1.55,1.56-6.35,3.95-7.08,5.56s-.58,10.44.37,11.15l8.7-8.1c9.52,2.73-1.83,8.29-4.24,12.56,9.22,4.14,12.03-6.99,17.89-10.74,5.79-3.72,15.35-2.26,15.66-12.23l5.88-.07c.24,5.37-3.49,12.09-8.93,13.4,3.1,6.28,2.57,12.82,4.47,19.33,6.89-.6,4.8-7.17,6.88-12.08,1.68-3.97,6.53-7.84,10.77-8.57,2.15-.37,4.72.23,6.37-.16.87-.21,2.94-5.86,9.82-6.03,7.36-.18,6.99,3.27,10.84,6.33,2.83,2.25,5.57,2.57,8,6.13,1.7,2.5,2.26,6.11,4.26,8.39.67.76,3.83,3.02,4.42,3.02h14.51v5.95h-15.25c-2.19,0-7.94-4.37-9.31-6.32-2.02-2.88-2.27-7.18-5.19-9.31,2.75,5.78-8.54,16.57-12.83,15.5-.86-.21-7.63-4.97-8.35-5.85-2.72-3.33-2.92-7.77-2.63-11.88-10.84-.42-9.5,6.08-11.67,13.26-1.78,5.86-7.1,6.76-12.01,9.18-.47,6.86,2.43,14.03,7,19.09,12.8-3.52,33.11.42,34.56-17.69l5.92-.03c.05,2.77-.64,5.82-1.69,8.36-.92,2.22-5.39,7.14-5.46,7.6-.38,2.53,2.53,10.16,1.19,13.8h35.71v41.66H58.43v-41.66h17.85v-17.85h-12.65ZM91.17,72.12c1.06.81,4.57-10.6,4.45-11.9l-8.92,2.24,4.47,9.66ZM107.53,60.97c2.75,2.97,2.87,7.04,4.84,10.39l4.04-6.98c-.38-1.64-7.11-3.05-8.88-3.41ZM162.95,197.1h38.31l-.75-11.16c-2.28,1.13-4.79,1.57-7.28,2.01-5.29.94-15.87,3.2-20.66,3.23-5.49.04-10.9-11.41-12-16.25-.68-2.99-1.7-9.53-.98-12.28.21-.81,1.6-.78,1.91-1.25.59-.88-1.4-5.54-1.7-7.27-.61-3.45-.13-14.59-6.41-11.24-5.37,2.87-5.26,10.59-14.57,12.21-13.93,2.42-19.93-9.93-17.72-22.18,1.19-6.58,11.73-8.52,10.83-14.86-6.53-14.64-8.84-34.39-25.77-40.85.22-5.05-1.28-9.92-4.22-14.03-1.64-.33-.94.71-1.3,1.64-1.67,4.28-2.7,8.85-4.4,13.12-4.89.2-9.54,2.64-13.27,5.69-6.4,5.22-12.47,19.5-15.74,27.4-.47,1.14-1.87,3.95-1.97,4.77-.22,1.79,5.33,11.51,6.81,11.28,6.03-2.73,15.36-11.45,21.3-12.97,7.18-1.83,14.26,2.24,19.11-6.97l5.46,1.42c-2.44,6.75-7.56,9.75-14.18,11.6l1.65,16.91c.48,1.38,8.19,2.73,9.37,9.97s-3.39,9.35-3.51,11.69c-.05,1.06,4.29,13.03,5.11,14.08l2.94.35c4.63-12.87,20.76-16.06,29.87-5.48,6.48,7.52,2.8,12.65,5.79,20.25.95,2.42,5.58,8.53,7.96,9.15ZM85.95,75.09l-4.91-9.61c-10.08,3.7-4.85,6.5-1.77,13.34l6.68-3.73ZM122.11,67.71l-5.48,8.51,6.05,5.52,7.9-7.02c-1.66-1.34-6.46-7.49-8.46-7.01ZM170.75,87.74c.84-.87-3.73-11.47-5.2-9.66l-.73,8.16,5.93,1.51ZM138.77,89.96l-4.85-9.66-7.68,6.43,2.87,7.7,9.66-4.48ZM141.74,95.18l-10.41,4.48,2.99,8.91,4.46-7.06,3.39-2.61-.42-3.71ZM199.57,137.73c-7.75,1.69-4.28,17.39,1.95,16.81,7.26-.68,9.06-19.21-1.95-16.81ZM85.21,151.71c7.68-3.49,15.24-2.96,21.92,2.24,4.69-4.86.3-12.25-6.34-10.09-1.49.48-2.85,2.79-3.95,2.59-.69-.12-1.97-2.12-3.41-2.59-5.45-1.78-9.11,2.5-8.22,7.85ZM105.29,191.15c.9-5.75,2.28-11.17,5.84-15.86-4.08-8.8-5.56-21.88-18.68-19.67-3.93.66-10.22,5.85-10.22,9.86v31.62h46.87c-.22-1.7-7.92-5.95-8.55-5.95h-15.25ZM153.65,197.1c-3.01-3.98-5.1-8.1-5.87-13.1-.61-3.98.68-6.93-1.68-10.97-4.56-7.8-16.72-7.55-20.87.48-2.04,3.95-1.32,8.76-1.22,13.05,4.69,1.69,10.57,5.1,11.04,10.53h18.6ZM76.28,168.09c-1.82-.62-5.51,4.97-5.2,5.2h5.21s0-5.2,0-5.2ZM117.94,185.2l-.37-5.95c-2.66,1.39-4.04,3.04-4.84,5.94h5.21ZM70.33,203.05h-5.95v29.76h5.95v-29.76ZM88.18,203.05h-11.9v11.9h11.9v-11.9ZM100.09,203.05h-5.95v29.76h5.95v-29.76ZM117.94,203.05h-11.9v11.9h11.9v-11.9ZM129.84,203.05h-5.95v29.76h5.95v-29.76ZM147.7,203.05h-11.9v11.9h11.9v-11.9ZM159.6,203.05h-5.95v29.76h5.95v-29.76ZM177.45,203.05h-11.9v11.9h11.9v-11.9ZM189.35,203.05h-5.95v29.76h5.95v-29.76ZM207.21,203.05h-11.9v11.9h11.9v-11.9ZM219.11,203.05h-5.95v29.76h5.95v-29.76ZM236.96,203.05h-11.9v11.9h11.9v-11.9ZM88.18,220.9h-11.9v11.9h11.9v-11.9ZM117.94,220.9h-11.9v11.9h11.9v-11.9ZM147.7,220.9h-11.9v11.9h11.9v-11.9ZM177.45,220.9h-11.9v11.9h11.9v-11.9ZM207.21,220.9h-11.9v11.9h11.9v-11.9ZM236.96,220.9h-11.9v11.9h11.9v-11.9Z"/>
    <path d="M185.42,155.54c4.1-1.14,5.43,4.76,1.91,5.74-4.1,1.14-5.43-4.76-1.91-5.74Z"/>
    <path d="M149.72,113.88c4.1-1.14,5.43,4.76,1.91,5.74-4.1,1.14-5.43-4.76-1.91-5.74Z"/>
    <path d="M90.2,90.08c4.1-1.14,5.43,4.76,1.91,5.74-4.1,1.14-5.43-4.76-1.91-5.74Z"/>
    <rect x="88.18" y="179.24" width="5.95" height="11.9"/>
    <path d="M90.2,161.49c4.1-1.14,5.43,4.76,1.91,5.74-4.1,1.14-5.43-4.76-1.91-5.74Z"/>
    <path d="M131.86,173.4c4.1-1.14,5.43,4.76,1.91,5.74-4.1,1.14-5.43-4.76-1.91-5.74Z"/>
  </g>
</svg>