<?xml version="1.0" encoding="UTF-8"?>
<svg id="OBJECTS" xmlns="http://www.w3.org/2000/svg" version="1.1" viewBox="0 0 289.96 289.96">
  <!-- Generator: Adobe Illustrator 29.7.1, SVG Export Plug-In . SVG Version: 2.1.1 Build 8)  -->
  <defs>
    <style>
      .st0 {
        fill: #fff;
      }
    </style>
  </defs>
  <rect class="st0" width="289.96" height="289.96"/>
  <g>
    <path d="M155.97,101.25c14.72,7.64,24.11,24.77,25.36,41.16.31,4.11.61,21.97-.57,24.78-1.76,4.18-7.72,2.57-10.94.97-.96,4.11,2.91,10.57.37,13.83-1.79,2.3-10.27,4.21-13.44,4.63-2.09,2.01,9.88,5.62,6.19,11.96-.3.52-7.61,8.44-8.11,8.8-1.22.87-2.22,1.6-3.83,1.55-21.18-1.59-45.31,2.08-66.13-.03-21.2-2.14-25.44-29.78-6.53-38.98.66-13.03-1.73-26.82,1.91-39.44,3.62-12.55,12.09-22.26,22.59-29.59-4.35-6.13-3.84-13.25,1.58-18.47-3.99-3.98-6.52-9.7-6.9-15.35-.73-10.9,2.85-7.46,10.44-9.6,6.51-1.84,10.46-7.04,18.38-7.76,12.77-1.16,14,3.96,23.5,7.32,5.85,2.07,12.62-.9,12.3,7.67-.24,6.35-2.88,12.95-6.84,17.87,4.69,5.63,5.52,12.84.67,18.68ZM132.13,78.96h13.46c2.96,0,7.7-9.21,7.31-12.3-8.72-.4-14.6-8.55-23.46-8.52-8.04.02-14.52,7.96-22.62,8.57.02,9.29,6.51,13.98,15.58,12.28,1.91-.45,1.09-10.68,5.53-11.56,9.92-1.96,3.62,10.96,4.21,11.52ZM111.93,88.36c-3.5.57-3.69,4.55-2.11,7.15.82.61,1.76.93,2.76,1.08,10.2,1.58,23.93-1.04,34.53.03,4.7-1.46,4.77-6.92,0-8.42l-35.18.15ZM172.12,159.7v-21.15c0-10.97-13.94-28.11-24.09-32.04-5.23-2.03-26.29-2.18-32.45-1.42s-14.68,7.9-18.44,12.31c-14.54,17.05-9.38,37.26-10.52,57.92-.63,2.07-4.37,2.51-6.26,3.73-8.21,5.31-6.53,17.93,2.99,20.6l65.93-.12,3.6-3.3c-2.46-3.67-11.61-7.31-9.41-12.47,1.51-3.55,13.94-5.79,17.81-7.21-.1-11.51-7.07-22.42,10.85-16.84Z"/>
    <path d="M189.61,193.73c32.67-4.42,42.1,44,10.21,51.73-36.38,8.81-45.6-46.94-10.21-51.73ZM191.97,201.4c-14.24,1.01-22.12,18.26-13.25,29.74,7.59,9.82,22.21,9.6,29.53-.32,9.32-12.63-.86-30.52-16.29-29.42Z"/>
    <path d="M212.1,147.01c.85-3.03,7.69-2.18,7.69.77v25.76c2.46-2.49,6.28-3.91,8.33-.22.28.92.27,1.83,0,2.75-.45,1.5-10.14,10.96-12.48,11.33-2.19-.12-11.88-9.49-12.43-11.52-.35-1.28.4-4.08,1.7-4.54,2.9-1.01,4.72.67,7.2,1.43v-25.76Z"/>
    <path d="M202.1,110.49c1.79.34,2.22-1.76,3.62-2.18,3.78-1.12,5.73,2.03,4.68,5.47-.2.65-8.63,9.35-9.42,9.81-1.98,1.15-3.51,1.14-5.47,0-.79-.46-9.25-9.16-9.44-9.82-1.68-5.89,4.8-7.13,8.33-3.29v-25.76c0-.64,3.17-2.71,4.25-2.68.98.03,3.44,2.34,3.44,2.68v25.76Z"/>
    <path d="M133.8,136.5c.77.88,4.24-.51,4.46,3.67.43,8.34-10.44.15-10.59,5.95-.07,2.76,7.1,3.76,9.43,6.69,2.61,3.28,2.77,9.17.42,12.66-.97,1.44-3.44,2.48-3.67,2.87-1.24,2.13.93,6.99-5.14,5.97-3.3-.55-2.08-3.48-3.49-5-1.26-1.36-5.06-1.22-4.49-5.2.95-6.6,12.59,1.53,10.52-5.42-.6-2-4.45-2.53-6.3-3.73-5.87-3.79-6.54-10.51-2.39-15.98.87-1.15,2.6-1.63,3.02-2.36.84-1.46-.1-3.97,1.93-4.99,6.25-3.15,5.46,3.92,6.29,4.86Z"/>
  </g>
</svg>