<?xml version="1.0" encoding="UTF-8"?>
<svg id="OBJECTS" xmlns="http://www.w3.org/2000/svg" version="1.1" viewBox="0 0 289.96 289.96">
  <!-- Generator: Adobe Illustrator 29.7.1, SVG Export Plug-In . SVG Version: 2.1.1 Build 8)  -->
  <defs>
    <style>
      .st0 {
        fill: #fff;
      }
    </style>
  </defs>
  <rect class="st0" width="289.96" height="289.96"/>
  <g>
    <path d="M105.71,49.74c.91-6.41,7.35-12.31,13.8-12.85,19.02,1.24,40.79-1.97,59.48-.08,8.85.9,14.69,7.53,14.52,16.45,10.24-9.29,25.74-.36,21.34,13.12-.73,2.25-9.79,13.67-11.72,14.21-2.09.59-3.8-.65-4.18-2.68,1.69-6.55,13.65-11.82,9.35-19.46-3.87-6.89-13.6.95-14.64,5.56-.47,2.09-.75,24.15-.06,25.21,11.77,1.45,16.3,13.46,8.47,22.45,0,1.17,6.72,5.28,6.16,12.31-.51,6.38-5.46,8.38-7.73,13.5,12.7,7.15,6.59,20.8-3.11,27.45-1.22.84-3.67,1.14-3.8,1.29-.56.63.95,10.43-4.01,15.98-1.6,1.79-6.77,5.1-9.01,5.1h-35.27c-.39,0-2.05-1.97-2-2.78-.41-1,1.42-3.49,2-3.49h34.49c1.37,0,5.06-3.04,5.88-4.31,1.24-1.92,2.54-9.23,1.44-10.47-.27-.3-4.32-1.38-6.16-3.63-7.33-8.92-.22-15.48,4.73-22.73-11.54-5.28-7.92-18.63.75-25.1-9.33-5.78-8.3-18.26.81-23.68-.9-12.31,1.15-26.16.02-38.28-.52-5.49-3.4-9.12-9.05-9.77-18.15,1.28-38.6-1.71-56.47-.03-5.49.52-9.12,3.4-9.77,9.05v85.28c10.68,8.34,18.95,20.11,22.51,33.31.83,3.07,4.18,15.34.49,16.55-5.38,1.75-5.36-10.32-6.31-13.86-3.44-12.79-11.66-24.85-22.43-32.49-2.58-10.13,3.5-39.15-5.24-45.65-2.01-1.5-5.35-2.11-7.82-1.98-.6,9.26.81,19.46-.01,28.6s-5.12,19.34-6.04,28.45c-1.42,13.99,6.47,27.04,9.17,40.49l-16.08,32.55-2.36,1.64c-2.61.24-4.27-2.37-3.15-4.75l15.01-30.16c-3.4-13.04-10.29-26.1-8.99-39.89.87-9.29,5.33-19.83,6.16-29.11.92-10.26-.77-21.61.14-32,1.5-4.45,15.88-1.39,18.68,1.83v-41.15ZM192.53,95.73c-9.64,1.59-7.13,17.48,2.34,13.38,8.11-3.5,4.68-14.54-2.34-13.38ZM194.08,116.89c-2.03.42-8.53,7.37-9.03,9.03-1.5,4.96,1.89,9.81,7.1,8.72,2.89-.6,9.24-7.75,9.65-10.8.55-4.15-3.64-7.8-7.71-6.95ZM185.91,158.84c7.64,8.35,22.85-13.63,10.93-16.08-5.47-1.12-16.37,10.13-10.93,16.08Z"/>
    <path d="M151.29,212.51c-1.73,2.94-4.45,12.81-8.31,12.45-7.06-.65,3.24-15.53,5.05-18.46,6.83-.59,14.65-.9,19.99-5.88,2.31-2.16,4.04-7.96,7.68-6.94,6.4,1.8-3.19,11.42-5.92,13.39-5.41,3.9-11.89,5.16-18.48,5.43Z"/>
    <path d="M139.02,49.35h21.16c.39,0,2.05,1.97,2,2.78.41,1-1.42,3.49-2,3.49h-21.16c-.39,0-2.05-1.97-2-2.78l2-3.49Z"/>
    <path d="M145.45,168.65c2.08-.61,8.99-.71,10.05,1.4,2.88,6.41-11.81,6.34-12.21,1.92-.14-1.48.74-2.91,2.15-3.33Z"/>
  </g>
</svg>