<?xml version="1.0" encoding="UTF-8"?>
<svg id="OBJECTS" xmlns="http://www.w3.org/2000/svg" version="1.1" viewBox="0 0 289.96 289.96">
  <!-- Generator: Adobe Illustrator 29.7.1, SVG Export Plug-In . SVG Version: 2.1.1 Build 8)  -->
  <defs>
    <style>
      .st0 {
        fill: #fff;
      }
    </style>
  </defs>
  <rect class="st0" width="289.96" height="289.96"/>
  <g>
    <path d="M178.37,125.81c1.86,1.92,8.86-9.51,11.88-8.3.94.37,1.62.98,2.26,1.74.96,1.15,7.49,11.99,7.9,13.18.46,1.37.47,2.51.37,3.91l4.29-1.9c4.54,5.49.93,6.36-4.2,7.93.3,4.73-.37,8.23-2.07,12.42l8.57,1.99-1.32,5.26c-.73.67-8.87-2.82-10.84-2.62-1.19.12-6.96,4.12-8.26,5.25,13.28,2.89,31.1-3.32,42.78,4.99,9.55,6.8,12.69,18.4,9.08,29.42-2.38,7.25-8.01,6.79-13.83,10.55l-128.58.48-24.11-14.92c-.95-1.58-.94-18.71-.65-21.64,1.06-10.97,15.21-11.2,17.01-.47.58,3.47-.23,7.1.3,10.58l5.78,3.43c-5.26-25.03,5.03-49.85,26.81-63.12,2.04-1.24,11.6-5.46,11.96-6.49-.55-4.57,1.33-27.96-.49-30.26-1.05-1.33-5.22-1.18-6.82-.76-2.34.61-7.02,5.72-9.38,5.73-2.19,0-10.93-7.8-7.63-10.88l14.17-19.43,14.2-.27,6.04,10.75h29.77s6.36-10.77,6.36-10.77c1.49-.72,10.62-.57,12.06.29.86.52,10.66,15.45,11.14,16.69.65,1.68.8,2.66.16,4.4-.22.59-4.79,7.4-5.29,7.88-4.72,4.54-9.9-6.76-15.42-4.22-.32.15-3.96,3.66-3.96,3.94v35.25ZM82.85,185.44v-13.18c0-1.73-5.27-1.73-5.27,0v20.09l19.43,11.86h53.03c.32-8.88-13.49-3.17-15.87-6.2-.89-3.77-.53-6.91-1.73-10.79-2.81-9.11-11.84-14.62-21.27-13.32v-5.94c14.38-1.44,28.23,10.34,27.67,25.04,8.39-.7,16.12,1.73,17.2,11.13l5.86.07v-16.47h-17.13v-5.93h17.13v-16.14l-9.58-4.94c-5.91.4-13.06,8.69-14.14-1.31l9.88-3.62c-3.01-4.14-3.6-8.39-3.4-13.4-1.33-.94-6.58-1.7-6.39-3.61l2.21-4.39,4.28,1.96c-.28-1.86.27-3.03.96-4.64.87-2.01,6.36-11.25,7.7-12.72,4.51-4.94,8.32,4.91,11.78,6.48,2.09.95,5.57.04,7.89.34v-37.88c0-.49,6.58-6.64,7.05-6.78,5.19-1.54,9.8.81,13.81,3.73,1.73-.49,3.77-3.04,3.02-4.97-.46-1.19-8.41-13.02-9.17-13.28s-4.2-.33-4.73,0l-5.57,10.89c-11.46,1.74-23.77.72-35.42.57-4.08-.41-5.2-9.96-7.86-11.25l-7.77-.18c-2.35,5.01-8.22,10.16-10.58,14.78-.4.78-.95,1.44-.67,2.4l2.09,1.7c5.55-5.21,16.33-7.51,21.19-.56l.21,36.43-1.22,1.41c-25.42,8.53-40.69,30.07-38.1,57.27.31,3.29,5.88,16.78.36,16.05-.92-.12-14.86-8.15-15.76-9.03-.41-.4-1.07-1.16-1.15-1.67ZM167.17,161.06v43.15h8.56v-19.11h5.27v19.11h9.88c-2.09-7.91-2.66-14.04,2.75-20.64,3.03-3.7,5.74-5.54,10.58-3.56,5.44,2.23,5.27,8.33,3.14,13h13.18v5.93h-14.82l-4.85-5.08c-.57-2.22,3.96-5.65,1.96-8.36-2.14-2.9-6.92,3.92-7.28,5.9-.76,4.1.34,8.85,1.29,12.82h26.68c.49,0,8.09-4.13,8.58-4.6,4.29-4.07,2.42-15.9-.72-20.4-9.71-13.89-30.89-6.83-45.28-8.75-2.49-.92-10.49-8.08-6.62-10.46l8.12-2.91-1.37-.72,1.41-4.85,5.26.99c1.4-2.32,2.99-4.76,2.6-7.6l-7.82,2.55-2.04-4.2,9.9-4.72c.94-3.82-4.5-10.05-6.3-13.39-1.25-.3-5.07,5.03-6.66,5.85-2.25,1.16-15.31,1.12-18.08.46-3.73-.89-5.01-5.35-8.51-6.3-.8,3.47-6.41,8.85-5.96,12.15.42,3.06,7.87,3.67,9.82,5.95l-1.9,4.95-6.91-3.28c-2.38.15.89,7.98,2.77,8.46l6.82-1.62,1.95,4.99-3.29.99,7.9,3.3Z"/>
    <path d="M208.77,150.11c-.34-.59-.08-1.33.24-1.89,22.28-24.13,38.02-58.42,11.87-86.32-15.97-17.04-36.24-19.76-54.37-4.28-2.39,2.04-7.62,8.82-10.2,8.97-3.25.18-7.59-6.08-10.2-8.31-18.55-15.86-38.38-14.2-55.03,3.62-23.23,24.87-13.61,55.1,5.58,78.74l-4.26,3.5c-11.87-13.83-21.76-34.35-20.78-52.94,1.44-27.23,32.07-56.58,60.12-48.2,9.39,2.8,17.19,10.19,23.99,16.89,8.21-7.24,15.95-15.1,27.12-17.54,22.37-4.89,46.01,14.02,54,33.89,10.83,26.92-6.03,57.46-24.55,76.58l-3.53-2.71Z"/>
    <rect x="150.04" y="100.78" width="11.86" height="5.27"/>
    <rect x="144.77" y="89.58" width="5.28" height="5.28"/>
    <rect x="161.9" y="89.58" width="5.28" height="5.28"/>
    <path d="M184.31,137.01l-.29,5.32c-.8,1.16-4.21.45-5.64.62v-5.94s5.94,0,5.94,0Z"/>
    <rect x="161.9" y="137.01" width="5.28" height="5.94"/>
    <rect x="169.8" y="145.58" width="5.94" height="5.28"/>
  </g>
</svg>