<svg width="32" height="32" viewBox="0 0 32 32" fill="none" xmlns="http://www.w3.org/2000/svg">
<path d="M9.62997 22.2182C10.4951 22.2182 11.1965 21.4813 11.1965 20.5723C11.1965 19.6633 10.4951 18.9265 9.62997 18.9265C8.76482 18.9265 8.06348 19.6633 8.06348 20.5723C8.06348 21.4813 8.76482 22.2182 9.62997 22.2182Z" fill="#A8A9AD"/>
<path d="M19.0104 17.2815C19.9872 16.2551 19.9872 14.5911 19.0104 13.5647C18.0335 12.5384 16.4497 12.5384 15.4729 13.5647C14.496 14.5911 14.496 16.2551 15.4729 17.2815C16.4497 18.3078 18.0335 18.3078 19.0104 17.2815Z" fill="#A8A9AD"/>
<path d="M26.0129 11.352C27.6624 11.0707 28.7825 9.43772 28.5147 7.70468C28.247 5.97164 26.6928 4.79478 25.0433 5.07609C23.3938 5.3574 22.2737 6.99036 22.5414 8.7234C22.8092 10.4564 24.3634 11.6333 26.0129 11.352Z" fill="#A8A9AD"/>
<path d="M10.0445 23.1704H9.22151C8.86025 23.1704 8.51379 23.3212 8.25834 23.5896C8.00289 23.858 7.85938 24.222 7.85938 24.6016V27.6669C8.91599 28.7111 10.1089 29.5918 11.402 30.2824V24.5996C11.4018 24.2211 11.2588 23.8582 11.0043 23.5903C10.7499 23.3224 10.4047 23.1714 10.0445 23.1704Z" fill="#A8A9AD"/>
<path d="M18.0566 19.1877H16.4254C15.9152 19.188 15.426 19.4011 15.0653 19.7803C14.7046 20.1594 14.502 20.6735 14.502 21.2096V31.5084C16.2913 31.9846 18.1479 32.1163 19.9819 31.897V21.2096C19.9819 20.944 19.9321 20.681 19.8354 20.4356C19.7386 20.1903 19.5968 19.9673 19.418 19.7796C19.2392 19.5918 19.0269 19.4429 18.7933 19.3414C18.5598 19.2398 18.3094 19.1876 18.0566 19.1877Z" fill="#A8A9AD"/>
<path d="M26.4224 12.8735H24.6274C24.0244 12.8735 23.446 13.1252 23.0195 13.5733C22.5931 14.0213 22.3535 14.629 22.3535 15.2627V31.4133C24.7287 30.7148 26.9058 29.4181 28.6963 27.6358V15.2627C28.6963 14.629 28.4567 14.0213 28.0303 13.5733C27.6038 13.1252 27.0254 12.8735 26.4224 12.8735Z" fill="#A8A9AD"/>
<path d="M18.2569 2.11596e-05C14.8836 -0.0057482 11.6044 1.16844 8.93652 3.33741C14.8696 5.27183 19.8188 10.3649 19.8188 10.3649C19.1946 9.45317 18.8512 8.36243 18.8348 7.23946C18.8185 6.1165 19.1299 5.01522 19.7273 4.08386C20.3246 3.15249 21.1792 2.43575 22.176 2.0301C23.1727 1.62445 24.2639 1.54936 25.3025 1.81494C23.1279 0.620989 20.7105 -0.00174064 18.2569 2.11596e-05Z" fill="#29AA6B"/>
<path d="M4.867 8.33618C3.6893 10.604 3.0498 13.137 3.00279 15.72C2.95579 18.303 3.50265 20.8597 4.59697 23.1732C4.54341 22.858 4.51648 22.5384 4.51652 22.2182C4.51641 21.2243 4.77891 20.2499 5.27479 19.4035C5.77067 18.5572 6.48045 17.8721 7.32507 17.4245C8.16969 16.977 9.11597 16.7846 10.0585 16.8688C11.0011 16.953 11.9029 17.3105 12.6634 17.9014C8.74164 14.7428 6.08302 11.1965 4.867 8.33618Z" fill="#29AA6B"/>
<path d="M4.86621 8.33608C6.07854 11.1964 8.73715 14.7427 12.6627 17.9013C12.708 17.9363 12.7551 17.9722 12.7967 18.0092C12.0465 16.9892 11.6706 15.7197 11.7378 14.4326C11.8049 13.1455 12.3107 11.9268 13.1626 10.9991C14.0145 10.0715 15.1557 9.49696 16.3776 9.38048C17.5995 9.264 18.8204 9.61338 19.8173 10.3647C19.8173 10.3647 14.8681 5.2717 8.93505 3.33728C7.26605 4.69187 5.88092 6.39359 4.86621 8.33608Z" fill="#25A05F"/>
</svg>
