<svg width="24" height="24" viewBox="0 0 24 24" fill="none" xmlns="http://www.w3.org/2000/svg">
<path d="M20.891 19.4286H8.77571C8.18635 19.4286 7.6875 19.2286 7.27917 18.8286C6.87083 18.4286 6.66667 17.9399 6.66667 17.3626V2.066C6.66667 1.48867 6.87083 1 7.27917 0.6C7.6875 0.2 8.18635 0 8.77571 0H16.0023C16.2835 0 16.5539 0.0535237 16.8135 0.160571C17.0728 0.267428 17.2983 0.414667 17.4898 0.602286L22.3852 5.39771C22.5767 5.58533 22.727 5.80619 22.8361 6.06029C22.9454 6.31457 23 6.57943 23 6.85486V17.3626C23 17.9399 22.7958 18.4286 22.3875 18.8286C21.9792 19.2286 21.4803 19.4286 20.891 19.4286ZM21.25 6.85714H17.4134C17.0171 6.85714 16.6825 6.72343 16.4095 6.456C16.1365 6.18857 16 5.86076 16 5.47257V1.71429H8.77571C8.68587 1.71429 8.60363 1.75095 8.52896 1.82429C8.4541 1.89743 8.41667 1.978 8.41667 2.066V17.3626C8.41667 17.4506 8.4541 17.5311 8.52896 17.6043C8.60363 17.6776 8.68587 17.7143 8.77571 17.7143H20.891C20.9808 17.7143 21.063 17.6776 21.1377 17.6043C21.2126 17.5311 21.25 17.4506 21.25 17.3626V6.85714ZM4.10904 24C3.51968 24 3.02083 23.8 2.6125 23.4C2.20417 23 2 22.5113 2 21.934V7.71429C2 7.47105 2.08381 7.26743 2.25142 7.10343C2.41883 6.93924 2.62669 6.85714 2.875 6.85714C3.12331 6.85714 3.33117 6.93924 3.49858 7.10343C3.66619 7.26743 3.75 7.47105 3.75 7.71429V21.934C3.75 22.022 3.78743 22.1026 3.86229 22.1757C3.93696 22.249 4.01921 22.2857 4.10904 22.2857H15.125C15.3733 22.2857 15.5812 22.3678 15.7486 22.532C15.9162 22.696 16 22.8996 16 23.1429C16 23.3861 15.9162 23.5897 15.7486 23.7537C15.5812 23.9179 15.3733 24 15.125 24H4.10904Z" fill="#565656"/>
</svg>
