<svg width="24" height="24" viewBox="0 0 24 24" fill="none" xmlns="http://www.w3.org/2000/svg">
<path d="M20.9997 12.424V11C20.9997 8.61305 20.0515 6.32387 18.3637 4.63604C16.6758 2.94821 14.3867 2 11.9997 2C9.61276 2 7.32357 2.94821 5.63575 4.63604C3.94792 6.32387 2.99971 8.61305 2.99971 11V12.424C1.95087 12.8858 1.09251 13.694 0.568328 14.7131C0.0441491 15.7322 -0.114033 16.9004 0.120264 18.0222C0.354561 19.1441 0.967114 20.1513 1.85538 20.8755C2.74364 21.5996 3.85369 21.9966 4.99971 22C5.53014 22 6.03885 21.7893 6.41392 21.4142C6.78899 21.0391 6.99971 20.5304 6.99971 20V14C6.99971 13.4696 6.78899 12.9609 6.41392 12.5858C6.03885 12.2107 5.53014 12 4.99971 12V11C4.99971 9.14349 5.7372 7.36301 7.04996 6.05025C8.36271 4.7375 10.1432 4 11.9997 4C13.8562 4 15.6367 4.7375 16.9495 6.05025C18.2622 7.36301 18.9997 9.14349 18.9997 11V12C18.4693 12 17.9606 12.2107 17.5855 12.5858C17.2104 12.9609 16.9997 13.4696 16.9997 14V20H13.9997C13.7345 20 13.4801 20.1054 13.2926 20.2929C13.1051 20.4804 12.9997 20.7348 12.9997 21C12.9997 21.2652 13.1051 21.5196 13.2926 21.7071C13.4801 21.8946 13.7345 22 13.9997 22H18.9997C20.1457 21.9966 21.2558 21.5996 22.144 20.8755C23.0323 20.1513 23.6449 19.1441 23.8791 18.0222C24.1134 16.9004 23.9553 15.7322 23.4311 14.7131C22.9069 13.694 22.0485 12.8858 20.9997 12.424ZM4.99971 20C4.20406 20 3.441 19.6839 2.87839 19.1213C2.31578 18.5587 1.99971 17.7957 1.99971 17C1.99971 16.2044 2.31578 15.4413 2.87839 14.8787C3.441 14.3161 4.20406 14 4.99971 14V20ZM18.9997 20V14C19.7954 14 20.5584 14.3161 21.121 14.8787C21.6836 15.4413 21.9997 16.2044 21.9997 17C21.9997 17.7957 21.6836 18.5587 21.121 19.1213C20.5584 19.6839 19.7954 20 18.9997 20Z" fill="#565656"/>
</svg>
