<svg width="24" height="24" viewBox="0 0 24 24" fill="none" xmlns="http://www.w3.org/2000/svg">
<path d="M18.48 12.8849L9.03906 11.3984L10.2906 17.0507L18.48 12.8849Z" fill="#D12053"/>
<path d="M18.4783 12.8848L11.3641 2.95386L9.03906 11.4001L18.4783 12.8848Z" fill="#E2136E"/>
<path d="M8.81939 11.2857L1.36523 1.71436L11.1267 2.88596L8.81939 11.2857Z" fill="#D12053"/>
<path d="M5.42437 7.28624L1.28516 3.36719H2.37471L5.42437 7.28624Z" fill="#9E1638"/>
<path d="M20.4938 8.05713L18.7419 12.8312L15.9023 8.8853L20.4938 8.05713Z" fill="#D12053"/>
<path d="M11.3926 16.7645L18.2663 13.9902L18.5548 13.1084L11.3926 16.7645Z" fill="#E2136E"/>
<path d="M5.89453 22.0001L8.83916 11.6221L10.3328 18.3744L5.89453 22.0001Z" fill="#9E1638"/>
<path d="M20.7658 8.09473L20.043 10.0659L22.6493 10.023L20.7658 8.09473Z" fill="#E2136E"/>
</svg>
