<svg width="86" height="21" viewBox="0 0 86 21" fill="none" xmlns="http://www.w3.org/2000/svg">
<g clip-path="url(#clip0_612_170)">
<path d="M60.1117 -0.113281C60.8497 -0.113281 61.5877 -0.113281 62.3481 -0.113281C62.3481 3.12758 62.3481 6.36845 62.3481 9.70753C61.6101 9.70753 60.8721 9.70753 60.1117 9.70753C60.0994 9.51547 60.0871 9.32342 60.0744 9.12555C60.0167 9.19757 60.0167 9.19757 59.9579 9.27104C59.5775 9.68604 58.9948 9.88991 58.4344 9.92577C57.5819 9.96716 56.8007 9.71131 56.1607 9.16193C56.1323 9.13768 56.1039 9.11344 56.0746 9.08847C55.4946 8.55972 55.1186 7.74177 55.0751 6.97004C55.0412 5.94018 55.3056 5.03474 56.0341 4.26735C56.164 4.13707 56.3062 4.02774 56.4589 3.92416C56.4878 3.90447 56.5168 3.88478 56.5467 3.86449C56.7985 3.70575 57.0684 3.61116 57.3534 3.52405C57.3813 3.51543 57.4091 3.5068 57.4377 3.49791C58.2135 3.29563 59.0011 3.45649 59.6977 3.81234C59.8135 3.88779 59.8135 3.88779 60.0744 4.1424C60.0929 2.03584 60.0929 2.03584 60.1117 -0.113281ZM57.6423 5.83831C57.4064 6.17041 57.344 6.54642 57.3907 6.94315C57.4887 7.33315 57.6924 7.61682 58.0244 7.85248C58.3777 8.05352 58.8366 8.05288 59.2291 7.97269C59.5799 7.8592 59.8467 7.65216 60.0371 7.34326C60.2376 6.93664 60.22 6.52722 60.0744 6.10656C59.908 5.76781 59.6082 5.49859 59.2442 5.37355C58.6449 5.24054 58.0454 5.36544 57.6423 5.83831Z" fill="#1E196A"/>
<path d="M69.1694 12.7267C69.1896 12.9866 69.1154 13.2232 69.0494 13.4734C69.0368 13.5223 69.0243 13.5711 69.0117 13.6199C68.9851 13.7234 68.9584 13.8268 68.9315 13.9301C68.8619 14.1982 68.7935 14.4665 68.7255 14.7349C68.7188 14.7614 68.712 14.7878 68.7051 14.8151C68.5899 15.2704 68.4835 15.7269 68.389 16.1867C68.3801 16.2297 68.3801 16.2297 68.3711 16.2736C68.2697 16.7458 68.2697 16.7458 68.2306 17.2256C68.2298 17.2753 68.2298 17.2753 68.229 17.326C68.2379 17.4226 68.2619 17.4815 68.3121 17.5643C68.5735 17.5589 68.7208 17.4437 68.9085 17.2733C68.9904 17.187 69.0692 17.0993 69.146 17.0086C69.166 16.9879 69.186 16.9673 69.2067 16.946C69.2313 16.946 69.2559 16.946 69.2812 16.946C69.3174 17.1181 69.3385 17.2862 69.2812 17.4552C69.1376 17.6617 68.9228 17.8137 68.7221 17.9644C68.7013 17.9805 68.6805 17.9965 68.659 18.0131C68.3659 18.2382 68.099 18.4094 67.7157 18.4009C67.5086 18.3399 67.4088 18.215 67.3057 18.0372C67.2317 17.8622 67.1962 17.6764 67.1566 17.4916C67.1255 17.5305 67.1255 17.5305 67.0937 17.5701C66.7727 17.9634 66.4176 18.3281 65.88 18.4032C65.6138 18.4131 65.4405 18.3351 65.2464 18.1599C65.0691 17.9757 64.9782 17.7719 64.9202 17.5279C64.895 17.5512 64.8697 17.5745 64.8437 17.5986C64.3711 18.0272 63.8719 18.3969 63.1987 18.4123C62.8416 18.3989 62.5627 18.3148 62.3034 18.068C62.1295 17.8843 62.0129 17.7502 62.0129 17.4916C61.9889 17.511 61.965 17.5304 61.9403 17.5504C61.8486 17.6241 61.7566 17.6974 61.6643 17.7704C61.6236 17.8025 61.583 17.8348 61.5425 17.8672C61.1894 18.1485 60.816 18.4281 60.3356 18.4009C60.1417 18.3402 60.0419 18.2343 59.9256 18.0735C59.7701 17.7555 59.8512 17.4101 59.9629 17.0915C60.07 16.8056 60.2041 16.547 60.3729 16.2912C60.1493 16.3248 59.9349 16.3662 59.7876 16.5444C59.708 16.653 59.636 16.7664 59.5625 16.8789C59.433 17.064 59.2647 17.2218 59.1056 17.3824C59.0799 17.4089 59.0543 17.4354 59.0278 17.4627C58.8326 17.6599 58.6189 17.8325 58.3974 18.0008C58.3505 18.0365 58.3505 18.0365 58.3027 18.073C58.0492 18.2568 57.7922 18.3774 57.4772 18.4191C57.2603 18.3871 57.1075 18.3168 56.967 18.1508C56.8636 17.9567 56.8246 17.7801 56.7946 17.5643C56.7694 17.5902 56.7441 17.6162 56.718 17.6429C56.3585 18.0062 55.9442 18.3702 55.4039 18.41C55.1993 18.3965 55.0612 18.3363 54.903 18.2099C54.7469 18.0238 54.6948 17.8372 54.67 17.6007C54.5544 17.6007 54.5121 17.6718 54.4301 17.7485C53.9887 18.1432 53.4634 18.4254 52.8518 18.4076C52.4295 18.3735 52.1768 18.2083 51.8993 17.9019C51.7949 17.7623 51.7627 17.665 51.7627 17.4916C51.7369 17.5141 51.7369 17.5141 51.7106 17.537C51.1748 17.9999 50.6366 18.4399 49.8792 18.4111C49.4878 18.3676 49.2067 18.2345 48.9556 17.9371C48.7048 17.5818 48.6909 17.142 48.7551 16.7257C48.8717 16.1343 49.2159 15.5901 49.7173 15.2341C50.0948 14.9985 50.4712 14.8883 50.9203 14.9596C51.1555 15.0208 51.2921 15.1509 51.4272 15.3455C51.5012 15.5621 51.5025 15.8055 51.4016 16.0139C51.3269 16.1387 51.2416 16.2325 51.1291 16.3276C51.107 16.347 51.085 16.3663 51.0622 16.3863C50.6984 16.6867 50.2387 16.8502 49.7872 16.9823C49.8224 17.2414 49.9143 17.4166 50.125 17.5802C50.3376 17.6906 50.5688 17.7137 50.8023 17.6511C51.0435 17.5564 51.2325 17.4018 51.4272 17.237C51.4524 17.2184 51.4776 17.1998 51.5035 17.1807C51.6856 17.0334 51.7249 16.88 51.7772 16.659C51.9003 16.1572 52.1688 15.7718 52.5454 15.4183C52.5712 15.3929 52.597 15.3675 52.6235 15.3413C52.965 15.0231 53.3639 14.9265 53.8235 14.9353C54.0599 14.9526 54.2099 15.027 54.3672 15.1978C54.4988 15.3828 54.546 15.5178 54.5209 15.7456C54.4097 15.9182 54.2788 15.9876 54.0946 16.0685C54.0702 16.0801 54.0458 16.0917 54.0206 16.1037C53.875 16.1692 53.7803 16.1973 53.6264 16.1458C53.6281 16.1002 53.6298 16.0546 53.6316 16.0076C53.633 15.9476 53.6344 15.8875 53.6357 15.8275C53.6376 15.7825 53.6376 15.7825 53.6395 15.7366C53.6434 15.555 53.6434 15.555 53.5581 15.3973C53.4781 15.3358 53.4781 15.3358 53.3678 15.3455C53.1882 15.4028 53.0928 15.4865 52.9946 15.6441C52.9726 15.6875 52.951 15.7313 52.9298 15.7752C52.9082 15.8182 52.8865 15.8612 52.8642 15.9055C52.7524 16.159 52.7183 16.3779 52.7178 16.6504C52.7165 16.6966 52.7165 16.6966 52.7151 16.7438C52.7138 17.0188 52.7981 17.2221 52.9508 17.4506C53.1161 17.612 53.2595 17.6451 53.4889 17.653C53.8786 17.6426 54.1193 17.4766 54.4091 17.237C54.4491 17.2107 54.4491 17.2107 54.4899 17.184C54.7336 17.0006 54.7616 16.7647 54.8196 16.4861C54.8815 16.1903 54.9561 15.9007 55.0451 15.6115C55.0566 15.5687 55.0682 15.526 55.08 15.4819C55.1186 15.3611 55.1538 15.2668 55.2291 15.1637C55.3746 15.0917 55.5156 15.0724 55.6764 15.0545C55.7306 15.0436 55.7846 15.0322 55.8385 15.02C55.8842 15.0112 55.9299 15.0023 55.9769 14.9932C56.0235 14.984 56.0701 14.9749 56.118 14.9655C56.2355 14.9454 56.2355 14.9454 56.3473 14.9454C56.2932 15.2159 56.208 15.4729 56.1185 15.7338C55.9921 16.1033 55.8724 16.4726 55.7836 16.8528C55.7761 16.8841 55.7687 16.9154 55.761 16.9477C55.7125 17.1673 55.6747 17.3841 55.7533 17.6007C55.8226 17.6835 55.8226 17.6835 55.942 17.7007C56.2709 17.6386 56.4815 17.3741 56.6726 17.1212C56.8487 16.8535 56.923 16.5322 57.0136 16.2299C57.0344 16.1628 57.0553 16.0957 57.0762 16.0286C57.1147 15.9053 57.1526 15.7818 57.1901 15.6582C57.2073 15.6024 57.2245 15.5467 57.2419 15.491C57.2513 15.4606 57.2607 15.4301 57.2703 15.3987C57.2798 15.3692 57.2893 15.3396 57.2991 15.3092C57.3117 15.2691 57.3117 15.2691 57.3246 15.2283C57.3537 15.1637 57.3537 15.1637 57.4389 15.1117C57.4731 15.1063 57.5072 15.101 57.5424 15.0955C57.5815 15.0886 57.6205 15.0817 57.6608 15.0746C57.7071 15.068 57.7533 15.0614 57.801 15.0545C57.8606 15.0446 57.9201 15.0345 57.9797 15.0243C58.1435 14.9964 58.3076 14.9706 58.4719 14.9454C58.4485 15.1457 58.3996 15.328 58.3371 15.5199C58.3227 15.565 58.3227 15.565 58.308 15.6111C58.2774 15.7067 58.2466 15.8024 58.2157 15.898C57.9254 16.6612 57.9254 16.6612 57.8756 17.4552C57.9416 17.5534 57.9416 17.5534 58.0246 17.6007C58.3083 17.5371 58.4643 17.4161 58.6723 17.2199C58.7527 17.1442 58.834 17.0771 58.9215 17.0096C59.1351 16.8306 59.2844 16.5898 59.441 16.364C59.4126 16.3557 59.3841 16.3475 59.3548 16.339C59.2307 16.2798 59.1993 16.2312 59.1429 16.1094C59.0779 15.8011 59.1745 15.5388 59.3288 15.2736C59.4494 15.0968 59.5687 15.013 59.7765 14.9454C60.0347 14.921 60.0347 14.921 60.1865 15.0136C60.2932 15.1763 60.2871 15.3029 60.2611 15.491C60.2302 15.6266 60.1925 15.7589 60.1492 15.8911C60.4789 15.8384 60.722 15.6265 60.932 15.3819C61.0036 15.2773 61.0708 15.1715 61.1354 15.0626C61.1929 14.9818 61.1929 14.9818 61.3047 14.9454C61.3567 14.943 61.4088 14.9423 61.4608 14.9432C61.5077 14.9439 61.5546 14.9447 61.6029 14.9454C61.5064 15.3362 61.359 15.7085 61.2158 16.0846C60.9189 16.7455 60.9189 16.7455 60.9273 17.4325C60.9662 17.4974 60.9662 17.4974 61.0438 17.5279C61.1585 17.5466 61.2368 17.5449 61.3392 17.4882C61.4967 17.3759 61.635 17.2482 61.769 17.1102C61.8265 17.0551 61.8265 17.0551 61.9384 16.9823C61.97 16.8674 61.97 16.8674 61.9896 16.7323C62.1004 16.1307 62.4212 15.6108 62.9258 15.2411C63.2619 15.0176 63.6161 14.8982 64.0257 14.9454C64.2544 14.992 64.4249 15.0693 64.5848 15.2364C64.7007 15.4399 64.7355 15.6425 64.6721 15.8698C64.5245 16.2808 64.1941 16.5049 63.802 16.6914C63.5452 16.7987 63.2826 16.8917 63.0193 16.9823C63.0193 17.1785 63.0847 17.3296 63.2215 17.4755C63.4095 17.6353 63.5776 17.6926 63.823 17.6839C64.2351 17.6363 64.5183 17.3575 64.8084 17.0915C64.8282 17.074 64.8481 17.0564 64.8685 17.0384C64.9543 16.9454 64.9751 16.8254 65.0088 16.7073C65.2118 16.0444 65.636 15.4412 66.2634 15.0908C66.5005 14.9735 66.7104 14.9346 66.9773 14.9295C67.0025 14.9287 67.0278 14.9279 67.0538 14.9271C67.2427 14.9279 67.3433 14.9823 67.4921 15.0909C67.5167 15.0909 67.5413 15.0909 67.5667 15.0909C67.573 15.0643 67.5794 15.0376 67.586 15.0102C67.646 14.7591 67.7064 14.5081 67.7669 14.2572C67.798 14.1281 67.8291 13.9991 67.8599 13.87C67.8897 13.7454 67.9197 13.6209 67.9498 13.4964C67.9669 13.4258 67.9837 13.3551 68.0005 13.2845C68.0109 13.2415 68.0214 13.1985 68.0321 13.1543C68.0412 13.1164 68.0503 13.0785 68.0597 13.0395C68.0885 12.9449 68.0885 12.9449 68.163 12.8358C68.2821 12.8025 68.2821 12.8025 68.4286 12.7767C68.4665 12.7699 68.4665 12.7699 68.5052 12.763C68.5774 12.7503 68.6497 12.7385 68.7221 12.7267C68.7545 12.7213 68.7868 12.716 68.8201 12.7105C68.9449 12.6924 69.0498 12.6829 69.1694 12.7267ZM66.5469 15.5844C66.1924 16.0974 65.941 16.7219 66.0012 17.3461C66.0476 17.4641 66.1062 17.5428 66.2248 17.6007C66.4249 17.6241 66.5489 17.5908 66.7104 17.4812C67.1553 17.1037 67.3735 16.4111 67.4279 15.859C67.435 15.6732 67.4162 15.5397 67.3057 15.3819C67.2194 15.2947 67.1728 15.2752 67.0495 15.2569C66.8313 15.2867 66.6836 15.4211 66.5469 15.5844ZM50.0854 15.4547C49.9179 15.6544 49.8172 15.861 49.7499 16.1094C49.7415 16.1386 49.733 16.1679 49.7243 16.198C49.7053 16.35 49.7099 16.5021 49.7127 16.655C50.0428 16.6011 50.3274 16.441 50.5327 16.1821C50.6484 15.9789 50.7098 15.756 50.6681 15.524C50.6444 15.444 50.6444 15.444 50.57 15.3455C50.3588 15.2717 50.2488 15.3122 50.0854 15.4547ZM63.1987 15.6115C62.9922 15.9356 62.8981 16.2722 62.9075 16.655C63.2052 16.6326 63.485 16.4597 63.6902 16.2549C63.8588 16.015 63.9281 15.7806 63.8766 15.491C63.8228 15.3728 63.8228 15.3728 63.7275 15.3092C63.4857 15.2533 63.3248 15.433 63.1987 15.6115Z" fill="black"/>
<path d="M8.52539 -0.113281C9.2634 -0.113281 10.0014 -0.113281 10.7618 -0.113281C10.7741 1.35111 10.7864 2.8155 10.7991 4.32427C10.9098 4.20424 11.0205 4.0842 11.1345 3.96054C11.754 3.48779 12.4244 3.35822 13.1939 3.43994C13.6326 3.50165 13.9964 3.65121 14.34 3.92416C14.3633 3.94231 14.3866 3.96045 14.4105 3.97915C14.9243 4.42745 15.0759 5.13851 15.1228 5.7792C15.1352 6.08441 15.1315 6.38998 15.1301 6.69536C15.1299 6.7826 15.1298 6.86984 15.1297 6.95708C15.1295 7.18479 15.1287 7.41248 15.1279 7.64018C15.127 7.91442 15.1267 8.18865 15.1262 8.46288C15.1255 8.87776 15.1241 9.29264 15.1228 9.70753C14.3848 9.70753 13.6468 9.70753 12.8864 9.70753C12.8846 9.47187 12.8827 9.23621 12.8809 8.99341C12.8795 8.84323 12.8782 8.69305 12.8768 8.54287C12.8745 8.30502 12.8724 8.06716 12.8707 7.82931C12.8693 7.63733 12.8675 7.44535 12.8656 7.25338C12.8649 7.1805 12.8643 7.10763 12.8639 7.03475C12.8854 6.17742 12.8854 6.17742 12.5369 5.42002C12.2871 5.22261 12.0325 5.1806 11.7162 5.20376C11.4642 5.24598 11.2436 5.36481 11.076 5.55443C10.8344 5.90321 10.7943 6.32035 10.7914 6.7303C10.791 6.76262 10.7907 6.79494 10.7903 6.82824C10.7891 6.93432 10.7882 7.04039 10.7873 7.14647C10.7865 7.22032 10.7857 7.29417 10.7849 7.36801C10.7829 7.56181 10.781 7.75561 10.7792 7.94941C10.777 8.18224 10.7746 8.41507 10.7721 8.6479C10.7685 9.00111 10.7652 9.35432 10.7618 9.70753C10.0238 9.70753 9.28577 9.70753 8.52539 9.70753C8.52539 6.46666 8.52539 3.22579 8.52539 -0.113281Z" fill="#1E186A"/>
<path d="M4.87017 0.537085C5.6719 0.520706 6.38931 0.71749 7.1456 0.97797C7.1456 1.91422 7.1456 2.85047 7.1456 3.81509C6.95923 3.63323 6.95923 3.63323 6.88047 3.55409C6.36945 3.06958 5.67586 2.84408 4.97086 2.85217C4.33544 2.87696 3.78846 3.12178 3.34371 3.56048C3.32315 3.57933 3.30258 3.59818 3.28139 3.6176C2.8146 4.08536 2.69092 4.75551 2.6944 5.37905C2.71043 6.02079 2.93318 6.57011 3.39365 7.03641C3.89866 7.48797 4.55645 7.66354 5.2285 7.64538C5.88902 7.61136 6.4805 7.33196 6.94599 6.8821C7.03378 6.79771 7.03378 6.79771 7.1456 6.72496C7.1456 7.66121 7.1456 8.59746 7.1456 9.56208C5.50272 10.0297 4.10372 10.1301 2.57112 9.32893C1.48026 8.73989 0.682564 7.82263 0.324562 6.65221C-0.0221544 5.42185 0.110047 4.08722 0.729911 2.9606C1.40627 1.8508 2.4486 1.03261 3.73572 0.699043C4.11171 0.609461 4.48344 0.552561 4.87017 0.537085Z" fill="#1E196A"/>
<path d="M20.9324 3.99465C20.99 4.04979 20.99 4.04979 21.0489 4.10604C21.0612 3.95 21.0735 3.79396 21.0861 3.63319C21.8241 3.63319 22.5622 3.63319 23.3225 3.63319C23.3225 5.63773 23.3225 7.64226 23.3225 9.70754C22.5845 9.70754 21.8465 9.70754 21.0861 9.70754C21.0738 9.52749 21.0615 9.34745 21.0489 9.16194C21.0012 9.21145 20.9535 9.26097 20.9044 9.31198C20.5119 9.69085 19.9644 9.91178 19.4088 9.92578C19.3782 9.92719 19.3475 9.9286 19.3159 9.93004C18.5521 9.94949 17.8293 9.71899 17.247 9.23469C17.2199 9.21392 17.1928 9.19315 17.1648 9.17174C16.5609 8.68854 16.2229 7.93525 16.0915 7.19778C16.0256 6.12219 16.1879 5.21624 16.9278 4.39021C17.9199 3.34896 19.7601 2.99974 20.9324 3.99465ZM18.6026 5.88365C18.3898 6.17189 18.3323 6.57605 18.3812 6.92171C18.4614 7.27718 18.6287 7.57851 18.9359 7.79112C19.3367 8.02798 19.7834 8.06563 20.2411 7.97284C20.6102 7.85261 20.8686 7.64343 21.0489 7.3069C21.2105 6.96041 21.2225 6.5414 21.1001 6.1816C20.9396 5.81256 20.6826 5.56122 20.3057 5.40184C19.6453 5.18853 19.0505 5.38159 18.6026 5.88365Z" fill="#1E196A"/>
<path d="M37.6855 3.41057C38.5933 3.38638 39.5118 3.63039 40.2076 4.21533C40.7756 4.74156 41.0692 5.43373 41.1767 6.17949C41.1767 6.46756 41.1767 6.75564 41.1767 7.05245C39.6515 7.05245 38.1262 7.05245 36.5548 7.05245C36.6826 7.6426 36.6826 7.6426 37.0114 8.08227C37.3774 8.30146 37.7978 8.38692 38.2218 8.30619C38.4225 8.25182 38.6396 8.18742 38.7582 8.00809C38.8383 7.88893 38.8983 7.8254 39.0438 7.79385C39.1749 7.7868 39.3037 7.78768 39.435 7.79142C39.5065 7.79196 39.5065 7.79196 39.5795 7.79251C39.7056 7.7937 39.8317 7.79598 39.9578 7.7988C40.0867 7.80142 40.2157 7.80257 40.3446 7.80386C40.5971 7.80666 40.8496 7.81092 41.1021 7.81629C41.0911 7.87404 41.0799 7.93174 41.0685 7.98943C41.0591 8.03764 41.0591 8.03764 41.0496 8.08683C41.0185 8.21865 40.9661 8.33037 40.8995 8.44827C40.8865 8.47137 40.8735 8.49447 40.8602 8.51827C40.4927 9.14409 39.8562 9.56934 39.1525 9.76839C38.8396 9.84811 38.5186 9.91439 38.1948 9.92594C38.1565 9.9274 38.1182 9.92885 38.0788 9.93035C36.986 9.95088 35.9628 9.6689 35.1562 8.93051C34.5067 8.27078 34.316 7.39387 34.3184 6.50685C34.3473 5.64927 34.658 4.88692 35.2875 4.28807C35.3119 4.26388 35.3364 4.23968 35.3616 4.21476C35.9783 3.64255 36.8637 3.45348 37.6855 3.41057ZM36.8902 5.23378C36.7351 5.41787 36.6703 5.53924 36.6293 5.77938C37.4411 5.77938 38.253 5.77938 39.0894 5.77938C39.0316 5.44129 38.8643 5.22995 38.5799 5.03159C38.0564 4.71583 37.3254 4.81381 36.8902 5.23378Z" fill="#1E196A"/>
<path d="M50.5159 3.4105C51.0283 3.39833 51.5392 3.46991 52.0233 3.63329C52.08 3.65228 52.08 3.65228 52.1379 3.67165C52.823 3.92509 53.3882 4.4395 53.6977 5.0875C53.8371 5.40415 53.9352 5.73125 53.9988 6.07031C54.0037 6.09638 54.0086 6.12245 54.0136 6.1493C54.0573 6.44653 54.036 6.75647 54.036 7.05239C52.5108 7.05239 50.9856 7.05239 49.4141 7.05239C49.5135 7.67737 49.5135 7.67737 49.9034 8.12313C50.257 8.32719 50.6789 8.3765 51.0801 8.3084C51.302 8.25279 51.4879 8.15716 51.6505 7.99809C51.6659 7.96724 51.6812 7.93639 51.697 7.9046C51.7624 7.81623 51.7624 7.81623 51.8593 7.79436C51.8981 7.79476 51.9369 7.79517 51.9769 7.79558C52.021 7.79559 52.065 7.79561 52.1103 7.79562C52.1579 7.79656 52.2054 7.7975 52.2543 7.79847C52.3273 7.79885 52.3273 7.79885 52.4018 7.79925C52.531 7.79994 52.6602 7.80173 52.7895 7.80374C52.9214 7.8056 53.0533 7.80643 53.1852 7.80735C53.444 7.8093 53.7028 7.8124 53.9615 7.81623C53.9389 7.89079 53.9161 7.96527 53.8932 8.03972C53.8805 8.08121 53.8679 8.1227 53.8548 8.16544C53.7324 8.52232 53.5228 8.78861 53.2533 9.05292C53.2289 9.07796 53.2046 9.103 53.1795 9.12879C52.8101 9.48154 52.2961 9.70002 51.7996 9.81676C51.7672 9.82445 51.7348 9.83214 51.7014 9.84006C50.6288 10.0701 49.4542 9.895 48.5151 9.34178C48.3381 9.2253 48.186 9.09061 48.035 8.9438C48.0062 8.91656 47.9775 8.88932 47.9478 8.86125C47.3675 8.27749 47.1617 7.47492 47.1661 6.67956C47.1663 6.63998 47.1665 6.60039 47.1666 6.55961C47.1792 5.70947 47.4696 4.92753 48.0826 4.31188C48.757 3.68897 49.6061 3.45388 50.5159 3.4105ZM49.7123 5.23372C49.5779 5.41219 49.4962 5.56082 49.4514 5.77932C50.2755 5.77932 51.0996 5.77932 51.9487 5.77932C51.8093 5.37106 51.6307 5.14501 51.2405 4.94273C50.7405 4.74372 50.092 4.85271 49.7123 5.23372Z" fill="#1E196A"/>
<path d="M76.0006 12.9816C76.2559 13.2155 76.3788 13.5315 76.4089 13.866C76.4197 14.3716 76.2555 14.8276 75.9004 15.2003C75.6551 15.4219 75.3785 15.5047 75.0494 15.5017C74.8735 15.4838 74.779 15.3977 74.6564 15.2822C74.565 15.1131 74.5574 14.9442 74.6098 14.7638C74.6229 14.7278 74.636 14.6918 74.6494 14.6547C74.6817 14.6735 74.714 14.6922 74.7473 14.7116C74.8931 14.7722 74.9475 14.776 75.0967 14.7275C75.3315 14.5825 75.4431 14.3685 75.5297 14.1144C75.5753 13.8652 75.5919 13.5518 75.4811 13.318C75.3691 13.1645 75.2866 13.1149 75.106 13.0588C74.9078 13.0514 74.7351 13.0896 74.5835 13.2203C74.2294 13.6401 74.2192 14.2425 74.1545 14.7585C74.1085 15.121 74.0562 15.4771 73.9616 15.8309C73.9544 15.8582 73.9471 15.8854 73.9396 15.9135C73.8113 16.3674 73.5757 16.7938 73.233 17.1281C73.2644 17.1314 73.2958 17.1348 73.3281 17.1382C73.6675 17.1792 73.9737 17.2589 74.2977 17.3668C74.3885 17.3965 74.4794 17.4261 74.5704 17.4556C74.6098 17.4687 74.6492 17.4817 74.6898 17.4952C75.0911 17.6171 75.5033 17.6098 75.8795 17.4191C76.0229 17.3298 76.1585 17.2342 76.2895 17.1281C76.3303 17.0965 76.3303 17.0965 76.372 17.0642C76.4643 16.9511 76.4768 16.8351 76.4991 16.6962C76.5627 16.3573 76.6655 16.0336 76.7763 15.7073C76.7845 15.6827 76.7927 15.6581 76.8012 15.6328C76.8247 15.5623 76.8488 15.4921 76.8732 15.4218C76.8873 15.3809 76.9013 15.34 76.9158 15.2978C76.9604 15.2003 76.9604 15.2003 77.0722 15.1276C77.1392 15.1096 77.2069 15.0943 77.2749 15.0807C77.3144 15.0727 77.3539 15.0647 77.3946 15.0565C77.4358 15.0485 77.477 15.0404 77.5195 15.0321C77.5607 15.0238 77.6019 15.0154 77.6444 15.0068C77.9507 14.9457 77.9507 14.9457 78.0786 14.9457C78.0556 15.1436 78.0074 15.322 77.9438 15.5109C77.9293 15.5547 77.9293 15.5547 77.9146 15.5994C77.8841 15.6923 77.8532 15.785 77.8223 15.8778C77.551 16.6141 77.551 16.6141 77.4822 17.3827C77.5441 17.5008 77.5441 17.5008 77.6546 17.5123C77.9866 17.4583 78.2726 17.1074 78.5069 16.8851C78.5504 16.8442 78.5944 16.8038 78.6388 16.7639C78.9871 16.4503 79.1226 16.2005 79.1968 15.7459C79.2144 15.6669 79.2324 15.5879 79.2511 15.5091C79.2594 15.4722 79.2676 15.4353 79.2761 15.3974C79.6734 13.6389 79.6734 13.6389 80.1659 13.0179C80.4182 12.8762 80.7231 12.8118 81.0046 12.7451C81.0473 12.7344 81.0473 12.7344 81.091 12.7234C81.2227 12.6945 81.3038 12.6835 81.4303 12.7342C81.6116 12.8875 81.6434 13.1188 81.6628 13.341C81.692 14.0125 81.3626 14.6092 80.9114 15.0912C80.8761 15.1296 80.8408 15.1679 80.8055 15.2063C80.4736 15.5648 80.4736 15.5648 80.315 15.7096C80.2904 15.7096 80.2658 15.7096 80.2404 15.7096C80.2365 15.7369 80.2325 15.7643 80.2284 15.7925C80.1942 16.0194 80.1547 16.2443 80.1071 16.4688C80.102 16.493 80.0969 16.5172 80.0917 16.5421C80.0708 16.6416 80.0499 16.7411 80.0281 16.8405C80.012 16.9143 79.9966 16.9882 79.9813 17.0622C79.972 17.1055 79.9627 17.1487 79.9531 17.1933C79.9414 17.3191 79.9567 17.3814 80.0168 17.4918C80.1446 17.6294 80.2761 17.7025 80.4664 17.7215C80.8323 17.6931 81.0932 17.5088 81.3587 17.2736C81.3842 17.2524 81.4098 17.2311 81.4361 17.2092C81.6328 17.0242 81.6607 16.8327 81.7046 16.5756C81.8077 16.0423 82.1661 15.5644 82.607 15.2414C82.9431 15.0179 83.2973 14.8985 83.7069 14.9457C83.9356 14.9923 84.1061 15.0695 84.266 15.2367C84.3819 15.4402 84.4167 15.6428 84.3533 15.8701C84.2057 16.2811 83.8753 16.5052 83.4832 16.6916C83.2264 16.799 82.9639 16.8919 82.7005 16.9826C82.7005 17.1787 82.7659 17.3299 82.9027 17.4758C83.0907 17.6356 83.2588 17.6929 83.5042 17.6842C83.8964 17.6388 84.1511 17.3905 84.4313 17.1423C84.5103 17.0738 84.5927 17.0097 84.676 16.9462C84.6831 17.0257 84.6881 17.1053 84.6923 17.1849C84.6953 17.2293 84.6983 17.2736 84.7015 17.3192C84.6482 17.6042 84.3465 17.7707 84.1192 17.9351C84.0944 17.9536 84.0697 17.972 84.0442 17.9911C83.6173 18.3025 83.1485 18.4537 82.6133 18.391C82.2419 18.3265 81.9876 18.1121 81.7687 17.8192C81.7069 17.6948 81.6941 17.6339 81.6941 17.4918C81.6521 17.5274 81.6102 17.5631 81.5683 17.5987C81.541 17.6219 81.5136 17.645 81.4855 17.6689C81.4252 17.7211 81.3659 17.7744 81.3075 17.8286C80.9819 18.1286 80.599 18.3682 80.1449 18.4148C79.9865 18.398 79.8653 18.3523 79.7186 18.2921C79.7166 18.3226 79.7166 18.3226 79.7145 18.3538C79.6858 18.7141 79.6247 19.0697 79.5672 19.4265C79.5566 19.493 79.546 19.5595 79.5354 19.626C79.5096 19.7876 79.4837 19.9492 79.4577 20.1107C79.3327 20.1343 79.2077 20.1578 79.0826 20.1812C79.0475 20.1878 79.0123 20.1945 78.9761 20.2013C78.7892 20.2363 78.6028 20.2683 78.414 20.2926C78.4326 19.8067 78.519 19.3305 78.5981 18.8513C78.6117 18.7679 78.6252 18.6846 78.6388 18.6012C78.6638 18.4475 78.6889 18.2938 78.7143 18.1401C78.7199 18.1055 78.7255 18.0709 78.7313 18.0353C78.7441 17.96 78.7579 17.8849 78.7723 17.8099C78.7833 17.752 78.7833 17.752 78.7944 17.6928C78.8013 17.658 78.8082 17.6232 78.8153 17.5873C78.8286 17.4423 78.7871 17.3608 78.7122 17.2372C78.5552 17.3639 78.4083 17.4955 78.2674 17.6391C77.5311 18.3879 77.5311 18.3879 77.0607 18.4042C76.8738 18.3931 76.7553 18.3575 76.6249 18.2193C76.4681 17.9963 76.4333 17.8317 76.4386 17.5646C76.4204 17.5792 76.4022 17.5938 76.3835 17.6088C75.6887 18.1524 75.0331 18.4487 74.1276 18.3648C73.894 18.3207 73.6751 18.2367 73.4567 18.1466C73.4319 18.1365 73.4071 18.1264 73.3815 18.116C73.2705 18.0706 73.1605 18.0241 73.0509 17.9755C72.9262 17.9248 72.8043 17.8895 72.6739 17.8556C72.659 17.8714 72.6441 17.8873 72.6287 17.9036C72.362 18.1762 72.094 18.368 71.7025 18.4148C71.5599 18.3971 71.4811 18.3419 71.3694 18.2557C71.2917 18.1042 71.3174 17.9358 71.3694 17.7806C71.5738 17.4876 71.8493 17.3464 72.1894 17.2372C72.2437 17.2298 72.298 17.2229 72.3525 17.2168C72.5413 17.1437 72.5805 17.034 72.6655 16.86C72.7839 16.5183 72.8031 16.1617 72.8306 15.8045C72.911 14.7827 73.125 13.8974 73.904 13.1634C74.4981 12.6815 75.3459 12.4854 76.0006 12.9816ZM80.9639 13.2107C80.6807 13.6234 80.5805 14.1415 80.4664 14.6184C80.4581 14.6529 80.4497 14.6874 80.4411 14.723C80.4338 14.7552 80.4264 14.7875 80.4188 14.8207C80.4122 14.8492 80.4056 14.8778 80.3989 14.9072C80.3831 14.9892 80.3831 14.9892 80.4268 15.0912C80.8864 14.6849 81.2894 14.1569 81.3307 13.5317C81.3296 13.3871 81.2862 13.288 81.2096 13.1634C81.0763 13.1497 81.0763 13.1497 80.9639 13.2107ZM82.8799 15.6118C82.6734 15.9359 82.5793 16.2725 82.5887 16.6553C82.8864 16.6329 83.1662 16.46 83.3714 16.2552C83.54 16.0153 83.6093 15.7809 83.5578 15.4913C83.504 15.3731 83.504 15.3731 83.4087 15.3094C83.1669 15.2536 83.006 15.4332 82.8799 15.6118Z" fill="black"/>
<path d="M67.2305 -0.113281C67.9439 -0.113281 68.6573 -0.113281 69.3923 -0.113281C69.3923 2.52742 69.3923 5.16813 69.3923 7.88886C70.2287 7.88886 71.0652 7.88886 71.9269 7.88886C71.9269 8.50102 71.9269 9.11318 71.9269 9.7439C70.3771 9.7439 68.8273 9.7439 67.2305 9.7439C67.2305 6.49103 67.2305 3.23816 67.2305 -0.113281Z" fill="#1E186A"/>
<path d="M84.9479 4.38157C85.6339 4.95413 85.9078 5.69458 86.0165 6.54295C86.0165 6.759 86.0165 6.97506 86.0165 7.19767C84.5896 7.19767 83.1628 7.19767 81.6928 7.19767C81.8042 7.74149 81.8947 8.12038 82.3637 8.43436C82.6938 8.61369 83.0297 8.65813 83.3934 8.55939C83.7126 8.45208 84.0174 8.27763 84.2032 7.99351C84.2646 7.92513 84.2646 7.92513 84.3417 7.90764C84.3861 7.90812 84.3861 7.90812 84.4313 7.90862C84.4649 7.90863 84.4984 7.90864 84.533 7.90865C84.5691 7.9094 84.6052 7.91015 84.6425 7.91093C84.6981 7.91123 84.6981 7.91123 84.7548 7.91155C84.8733 7.91236 84.9918 7.91419 85.1103 7.91604C85.1906 7.91677 85.2709 7.91743 85.3512 7.91803C85.5481 7.91963 85.745 7.92207 85.9419 7.92513C85.9309 7.9767 85.9197 8.02823 85.9084 8.07974C85.9021 8.10844 85.8959 8.13714 85.8895 8.1667C85.7543 8.69138 85.379 9.14184 84.9213 9.43264C84.0812 9.91962 83.0885 10.0451 82.1364 9.83573C81.3734 9.64468 80.692 9.25063 80.2709 8.585C79.7767 7.76624 79.7082 6.76403 79.9409 5.85185C80.1516 5.1745 80.5536 4.55991 81.1983 4.21036C82.3301 3.62333 83.9051 3.56307 84.9479 4.38157ZM82.1144 5.49039C81.8983 5.71458 81.7812 5.9888 81.73 6.28833C82.5787 6.28833 83.4275 6.28833 84.3019 6.28833C84.1516 5.81179 84.018 5.52588 83.5937 5.26988C83.089 5.0102 82.5304 5.12618 82.1144 5.49039Z" fill="#1E196A"/>
<path d="M30.6654 1.81494C31.4034 1.81494 32.1414 1.81494 32.9018 1.81494C32.9018 2.4151 32.9018 3.01526 32.9018 3.63361C33.3077 3.63361 33.7136 3.63361 34.1318 3.63361C34.1318 4.23377 34.1318 4.83393 34.1318 5.45228C33.7259 5.45228 33.32 5.45228 32.9018 5.45228C32.9018 6.85665 32.9018 8.26103 32.9018 9.70796C32.1638 9.70796 31.4258 9.70796 30.6654 9.70796C30.6654 8.30358 30.6654 6.89921 30.6654 5.45228C30.4194 5.45228 30.1734 5.45228 29.9199 5.45228C29.9199 4.85212 29.9199 4.25196 29.9199 3.63361C30.1659 3.63361 30.4119 3.63361 30.6654 3.63361C30.6654 3.03345 30.6654 2.43329 30.6654 1.81494Z" fill="#1E186A"/>
<path d="M78.6273 1.41009C78.6697 1.40995 78.712 1.40981 78.7556 1.40967C78.8164 1.40974 78.8164 1.40974 78.8784 1.40981C78.9152 1.40985 78.9519 1.40989 78.9899 1.40993C79.0839 1.41464 79.0839 1.41464 79.1958 1.45101C79.1958 1.94315 79.1958 2.43528 79.1958 2.94232C79.0236 2.94232 78.8514 2.94232 78.6739 2.94232C78.4421 3.04366 78.4421 3.04366 78.3385 3.23331C78.2468 3.56475 78.2434 3.91097 78.2267 4.25176C78.5465 4.25176 78.8663 4.25176 79.1958 4.25176C79.1958 4.79191 79.1958 5.33205 79.1958 5.88856C78.876 5.88856 78.5562 5.88856 78.2267 5.88856C78.2267 7.1609 78.2267 8.43324 78.2267 9.74414C77.5624 9.74414 76.8982 9.74414 76.2139 9.74414C76.2139 8.4718 76.2139 7.19946 76.2139 5.88856C75.9925 5.88856 75.7711 5.88856 75.543 5.88856C75.543 5.34842 75.543 4.80827 75.543 4.25176C75.7644 4.25176 75.9858 4.25176 76.2139 4.25176C76.213 4.20295 76.2122 4.15414 76.2113 4.10385C76.201 3.28409 76.276 2.55368 76.8756 1.92756C77.3641 1.48158 77.9854 1.40793 78.6273 1.41009Z" fill="#1E196A"/>
<path d="M29.4367 3.56055C29.4367 4.24473 29.4367 4.92891 29.4367 5.63383C29.3137 5.59782 29.1907 5.56181 29.064 5.52471C28.5766 5.42959 28.0045 5.42703 27.579 5.70231C27.2288 5.98235 27.0863 6.35744 27.0407 6.78732C27.0137 7.11316 27.0059 7.43799 27.0021 7.76465C27.0014 7.82106 27.0006 7.87747 26.9998 7.93388C26.9977 8.08068 26.9959 8.22747 26.9941 8.37427C26.9919 8.5513 26.9894 8.72832 26.987 8.90535C26.9834 9.17278 26.98 9.44021 26.9766 9.70764C26.2386 9.70764 25.5006 9.70764 24.7402 9.70764C24.7402 7.70311 24.7402 5.69857 24.7402 3.63329C25.4782 3.63329 26.2163 3.63329 26.9766 3.63329C26.9889 3.93337 27.0012 4.23345 27.0139 4.54263C27.0877 4.4466 27.1615 4.35058 27.2376 4.25164C27.8532 3.58586 28.523 3.56055 29.4367 3.56055Z" fill="#1E186A"/>
<path d="M46.8429 3.5608C46.8429 4.24498 46.8429 4.92917 46.8429 5.63408C46.7199 5.59807 46.5969 5.56206 46.4702 5.52496C46.0181 5.43673 45.5139 5.43809 45.0911 5.63408C45.0285 5.68202 44.9663 5.73043 44.9047 5.77958C44.8801 5.77958 44.8555 5.77958 44.8302 5.77958C44.8202 5.79931 44.8102 5.81905 44.7999 5.83939C44.768 5.90106 44.7353 5.9623 44.702 6.02325C44.4175 6.55437 44.4149 7.08068 44.4084 7.669C44.4076 7.72801 44.4068 7.78702 44.406 7.84604C44.404 8.00019 44.4021 8.15434 44.4003 8.30849C44.3981 8.49408 44.3957 8.67966 44.3932 8.86524C44.3896 9.14612 44.3863 9.42701 44.3829 9.7079C43.6449 9.7079 42.9069 9.7079 42.1465 9.7079C42.1465 7.70336 42.1465 5.69883 42.1465 3.63355C42.8845 3.63355 43.6225 3.63355 44.3829 3.63355C44.3952 3.93363 44.4075 4.23371 44.4202 4.54288C44.4617 4.48286 44.5032 4.42285 44.546 4.36101C44.7989 4.0235 45.1005 3.81387 45.5011 3.66992C45.5321 3.65829 45.5631 3.64666 45.595 3.63468C46.0109 3.50632 46.3901 3.5608 46.8429 3.5608Z" fill="#1E186A"/>
<path d="M72.748 3.92432C73.4123 3.92432 74.0765 3.92432 74.7608 3.92432C74.7608 5.84483 74.7608 7.76534 74.7608 9.74405C74.0966 9.74405 73.4324 9.74405 72.748 9.74405C72.748 7.82354 72.748 5.90303 72.748 3.92432Z" fill="#1D1869"/>
<path d="M48.5198 13.1267C48.5511 13.155 48.5511 13.155 48.5831 13.184C48.6676 13.27 48.705 13.3276 48.7132 13.4472C48.6041 13.733 48.3935 13.9599 48.1843 14.1815C48.1228 14.1695 48.0613 14.1575 47.998 14.1452C47.9898 14.1065 47.9816 14.0679 47.9732 14.0281C47.8952 13.6808 47.818 13.3986 47.5064 13.1835C47.3213 13.0832 47.1621 13.0667 46.9543 13.0903C46.7584 13.1521 46.6143 13.2432 46.507 13.4177C46.4023 13.6245 46.3764 13.7927 46.4361 14.017C46.5983 14.4597 46.9726 14.7859 47.3097 15.1071C47.9208 15.69 47.9208 15.69 48.0725 16.0002C48.0962 16.048 48.0962 16.048 48.1204 16.0967C48.2679 16.4366 48.2732 16.8015 48.1481 17.1498C47.9161 17.6775 47.512 18.0128 46.9916 18.2553C46.4401 18.4662 45.8403 18.4509 45.286 18.2555C45.0022 18.13 44.7421 17.927 44.5688 17.6734C44.5406 17.4468 44.6094 17.3132 44.7249 17.1255C44.7393 17.1007 44.7538 17.0759 44.7686 17.0504C44.8626 16.8927 44.9673 16.7556 45.0906 16.6185C45.1978 16.6413 45.1978 16.6413 45.3143 16.6913C45.3753 16.8303 45.4018 16.9701 45.4256 17.1191C45.4943 17.5488 45.4943 17.5488 45.7662 17.8788C46.0044 18.0137 46.2366 18.0389 46.507 18.0007C46.7879 17.9246 47.0314 17.7574 47.1919 17.5188C47.2897 17.3301 47.3144 17.134 47.2703 16.9273C47.1558 16.601 46.9011 16.383 46.6555 16.1474C45.6155 15.1486 45.6155 15.1486 45.5689 14.4515C45.5651 13.9334 45.716 13.5512 46.0852 13.1725C46.7406 12.5491 47.8391 12.5058 48.5198 13.1267Z" fill="black"/>
<path d="M74.2956 1.13959C74.5597 1.28839 74.7609 1.51551 74.8548 1.8017C74.9161 2.12441 74.9099 2.4449 74.722 2.72411C74.5243 2.98523 74.3114 3.17009 73.9765 3.23333C73.5828 3.26392 73.3009 3.22403 72.9957 2.9719C72.7915 2.78214 72.6486 2.56895 72.6258 2.28748C72.6179 1.92006 72.6666 1.60233 72.9355 1.32757C73.3296 1.00757 73.827 0.935269 74.2956 1.13959Z" fill="#1E196A"/>
<path d="M77.4079 13.3813C77.5943 13.4541 77.5943 13.4541 77.6781 13.495C77.9323 13.5739 78.1443 13.5337 78.377 13.4177C78.3942 13.716 78.3607 13.9556 78.2 14.2134C78.0318 14.3683 77.8777 14.4064 77.6525 14.4134C77.46 14.4078 77.3193 14.3748 77.147 14.2907C77.0829 14.214 77.0829 14.214 77.0352 14.1452C77.0558 14.1053 77.0765 14.0654 77.0978 14.0243C77.125 13.9714 77.1523 13.9185 77.1796 13.8656C77.1932 13.8393 77.2068 13.8131 77.2208 13.7861C77.2893 13.653 77.3543 13.521 77.4079 13.3813Z" fill="black"/>
</g>
<defs>
<clipPath id="clip0_612_170">
<rect width="86" height="21" fill="white"/>
</clipPath>
</defs>
</svg>
