<svg width="86" height="86" viewBox="0 0 86 86" fill="none" xmlns="http://www.w3.org/2000/svg">
<path d="M20.6055 12.5416V42.9999C20.6002 43.5513 20.4255 44.0877 20.105 44.5365C19.7845 44.9852 19.3337 45.3244 18.8138 45.5082C18.5287 45.6223 18.225 45.683 17.918 45.6874H7.16798C6.45809 45.6781 5.7799 45.392 5.27789 44.89C4.77588 44.388 4.48976 43.7098 4.48048 42.9999V12.5416C4.47752 10.4852 5.26391 8.50614 6.67742 7.01262C8.09093 5.51911 10.0237 4.62505 12.0771 4.51489H12.543C14.6751 4.51487 16.7204 5.35939 18.2314 6.86366C19.7424 8.36793 20.596 10.4095 20.6055 12.5416Z" fill="#027748"/>
<path d="M74.3545 25.0832V74.4615C74.3541 75.5464 74.0722 76.6127 73.5364 77.5561C73.0007 78.4994 72.2293 79.2877 71.2977 79.8437C70.3661 80.3998 69.3062 80.7046 68.2216 80.7285C67.1369 80.7523 66.0646 80.4944 65.1095 79.9798L63.9628 79.3348C62.559 78.3199 60.8565 77.8029 59.1253 77.8657C57.3672 77.8082 55.64 78.3377 54.2162 79.3707C51.9394 80.8338 49.29 81.6116 46.5837 81.6116C43.8773 81.6116 41.228 80.8338 38.9512 79.3707C37.5147 78.3672 35.7936 77.8521 34.042 77.9015C32.3012 77.8496 30.5907 78.3652 29.1687 79.3707L28.0578 80.0157C27.1027 80.5302 26.0304 80.7882 24.9458 80.7643C23.8611 80.7405 22.8012 80.4356 21.8696 79.8796C20.9381 79.3235 20.1667 78.5353 19.6309 77.5919C19.0951 76.6485 18.8132 75.5823 18.8128 74.4973V11.6457C18.8161 9.81716 18.1204 8.05654 16.868 6.72424C15.6156 5.39193 13.9014 4.58871 12.0762 4.479H53.7503C59.212 4.48848 64.4472 6.66231 68.3092 10.5243C72.1712 14.3863 74.345 19.6215 74.3545 25.0832Z" fill="#29AA6B"/>
<path d="M59.1263 27.7708H34.043C33.3302 27.7708 32.6466 27.4876 32.1426 26.9836C31.6386 26.4796 31.3555 25.796 31.3555 25.0833C31.3555 24.3705 31.6386 23.6869 32.1426 23.1829C32.6466 22.6789 33.3302 22.3958 34.043 22.3958H59.1263C59.8391 22.3958 60.5227 22.6789 61.0267 23.1829C61.5307 23.6869 61.8138 24.3705 61.8138 25.0833C61.8138 25.796 61.5307 26.4796 61.0267 26.9836C60.5227 27.4876 59.8391 27.7708 59.1263 27.7708Z" fill="white"/>
<path d="M48.3763 56.4375H34.043C33.3302 56.4375 32.6466 56.1544 32.1426 55.6503C31.6386 55.1463 31.3555 54.4628 31.3555 53.75C31.3555 53.0372 31.6386 52.3537 32.1426 51.8497C32.6466 51.3456 33.3302 51.0625 34.043 51.0625H48.3763C49.0891 51.0625 49.7726 51.3456 50.2766 51.8497C50.7807 52.3537 51.0638 53.0372 51.0638 53.75C51.0638 54.4628 50.7807 55.1463 50.2766 55.6503C49.7726 56.1544 49.0891 56.4375 48.3763 56.4375Z" fill="white"/>
<path d="M59.1263 42.104H34.043C33.3302 42.104 32.6466 41.8209 32.1426 41.3169C31.6386 40.8128 31.3555 40.1293 31.3555 39.4165C31.3555 38.7037 31.6386 38.0202 32.1426 37.5162C32.6466 37.0122 33.3302 36.729 34.043 36.729H59.1263C59.8391 36.729 60.5227 37.0122 61.0267 37.5162C61.5307 38.0202 61.8138 38.7037 61.8138 39.4165C61.8138 40.1293 61.5307 40.8128 61.0267 41.3169C60.5227 41.8209 59.8391 42.104 59.1263 42.104Z" fill="white"/>
</svg>
