<svg width="52" height="52" viewBox="0 0 52 52" fill="none" xmlns="http://www.w3.org/2000/svg">
<g clip-path="url(#clip0_274_12632)">
<path d="M24.3745 4.46865C24.7308 4.75654 25.0615 5.06389 25.3901 5.38271C25.4836 5.46499 25.4836 5.46499 25.5789 5.54894C26.2227 6.1351 26.7286 6.94258 27.1167 7.71865C27.1586 7.64978 27.2005 7.58092 27.2436 7.50997C28.5682 5.3753 30.3009 3.78274 32.7851 3.15151C34.9285 2.67634 37.153 2.93675 39.0566 4.07509C41.2859 5.57754 42.7 7.93623 43.2758 10.537C43.5685 12.0636 43.434 13.6604 42.9604 15.1327C42.9286 15.2333 42.9286 15.2333 42.8961 15.3359C41.5323 19.5275 38.0739 23.4073 34.7339 26.203C34.6917 26.2514 34.6495 26.2998 34.6061 26.3496C34.2373 26.7347 33.9508 26.8565 33.4178 26.8905C33.1738 26.8944 32.9296 26.8949 32.6855 26.8929C32.5519 26.8941 32.4182 26.8953 32.2804 26.8966C31.9153 26.8998 31.5503 26.8991 31.1851 26.8976C30.8797 26.8967 30.5743 26.8977 30.2689 26.8986C29.5483 26.901 28.8277 26.9002 28.107 26.8974C27.3646 26.8946 26.6224 26.8966 25.8801 26.901C25.2415 26.9046 24.603 26.9055 23.9644 26.9041C23.5835 26.9033 23.2027 26.9034 22.8219 26.9062C22.3971 26.9091 21.9726 26.9062 21.5478 26.9028C21.4223 26.9044 21.2968 26.906 21.1675 26.9076C20.5934 26.8984 20.2138 26.8895 19.7948 26.4716C19.6956 26.3488 19.5972 26.2254 19.4995 26.1015C19.3768 25.9904 19.252 25.8817 19.1246 25.7761C18.6046 25.3269 18.12 24.8425 17.6345 24.3568C17.4757 24.1983 17.3162 24.0406 17.1566 23.883C16.5036 23.2335 15.9087 22.5579 15.3354 21.8358C15.2466 21.7303 15.1572 21.6251 15.0668 21.5208C14.5673 20.9394 14.1054 20.339 13.6596 19.7157C13.6072 19.6432 13.5547 19.5708 13.5006 19.4961C13.4515 19.4264 13.4024 19.3567 13.3518 19.2849C13.3082 19.2235 13.2647 19.1621 13.2199 19.0989C13.0708 18.8374 12.9902 18.5669 12.8979 18.2811C13.0283 18.2809 13.0283 18.2809 13.1612 18.2807C13.9802 18.2789 14.7991 18.2747 15.618 18.2677C16.039 18.2643 16.46 18.2617 16.881 18.2613C17.2874 18.2609 17.6936 18.258 18.0999 18.2534C18.2549 18.2521 18.41 18.2516 18.565 18.2521C18.7822 18.2526 18.9991 18.2499 19.2163 18.2466C19.4017 18.2455 19.4017 18.2455 19.5908 18.2445C19.9236 18.2064 19.9236 18.2064 20.1438 17.9373C20.3061 17.681 20.4349 17.4354 20.5516 17.1556C20.6115 17.0137 20.6115 17.0137 20.6726 16.869C20.7128 16.7715 20.753 16.6741 20.7944 16.5736C20.8362 16.4742 20.8779 16.3748 20.921 16.2723C21.0234 16.0282 21.1251 15.7837 21.226 15.539C21.4993 15.8123 21.5385 16.1084 21.6245 16.4734C21.6429 16.5487 21.6613 16.624 21.6802 16.7016C21.72 16.8654 21.7595 17.0293 21.7987 17.1932C21.8608 17.453 21.9239 17.7125 21.9871 17.9719C22.1442 18.6168 22.2997 19.262 22.4552 19.9072C22.5866 20.4517 22.7185 20.9961 22.8512 21.5403C22.9132 21.7955 22.9743 22.0509 23.0353 22.3062C23.0736 22.4637 23.112 22.6211 23.1504 22.7786C23.167 22.8492 23.1836 22.9198 23.2007 22.9925C23.3715 23.6881 23.3715 23.6881 23.7651 24.2733C24.1116 24.3118 24.3021 24.3269 24.5874 24.1158C24.8354 23.7968 24.8882 23.4958 24.9474 23.1066C24.9604 23.0298 24.9734 22.9531 24.9868 22.874C25.0297 22.6192 25.0702 22.364 25.1108 22.1088C25.1404 21.9303 25.1702 21.7518 25.2001 21.5734C25.2642 21.19 25.3274 20.8065 25.39 20.4228C25.4964 19.7726 25.607 19.123 25.7182 18.4736C25.7463 18.3092 25.7463 18.3092 25.775 18.1416C25.8124 17.9234 25.8498 17.7052 25.8871 17.487C25.9757 16.9689 26.0636 16.4507 26.1514 15.9325C26.1669 15.841 26.1825 15.7495 26.1984 15.6552C26.2337 15.4472 26.2689 15.2392 26.3042 15.0311C26.3712 15.0311 26.4382 15.0311 26.5073 15.0311C26.539 15.1285 26.5707 15.2259 26.6034 15.3263C26.7215 15.6875 26.8416 16.0481 26.9623 16.4085C27.0142 16.5646 27.0657 16.7209 27.1165 16.8773C27.1897 17.1021 27.2649 17.3263 27.3404 17.5504C27.3628 17.6204 27.3851 17.6905 27.4081 17.7626C27.5293 18.1311 27.5293 18.1311 27.7931 18.4011C28.1131 18.5131 28.3916 18.5109 28.7307 18.5122C28.8351 18.5129 28.8351 18.5129 28.9416 18.5137C29.171 18.5152 29.4005 18.5151 29.6299 18.5148C29.7898 18.5152 29.9497 18.5157 30.1096 18.5161C30.4445 18.5169 30.7794 18.5169 31.1143 18.5163C31.5431 18.5157 31.9717 18.5175 32.4004 18.5198C32.7306 18.5213 33.0607 18.5214 33.3908 18.5211C33.5489 18.5211 33.7069 18.5217 33.865 18.5227C34.0862 18.524 34.3073 18.5233 34.5285 18.5221C34.7171 18.5222 34.7171 18.5222 34.9096 18.5223C35.2728 18.4807 35.4641 18.4056 35.7495 18.1796C35.8852 17.8387 35.8852 17.8387 35.851 17.4686C35.5963 17.1428 35.4412 16.9812 35.0315 16.8959C34.9154 16.8952 34.7992 16.8946 34.6796 16.8939C34.4814 16.8909 34.4814 16.8909 34.2792 16.8878C34.136 16.8882 33.9928 16.8886 33.8495 16.889C33.7023 16.8877 33.555 16.8861 33.4077 16.8844C33.0212 16.8803 32.6347 16.8793 32.2481 16.8789C31.8532 16.8779 31.4584 16.8741 31.0635 16.8706C30.2896 16.864 29.5156 16.8606 28.7417 16.8593C28.7182 16.7849 28.6947 16.7105 28.6705 16.6338C28.4488 15.9327 28.2262 15.2318 28.0027 14.5312C27.8877 14.171 27.7732 13.8108 27.6594 13.4502C27.5496 13.1022 27.4389 12.7546 27.3275 12.4071C27.2852 12.2745 27.2432 12.1418 27.2016 12.009C27.1432 11.823 27.0835 11.6374 27.0237 11.4517C26.9901 11.346 26.9565 11.2402 26.9219 11.1312C26.8125 10.8682 26.7349 10.7307 26.5073 10.5624C26.1561 10.4947 26.1561 10.4947 25.7964 10.5624C25.409 10.9392 25.3046 11.3117 25.226 11.83C25.2134 11.9047 25.2008 11.9794 25.1878 12.0564C25.1467 12.302 25.1077 12.548 25.0688 12.794C25.0404 12.9654 25.0118 13.1367 24.9832 13.3081C24.9081 13.7583 24.8348 14.2089 24.762 14.6595C24.6452 15.3812 24.526 16.1025 24.4062 16.8237C24.3647 17.0754 24.3241 17.3272 24.2837 17.5791C24.2584 17.7335 24.233 17.8879 24.2076 18.0423C24.1966 18.1123 24.1857 18.1822 24.1743 18.2542C24.1167 18.6002 24.0467 18.8922 23.8667 19.1952C23.6045 18.4545 23.4166 17.7083 23.239 16.9434C23.1776 16.6848 23.1161 16.4263 23.0546 16.1678C22.9585 15.7633 22.863 15.3586 22.7692 14.9535C22.6781 14.5605 22.5841 14.1682 22.49 13.7759C22.4487 13.5942 22.4487 13.5942 22.4066 13.4088C22.2099 12.5756 22.2099 12.5756 21.6323 11.9843C21.2722 11.8928 21.2722 11.8928 20.9214 12.0858C20.3509 12.9654 20.006 14.0284 19.6201 14.9994C19.5312 15.2221 19.4423 15.4447 19.353 15.6672C19.298 15.8043 19.2433 15.9415 19.1888 16.0788C19.003 16.5432 19.003 16.5432 18.8901 16.6561C18.6751 16.6657 18.4598 16.6681 18.2446 16.6677C18.1772 16.6677 18.1099 16.6677 18.0404 16.6677C17.8168 16.6677 17.5931 16.6669 17.3694 16.6661C17.2148 16.6659 17.0601 16.6657 16.9054 16.6656C16.4975 16.6652 16.0896 16.6642 15.6817 16.6631C15.2657 16.6621 14.8498 16.6616 14.4339 16.6611C13.6172 16.66 12.8005 16.6583 11.9839 16.6561C11.9018 16.4773 11.8199 16.2985 11.7382 16.1195C11.6925 16.0199 11.6469 15.9203 11.6 15.8177C10.6057 13.5813 10.6384 11.1053 11.4833 8.83494C11.9816 7.58055 12.605 6.48909 13.5073 5.48427C13.5696 5.4124 13.6319 5.34052 13.6961 5.26647C16.4351 2.29923 21.178 2.27929 24.3745 4.46865Z" fill="#8C34C7"/>
<mask id="path-2-inside-1_274_12632" fill="white">
<path d="M51.324 23.2106C51.7542 23.5912 51.9838 24.0231 52.0206 24.5928C52.0222 24.7158 52.0238 24.8387 52.0254 24.9653C52.028 25.0875 52.0306 25.2096 52.0333 25.3355C51.91 26.6673 50.3328 27.7844 49.4301 28.6878C49.2961 28.8224 49.162 28.9569 49.028 29.0915C48.6667 29.4541 48.3051 29.8164 47.9433 30.1786C47.717 30.4052 47.4908 30.6318 47.2646 30.8585C46.5557 31.5688 45.8465 32.2789 45.1371 32.9887C44.32 33.8063 43.5035 34.6246 42.6876 35.4435C42.0552 36.0781 41.4222 36.7121 40.7887 37.3457C40.411 37.7235 40.0336 38.1015 39.6568 38.4801C39.3028 38.8358 38.9481 39.1907 38.5929 39.545C38.4629 39.675 38.3331 39.8051 38.2036 39.9356C38.0265 40.114 37.8485 40.2915 37.6702 40.4687C37.5942 40.5459 37.5942 40.5459 37.5167 40.6247C36.9164 41.2168 36.4056 41.4935 35.5562 41.5205C35.4393 41.5264 35.4393 41.5264 35.3201 41.5324C35.0606 41.5449 34.8009 41.5546 34.5412 41.5642C34.3543 41.5724 34.1673 41.5807 33.9803 41.5891C32.2603 41.663 30.5387 41.7025 28.8175 41.734C27.664 41.7555 26.5125 41.7865 25.3602 41.8429C16.947 42.2468 16.947 42.2468 14.4175 39.9532C13.3558 38.9473 12.4445 37.7911 11.6375 36.5743C11.4772 36.3354 11.4772 36.3354 11.1719 36.1563C10.8047 36.1094 10.6299 36.1101 10.3213 36.3213C10.1069 36.6347 10.1151 36.7972 10.1562 37.1719C10.3186 37.4303 10.3186 37.4303 10.5533 37.6583C10.6371 37.7459 10.721 37.8335 10.8073 37.9238C10.8941 38.0108 10.9809 38.0978 11.0703 38.1875C11.1482 38.2665 11.2262 38.3455 11.3065 38.4269C11.5456 38.6663 11.7873 38.9028 12.0296 39.1389C12.2077 39.3142 12.3857 39.4895 12.5636 39.6649C12.8408 39.9377 13.1183 40.21 13.3968 40.4813C13.668 40.7457 13.9375 41.0117 14.2068 41.278C14.2911 41.3594 14.3754 41.4407 14.4623 41.5246C14.5387 41.6006 14.615 41.6766 14.6937 41.7548C14.7615 41.8212 14.8294 41.8876 14.8992 41.9561C15.0312 42.1485 15.0312 42.1485 15.0161 42.3598C14.8803 42.666 14.6552 42.8573 14.4155 43.0879C14.2755 43.2238 14.2755 43.2238 14.1327 43.3624C14.0605 43.431 13.9884 43.4996 13.9141 43.5703C13.5185 43.41 13.2557 43.1396 12.9635 42.8392C12.9119 42.787 12.8603 42.7349 12.8071 42.6812C12.6424 42.5147 12.4784 42.3475 12.3145 42.1802C12.1519 42.0148 11.9892 41.8496 11.8261 41.6846C11.725 41.5823 11.6241 41.4796 11.5236 41.3767C11.2582 41.1075 10.9854 40.8539 10.6983 40.608C10.143 40.127 9.62985 39.6034 9.11206 39.0829C9.00395 38.9746 8.89581 38.8663 8.78765 38.7581C8.50559 38.4756 8.22384 38.1929 7.94216 37.9101C7.65364 37.6205 7.36483 37.3313 7.07605 37.042C6.51135 36.4762 5.94698 35.9101 5.38281 35.3438C5.54727 34.9322 5.83945 34.6547 6.14778 34.3478C6.23378 34.261 6.23378 34.261 6.32152 34.1725C6.51101 33.9816 6.70125 33.7914 6.89157 33.6013C7.02395 33.4686 7.1563 33.3358 7.28863 33.203C7.56619 32.9246 7.84414 32.6467 8.12235 32.369C8.47791 32.0141 8.83232 31.6579 9.18641 31.3015C9.45955 31.0268 9.73341 30.7529 10.0075 30.4792C10.1384 30.3482 10.269 30.217 10.3994 30.0856C10.5824 29.9013 10.7664 29.7181 10.9506 29.5351C11.0037 29.4811 11.0569 29.4272 11.1117 29.3716C11.8366 28.6568 12.501 28.4223 13.5116 28.4226C13.5946 28.4222 13.6775 28.4218 13.7629 28.4214C14.0412 28.4203 14.3194 28.4199 14.5977 28.4195C14.797 28.4189 14.9964 28.4182 15.1958 28.4175C15.8509 28.4154 16.5061 28.4143 17.1613 28.4133C17.387 28.4129 17.6127 28.4125 17.8384 28.4121C18.8991 28.4101 19.9597 28.4087 21.0203 28.4078C22.2437 28.4068 23.467 28.4042 24.6904 28.4001C25.6365 28.397 26.5826 28.3955 27.5287 28.3952C28.0935 28.3949 28.6583 28.394 29.2231 28.3915C29.7548 28.3891 30.2866 28.3887 30.8184 28.3897C31.0129 28.3898 31.2075 28.3891 31.4021 28.3877C33.6996 28.3721 33.6996 28.3721 34.6265 29.1548C35.101 29.6852 35.3041 30.3437 35.3882 31.0401C35.2721 31.9357 34.9507 32.6776 34.2329 33.2427C33.5256 33.6324 32.9128 33.6466 32.1217 33.6447C31.9427 33.6455 31.9427 33.6455 31.7602 33.6464C31.5016 33.6474 31.2431 33.648 30.9846 33.6482C30.5757 33.6485 30.1669 33.6502 29.758 33.6523C28.7429 33.6573 27.7277 33.6604 26.7126 33.6626C25.9227 33.6643 25.1329 33.6666 24.343 33.671C24.0032 33.6729 23.6635 33.6741 23.3236 33.6739C22.9451 33.674 22.5666 33.6758 22.188 33.6781C22.0192 33.6774 22.0192 33.6774 21.8471 33.6767C21.744 33.6776 21.6409 33.6786 21.5347 33.6796C21.4005 33.6799 21.4005 33.6799 21.2636 33.6803C20.97 33.7273 20.8318 33.8202 20.6172 34.0234C20.4982 34.3139 20.4982 34.3139 20.5156 34.6328C20.6806 34.9077 20.7953 35.0965 21.1051 35.2045C21.3674 35.2488 21.6154 35.2553 21.8816 35.2558C21.994 35.2562 22.1065 35.2566 22.2224 35.2571C22.3453 35.257 22.4682 35.257 22.5949 35.257C22.7247 35.2573 22.8546 35.2576 22.9884 35.258C23.3445 35.2589 23.7007 35.2591 24.0568 35.2592C24.2797 35.2593 24.5027 35.2595 24.7256 35.2597C25.5048 35.2607 26.2839 35.2611 27.063 35.261C27.7869 35.261 28.5108 35.262 29.2347 35.2636C29.8577 35.265 30.4807 35.2655 31.1037 35.2654C31.4751 35.2654 31.8465 35.2657 32.2179 35.2668C32.6333 35.268 33.0487 35.2675 33.4641 35.2669C33.5853 35.2674 33.7066 35.268 33.8316 35.2686C35.6328 35.2619 36.7937 34.8839 38.0859 33.6172C38.1807 33.5252 38.2755 33.4331 38.3732 33.3383C38.7611 32.9574 39.1413 32.5745 39.4927 32.1592C39.9879 31.5919 40.5243 31.0659 41.0584 30.5355C41.2509 30.3444 41.4431 30.1529 41.6351 29.9613C42.1119 29.4858 42.5893 29.0109 43.0666 28.536C43.4711 28.1335 43.8754 27.7308 44.2794 27.3278C44.4675 27.1404 44.6559 26.9533 44.8443 26.7662C45.4237 26.1893 45.9851 25.6073 46.5156 24.9844C46.7955 24.6823 47.0834 24.3888 47.3726 24.0957C47.4449 24.0204 47.5172 23.9452 47.5918 23.8676C48.6085 22.8389 50.0198 22.2886 51.324 23.2106Z"/>
</mask>
<path d="M51.324 23.2106C51.7542 23.5912 51.9838 24.0231 52.0206 24.5928C52.0222 24.7158 52.0238 24.8387 52.0254 24.9653C52.028 25.0875 52.0306 25.2096 52.0333 25.3355C51.91 26.6673 50.3328 27.7844 49.4301 28.6878C49.2961 28.8224 49.162 28.9569 49.028 29.0915C48.6667 29.4541 48.3051 29.8164 47.9433 30.1786C47.717 30.4052 47.4908 30.6318 47.2646 30.8585C46.5557 31.5688 45.8465 32.2789 45.1371 32.9887C44.32 33.8063 43.5035 34.6246 42.6876 35.4435C42.0552 36.0781 41.4222 36.7121 40.7887 37.3457C40.411 37.7235 40.0336 38.1015 39.6568 38.4801C39.3028 38.8358 38.9481 39.1907 38.5929 39.545C38.4629 39.675 38.3331 39.8051 38.2036 39.9356C38.0265 40.114 37.8485 40.2915 37.6702 40.4687C37.5942 40.5459 37.5942 40.5459 37.5167 40.6247C36.9164 41.2168 36.4056 41.4935 35.5562 41.5205C35.4393 41.5264 35.4393 41.5264 35.3201 41.5324C35.0606 41.5449 34.8009 41.5546 34.5412 41.5642C34.3543 41.5724 34.1673 41.5807 33.9803 41.5891C32.2603 41.663 30.5387 41.7025 28.8175 41.734C27.664 41.7555 26.5125 41.7865 25.3602 41.8429C16.947 42.2468 16.947 42.2468 14.4175 39.9532C13.3558 38.9473 12.4445 37.7911 11.6375 36.5743C11.4772 36.3354 11.4772 36.3354 11.1719 36.1563C10.8047 36.1094 10.6299 36.1101 10.3213 36.3213C10.1069 36.6347 10.1151 36.7972 10.1562 37.1719C10.3186 37.4303 10.3186 37.4303 10.5533 37.6583C10.6371 37.7459 10.721 37.8335 10.8073 37.9238C10.8941 38.0108 10.9809 38.0978 11.0703 38.1875C11.1482 38.2665 11.2262 38.3455 11.3065 38.4269C11.5456 38.6663 11.7873 38.9028 12.0296 39.1389C12.2077 39.3142 12.3857 39.4895 12.5636 39.6649C12.8408 39.9377 13.1183 40.21 13.3968 40.4813C13.668 40.7457 13.9375 41.0117 14.2068 41.278C14.2911 41.3594 14.3754 41.4407 14.4623 41.5246C14.5387 41.6006 14.615 41.6766 14.6937 41.7548C14.7615 41.8212 14.8294 41.8876 14.8992 41.9561C15.0312 42.1485 15.0312 42.1485 15.0161 42.3598C14.8803 42.666 14.6552 42.8573 14.4155 43.0879C14.2755 43.2238 14.2755 43.2238 14.1327 43.3624C14.0605 43.431 13.9884 43.4996 13.9141 43.5703C13.5185 43.41 13.2557 43.1396 12.9635 42.8392C12.9119 42.787 12.8603 42.7349 12.8071 42.6812C12.6424 42.5147 12.4784 42.3475 12.3145 42.1802C12.1519 42.0148 11.9892 41.8496 11.8261 41.6846C11.725 41.5823 11.6241 41.4796 11.5236 41.3767C11.2582 41.1075 10.9854 40.8539 10.6983 40.608C10.143 40.127 9.62985 39.6034 9.11206 39.0829C9.00395 38.9746 8.89581 38.8663 8.78765 38.7581C8.50559 38.4756 8.22384 38.1929 7.94216 37.9101C7.65364 37.6205 7.36483 37.3313 7.07605 37.042C6.51135 36.4762 5.94698 35.9101 5.38281 35.3438C5.54727 34.9322 5.83945 34.6547 6.14778 34.3478C6.23378 34.261 6.23378 34.261 6.32152 34.1725C6.51101 33.9816 6.70125 33.7914 6.89157 33.6013C7.02395 33.4686 7.1563 33.3358 7.28863 33.203C7.56619 32.9246 7.84414 32.6467 8.12235 32.369C8.47791 32.0141 8.83232 31.6579 9.18641 31.3015C9.45955 31.0268 9.73341 30.7529 10.0075 30.4792C10.1384 30.3482 10.269 30.217 10.3994 30.0856C10.5824 29.9013 10.7664 29.7181 10.9506 29.5351C11.0037 29.4811 11.0569 29.4272 11.1117 29.3716C11.8366 28.6568 12.501 28.4223 13.5116 28.4226C13.5946 28.4222 13.6775 28.4218 13.7629 28.4214C14.0412 28.4203 14.3194 28.4199 14.5977 28.4195C14.797 28.4189 14.9964 28.4182 15.1958 28.4175C15.8509 28.4154 16.5061 28.4143 17.1613 28.4133C17.387 28.4129 17.6127 28.4125 17.8384 28.4121C18.8991 28.4101 19.9597 28.4087 21.0203 28.4078C22.2437 28.4068 23.467 28.4042 24.6904 28.4001C25.6365 28.397 26.5826 28.3955 27.5287 28.3952C28.0935 28.3949 28.6583 28.394 29.2231 28.3915C29.7548 28.3891 30.2866 28.3887 30.8184 28.3897C31.0129 28.3898 31.2075 28.3891 31.4021 28.3877C33.6996 28.3721 33.6996 28.3721 34.6265 29.1548C35.101 29.6852 35.3041 30.3437 35.3882 31.0401C35.2721 31.9357 34.9507 32.6776 34.2329 33.2427C33.5256 33.6324 32.9128 33.6466 32.1217 33.6447C31.9427 33.6455 31.9427 33.6455 31.7602 33.6464C31.5016 33.6474 31.2431 33.648 30.9846 33.6482C30.5757 33.6485 30.1669 33.6502 29.758 33.6523C28.7429 33.6573 27.7277 33.6604 26.7126 33.6626C25.9227 33.6643 25.1329 33.6666 24.343 33.671C24.0032 33.6729 23.6635 33.6741 23.3236 33.6739C22.9451 33.674 22.5666 33.6758 22.188 33.6781C22.0192 33.6774 22.0192 33.6774 21.8471 33.6767C21.744 33.6776 21.6409 33.6786 21.5347 33.6796C21.4005 33.6799 21.4005 33.6799 21.2636 33.6803C20.97 33.7273 20.8318 33.8202 20.6172 34.0234C20.4982 34.3139 20.4982 34.3139 20.5156 34.6328C20.6806 34.9077 20.7953 35.0965 21.1051 35.2045C21.3674 35.2488 21.6154 35.2553 21.8816 35.2558C21.994 35.2562 22.1065 35.2566 22.2224 35.2571C22.3453 35.257 22.4682 35.257 22.5949 35.257C22.7247 35.2573 22.8546 35.2576 22.9884 35.258C23.3445 35.2589 23.7007 35.2591 24.0568 35.2592C24.2797 35.2593 24.5027 35.2595 24.7256 35.2597C25.5048 35.2607 26.2839 35.2611 27.063 35.261C27.7869 35.261 28.5108 35.262 29.2347 35.2636C29.8577 35.265 30.4807 35.2655 31.1037 35.2654C31.4751 35.2654 31.8465 35.2657 32.2179 35.2668C32.6333 35.268 33.0487 35.2675 33.4641 35.2669C33.5853 35.2674 33.7066 35.268 33.8316 35.2686C35.6328 35.2619 36.7937 34.8839 38.0859 33.6172C38.1807 33.5252 38.2755 33.4331 38.3732 33.3383C38.7611 32.9574 39.1413 32.5745 39.4927 32.1592C39.9879 31.5919 40.5243 31.0659 41.0584 30.5355C41.2509 30.3444 41.4431 30.1529 41.6351 29.9613C42.1119 29.4858 42.5893 29.0109 43.0666 28.536C43.4711 28.1335 43.8754 27.7308 44.2794 27.3278C44.4675 27.1404 44.6559 26.9533 44.8443 26.7662C45.4237 26.1893 45.9851 25.6073 46.5156 24.9844C46.7955 24.6823 47.0834 24.3888 47.3726 24.0957C47.4449 24.0204 47.5172 23.9452 47.5918 23.8676C48.6085 22.8389 50.0198 22.2886 51.324 23.2106Z" fill="#DBC0EE" stroke="#8C34C7" mask="url(#path-2-inside-1_274_12632)"/>
<path d="M3.21998 35.4822C3.74195 35.6261 4.10191 36.0845 4.47007 36.4609C4.57906 36.5663 4.57906 36.5663 4.69026 36.6739C5.01091 36.9859 5.31256 37.3072 5.60436 37.6462C5.96855 38.063 6.35105 38.4565 6.74387 38.8462C6.81514 38.9173 6.8864 38.9884 6.95982 39.0617C7.11304 39.2145 7.26638 39.3672 7.41982 39.5198C7.66247 39.7612 7.9048 40.0028 8.14704 40.2446C8.66036 40.7568 9.17407 41.2685 9.68785 41.7802C10.2855 42.3754 10.8829 42.9708 11.48 43.5667C11.7191 43.8051 11.9584 44.0432 12.1978 44.2813C12.3434 44.4265 12.489 44.5717 12.6345 44.7169C12.7014 44.7833 12.7683 44.8497 12.8372 44.9181C12.8979 44.9787 12.9585 45.0393 13.021 45.1018C13.0739 45.1545 13.1268 45.2072 13.1813 45.2615C13.438 45.5433 13.4524 45.8252 13.4466 46.1994C13.3751 46.5927 13.114 46.8076 12.8299 47.071C12.7713 47.1284 12.7127 47.1859 12.6523 47.2451C12.4658 47.4271 12.2766 47.6061 12.0873 47.7851C11.9599 47.9084 11.8326 48.0319 11.7056 48.1556C11.3948 48.4575 11.0816 48.7567 10.7669 49.0546C10.1632 48.5531 9.60681 48.013 9.0507 47.4595C8.95139 47.361 8.85206 47.2625 8.75271 47.1641C8.42928 46.8433 8.10639 46.5219 7.78355 46.2006C7.67203 46.0896 7.56051 45.9786 7.44899 45.8676C6.98559 45.4064 6.52233 44.9451 6.05945 44.4833C5.39705 43.8226 4.7338 43.1627 4.06935 42.5041C3.60132 42.0399 3.13425 41.5749 2.66789 41.109C2.38953 40.8311 2.11076 40.5535 1.83094 40.277C1.5684 40.0175 1.30708 39.7568 1.04666 39.4952C0.904916 39.3534 0.761908 39.2129 0.618872 39.0724C0.535437 38.9881 0.452003 38.9039 0.36604 38.817C0.292723 38.7441 0.219406 38.6711 0.143867 38.5959C0.00132232 38.3906 0.00132233 38.3906 0.016071 38.1763C0.150216 37.8797 0.360349 37.6911 0.590861 37.463C0.639589 37.4145 0.688317 37.3659 0.738521 37.3159C0.841472 37.2137 0.944787 37.1118 1.04844 37.0102C1.20682 36.855 1.36409 36.6987 1.52119 36.5422C2.60597 35.4675 2.60597 35.4675 3.21998 35.4822Z" fill="#8C34C7"/>
<path d="M7.2127 16.4951C7.2999 16.496 7.3871 16.4969 7.47694 16.4977C7.75438 16.5012 8.03151 16.5088 8.30886 16.5166C8.49737 16.5196 8.68588 16.5224 8.8744 16.5249C9.33558 16.5316 9.79653 16.5421 10.2576 16.5546C10.3766 16.8041 10.495 17.0538 10.6131 17.3037C10.647 17.3746 10.6809 17.4456 10.7158 17.5187C10.9685 18.0551 10.9685 18.0551 10.9685 18.2812C10.3415 18.3033 9.71437 18.3233 9.08717 18.3413C8.87387 18.3478 8.6606 18.3548 8.44734 18.3624C8.14056 18.3732 7.83377 18.3819 7.52691 18.3903C7.38422 18.396 7.38422 18.396 7.23864 18.4018C6.739 18.4133 6.39199 18.4159 5.99196 18.0781C5.75219 17.7184 5.73068 17.5878 5.78884 17.164C6.18518 16.5257 6.48586 16.4679 7.2127 16.4951Z" fill="#DBC0EE"/>
</g>
<defs>
<clipPath id="clip0_274_12632">
<rect width="52" height="52" fill="white"/>
</clipPath>
</defs>
</svg>
