<svg width="24" height="24" viewBox="0 0 24 24" fill="none" xmlns="http://www.w3.org/2000/svg">
<path d="M19.95 5.5398L16.47 2.0598C15.15 0.739799 13.39 0.00979898 11.52 0.00979898H7C4.24 -0.000201024 2 2.2398 2 4.9998V18.9998C2 21.7598 4.24 23.9998 7 23.9998H17C19.76 23.9998 22 21.7598 22 18.9998V10.4898C22 8.6198 21.27 6.8598 19.95 5.5398ZM18.54 6.9498C18.86 7.2698 19.13 7.6198 19.35 7.9998H15.01C14.46 7.9998 14.01 7.5498 14.01 6.9998V2.6598C14.39 2.8798 14.74 3.1498 15.06 3.4698L18.54 6.9498ZM20 18.9998C20 20.6498 18.65 21.9998 17 21.9998H7C5.35 21.9998 4 20.6498 4 18.9998V4.9998C4 3.3498 5.35 1.9998 7 1.9998H11.51C11.67 1.9998 11.84 1.9998 12 2.0198V6.9998C12 8.6498 13.35 9.9998 15 9.9998H19.98C20 10.1598 20 10.3198 20 10.4898V18.9998ZM10 18.9998C10 19.5498 9.55 19.9998 9 19.9998H7C6.45 19.9998 6 19.5498 6 18.9998V17.9998C6 17.4498 6.45 16.9998 7 16.9998C7.55 16.9998 8 17.4498 8 17.9998H9C9.55 17.9998 10 18.4498 10 18.9998ZM18 17.9998V18.9998C18 19.5498 17.55 19.9998 17 19.9998H15C14.45 19.9998 14 19.5498 14 18.9998C14 18.4498 14.45 17.9998 15 17.9998H16C16 17.4498 16.45 16.9998 17 16.9998C17.55 16.9998 18 17.4498 18 17.9998ZM18 12.9998V13.9998C18 14.5498 17.55 14.9998 17 14.9998C16.45 14.9998 16 14.5498 16 13.9998H15C14.45 13.9998 14 13.5498 14 12.9998C14 12.4498 14.45 11.9998 15 11.9998H17C17.55 11.9998 18 12.4498 18 12.9998ZM10 12.9998C10 13.5498 9.55 13.9998 9 13.9998H8C8 14.5498 7.55 14.9998 7 14.9998C6.45 14.9998 6 14.5498 6 13.9998V12.9998C6 12.4498 6.45 11.9998 7 11.9998H9C9.55 11.9998 10 12.4498 10 12.9998ZM10 8.9998C10 9.5498 9.55 9.9998 9 9.9998H7C6.45 9.9998 6 9.5498 6 8.9998C6 8.4498 6.45 7.9998 7 7.9998H9C9.55 7.9998 10 8.4498 10 8.9998Z" fill="#565656"/>
</svg>
