<svg width="56" height="56" viewBox="0 0 56 56" fill="none" xmlns="http://www.w3.org/2000/svg">
<mask id="path-1-inside-1_274_12646" fill="white">
<path d="M18.3625 13.1296C18.5905 13.1285 18.5905 13.1285 18.8231 13.1272C19.2354 13.1252 19.6477 13.1253 20.06 13.126C20.4064 13.1263 20.7529 13.1256 21.0993 13.1249C21.9179 13.1233 22.7364 13.1235 23.555 13.1248C24.3943 13.1261 25.2336 13.1245 26.073 13.1214C26.7983 13.1188 27.5236 13.1181 28.2489 13.1187C28.68 13.1191 29.1111 13.1189 29.5422 13.1168C32.3147 13.1051 34.7251 13.2367 36.9153 15.1452C37.3204 15.5622 37.7066 15.9944 38.0929 16.4286C41.6207 20.6644 41.6207 20.6644 46.5419 22.5251C46.9441 22.5424 47.3449 22.5506 47.7475 22.5456C48.7229 22.5349 49.6176 22.7284 50.5586 22.9699C50.8008 23.0317 51.0436 23.0893 51.2871 23.1458C52.8819 23.5295 54.415 23.9986 55.3194 25.4648C55.758 26.3192 55.9262 26.9552 55.9152 27.9131C55.9147 27.9994 55.9142 28.0857 55.9136 28.1746C55.9123 28.3866 55.9102 28.5986 55.908 28.8106C55.7775 28.8132 55.7775 28.8132 55.6444 28.8158C55.2473 28.8244 54.8502 28.8356 54.4531 28.8468C54.3163 28.8494 54.1795 28.852 54.0385 28.8547C53.3099 28.8772 52.7232 28.9035 52.0863 29.2739C51.8678 29.6107 51.8537 29.8075 51.8619 30.2076C52.0022 30.6473 52.1644 30.762 52.5495 31.011C52.9289 31.0847 52.9289 31.0847 53.3407 31.0816C53.4904 31.0853 53.64 31.089 53.7942 31.0929C53.9511 31.0946 54.108 31.0962 54.2649 31.0979C54.4241 31.1011 54.5833 31.1046 54.7424 31.1083C55.1309 31.1164 55.5194 31.1225 55.908 31.1268C55.9196 31.6477 55.9279 32.1686 55.9334 32.6896C55.9357 32.8663 55.9389 33.043 55.9429 33.2196C55.979 34.8365 55.7528 36.0904 54.6196 37.3298C53.6108 38.3062 52.3768 38.5576 51.0245 38.5806C50.5167 38.5155 50.2309 38.3343 49.9144 37.9347C49.7371 37.5383 49.6964 37.1633 49.6615 36.7363C49.4664 34.8854 48.7371 33.2 47.3381 31.9375C45.6789 30.6575 43.8835 30.0266 41.7793 30.2003C39.8752 30.4887 38.1163 31.3701 36.9482 32.9405C36.1023 34.1461 35.6573 35.3921 35.4772 36.8444C35.451 37.0453 35.451 37.0453 35.4243 37.2502C35.4103 37.3741 35.3962 37.498 35.3818 37.6257C35.278 38.0203 35.1476 38.1714 34.8308 38.4228C34.4911 38.536 34.2717 38.5536 33.9179 38.5548C33.8013 38.5555 33.6847 38.5562 33.5646 38.5568C33.4368 38.557 33.309 38.5571 33.1774 38.5572C33.0427 38.5578 32.908 38.5584 32.7693 38.559C32.3228 38.5607 31.8763 38.5615 31.4298 38.5621C31.1983 38.5626 30.9669 38.5631 30.7354 38.5636C30.0905 38.565 29.4456 38.5658 28.8007 38.5662C27.967 38.5668 27.1333 38.5688 26.2995 38.5721C25.6548 38.5747 25.0101 38.5758 24.3654 38.576C23.9804 38.5761 23.5955 38.5769 23.2106 38.5788C22.7811 38.5808 22.3517 38.5806 21.9222 38.5799C21.7949 38.5809 21.6676 38.582 21.5364 38.5831C20.7956 38.579 20.3537 38.5245 19.8041 37.9957C19.5977 37.6127 19.5834 37.2272 19.5512 36.8014C19.3745 35.0183 18.6968 33.2848 17.3436 32.0533C15.6502 30.7076 13.8471 30.0224 11.669 30.2003C9.73613 30.482 7.99976 31.3719 6.79779 32.9449C5.96735 34.1995 5.45692 35.4381 5.37189 36.939C5.32821 37.5406 5.24588 37.8622 4.83628 38.307C4.20652 38.6962 3.46431 38.6212 2.76529 38.463C1.72401 38.1251 0.826438 37.4439 0.319735 36.454C0.0539301 35.7247 0.058128 35.0429 0.0654984 34.2722C0.06599 34.0773 0.06599 34.0773 0.0664915 33.8784C0.0677827 33.4655 0.0706889 33.0525 0.0736412 32.6396C0.0748035 32.3587 0.0758602 32.0779 0.0768078 31.797C0.0793546 31.1104 0.0832255 30.4237 0.0881173 29.7371C0.236175 29.7364 0.236175 29.7364 0.387224 29.7357C0.755287 29.7325 1.1232 29.7268 1.4912 29.7194C1.65012 29.7168 1.80906 29.7151 1.968 29.7145C2.19715 29.7134 2.42627 29.7083 2.65536 29.7032C2.79303 29.7014 2.9307 29.6995 3.07254 29.6977C3.55192 29.5998 3.72671 29.4227 4.02562 29.0423C4.08748 28.6015 4.08997 28.348 3.87362 27.9565C3.49949 27.5963 3.08151 27.6315 2.58751 27.6159C2.44233 27.611 2.29715 27.6062 2.14757 27.6012C1.99582 27.5966 1.84407 27.5921 1.68773 27.5874C1.53309 27.5824 1.37845 27.5773 1.22381 27.5722C0.84526 27.5599 0.466698 27.5481 0.0881173 27.5367C0.0744969 27.0784 0.0663778 26.62 0.0591651 26.1615C0.0552837 26.0331 0.0514023 25.9047 0.0474033 25.7725C0.0333015 24.5738 0.299164 23.6455 1.1304 22.7605C1.62443 22.3263 2.21404 21.9765 2.86753 21.8621C3.06155 21.8937 3.25444 21.9325 3.44612 21.9761C4.45709 22.1248 5.3992 22.1534 6.2662 21.5604C8.00569 20.1732 9.45599 18.4086 10.9122 16.7365C12.9443 14.4311 15.2249 13.118 18.3625 13.1296ZM18.2701 15.7242C17.9309 16.608 17.5918 17.4918 17.2423 18.4023C17.1356 18.6802 17.0289 18.958 16.9189 19.2442C16.834 19.4657 16.7491 19.6872 16.6642 19.9087C16.6203 20.0227 16.5765 20.1367 16.5314 20.2541C16.4891 20.3645 16.4468 20.4749 16.4032 20.5887C16.3667 20.6839 16.3302 20.779 16.2925 20.8771C16.1724 21.2028 16.0637 21.5327 15.9539 21.8621C19.5845 21.8621 23.2151 21.8621 26.9558 21.8621C26.9558 19.8366 26.9558 17.8111 26.9558 15.7242C24.0895 15.7242 21.2232 15.7242 18.2701 15.7242ZM29.3877 15.7242C29.3877 17.7497 29.3877 19.7752 29.3877 21.8621C32.8655 21.8621 36.3432 21.8621 39.9263 21.8621C39.3623 21.2015 39.3623 21.2015 38.7744 20.5683C38.6915 20.4829 38.6087 20.3974 38.5234 20.3094C38.1459 19.9235 37.7674 19.5386 37.3879 19.1546C37.1895 18.9531 36.9919 18.7507 36.7951 18.5475C34.9238 16.5361 34.9238 16.5361 32.3853 15.7111C32.247 15.7117 32.1088 15.7123 31.9663 15.7129C31.8311 15.7132 31.6959 15.7135 31.5566 15.7138C31.3854 15.7149 31.2143 15.7159 31.038 15.717C30.2211 15.7206 30.2211 15.7206 29.3877 15.7242ZM29.3877 24.6415C29.2082 25.0006 29.2384 25.2876 29.2719 25.6838C29.4799 26.0027 29.6255 26.208 29.9668 26.3786C30.3449 26.4094 30.724 26.4055 31.1032 26.4076C31.26 26.4112 31.26 26.4112 31.4201 26.4148C31.9955 26.4182 32.3971 26.4114 32.862 26.0312C33.1016 25.7262 33.0936 25.5636 33.0864 25.1699C32.9509 24.6551 32.8255 24.4968 32.3988 24.1783C31.9915 24.0962 31.5969 24.1026 31.1828 24.1131C31.0743 24.1119 30.9657 24.1106 30.8539 24.1093C30.2233 24.116 29.8352 24.151 29.3877 24.6415Z"/>
</mask>
<path d="M18.3625 13.1296C18.5905 13.1285 18.5905 13.1285 18.8231 13.1272C19.2354 13.1252 19.6477 13.1253 20.06 13.126C20.4064 13.1263 20.7529 13.1256 21.0993 13.1249C21.9179 13.1233 22.7364 13.1235 23.555 13.1248C24.3943 13.1261 25.2336 13.1245 26.073 13.1214C26.7983 13.1188 27.5236 13.1181 28.2489 13.1187C28.68 13.1191 29.1111 13.1189 29.5422 13.1168C32.3147 13.1051 34.7251 13.2367 36.9153 15.1452C37.3204 15.5622 37.7066 15.9944 38.0929 16.4286C41.6207 20.6644 41.6207 20.6644 46.5419 22.5251C46.9441 22.5424 47.3449 22.5506 47.7475 22.5456C48.7229 22.5349 49.6176 22.7284 50.5586 22.9699C50.8008 23.0317 51.0436 23.0893 51.2871 23.1458C52.8819 23.5295 54.415 23.9986 55.3194 25.4648C55.758 26.3192 55.9262 26.9552 55.9152 27.9131C55.9147 27.9994 55.9142 28.0857 55.9136 28.1746C55.9123 28.3866 55.9102 28.5986 55.908 28.8106C55.7775 28.8132 55.7775 28.8132 55.6444 28.8158C55.2473 28.8244 54.8502 28.8356 54.4531 28.8468C54.3163 28.8494 54.1795 28.852 54.0385 28.8547C53.3099 28.8772 52.7232 28.9035 52.0863 29.2739C51.8678 29.6107 51.8537 29.8075 51.8619 30.2076C52.0022 30.6473 52.1644 30.762 52.5495 31.011C52.9289 31.0847 52.9289 31.0847 53.3407 31.0816C53.4904 31.0853 53.64 31.089 53.7942 31.0929C53.9511 31.0946 54.108 31.0962 54.2649 31.0979C54.4241 31.1011 54.5833 31.1046 54.7424 31.1083C55.1309 31.1164 55.5194 31.1225 55.908 31.1268C55.9196 31.6477 55.9279 32.1686 55.9334 32.6896C55.9357 32.8663 55.9389 33.043 55.9429 33.2196C55.979 34.8365 55.7528 36.0904 54.6196 37.3298C53.6108 38.3062 52.3768 38.5576 51.0245 38.5806C50.5167 38.5155 50.2309 38.3343 49.9144 37.9347C49.7371 37.5383 49.6964 37.1633 49.6615 36.7363C49.4664 34.8854 48.7371 33.2 47.3381 31.9375C45.6789 30.6575 43.8835 30.0266 41.7793 30.2003C39.8752 30.4887 38.1163 31.3701 36.9482 32.9405C36.1023 34.1461 35.6573 35.3921 35.4772 36.8444C35.451 37.0453 35.451 37.0453 35.4243 37.2502C35.4103 37.3741 35.3962 37.498 35.3818 37.6257C35.278 38.0203 35.1476 38.1714 34.8308 38.4228C34.4911 38.536 34.2717 38.5536 33.9179 38.5548C33.8013 38.5555 33.6847 38.5562 33.5646 38.5568C33.4368 38.557 33.309 38.5571 33.1774 38.5572C33.0427 38.5578 32.908 38.5584 32.7693 38.559C32.3228 38.5607 31.8763 38.5615 31.4298 38.5621C31.1983 38.5626 30.9669 38.5631 30.7354 38.5636C30.0905 38.565 29.4456 38.5658 28.8007 38.5662C27.967 38.5668 27.1333 38.5688 26.2995 38.5721C25.6548 38.5747 25.0101 38.5758 24.3654 38.576C23.9804 38.5761 23.5955 38.5769 23.2106 38.5788C22.7811 38.5808 22.3517 38.5806 21.9222 38.5799C21.7949 38.5809 21.6676 38.582 21.5364 38.5831C20.7956 38.579 20.3537 38.5245 19.8041 37.9957C19.5977 37.6127 19.5834 37.2272 19.5512 36.8014C19.3745 35.0183 18.6968 33.2848 17.3436 32.0533C15.6502 30.7076 13.8471 30.0224 11.669 30.2003C9.73613 30.482 7.99976 31.3719 6.79779 32.9449C5.96735 34.1995 5.45692 35.4381 5.37189 36.939C5.32821 37.5406 5.24588 37.8622 4.83628 38.307C4.20652 38.6962 3.46431 38.6212 2.76529 38.463C1.72401 38.1251 0.826438 37.4439 0.319735 36.454C0.0539301 35.7247 0.058128 35.0429 0.0654984 34.2722C0.06599 34.0773 0.06599 34.0773 0.0664915 33.8784C0.0677827 33.4655 0.0706889 33.0525 0.0736412 32.6396C0.0748035 32.3587 0.0758602 32.0779 0.0768078 31.797C0.0793546 31.1104 0.0832255 30.4237 0.0881173 29.7371C0.236175 29.7364 0.236175 29.7364 0.387224 29.7357C0.755287 29.7325 1.1232 29.7268 1.4912 29.7194C1.65012 29.7168 1.80906 29.7151 1.968 29.7145C2.19715 29.7134 2.42627 29.7083 2.65536 29.7032C2.79303 29.7014 2.9307 29.6995 3.07254 29.6977C3.55192 29.5998 3.72671 29.4227 4.02562 29.0423C4.08748 28.6015 4.08997 28.348 3.87362 27.9565C3.49949 27.5963 3.08151 27.6315 2.58751 27.6159C2.44233 27.611 2.29715 27.6062 2.14757 27.6012C1.99582 27.5966 1.84407 27.5921 1.68773 27.5874C1.53309 27.5824 1.37845 27.5773 1.22381 27.5722C0.84526 27.5599 0.466698 27.5481 0.0881173 27.5367C0.0744969 27.0784 0.0663778 26.62 0.0591651 26.1615C0.0552837 26.0331 0.0514023 25.9047 0.0474033 25.7725C0.0333015 24.5738 0.299164 23.6455 1.1304 22.7605C1.62443 22.3263 2.21404 21.9765 2.86753 21.8621C3.06155 21.8937 3.25444 21.9325 3.44612 21.9761C4.45709 22.1248 5.3992 22.1534 6.2662 21.5604C8.00569 20.1732 9.45599 18.4086 10.9122 16.7365C12.9443 14.4311 15.2249 13.118 18.3625 13.1296ZM18.2701 15.7242C17.9309 16.608 17.5918 17.4918 17.2423 18.4023C17.1356 18.6802 17.0289 18.958 16.9189 19.2442C16.834 19.4657 16.7491 19.6872 16.6642 19.9087C16.6203 20.0227 16.5765 20.1367 16.5314 20.2541C16.4891 20.3645 16.4468 20.4749 16.4032 20.5887C16.3667 20.6839 16.3302 20.779 16.2925 20.8771C16.1724 21.2028 16.0637 21.5327 15.9539 21.8621C19.5845 21.8621 23.2151 21.8621 26.9558 21.8621C26.9558 19.8366 26.9558 17.8111 26.9558 15.7242C24.0895 15.7242 21.2232 15.7242 18.2701 15.7242ZM29.3877 15.7242C29.3877 17.7497 29.3877 19.7752 29.3877 21.8621C32.8655 21.8621 36.3432 21.8621 39.9263 21.8621C39.3623 21.2015 39.3623 21.2015 38.7744 20.5683C38.6915 20.4829 38.6087 20.3974 38.5234 20.3094C38.1459 19.9235 37.7674 19.5386 37.3879 19.1546C37.1895 18.9531 36.9919 18.7507 36.7951 18.5475C34.9238 16.5361 34.9238 16.5361 32.3853 15.7111C32.247 15.7117 32.1088 15.7123 31.9663 15.7129C31.8311 15.7132 31.6959 15.7135 31.5566 15.7138C31.3854 15.7149 31.2143 15.7159 31.038 15.717C30.2211 15.7206 30.2211 15.7206 29.3877 15.7242ZM29.3877 24.6415C29.2082 25.0006 29.2384 25.2876 29.2719 25.6838C29.4799 26.0027 29.6255 26.208 29.9668 26.3786C30.3449 26.4094 30.724 26.4055 31.1032 26.4076C31.26 26.4112 31.26 26.4112 31.4201 26.4148C31.9955 26.4182 32.3971 26.4114 32.862 26.0312C33.1016 25.7262 33.0936 25.5636 33.0864 25.1699C32.9509 24.6551 32.8255 24.4968 32.3988 24.1783C31.9915 24.0962 31.5969 24.1026 31.1828 24.1131C31.0743 24.1119 30.9657 24.1106 30.8539 24.1093C30.2233 24.116 29.8352 24.151 29.3877 24.6415Z" fill="#B2B0E4" stroke="#0800A8" mask="url(#path-1-inside-1_274_12646)"/>
<path d="M45.4765 32.4895C46.7793 33.3839 47.5883 34.4706 48.0333 35.991C48.2757 37.6053 48.1026 39.0003 47.2227 40.3917C46.2204 41.7256 44.9431 42.5538 43.2852 42.8237C41.579 42.9524 40.1719 42.5175 38.8699 41.4195C37.6513 40.2785 37.0908 38.9346 37.0098 37.2866C37.0364 35.7495 37.6025 34.4374 38.6528 33.3274C40.4564 31.6295 43.3201 31.1865 45.4765 32.4895Z" fill="#0800A8"/>
<path d="M15.8396 32.864C15.9084 32.9124 15.9773 32.9607 16.0482 33.0106C16.9921 33.7389 17.6945 34.942 17.9242 36.1066C18.0464 37.3437 18.054 38.5767 17.4609 39.6967C17.4091 39.7973 17.3573 39.8979 17.304 40.0016C16.5964 41.2725 15.5775 42.1348 14.1862 42.6041C12.515 43.0274 10.9317 42.8786 9.43122 41.9943C8.18023 41.1304 7.37454 39.9371 6.98747 38.4662C6.73617 36.9556 6.95707 35.4041 7.8488 34.1379C9.80531 31.5818 13.1883 30.9419 15.8396 32.864Z" fill="#0800A8"/>
</svg>
