<svg width="16" height="16" viewBox="0 0 16 16" fill="none" xmlns="http://www.w3.org/2000/svg">
<g clip-path="url(#clip0_1275_3305)">
<path d="M8 0C3.58867 0 0 3.58867 0 8C0 12.4113 3.58867 16 8 16C12.4113 16 16 12.4113 16 8C16 3.58867 12.4113 0 8 0ZM8 15.3333C3.95667 15.3333 0.666667 12.0433 0.666667 8C0.666667 3.95667 3.95667 0.666667 8 0.666667C12.0433 0.666667 15.3333 3.95667 15.3333 8C15.3333 12.0433 12.0433 15.3333 8 15.3333ZM8.66667 7.66667V12.3333C8.66667 12.5173 8.51733 12.6667 8.33333 12.6667C8.14933 12.6667 8 12.5173 8 12.3333V7.66667C8 7.11533 7.55133 6.66667 7 6.66667C6.816 6.66667 6.66667 6.51733 6.66667 6.33333C6.66667 6.14933 6.816 6 7 6C7.91867 6 8.66667 6.748 8.66667 7.66667ZM8.66667 4C8.66667 4.368 8.368 4.66667 8 4.66667C7.632 4.66667 7.33333 4.368 7.33333 4C7.33333 3.632 7.632 3.33333 8 3.33333C8.368 3.33333 8.66667 3.632 8.66667 4Z" fill="#565656"/>
</g>
<defs>
<clipPath id="clip0_1275_3305">
<rect width="16" height="16" fill="white"/>
</clipPath>
</defs>
</svg>
