<svg width="24" height="24" viewBox="0 0 24 24" fill="none" xmlns="http://www.w3.org/2000/svg">
<g clip-path="url(#clip0_9_8981)">
<path d="M22.5361 8.45999L15.5371 1.45899C14.5921 0.514988 13.3371 -0.00601196 12.0011 -0.00601196C10.6651 -0.00601196 9.40915 0.514988 8.46515 1.45899L1.46614 8.45999C-0.482855 10.409 -0.482855 13.58 1.46614 15.529L8.46515 22.53C9.40915 23.474 10.6651 23.995 12.0011 23.995C13.3371 23.995 14.5921 23.474 15.5371 22.53L22.5361 15.529C23.4801 14.585 24.0001 13.33 24.0001 11.995C24.0001 10.66 23.4801 9.40399 22.5361 8.45999ZM21.1221 14.115L14.1231 21.116C12.9891 22.249 11.0131 22.249 9.87914 21.116L2.88014 14.115C1.71114 12.946 1.71114 11.043 2.88014 9.87399L9.87914 2.87299C10.4461 2.30699 11.1991 1.99399 12.0011 1.99399C12.8031 1.99399 13.5561 2.30599 14.1231 2.87299L21.1221 9.87399C21.6881 10.44 22.0001 11.193 22.0001 11.995C22.0001 12.797 21.6881 13.549 21.1221 14.115ZM13.5001 16.5C13.5001 17.328 12.8281 18 12.0001 18C11.1721 18 10.5001 17.328 10.5001 16.5C10.5001 15.672 11.1721 15 12.0001 15C12.8281 15 13.5001 15.672 13.5001 16.5ZM11.0001 12.5V6.99999C11.0001 6.44699 11.4481 5.99999 12.0001 5.99999C12.5521 5.99999 13.0001 6.44699 13.0001 6.99999V12.5C13.0001 13.053 12.5521 13.5 12.0001 13.5C11.4481 13.5 11.0001 13.053 11.0001 12.5Z" fill="#FF0B0F"/>
</g>
<defs>
<clipPath id="clip0_9_8981">
<rect width="24" height="24" fill="white"/>
</clipPath>
</defs>
</svg>
