<svg width="84" height="124" viewBox="0 0 84 124" fill="none" xmlns="http://www.w3.org/2000/svg">
<g clip-path="url(#clip0_68_527)">
<path d="M69.4853 62C69.4853 73.3977 78.7191 82.6667 90.0735 82.6667C101.428 82.6667 110.662 73.3977 110.662 62C110.662 50.6023 101.428 41.3333 90.0735 41.3333C78.7191 41.3333 69.4853 50.6023 69.4853 62ZM90.0735 51.6667C95.7507 51.6667 100.368 56.3012 100.368 62C100.368 67.6988 95.7507 72.3333 90.0735 72.3333C84.3963 72.3333 79.7794 67.6988 79.7794 62C79.7794 56.3012 84.3963 51.6667 90.0735 51.6667ZM61.7647 41.3333C73.1191 41.3333 82.3529 32.0643 82.3529 20.6667C82.3529 9.269 73.1191 0 61.7647 0C50.4103 0 41.1765 9.269 41.1765 20.6667C41.1765 32.0643 50.4103 41.3333 61.7647 41.3333ZM61.7647 10.3333C67.4419 10.3333 72.0588 14.9678 72.0588 20.6667C72.0588 26.3655 67.4419 31 61.7647 31C56.0875 31 51.4706 26.3655 51.4706 20.6667C51.4706 14.9678 56.0875 10.3333 61.7647 10.3333ZM33.4559 82.6667C44.8103 82.6667 54.0441 73.3977 54.0441 62C54.0441 50.6023 44.8103 41.3333 33.4559 41.3333C22.1015 41.3333 12.8676 50.6023 12.8676 62C12.8676 73.3977 22.1015 82.6667 33.4559 82.6667ZM33.4559 51.6667C39.1331 51.6667 43.75 56.3012 43.75 62C43.75 67.6988 39.1331 72.3333 33.4559 72.3333C27.7787 72.3333 23.1618 67.6988 23.1618 62C23.1618 56.3012 27.7787 51.6667 33.4559 51.6667ZM123.529 108.5V124H113.235V108.5C113.235 103.654 109.962 99.6288 105.458 98.5077L90.1044 116.369L74.5448 98.5593C70.1235 99.7322 66.9118 103.736 66.9118 108.495V123.995H56.6176V108.495C56.6176 103.648 53.3441 99.6237 48.8456 98.5025L33.4868 116.364L17.9272 98.5542C13.5059 99.727 10.2941 103.731 10.2941 108.49V123.99H0V108.49C0 97.3917 8.67794 88.3448 19.7596 87.8902L22.2199 87.7868L33.4301 100.616L44.45 87.7972L46.8897 87.8643C52.8912 88.0297 58.1412 90.7422 61.7801 94.9013C65.3676 90.8145 70.5147 88.1227 76.3772 87.885L78.8375 87.7817L90.0478 100.61L101.068 87.792L103.507 87.8592C114.738 88.1692 123.535 97.2263 123.535 108.479L123.529 108.5Z" fill="#8C34C7" fill-opacity="0.1"/>
</g>
<defs>
<clipPath id="clip0_68_527">
<rect width="84" height="124" fill="white"/>
</clipPath>
</defs>
</svg>
