<svg width="85" height="124" viewBox="0 0 85 124" fill="none" xmlns="http://www.w3.org/2000/svg">
<g clip-path="url(#clip0_68_533)">
<path d="M116.436 43.71L80.2745 7.53816C75.392 2.66083 68.9079 -0.0310059 62.0052 -0.0310059C55.1025 -0.0310059 48.6132 2.66083 43.7358 7.53816L7.57435 43.71C-2.49549 53.7798 -2.49549 70.1633 7.57435 80.2332L43.7358 116.405C48.6132 121.282 55.1025 123.974 62.0052 123.974C68.9079 123.974 75.392 121.282 80.2745 116.405L116.436 80.2332C121.313 75.3558 124 68.8717 124 61.9742C124 55.0767 121.313 48.5873 116.436 43.71ZM109.13 72.9275L72.9688 109.099C67.1098 114.953 56.9005 114.953 51.0415 109.099L14.88 72.9275C8.84018 66.8877 8.84018 57.0555 14.88 51.0157L51.0415 14.8438C53.971 11.9195 57.8615 10.3023 62.0052 10.3023C66.1488 10.3023 70.0394 11.9143 72.9688 14.8438L109.13 51.0157C112.055 53.94 113.667 57.8305 113.667 61.9742C113.667 66.1178 112.055 70.0032 109.13 72.9275ZM69.75 85.25C69.75 89.528 66.278 93 62 93C57.722 93 54.25 89.528 54.25 85.25C54.25 80.972 57.722 77.5 62 77.5C66.278 77.5 69.75 80.972 69.75 85.25ZM56.8333 64.5833V36.1667C56.8333 33.3095 59.148 31 62 31C64.852 31 67.1667 33.3095 67.1667 36.1667V64.5833C67.1667 67.4405 64.852 69.75 62 69.75C59.148 69.75 56.8333 67.4405 56.8333 64.5833Z" fill="#FF0B0F" fill-opacity="0.1"/>
</g>
<defs>
<clipPath id="clip0_68_533">
<rect width="85" height="124" fill="white"/>
</clipPath>
</defs>
</svg>
