<svg width="98" height="124" viewBox="0 0 98 124" fill="none" xmlns="http://www.w3.org/2000/svg">
<g clip-path="url(#clip0_384_4872)">
<path d="M98.102 0H25.898C20.1583 0 15.5 4.62933 15.5 10.3333V113.667C15.5 119.371 20.1583 124 25.898 124H98.102C103.842 124 108.5 119.371 108.5 113.667V10.3333C108.5 4.62933 103.842 0 98.102 0ZM100.182 113.667C100.182 114.824 99.2665 115.733 98.102 115.733H25.898C24.7335 115.733 23.8184 114.824 23.8184 113.667V10.3333C23.8184 9.176 24.7335 8.26667 25.898 8.26667H98.102C99.2665 8.26667 100.182 9.176 100.182 10.3333V113.667Z" fill="#00BE0C" fill-opacity="0.1"/>
<path d="M88.35 82.6667H51.15C48.5925 82.6667 46.5 84.9917 46.5 87.8333C46.5 90.675 48.5925 93 51.15 93H88.35C90.9075 93 93 90.675 93 87.8333C93 84.9917 90.9075 82.6667 88.35 82.6667Z" fill="#00BE0C" fill-opacity="0.1"/>
<path d="M34.4444 93H37.8889C39.7833 93 41.3333 90.675 41.3333 87.8333C41.3333 84.9917 39.7833 82.6667 37.8889 82.6667H34.4444C32.55 82.6667 31 84.9917 31 87.8333C31 90.675 32.55 93 34.4444 93Z" fill="#00BE0C" fill-opacity="0.1"/>
<path d="M88.5714 98.1667H35.4286C32.9929 98.1667 31 100.492 31 103.333C31 106.175 32.9929 108.5 35.4286 108.5H88.5714C91.0071 108.5 93 106.175 93 103.333C93 100.492 91.0071 98.1667 88.5714 98.1667Z" fill="#00BE0C" fill-opacity="0.1"/>
<path d="M47.3272 65.7511L60.0392 71.8808C60.6425 72.1688 61.3319 72.3333 61.9783 72.3333C62.6247 72.3333 63.3141 72.1688 63.9174 71.8808L76.6294 65.7511C83.4378 62.46 87.8332 55.343 87.8332 47.6089V24.818C87.8332 22.5553 85.8941 20.7041 83.524 20.7041C74.0439 20.7041 64.0036 15.9731 63.9174 15.932C62.7108 15.356 61.2888 15.356 60.0823 15.932C59.9961 15.9731 49.9127 20.7041 40.4757 20.7041C38.1056 20.7041 36.1665 22.5553 36.1665 24.818V47.6089C36.1665 55.343 40.5618 62.46 47.3703 65.7511H47.3272ZM44.7417 28.685C52.0673 27.9034 58.7895 25.435 61.9783 24.1186C65.1671 25.435 71.8893 27.9034 79.2149 28.685V47.6089C79.2149 52.2576 76.6725 56.4949 72.7512 58.4284L61.9783 63.6119L51.2054 58.4284C47.2841 56.536 44.7417 52.2987 44.7417 47.6089V28.685Z" fill="#00BE0C" fill-opacity="0.1"/>
<path d="M56.3132 55.4428C57.2537 56.3538 58.5407 56.8333 59.8277 56.8333C61.0157 56.8333 62.2036 56.4497 63.1441 55.5867L75.8654 44.5107C77.8949 42.7366 78.0434 39.7159 76.2614 37.75C74.4299 35.7841 71.3115 35.6403 69.282 37.3664L60.0752 45.3737L54.9272 40.3872C52.9968 38.5172 49.8783 38.5172 47.9479 40.3872C46.0174 42.2571 46.0174 45.2778 47.9479 47.1478L56.4122 55.3469L56.3132 55.4428Z" fill="#00BE0C" fill-opacity="0.1"/>
</g>
<defs>
<clipPath id="clip0_384_4872">
<rect width="98" height="124" fill="white"/>
</clipPath>
</defs>
</svg>
