<svg width="24" height="24" viewBox="0 0 24 24" fill="none" xmlns="http://www.w3.org/2000/svg">
<path d="M18.9875 0H5.01252C3.90161 0 3 0.896 3 2V22C3 23.104 3.90161 24 5.01252 24H18.9875C20.0984 24 21 23.104 21 22V2C21 0.896 20.0984 0 18.9875 0ZM19.39 22C19.39 22.224 19.2129 22.4 18.9875 22.4H5.01252C4.78712 22.4 4.61002 22.224 4.61002 22V2C4.61002 1.776 4.78712 1.6 5.01252 1.6H18.9875C19.2129 1.6 19.39 1.776 19.39 2V22Z" fill="#00BE0C"/>
<path d="M17.1 16H9.9C9.405 16 9 16.45 9 17C9 17.55 9.405 18 9.9 18H17.1C17.595 18 18 17.55 18 17C18 16.45 17.595 16 17.1 16Z" fill="#00BE0C"/>
<path d="M6.66667 18H7.33333C7.7 18 8 17.55 8 17C8 16.45 7.7 16 7.33333 16H6.66667C6.3 16 6 16.45 6 17C6 17.55 6.3 18 6.66667 18Z" fill="#00BE0C"/>
<path d="M17.1429 19H6.85714C6.38571 19 6 19.45 6 20C6 20.55 6.38571 21 6.85714 21H17.1429C17.6143 21 18 20.55 18 20C18 19.45 17.6143 19 17.1429 19Z" fill="#00BE0C"/>
<path d="M9.16013 12.726L11.6205 13.9124C11.7373 13.9682 11.8707 14 11.9958 14C12.1209 14 12.2544 13.9682 12.3711 13.9124L14.8315 12.726C16.1493 12.089 17 10.7115 17 9.21462V4.80347C17 4.36554 16.6247 4.00724 16.166 4.00724C14.3311 4.00724 12.3878 3.09157 12.3711 3.0836C12.1376 2.97213 11.8624 2.97213 11.6289 3.0836C11.6122 3.09157 9.66055 4.00724 7.83403 4.00724C7.37531 4.00724 7 4.36554 7 4.80347V9.21462C7 10.7115 7.85071 12.089 9.16847 12.726H9.16013ZM8.65972 5.55194C10.0776 5.40065 11.3786 4.92291 11.9958 4.66811C12.613 4.92291 13.9141 5.40065 15.3319 5.55194V9.21462C15.3319 10.1144 14.8399 10.9345 14.0809 11.3087L11.9958 12.312L9.91076 11.3087C9.15179 10.9425 8.65972 10.1223 8.65972 9.21462V5.55194Z" fill="#00BE0C"/>
<path d="M10.8993 10.7309C11.0814 10.9072 11.3305 11 11.5795 11C11.8095 11 12.0394 10.9258 12.2214 10.7587L14.6836 8.61497C15.0764 8.2716 15.1052 7.68695 14.7603 7.30646C14.4058 6.92596 13.8022 6.89812 13.4094 7.23221L11.6275 8.78202L10.6311 7.81687C10.2574 7.45494 9.65387 7.45494 9.28023 7.81687C8.90659 8.1788 8.90659 8.76346 9.28023 9.12539L10.9185 10.7123L10.8993 10.7309Z" fill="#00BE0C"/>
</svg>
