<svg width="24" height="24" viewBox="0 0 24 24" fill="none" xmlns="http://www.w3.org/2000/svg">
<path d="M13.5 12C13.5 14.206 15.294 16 17.5 16C19.706 16 21.5 14.206 21.5 12C21.5 9.794 19.706 8 17.5 8C15.294 8 13.5 9.794 13.5 12ZM17.5 10C18.603 10 19.5 10.897 19.5 12C19.5 13.103 18.603 14 17.5 14C16.397 14 15.5 13.103 15.5 12C15.5 10.897 16.397 10 17.5 10ZM12 8C14.206 8 16 6.206 16 4C16 1.794 14.206 0 12 0C9.794 0 8 1.794 8 4C8 6.206 9.794 8 12 8ZM12 2C13.103 2 14 2.897 14 4C14 5.103 13.103 6 12 6C10.897 6 10 5.103 10 4C10 2.897 10.897 2 12 2ZM6.5 16C8.706 16 10.5 14.206 10.5 12C10.5 9.794 8.706 8 6.5 8C4.294 8 2.5 9.794 2.5 12C2.5 14.206 4.294 16 6.5 16ZM6.5 10C7.603 10 8.5 10.897 8.5 12C8.5 13.103 7.603 14 6.5 14C5.397 14 4.5 13.103 4.5 12C4.5 10.897 5.397 10 6.5 10ZM24 21V24H22V21C22 20.062 21.364 19.283 20.489 19.066L17.506 22.523L14.483 19.076C13.624 19.303 13 20.078 13 20.999V23.999H11V20.999C11 20.061 10.364 19.282 9.49 19.065L6.506 22.522L3.483 19.075C2.624 19.302 2 20.077 2 20.998V23.998H0V20.998C0 18.85 1.686 17.099 3.839 17.011L4.317 16.991L6.495 19.474L8.636 16.993L9.11 17.006C10.276 17.038 11.296 17.563 12.003 18.368C12.7 17.577 13.7 17.056 14.839 17.01L15.317 16.99L17.495 19.473L19.636 16.992L20.11 17.005C22.292 17.065 24.001 18.818 24.001 20.996L24 21Z" fill="#8C34C7"/>
</svg>
