<svg width="85" height="124" viewBox="0 0 85 124" fill="none" xmlns="http://www.w3.org/2000/svg">
<g clip-path="url(#clip0_68_529)">
<path d="M103.333 87.8333V20.6667C103.333 9.2535 94.0798 0 82.6667 0H18.0833C8.09617 0 0 8.09617 0 18.0833V36.1667H25.8333V105.917C25.8333 115.904 33.9295 124 43.9167 124H105.917C115.904 124 124 115.904 124 105.917V87.8333H103.333ZM25.8333 25.8333H10.3333V18.0833C10.3333 13.8105 13.8105 10.3333 18.0833 10.3333C22.3562 10.3333 25.8333 13.8105 25.8333 18.0833V25.8333ZM51.6667 105.917C51.6667 110.189 48.1895 113.667 43.9167 113.667C39.6438 113.667 36.1667 110.189 36.1667 105.917V77.5H62V67.1667H36.1667V36.1667H56.8333V25.8333H36.1667V18.0833C36.1667 15.314 35.5363 12.6842 34.4203 10.3333H82.6667C88.3758 10.3333 93 14.9575 93 20.6667V46.5H72.3333V56.8333H93V87.8333H51.6667V105.917ZM113.667 105.917C113.667 110.189 110.189 113.667 105.917 113.667H60.2537C61.3697 111.316 62 108.691 62 105.917V98.1667H113.667V105.917Z" fill="#1549FB" fill-opacity="0.1"/>
</g>
<defs>
<clipPath id="clip0_68_529">
<rect width="85" height="124" fill="white"/>
</clipPath>
</defs>
</svg>
