<svg width="24" height="24" viewBox="0 0 24 24" fill="none" xmlns="http://www.w3.org/2000/svg">
<g clip-path="url(#clip0_9_8965)">
<path d="M20 17V4C20 1.791 18.209 0 16 0H3.5C1.567 0 0 1.567 0 3.5V7H5V20.5C5 22.433 6.567 24 8.5 24H20.5C22.433 24 24 22.433 24 20.5V17H20ZM5 5H2V3.5C2 2.673 2.673 2 3.5 2C4.327 2 5 2.673 5 3.5V5ZM10 20.5C10 21.327 9.327 22 8.5 22C7.673 22 7 21.327 7 20.5V15H12V13H7V7H11V5H7V3.5C7 2.964 6.878 2.455 6.662 2H16C17.105 2 18 2.895 18 4V9H14V11H18V17H10V20.5ZM22 20.5C22 21.327 21.327 22 20.5 22H11.662C11.878 21.545 12 21.037 12 20.5V19H22V20.5Z" fill="#1549FB"/>
</g>
<defs>
<clipPath id="clip0_9_8965">
<rect width="24" height="24" fill="white"/>
</clipPath>
</defs>
</svg>
