<svg width="85" height="124" viewBox="0 0 85 124" fill="none" xmlns="http://www.w3.org/2000/svg">
<g clip-path="url(#clip0_68_531)">
<path d="M85.25 0C63.519 0 46.5 10.2145 46.5 23.25V36.6162C43.9993 36.3217 41.4108 36.1667 38.75 36.1667C17.019 36.1667 0 46.3812 0 59.4167V100.75C0 113.785 17.019 124 38.75 124C56.3993 124 70.9435 117.263 75.7795 107.746C78.864 108.195 82.0157 108.5 85.25 108.5C106.981 108.5 124 98.2855 124 85.25V23.25C124 10.2145 106.981 0 85.25 0ZM85.25 10.3333C101.515 10.3333 113.667 17.1533 113.667 23.25C113.667 29.3467 101.515 36.1667 85.25 36.1667C68.9853 36.1667 56.8333 29.3467 56.8333 23.25C56.8333 17.1533 68.9853 10.3333 85.25 10.3333ZM38.75 46.5C55.0147 46.5 67.1667 53.32 67.1667 59.4167C67.1667 65.5133 55.0147 72.3333 38.75 72.3333C22.4853 72.3333 10.3333 65.5133 10.3333 59.4167C10.3333 53.32 22.4853 46.5 38.75 46.5ZM10.3333 75.3403C17.36 79.8612 27.3988 82.6667 38.75 82.6667C50.1012 82.6667 60.14 79.8612 67.1667 75.3403V80.0833C67.1667 86.18 55.0147 93 38.75 93C22.4853 93 10.3333 86.18 10.3333 80.0833V75.3403ZM38.75 113.667C22.4853 113.667 10.3333 106.847 10.3333 100.75V96.007C17.36 100.528 27.3988 103.333 38.75 103.333C50.1012 103.333 60.14 100.528 67.1667 96.007V100.75C67.1667 106.847 55.0147 113.667 38.75 113.667ZM85.25 98.1667C82.5943 98.1667 80.0213 97.9238 77.5 97.5673V87.3373C80.042 87.637 82.615 87.8333 85.25 87.8333C96.6012 87.8333 106.64 85.0278 113.667 80.507V85.25C113.667 91.3467 101.515 98.1667 85.25 98.1667ZM85.25 77.5C82.5943 77.5 80.0213 77.2572 77.5 76.9007V66.6707C80.042 66.9703 82.615 67.1667 85.25 67.1667C96.6012 67.1667 106.64 64.3612 113.667 59.8403V64.5833C113.667 70.68 101.515 77.5 85.25 77.5ZM85.25 56.8333C82.4497 56.8333 79.7423 56.5698 77.097 56.1772C76.074 51.5943 72.9172 47.4765 68.2052 44.1853C73.3305 45.6578 79.0862 46.5052 85.25 46.5052C96.6012 46.5052 106.64 43.6997 113.667 39.1788V43.9218C113.667 50.0185 101.515 56.8385 85.25 56.8385V56.8333Z" fill="#00BE0C" fill-opacity="0.1"/>
</g>
<defs>
<clipPath id="clip0_68_531">
<rect width="85" height="124" fill="white"/>
</clipPath>
</defs>
</svg>
