<svg width="24" height="24" viewBox="0 0 24 24" fill="none" xmlns="http://www.w3.org/2000/svg">
<path d="M11.9992 23.999L11.2952 23.404C9.0932 21.541 1.9082 15.076 1.9082 10.091C1.9082 4.527 6.4352 0 11.9992 0C17.5632 0 22.0902 4.527 22.0902 10.091C22.0902 15.076 14.9052 21.541 12.7032 23.404L11.9992 23.999ZM11.9992 1C6.9862 1 2.9082 5.078 2.9082 10.091C2.9082 14.763 10.4322 21.364 11.9402 22.641L11.9992 22.691L12.0582 22.641C13.5662 21.365 21.0902 14.763 21.0902 10.091C21.0902 5.078 17.0122 1 11.9992 1Z" fill="#8C34C7"/>
<path d="M12 14C9.794 14 8 12.206 8 10C8 7.794 9.794 6 12 6C14.206 6 16 7.794 16 10C16 12.206 14.206 14 12 14ZM12 7C10.346 7 9 8.346 9 10C9 11.654 10.346 13 12 13C13.654 13 15 11.654 15 10C15 8.346 13.654 7 12 7Z" fill="#8C34C7"/>
</svg>
