<svg width="24" height="24" viewBox="0 0 24 24" fill="none" xmlns="http://www.w3.org/2000/svg">
<g clip-path="url(#clip0_1258_8661)">
<path d="M20.9105 7.71307C20.3585 3.73607 17.0575 0.519074 13.0605 0.0610744C10.5555 -0.226926 8.12148 0.502074 6.20948 2.11107C4.32248 3.69907 3.15848 6.01707 3.01648 8.47107C3.00048 8.74707 3.21048 8.98407 3.48648 8.99907C3.76248 9.02107 3.99848 8.80507 4.01448 8.52907C4.14048 6.34707 5.17548 4.28707 6.85348 2.87507C8.55248 1.44607 10.7165 0.797074 12.9465 1.05507C16.4965 1.46107 19.4295 4.31907 19.9205 7.85007C20.1125 9.23707 19.9515 10.6421 19.4535 11.9131C18.9655 13.1611 17.6775 14.0001 16.2485 14.0001H13.7315C13.9025 13.7061 14.0005 13.3641 14.0005 13.0001C14.0005 11.8971 13.1035 11.0001 12.0005 11.0001C10.8975 11.0001 10.0005 11.8971 10.0005 13.0001C10.0005 14.1031 10.8975 15.0001 12.0005 15.0001H16.2485C18.0845 15.0001 19.7475 13.9061 20.3855 12.2781C20.9455 10.8461 21.1265 9.26807 20.9105 7.71307ZM11.0005 13.0001C11.0005 12.4481 11.4495 12.0001 12.0005 12.0001C12.5515 12.0001 13.0005 12.4481 13.0005 13.0001C13.0005 13.5521 12.5515 14.0001 12.0005 14.0001C11.4495 14.0001 11.0005 13.5521 11.0005 13.0001ZM16.4555 11.2721C16.8165 10.5651 17.0005 9.80107 17.0005 9.00007C17.0005 6.24307 14.7575 4.00007 12.0005 4.00007C9.24348 4.00007 7.00048 6.24307 7.00048 9.00007C7.00048 10.1591 7.40648 11.2891 8.14348 12.1821C8.31948 12.3951 8.28948 12.7101 8.07648 12.8861C7.98348 12.9631 7.87048 13.0001 7.75848 13.0001C7.61448 13.0001 7.47148 12.9381 7.37248 12.8181C6.48848 11.7471 6.00048 10.3911 6.00048 9.00007C6.00048 5.69107 8.69148 3.00007 12.0005 3.00007C15.3095 3.00007 18.0005 5.69107 18.0005 9.00007C18.0005 9.96107 17.7805 10.8791 17.3465 11.7281C17.2195 11.9741 16.9155 12.0701 16.6735 11.9461C16.4275 11.8201 16.3295 11.5171 16.4555 11.2721ZM19.9895 23.3981C20.0465 23.6691 19.8725 23.9331 19.6015 23.9891C19.3365 24.0501 19.0665 23.8731 19.0105 23.6011C18.3345 20.3551 15.3865 17.9991 11.9995 17.9991C8.61248 17.9991 5.66448 20.3541 4.98948 23.6011C4.94048 23.8371 4.73248 23.9991 4.50048 23.9991C4.46648 23.9991 4.43248 23.9961 4.39848 23.9881C4.12748 23.9321 3.95448 23.6681 4.01048 23.3971C4.78148 19.6891 8.14148 16.9991 12.0005 16.9991C15.8595 16.9991 19.2185 19.6891 19.9895 23.3971V23.3981Z" fill="#8C34C7"/>
</g>
<defs>
<clipPath id="clip0_1258_8661">
<rect width="24" height="24" fill="white"/>
</clipPath>
</defs>
</svg>
