<svg width="24" height="24" viewBox="0 0 24 24" fill="none" xmlns="http://www.w3.org/2000/svg">
<g clip-path="url(#clip0_1016_11753)">
<path d="M12 23.5C12 23.776 11.776 24 11.5 24H4.5C2.019 24 0 21.981 0 19.5V4.5C0 2.019 2.019 0 4.5 0H13.5C15.981 0 18 2.019 18 4.5V17.5C18 17.776 17.776 18 17.5 18C17.224 18 17 17.776 17 17.5V4.5C17 2.57 15.43 1 13.5 1H4.5C2.57 1 1 2.57 1 4.5V19.5C1 21.43 2.57 23 4.5 23H11.5C11.776 23 12 23.224 12 23.5ZM13.5 5H4.5C4.224 5 4 5.224 4 5.5C4 5.776 4.224 6 4.5 6H13.5C13.776 6 14 5.776 14 5.5C14 5.224 13.776 5 13.5 5ZM14 10.5C14 10.224 13.776 10 13.5 10H4.5C4.224 10 4 10.224 4 10.5C4 10.776 4.224 11 4.5 11H13.5C13.776 11 14 10.776 14 10.5ZM4.5 15C4.224 15 4 15.224 4 15.5C4 15.776 4.224 16 4.5 16H7.5C7.776 16 8 15.776 8 15.5C8 15.224 7.776 15 7.5 15H4.5ZM23.854 16.431C23.659 16.236 23.342 16.236 23.147 16.431L16.987 22.591C16.451 23.142 15.523 23.131 15.002 22.581L12.082 19.603C11.888 19.406 11.571 19.402 11.375 19.596C11.178 19.789 11.175 20.106 11.368 20.303L14.287 23.281C15.176 24.228 16.795 24.236 17.694 23.299L23.854 17.139C24.049 16.944 24.049 16.626 23.854 16.431Z" fill="#8C34C7"/>
</g>
<defs>
<clipPath id="clip0_1016_11753">
<rect width="24" height="24" fill="white"/>
</clipPath>
</defs>
</svg>
