<svg width="24" height="24" viewBox="0 0 24 24" fill="none" xmlns="http://www.w3.org/2000/svg">
<path d="M18.5 0H7.5C5.544 0 3.876 1.254 3.257 3H1.5C1.224 3 1 3.224 1 3.5C1 3.776 1.224 4 1.5 4H3.028C3.01 4.164 3 4.331 3 4.5V7H1.5C1.224 7 1 7.224 1 7.5C1 7.776 1.224 8 1.5 8H3V11.5H1.5C1.224 11.5 1 11.724 1 12C1 12.276 1.224 12.5 1.5 12.5H3V16H1.5C1.224 16 1 16.224 1 16.5C1 16.776 1.224 17 1.5 17H3V19.5C3 19.669 3.01 19.836 3.028 20H1.5C1.224 20 1 20.224 1 20.5C1 20.776 1.224 21 1.5 21H3.257C3.876 22.746 5.544 24 7.5 24H18.5C20.981 24 23 21.981 23 19.5V4.5C23 2.019 20.981 0 18.5 0ZM22 19.5C22 21.43 20.43 23 18.5 23H7.5C5.57 23 4 21.43 4 19.5V4.5C4 2.57 5.57 1 7.5 1H18.5C20.43 1 22 2.57 22 4.5V19.5ZM13 12C14.654 12 16 10.654 16 9C16 7.346 14.654 6 13 6C11.346 6 10 7.346 10 9C10 10.654 11.346 12 13 12ZM13 7C14.103 7 15 7.897 15 9C15 10.103 14.103 11 13 11C11.897 11 11 10.103 11 9C11 7.897 11.897 7 13 7ZM18 18V18.5C18 18.776 17.776 19 17.5 19C17.224 19 17 18.776 17 18.5V18C17 15.794 15.206 14 13 14C10.794 14 9 15.794 9 18V18.5C9 18.776 8.776 19 8.5 19C8.224 19 8 18.776 8 18.5V18C8 15.243 10.243 13 13 13C15.757 13 18 15.243 18 18Z" fill="#8C34C7"/>
</svg>
