<svg width="16" height="16" viewBox="0 0 16 16" fill="none" xmlns="http://www.w3.org/2000/svg">
<path d="M11.9993 7.99972C11.9961 7.64898 11.8548 7.31365 11.606 7.06639L8.74602 4.19972C8.62111 4.07555 8.45214 4.00586 8.27602 4.00586C8.09989 4.00586 7.93092 4.07555 7.80602 4.19972C7.74353 4.2617 7.69393 4.33543 7.66009 4.41667C7.62624 4.49791 7.60882 4.58505 7.60882 4.67305C7.60882 4.76106 7.62624 4.8482 7.66009 4.92944C7.69393 5.01068 7.74353 5.08441 7.80602 5.14639L9.99935 7.33305H3.33268C3.15587 7.33305 2.9863 7.40329 2.86128 7.52832C2.73625 7.65334 2.66602 7.82291 2.66602 7.99972C2.66602 8.17653 2.73625 8.3461 2.86128 8.47113C2.9863 8.59615 3.15587 8.66639 3.33268 8.66639H9.99935L7.80602 10.8597C7.68048 10.9844 7.6096 11.1538 7.60898 11.3307C7.60835 11.5076 7.67803 11.6775 7.80268 11.8031C7.92733 11.9286 8.09675 11.9995 8.27366 12.0001C8.45057 12.0007 8.62048 11.931 8.74602 11.8064L11.606 8.93972C11.8564 8.69082 11.9979 8.35277 11.9993 7.99972Z" fill="white"/>
</svg>
