<svg width="24" height="24" viewBox="0 0 24 24" fill="none" xmlns="http://www.w3.org/2000/svg">
<g clip-path="url(#clip0_1016_12074)">
<path d="M23.3914 16.207L20.9784 6.817C19.8644 2.803 16.1724 0 12.0004 0C7.59838 0 3.85538 3.002 2.90338 7.29L0.692377 16.359C0.495377 17.246 0.711377 18.164 1.28238 18.877C1.85438 19.591 2.70738 20 3.62238 20H7.10138C7.56638 22.279 9.58538 24 12.0004 24C14.4154 24 16.4344 22.279 16.8994 20H20.4984C21.4444 20 22.3154 19.568 22.8874 18.815C23.4604 18.062 23.6424 17.108 23.3914 16.207ZM12.0004 23C10.1424 23 8.58938 21.721 8.14238 20H15.8584C15.4114 21.721 13.8584 23 12.0004 23ZM22.0914 18.21C21.7104 18.712 21.1294 19 20.4984 19H3.62338C3.01338 19 2.44438 18.728 2.06338 18.252C1.68238 17.776 1.53838 17.165 1.66738 16.586L3.87738 7.517C4.72938 3.68 8.07038 1 12.0004 1C15.7244 1 19.0204 3.502 20.0124 7.075L22.4254 16.465C22.5944 17.072 22.4724 17.708 22.0914 18.21Z" fill="#8C34C7"/>
</g>
<defs>
<clipPath id="clip0_1016_12074">
<rect width="24" height="24" fill="white"/>
</clipPath>
</defs>
</svg>
